  0
SECTION
  2
HEADER
  9
$ACADVER
  1
AC1014
  9
$ACADMAINTVER
 70
     9
  9
$DWGCODEPAGE
  3
UNDEFINED
  9
$INSBASE
 10
0.0
 20
0.0
 30
0.0
  9
$EXTMIN
 10
1.000000000000000E+20
 20
1.000000000000000E+20
 30
1.000000000000000E+20
  9
$EXTMAX
 10
-1.000000000000000E+20
 20
-1.000000000000000E+20
 30
-1.000000000000000E+20
  9
$LIMMIN
 10
0.0
 20
0.0
  9
$LIMMAX
 10
12.0
 20
9.0
  9
$ORTHOMODE
 70
     0
  9
$REGENMODE
 70
     1
  9
$FILLMODE
 70
     1
  9
$QTEXTMODE
 70
     0
  9
$MIRRTEXT
 70
     1
  9
$DRAGMODE
 70
     2
  9
$LTSCALE
 40
1.0
  9
$OSMODE
 70
    37
  9
$ATTMODE
 70
     1
  9
$TEXTSIZE
 40
0.2
  9
$TRACEWID
 40
0.05
  9
$TEXTSTYLE
  7
STANDARD
  9
$CLAYER
  8
0
  9
$CELTYPE
  6
BYLAYER
  9
$CECOLOR
 62
   256
  9
$CELTSCALE
 40
1.0
  9
$DELOBJ
 70
     1
  9
$DISPSILH
 70
     0
  9
$DIMSCALE
 40
1.0
  9
$DIMASZ
 40
0.18
  9
$DIMEXO
 40
0.0625
  9
$DIMDLI
 40
0.38
  9
$DIMRND
 40
0.0
  9
$DIMDLE
 40
0.0
  9
$DIMEXE
 40
0.18
  9
$DIMTP
 40
0.0
  9
$DIMTM
 40
0.0
  9
$DIMTXT
 40
0.18
  9
$DIMCEN
 40
0.09
  9
$DIMTSZ
 40
0.0
  9
$DIMTOL
 70
     0
  9
$DIMLIM
 70
     0
  9
$DIMTIH
 70
     1
  9
$DIMTOH
 70
     1
  9
$DIMSE1
 70
     0
  9
$DIMSE2
 70
     0
  9
$DIMTAD
 70
     0
  9
$DIMZIN
 70
     0
  9
$DIMBLK
  1

  9
$DIMASO
 70
     1
  9
$DIMSHO
 70
     1
  9
$DIMPOST
  1

  9
$DIMAPOST
  1

  9
$DIMALT
 70
     0
  9
$DIMALTD
 70
     2
  9
$DIMALTF
 40
25.4
  9
$DIMLFAC
 40
1.0
  9
$DIMTOFL
 70
     0
  9
$DIMTVP
 40
0.0
  9
$DIMTIX
 70
     0
  9
$DIMSOXD
 70
     0
  9
$DIMSAH
 70
     0
  9
$DIMBLK1
  1

  9
$DIMBLK2
  1

  9
$DIMSTYLE
  2
STANDARD
  9
$DIMCLRD
 70
     0
  9
$DIMCLRE
 70
     0
  9
$DIMCLRT
 70
     0
  9
$DIMTFAC
 40
1.0
  9
$DIMGAP
 40
0.09
  9
$DIMJUST
 70
     0
  9
$DIMSD1
 70
     0
  9
$DIMSD2
 70
     0
  9
$DIMTOLJ
 70
     1
  9
$DIMTZIN
 70
     0
  9
$DIMALTZ
 70
     0
  9
$DIMALTTZ
 70
     0
  9
$DIMFIT
 70
     3
  9
$DIMUPT
 70
     0
  9
$DIMUNIT
 70
     2
  9
$DIMDEC
 70
     4
  9
$DIMTDEC
 70
     4
  9
$DIMALTU
 70
     2
  9
$DIMALTTD
 70
     2
  9
$DIMTXSTY
  7
STANDARD
  9
$DIMAUNIT
 70
     0
  9
$LUNITS
 70
     2
  9
$LUPREC
 70
     4
  9
$SKETCHINC
 40
0.1
  9
$FILLETRAD
 40
0.5
  9
$AUNITS
 70
     0
  9
$AUPREC
 70
     0
  9
$MENU
  1
.
  9
$ELEVATION
 40
0.0
  9
$PELEVATION
 40
0.0
  9
$THICKNESS
 40
0.0
  9
$LIMCHECK
 70
     0
  9
$CHAMFERA
 40
0.5
  9
$CHAMFERB
 40
0.5
  9
$CHAMFERC
 40
1.0
  9
$CHAMFERD
 40
0.0
  9
$SKPOLY
 70
     0
  9
$TDCREATE
 40
2458708.744085636
  9
$TDUPDATE
 40
2458708.744085636
  9
$TDINDWG
 40
0.0000000116
  9
$TDUSRTIMER
 40
0.0000000116
  9
$USRTIMER
 70
     1
  9
$ANGBASE
 50
0.0
  9
$ANGDIR
 70
     0
  9
$PDMODE
 70
     0
  9
$PDSIZE
 40
0.0
  9
$PLINEWID
 40
0.0
  9
$COORDS
 70
     1
  9
$SPLFRAME
 70
     0
  9
$SPLINETYPE
 70
     6
  9
$SPLINESEGS
 70
     8
  9
$ATTDIA
 70
     0
  9
$ATTREQ
 70
     1
  9
$HANDLING
 70
     1
  9
$HANDSEED
  5
EC
  9
$SURFTAB1
 70
     6
  9
$SURFTAB2
 70
     6
  9
$SURFTYPE
 70
     6
  9
$SURFU
 70
     6
  9
$SURFV
 70
     6
  9
$UCSNAME
  2

  9
$UCSORG
 10
0.0
 20
0.0
 30
0.0
  9
$UCSXDIR
 10
1.0
 20
0.0
 30
0.0
  9
$UCSYDIR
 10
0.0
 20
1.0
 30
0.0
  9
$PUCSNAME
  2

  9
$PUCSORG
 10
0.0
 20
0.0
 30
0.0
  9
$PUCSXDIR
 10
1.0
 20
0.0
 30
0.0
  9
$PUCSYDIR
 10
0.0
 20
1.0
 30
0.0
  9
$USERI1
 70
     0
  9
$USERI2
 70
     0
  9
$USERI3
 70
     0
  9
$USERI4
 70
     0
  9
$USERI5
 70
     0
  9
$USERR1
 40
0.0
  9
$USERR2
 40
0.0
  9
$USERR3
 40
0.0
  9
$USERR4
 40
0.0
  9
$USERR5
 40
0.0
  9
$WORLDVIEW
 70
     1
  9
$SHADEDGE
 70
     3
  9
$SHADEDIF
 70
    70
  9
$TILEMODE
 70
     1
  9
$MAXACTVP
 70
    64
  9
$PINSBASE
 10
0.0
 20
0.0
 30
0.0
  9
$PLIMCHECK
 70
     0
  9
$PEXTMIN
 10
1.000000000000000E+20
 20
1.000000000000000E+20
 30
1.000000000000000E+20
  9
$PEXTMAX
 10
-1.000000000000000E+20
 20
-1.000000000000000E+20
 30
-1.000000000000000E+20
  9
$PLIMMIN
 10
0.0
 20
0.0
  9
$PLIMMAX
 10
12.0
 20
9.0
  9
$UNITMODE
 70
     0
  9
$VISRETAIN
 70
     1
  9
$PLINEGEN
 70
     0
  9
$PSLTSCALE
 70
     1
  9
$TREEDEPTH
 70
  3020
  9
$PICKSTYLE
 70
     1
  9
$CMLSTYLE
  2
STANDARD
  9
$CMLJUST
 70
     0
  9
$CMLSCALE
 40
1.0
  9
$PROXYGRAPHICS
 70
     1
  9
$MEASUREMENT
 70
     0
  0
ENDSEC
  0
SECTION
  2
CLASSES
  0
CLASS
  1
ACDBDICTIONARYWDFLT
  2
AcDbDictionaryWithDefault
  3
ObjectDBX Classes
 90
        0
280
     0
281
     0
  0
CLASS
  1
VISUALSTYLE
  2
AcDbVisualStyle
  3
ObjectDBX Classes
 90
     4095
280
     0
281
     0
  0
CLASS
  1
MATERIAL
  2
AcDbMaterial
  3
ObjectDBX Classes
 90
     1153
280
     0
281
     0
  0
CLASS
  1
SUN
  2
AcDbSun
  3
SCENEOE
 90
     1024
280
     0
281
     0
  0
CLASS
  1
DICTIONARYVAR
  2
AcDbDictionaryVar
  3
ObjectDBX Classes
 90
        0
280
     0
281
     0
  0
CLASS
  1
XRECORD
  2
AcDbXrecord
  3
AutoCAD 2000
 90
        0
280
     0
281
     0
  0
CLASS
  1
LWPOLYLINE
  2
AcDbPolyline
  3
AutoCAD 2000
 90
        0
280
     0
281
     1
  0
CLASS
  1
HATCH
  2
AcDbHatch
  3
AutoCAD 2000
 90
        0
280
     0
281
     1
  0
CLASS
  1
ACDBPLACEHOLDER
  2
AcDbPlaceHolder
  3
ObjectDBX Classes
 90
        0
280
     0
281
     0
  0
CLASS
  1
LAYOUT
  2
AcDbLayout
  3
ObjectDBX Classes
 90
        0
280
     0
281
     0
  0
ENDSEC
  0
SECTION
  2
TABLES
  0
TABLE
  2
VPORT
  5
8
330
0
100
AcDbSymbolTable
 70
     1
  0
VPORT
  5
29
330
8
100
AcDbSymbolTableRecord
100
AcDbViewportTableRecord
  2
*ACTIVE
 70
     0
 10
0.0
 20
0.0
 11
1.0
 21
1.0
 12
0.0
 22
0.0
 13
0.0
 23
0.0
 14
0.5
 24
0.5
 15
0.5
 25
0.5
 16
0.0
 26
0.0
 36
1.0
 17
148.5000416295416
 27
-105.0007777515277
 37
0.0
 40
210.0015555030554
 41
1.414275634995294
 42
50.0
 43
0.0
 44
0.0
 50
0.0
 51
0.0
 71
     0
 72
   100
 73
     1
 74
     3
 75
     0
 76
     0
 77
     0
 78
     0
  0
ENDTAB
  0
TABLE
  2
LTYPE
  5
5
330
0
100
AcDbSymbolTable
 70
     1
  0
LTYPE
  5
14
330
5
100
AcDbSymbolTableRecord
100
AcDbLinetypeTableRecord
  2
BYBLOCK
 70
     0
  3

 72
    65
 73
     0
 40
0.0
  0
LTYPE
  5
15
330
5
100
AcDbSymbolTableRecord
100
AcDbLinetypeTableRecord
  2
BYLAYER
 70
     0
  3

 72
    65
 73
     0
 40
0.0
  0
LTYPE
  5
16
330
5
100
AcDbSymbolTableRecord
100
AcDbLinetypeTableRecord
  2
CONTINUOUS
 70
     0
  3
Solid line
 72
    65
 73
     0
 40
0.0
  0
ENDTAB
  0
TABLE
  2
LAYER
  5
2
330
0
100
AcDbSymbolTable
 70
    13
  0
LAYER
  5
10
330
2
100
AcDbSymbolTableRecord
100
AcDbLayerTableRecord
  2
0
 70
     0
 62
     7
  6
CONTINUOUS
  0
LAYER
  5
40
330
2
100
AcDbSymbolTableRecord
100
AcDbLayerTableRecord
  2
_U_30AD_U_30C4_U_30CD
 70
     1
 62
     7
  6
CONTINUOUS
  0
LAYER
  5
41
330
2
100
AcDbSymbolTableRecord
100
AcDbLayerTableRecord
  2
_U_30AD_U_30C4_U_30CD_U_30
 70
     1
 62
     7
  6
CONTINUOUS
  0
LAYER
  5
42
330
2
100
AcDbSymbolTableRecord
100
AcDbLayerTableRecord
  2
_U_30AD_U_30C4_U_30CD_U_31
 70
     1
 62
     7
  6
CONTINUOUS
  0
LAYER
  5
43
330
2
100
AcDbSymbolTableRecord
100
AcDbLayerTableRecord
  2
_U_30EC_U_30A4_U_30E4_U_30
 70
     1
 62
     7
  6
CONTINUOUS
  0
LAYER
  5
44
330
2
100
AcDbSymbolTableRecord
100
AcDbLayerTableRecord
  2
_U_57FA_U_677F_U_5916_U_5F
 70
     0
 62
     7
  6
CONTINUOUS
  0
LAYER
  5
BA
330
2
100
AcDbSymbolTableRecord
100
AcDbLayerTableRecord
  2
_U_30EC_U_30A4_U_30E4_U_31
 70
     4
 62
     7
  6
CONTINUOUS
  0
LAYER
  5
BB
330
2
100
AcDbSymbolTableRecord
100
AcDbLayerTableRecord
  2
_U_30EC_U_30A4_U_30E4_U_32
 70
     4
 62
     7
  6
CONTINUOUS
  0
LAYER
  5
BC
330
2
100
AcDbSymbolTableRecord
100
AcDbLayerTableRecord
  2
EYE
 70
     0
 62
     7
  6
CONTINUOUS
  0
LAYER
  5
BD
330
2
100
AcDbSymbolTableRecord
100
AcDbLayerTableRecord
  2
_U_30EC_U_30A4_U_30E4_U_33
 70
     1
 62
     7
  6
CONTINUOUS
  0
LAYER
  5
BE
330
2
100
AcDbSymbolTableRecord
100
AcDbLayerTableRecord
  2
_U_307B_U_3063_U_307A_U_FF
 70
     1
 62
     7
  6
CONTINUOUS
  0
LAYER
  5
BF
330
2
100
AcDbSymbolTableRecord
100
AcDbLayerTableRecord
  2
_U_96FB_U_6C60
 70
     5
 62
     7
  6
CONTINUOUS
  0
LAYER
  5
C0
330
2
100
AcDbSymbolTableRecord
100
AcDbLayerTableRecord
  2
_U_7A74
 70
     1
 62
     7
  6
CONTINUOUS
  0
ENDTAB
  0
TABLE
  2
STYLE
  5
3
330
0
100
AcDbSymbolTable
 70
     1
  0
STYLE
  5
11
330
3
100
AcDbSymbolTableRecord
100
AcDbTextStyleTableRecord
  2
STANDARD
 70
     0
 40
0.0
 41
1.0
 50
0.0
 71
     0
 42
0.2
  3
txt
  4

  0
ENDTAB
  0
TABLE
  2
VIEW
  5
6
330
0
100
AcDbSymbolTable
 70
     0
  0
ENDTAB
  0
TABLE
  2
UCS
  5
7
330
0
100
AcDbSymbolTable
 70
     0
  0
ENDTAB
  0
TABLE
  2
APPID
  5
9
330
0
100
AcDbSymbolTable
 70
     1
  0
APPID
  5
12
330
9
100
AcDbSymbolTableRecord
100
AcDbRegAppTableRecord
  2
ACAD
 70
     0
  0
ENDTAB
  0
TABLE
  2
DIMSTYLE
  5
A
330
0
100
AcDbSymbolTable
 70
     1
  0
DIMSTYLE
105
27
330
A
100
AcDbSymbolTableRecord
100
AcDbDimStyleTableRecord
  2
STANDARD
 70
     0
  3

  4

  5

  6

  7

 40
1.0
 41
0.18
 42
0.0625
 43
0.38
 44
0.18
 45
0.0
 46
0.0
 47
0.0
 48
0.0
140
0.18
141
0.09
142
0.0
143
25.4
144
1.0
145
0.0
146
1.0
147
0.09
 71
     0
 72
     0
 73
     1
 74
     1
 75
     0
 76
     0
 77
     0
 78
     0
170
     0
171
     2
172
     0
173
     0
174
     0
175
     0
176
     0
177
     0
178
     0
270
     2
271
     4
272
     4
273
     2
274
     2
340
11
275
     0
280
     0
281
     0
282
     0
283
     1
284
     0
285
     0
286
     0
287
     3
288
     0
  0
ENDTAB
  0
TABLE
  2
BLOCK_RECORD
  5
1
330
0
100
AcDbSymbolTable
 70
     1
  0
BLOCK_RECORD
  5
1F
330
1
100
AcDbSymbolTableRecord
100
AcDbBlockTableRecord
  2
*MODEL_SPACE
  0
BLOCK_RECORD
  5
1B
330
1
100
AcDbSymbolTableRecord
100
AcDbBlockTableRecord
  2
*PAPER_SPACE
  0
ENDTAB
  0
ENDSEC
  0
SECTION
  2
BLOCKS
  0
BLOCK
  5
20
330
1F
100
AcDbEntity
  8
0
100
AcDbBlockBegin
  2
*MODEL_SPACE
 70
     0
 10
0.0
 20
0.0
 30
0.0
  3
*MODEL_SPACE
  1

  0
ENDBLK
  5
21
330
1F
100
AcDbEntity
  8
0
100
AcDbBlockEnd
  0
BLOCK
  5
1C
330
1B
100
AcDbEntity
 67
     1
  8
0
100
AcDbBlockBegin
  2
*PAPER_SPACE
 70
     0
 10
0.0
 20
0.0
 30
0.0
  3
*PAPER_SPACE
  1

  0
ENDBLK
  5
1D
330
1B
100
AcDbEntity
 67
     1
  8
0
100
AcDbBlockEnd
  0
ENDSEC
  0
SECTION
  2
ENTITIES
  0
POLYLINE
  5
45
330
1F
100
AcDbEntity
  8
_U_57FA_U_677F_U_5916_U_5F
100
AcDb2dPolyline
 66
     1
 10
0.0
 20
0.0
 30
0.0
  0
VERTEX
  5
46
330
45
100
AcDbEntity
  8
_U_57FA_U_677F_U_5916_U_5F
100
AcDbVertex
100
AcDb2dVertex
 10
135.2689181519467
 20
44.10187309010301
 30
0.0
  0
VERTEX
  5
47
330
45
100
AcDbEntity
  8
_U_57FA_U_677F_U_5916_U_5F
100
AcDbVertex
100
AcDb2dVertex
 10
135.015083725814
 20
44.65517921979985
 30
0.0
  0
VERTEX
  5
48
330
45
100
AcDbEntity
  8
_U_57FA_U_677F_U_5916_U_5F
100
AcDbVertex
100
AcDb2dVertex
 10
134.5898590059373
 20
45.15660346506119
 30
0.0
  0
VERTEX
  5
49
330
45
100
AcDbEntity
  8
_U_57FA_U_677F_U_5916_U_5F
100
AcDbVertex
100
AcDb2dVertex
 10
134.0120688927502
 20
45.6084267921733
 30
0.0
  0
VERTEX
  5
4A
330
45
100
AcDbEntity
  8
_U_57FA_U_677F_U_5916_U_5F
100
AcDbVertex
100
AcDb2dVertex
 10
133.3005382866864
 20
46.01293016742186
 30
0.0
  0
VERTEX
  5
4B
330
45
100
AcDbEntity
  8
_U_57FA_U_677F_U_5916_U_5F
100
AcDbVertex
100
AcDb2dVertex
 10
132.4740920881796
 20
46.3723945570928
 30
0.0
  0
VERTEX
  5
4C
330
45
100
AcDbEntity
  8
_U_57FA_U_677F_U_5916_U_5F
100
AcDbVertex
100
AcDb2dVertex
 10
131.5515551976634
 20
46.68910092747212
 30
0.0
  0
VERTEX
  5
4D
330
45
100
AcDbEntity
  8
_U_57FA_U_677F_U_5916_U_5F
100
AcDbVertex
100
AcDb2dVertex
 10
130.5517525155716
 20
46.96533024484577
 30
0.0
  0
VERTEX
  5
4E
330
45
100
AcDbEntity
  8
_U_57FA_U_677F_U_5916_U_5F
100
AcDbVertex
100
AcDb2dVertex
 10
129.4935089423377
 20
47.20336347550004
 30
0.0
  0
VERTEX
  5
4F
330
45
100
AcDbEntity
  8
_U_57FA_U_677F_U_5916_U_5F
100
AcDbVertex
100
AcDb2dVertex
 10
128.3956493783956
 20
47.40548158572058
 30
0.0
  0
VERTEX
  5
50
330
45
100
AcDbEntity
  8
_U_57FA_U_677F_U_5916_U_5F
100
AcDbVertex
100
AcDb2dVertex
 10
127.2769987241788
 20
47.57396554179304
 30
0.0
  0
VERTEX
  5
51
330
45
100
AcDbEntity
  8
_U_57FA_U_677F_U_5916_U_5F
100
AcDbVertex
100
AcDb2dVertex
 10
126.1563818801211
 20
47.71109631000371
 30
0.0
  0
VERTEX
  5
52
330
45
100
AcDbEntity
  8
_U_57FA_U_677F_U_5916_U_5F
100
AcDbVertex
100
AcDb2dVertex
 10
125.0526237466562
 20
47.81915485663855
 30
0.0
  0
VERTEX
  5
53
330
45
100
AcDbEntity
  8
_U_57FA_U_677F_U_5916_U_5F
100
AcDbVertex
100
AcDb2dVertex
 10
123.9845492242177
 20
47.90042214798353
 30
0.0
  0
VERTEX
  5
54
330
45
100
AcDbEntity
  8
_U_57FA_U_677F_U_5916_U_5F
100
AcDbVertex
100
AcDb2dVertex
 10
122.9709832132393
 20
47.95717915032463
 30
0.0
  0
VERTEX
  5
55
330
45
100
AcDbEntity
  8
_U_57FA_U_677F_U_5916_U_5F
100
AcDbVertex
100
AcDb2dVertex
 10
122.0307506141546
 20
47.99170682994748
 30
0.0
  0
VERTEX
  5
56
330
45
100
AcDbEntity
  8
_U_57FA_U_677F_U_5916_U_5F
100
AcDbVertex
100
AcDb2dVertex
 10
121.1826763273975
 20
48.00628615313838
 30
0.0
  0
VERTEX
  5
57
330
45
100
AcDbEntity
  8
_U_57FA_U_677F_U_5916_U_5F
100
AcDbVertex
100
AcDb2dVertex
 10
121.0895401822049
 20
47.99906026827049
 30
0.0
  0
VERTEX
  5
58
330
45
100
AcDbEntity
  8
_U_57FA_U_677F_U_5916_U_5F
100
AcDbVertex
100
AcDb2dVertex
 10
121.0047360101158
 20
47.97718169882697
 30
0.0
  0
VERTEX
  5
59
330
45
100
AcDbEntity
  8
_U_57FA_U_677F_U_5916_U_5F
100
AcDbVertex
100
AcDb2dVertex
 10
120.9287030166477
 20
47.94232327374994
 30
0.0
  0
VERTEX
  5
5A
330
45
100
AcDbEntity
  8
_U_57FA_U_677F_U_5916_U_5F
100
AcDbVertex
100
AcDb2dVertex
 10
120.8618804073176
 20
47.89615782198153
 30
0.0
  0
VERTEX
  5
5B
330
45
100
AcDbEntity
  8
_U_57FA_U_677F_U_5916_U_5F
100
AcDbVertex
100
AcDb2dVertex
 10
120.8047073876429
 20
47.84035817246383
 30
0.0
  0
VERTEX
  5
5C
330
45
100
AcDbEntity
  8
_U_57FA_U_677F_U_5916_U_5F
100
AcDbVertex
100
AcDb2dVertex
 10
120.7576231631408
 20
47.77659715413898
 30
0.0
  0
VERTEX
  5
5D
330
45
100
AcDbEntity
  8
_U_57FA_U_677F_U_5916_U_5F
100
AcDbVertex
100
AcDb2dVertex
 10
120.7210669393287
 20
47.7065475959491
 30
0.0
  0
VERTEX
  5
5E
330
45
100
AcDbEntity
  8
_U_57FA_U_677F_U_5916_U_5F
100
AcDbVertex
100
AcDb2dVertex
 10
120.6954779217237
 20
47.63188232683631
 30
0.0
  0
VERTEX
  5
5F
330
45
100
AcDbEntity
  8
_U_57FA_U_677F_U_5916_U_5F
100
AcDbVertex
100
AcDb2dVertex
 10
120.6812953158431
 20
47.55427417574272
 30
0.0
  0
VERTEX
  5
60
330
45
100
AcDbEntity
  8
_U_57FA_U_677F_U_5916_U_5F
100
AcDbVertex
100
AcDb2dVertex
 10
120.6789583272041
 20
47.47539597161045
 30
0.0
  0
VERTEX
  5
61
330
45
100
AcDbEntity
  8
_U_57FA_U_677F_U_5916_U_5F
100
AcDbVertex
100
AcDb2dVertex
 10
120.6889061613242
 20
47.39692054338163
 30
0.0
  0
VERTEX
  5
62
330
45
100
AcDbEntity
  8
_U_57FA_U_677F_U_5916_U_5F
100
AcDbVertex
100
AcDb2dVertex
 10
120.7115780237204
 20
47.32052071999836
 30
0.0
  0
VERTEX
  5
63
330
45
100
AcDbEntity
  8
_U_57FA_U_677F_U_5916_U_5F
100
AcDbVertex
100
AcDb2dVertex
 10
120.7474131199101
 20
47.24786933040277
 30
0.0
  0
VERTEX
  5
64
330
45
100
AcDbEntity
  8
_U_57FA_U_677F_U_5916_U_5F
100
AcDbVertex
100
AcDb2dVertex
 10
120.7968506554105
 20
47.18063920353699
 30
0.0
  0
VERTEX
  5
65
330
45
100
AcDbEntity
  8
_U_57FA_U_677F_U_5916_U_5F
100
AcDbVertex
100
AcDb2dVertex
 10
120.8603298357389
 20
47.12050316834312
 30
0.0
  0
VERTEX
  5
66
330
45
100
AcDbEntity
  8
_U_57FA_U_677F_U_5916_U_5F
100
AcDbVertex
100
AcDb2dVertex
 10
120.9382898664126
 20
47.06913405376329
 30
0.0
  0
VERTEX
  5
67
330
45
100
AcDbEntity
  8
_U_57FA_U_677F_U_5916_U_5F
100
AcDbVertex
100
AcDb2dVertex
 10
121.2107080268327
 20
46.91389110236879
 30
0.0
  0
VERTEX
  5
68
330
45
100
AcDbEntity
  8
_U_57FA_U_677F_U_5916_U_5F
100
AcDbVertex
100
AcDb2dVertex
 10
121.4913051559783
 20
46.74018382030841
 30
0.0
  0
VERTEX
  5
69
330
45
100
AcDbEntity
  8
_U_57FA_U_677F_U_5916_U_5F
100
AcDbVertex
100
AcDb2dVertex
 10
121.7782438765998
 20
46.54912840529212
 30
0.0
  0
VERTEX
  5
6A
330
45
100
AcDbEntity
  8
_U_57FA_U_677F_U_5916_U_5F
100
AcDbVertex
100
AcDb2dVertex
 10
122.0696868114473
 20
46.34184105503051
 30
0.0
  0
VERTEX
  5
6B
330
45
100
AcDbEntity
  8
_U_57FA_U_677F_U_5916_U_5F
100
AcDbVertex
100
AcDb2dVertex
 10
122.3637965832712
 20
46.11943796723386
 30
0.0
  0
VERTEX
  5
6C
330
45
100
AcDbEntity
  8
_U_57FA_U_677F_U_5916_U_5F
100
AcDbVertex
100
AcDb2dVertex
 10
122.6587358148216
 20
45.88303533961243
 30
0.0
  0
VERTEX
  5
6D
330
45
100
AcDbEntity
  8
_U_57FA_U_677F_U_5916_U_5F
100
AcDbVertex
100
AcDb2dVertex
 10
122.952667128849
 20
45.63374936987653
 30
0.0
  0
VERTEX
  5
6E
330
45
100
AcDbEntity
  8
_U_57FA_U_677F_U_5916_U_5F
100
AcDbVertex
100
AcDb2dVertex
 10
123.2437531481035
 20
45.37269625573608
 30
0.0
  0
VERTEX
  5
6F
330
45
100
AcDbEntity
  8
_U_57FA_U_677F_U_5916_U_5F
100
AcDbVertex
100
AcDb2dVertex
 10
123.5301564953353
 20
45.1009921949017
 30
0.0
  0
VERTEX
  5
70
330
45
100
AcDbEntity
  8
_U_57FA_U_677F_U_5916_U_5F
100
AcDbVertex
100
AcDb2dVertex
 10
123.8100397932949
 20
44.81975338508398
 30
0.0
  0
VERTEX
  5
71
330
45
100
AcDbEntity
  8
_U_57FA_U_677F_U_5916_U_5F
100
AcDbVertex
100
AcDb2dVertex
 10
124.0815656647323
 20
44.53009602399288
 30
0.0
  0
VERTEX
  5
72
330
45
100
AcDbEntity
  8
_U_57FA_U_677F_U_5916_U_5F
100
AcDbVertex
100
AcDb2dVertex
 10
124.342896732398
 20
44.23313630933867
 30
0.0
  0
VERTEX
  5
73
330
45
100
AcDbEntity
  8
_U_57FA_U_677F_U_5916_U_5F
100
AcDbVertex
100
AcDb2dVertex
 10
124.5921956190421
 20
43.92999043883162
 30
0.0
  0
VERTEX
  5
74
330
45
100
AcDbEntity
  8
_U_57FA_U_677F_U_5916_U_5F
100
AcDbVertex
100
AcDb2dVertex
 10
124.8276249474149
 20
43.62177461018203
 30
0.0
  0
VERTEX
  5
75
330
45
100
AcDbEntity
  8
_U_57FA_U_677F_U_5916_U_5F
100
AcDbVertex
100
AcDb2dVertex
 10
125.0473473402667
 20
43.30960502110048
 30
0.0
  0
VERTEX
  5
76
330
45
100
AcDbEntity
  8
_U_57FA_U_677F_U_5916_U_5F
100
AcDbVertex
100
AcDb2dVertex
 10
125.2495254203478
 20
42.99459786929692
 30
0.0
  0
VERTEX
  5
77
330
45
100
AcDbEntity
  8
_U_57FA_U_677F_U_5916_U_5F
100
AcDbVertex
100
AcDb2dVertex
 10
125.2886972326074
 20
42.78176632977222
 30
0.0
  0
VERTEX
  5
78
330
45
100
AcDbEntity
  8
_U_57FA_U_677F_U_5916_U_5F
100
AcDbVertex
100
AcDb2dVertex
 10
125.327869044867
 20
42.56893479024752
 30
0.0
  0
VERTEX
  5
79
330
45
100
AcDbEntity
  8
_U_57FA_U_677F_U_5916_U_5F
100
AcDbVertex
100
AcDb2dVertex
 10
125.3670408571267
 20
42.35610325072282
 30
0.0
  0
VERTEX
  5
7A
330
45
100
AcDbEntity
  8
_U_57FA_U_677F_U_5916_U_5F
100
AcDbVertex
100
AcDb2dVertex
 10
125.4062126693863
 20
42.14327171119812
 30
0.0
  0
VERTEX
  5
7B
330
45
100
AcDbEntity
  8
_U_57FA_U_677F_U_5916_U_5F
100
AcDbVertex
100
AcDb2dVertex
 10
125.4453844816459
 20
41.93044017167342
 30
0.0
  0
VERTEX
  5
7C
330
45
100
AcDbEntity
  8
_U_57FA_U_677F_U_5916_U_5F
100
AcDbVertex
100
AcDb2dVertex
 10
125.4845562939056
 20
41.71760863214872
 30
0.0
  0
VERTEX
  5
7D
330
45
100
AcDbEntity
  8
_U_57FA_U_677F_U_5916_U_5F
100
AcDbVertex
100
AcDb2dVertex
 10
125.5237281061652
 20
41.50477709262402
 30
0.0
  0
VERTEX
  5
7E
330
45
100
AcDbEntity
  8
_U_57FA_U_677F_U_5916_U_5F
100
AcDbVertex
100
AcDb2dVertex
 10
125.5628999184248
 20
41.29194555309932
 30
0.0
  0
VERTEX
  5
7F
330
45
100
AcDbEntity
  8
_U_57FA_U_677F_U_5916_U_5F
100
AcDbVertex
100
AcDb2dVertex
 10
125.6020717306844
 20
41.07911401357462
 30
0.0
  0
VERTEX
  5
80
330
45
100
AcDbEntity
  8
_U_57FA_U_677F_U_5916_U_5F
100
AcDbVertex
100
AcDb2dVertex
 10
125.6412435429441
 20
40.86628247404992
 30
0.0
  0
VERTEX
  5
81
330
45
100
AcDbEntity
  8
_U_57FA_U_677F_U_5916_U_5F
100
AcDbVertex
100
AcDb2dVertex
 10
125.6804153552037
 20
40.65345093452522
 30
0.0
  0
VERTEX
  5
82
330
45
100
AcDbEntity
  8
_U_57FA_U_677F_U_5916_U_5F
100
AcDbVertex
100
AcDb2dVertex
 10
125.7195871674633
 20
40.44061939500052
 30
0.0
  0
VERTEX
  5
83
330
45
100
AcDbEntity
  8
_U_57FA_U_677F_U_5916_U_5F
100
AcDbVertex
100
AcDb2dVertex
 10
125.758758979723
 20
40.22778785547582
 30
0.0
  0
VERTEX
  5
84
330
45
100
AcDbEntity
  8
_U_57FA_U_677F_U_5916_U_5F
100
AcDbVertex
100
AcDb2dVertex
 10
125.7979307919826
 20
40.01495631595112
 30
0.0
  0
VERTEX
  5
85
330
45
100
AcDbEntity
  8
_U_57FA_U_677F_U_5916_U_5F
100
AcDbVertex
100
AcDb2dVertex
 10
125.8371026042422
 20
39.80212477642642
 30
0.0
  0
VERTEX
  5
86
330
45
100
AcDbEntity
  8
_U_57FA_U_677F_U_5916_U_5F
100
AcDbVertex
100
AcDb2dVertex
 10
125.8762744165019
 20
39.58929323690172
 30
0.0
  0
VERTEX
  5
87
330
45
100
AcDbEntity
  8
_U_57FA_U_677F_U_5916_U_5F
100
AcDbVertex
100
AcDb2dVertex
 10
125.7989738144063
 20
39.23543775243171
 30
0.0
  0
VERTEX
  5
88
330
45
100
AcDbEntity
  8
_U_57FA_U_677F_U_5916_U_5F
100
AcDbVertex
100
AcDb2dVertex
 10
125.7039472245828
 20
38.87757974156023
 30
0.0
  0
VERTEX
  5
89
330
45
100
AcDbEntity
  8
_U_57FA_U_677F_U_5916_U_5F
100
AcDbVertex
100
AcDb2dVertex
 10
125.5928498446712
 20
38.51713109626391
 30
0.0
  0
VERTEX
  5
8A
330
45
100
AcDbEntity
  8
_U_57FA_U_677F_U_5916_U_5F
100
AcDbVertex
100
AcDb2dVertex
 10
125.4673368723112
 20
38.1555037085194
 30
0.0
  0
VERTEX
  5
8B
330
45
100
AcDbEntity
  8
_U_57FA_U_677F_U_5916_U_5F
100
AcDbVertex
100
AcDb2dVertex
 10
125.3290635051428
 20
37.79410947030333
 30
0.0
  0
VERTEX
  5
8C
330
45
100
AcDbEntity
  8
_U_57FA_U_677F_U_5916_U_5F
100
AcDbVertex
100
AcDb2dVertex
 10
125.1796849408059
 20
37.43436027359234
 30
0.0
  0
VERTEX
  5
8D
330
45
100
AcDbEntity
  8
_U_57FA_U_677F_U_5916_U_5F
100
AcDbVertex
100
AcDb2dVertex
 10
125.0208563769402
 20
37.07766801036308
 30
0.0
  0
VERTEX
  5
8E
330
45
100
AcDbEntity
  8
_U_57FA_U_677F_U_5916_U_5F
100
AcDbVertex
100
AcDb2dVertex
 10
124.8542330111855
 20
36.72544457259219
 30
0.0
  0
VERTEX
  5
8F
330
45
100
AcDbEntity
  8
_U_57FA_U_677F_U_5916_U_5F
100
AcDbVertex
100
AcDb2dVertex
 10
124.6814700411819
 20
36.37910185225629
 30
0.0
  0
VERTEX
  5
90
330
45
100
AcDbEntity
  8
_U_57FA_U_677F_U_5916_U_5F
100
AcDbVertex
100
AcDb2dVertex
 10
124.504222664569
 20
36.04005174133204
 30
0.0
  0
VERTEX
  5
91
330
45
100
AcDbEntity
  8
_U_57FA_U_677F_U_5916_U_5F
100
AcDbVertex
100
AcDb2dVertex
 10
124.3241460789867
 20
35.70970613179607
 30
0.0
  0
VERTEX
  5
92
330
45
100
AcDbEntity
  8
_U_57FA_U_677F_U_5916_U_5F
100
AcDbVertex
100
AcDb2dVertex
 10
124.142895482075
 20
35.38947691562502
 30
0.0
  0
VERTEX
  5
93
330
45
100
AcDbEntity
  8
_U_57FA_U_677F_U_5916_U_5F
100
AcDbVertex
100
AcDb2dVertex
 10
123.9621260714735
 20
35.08077598479552
 30
0.0
  0
VERTEX
  5
94
330
45
100
AcDbEntity
  8
_U_57FA_U_677F_U_5916_U_5F
100
AcDbVertex
100
AcDb2dVertex
 10
123.7834930448223
 20
34.78501523128423
 30
0.0
  0
VERTEX
  5
95
330
45
100
AcDbEntity
  8
_U_57FA_U_677F_U_5916_U_5F
100
AcDbVertex
100
AcDb2dVertex
 10
123.608651599761
 20
34.50360654706778
 30
0.0
  0
VERTEX
  5
96
330
45
100
AcDbEntity
  8
_U_57FA_U_677F_U_5916_U_5F
100
AcDbVertex
100
AcDb2dVertex
 10
123.4392569339297
 20
34.23796182412281
 30
0.0
  0
VERTEX
  5
97
330
45
100
AcDbEntity
  8
_U_57FA_U_677F_U_5916_U_5F
100
AcDbVertex
100
AcDb2dVertex
 10
123.3963964051137
 20
34.15776054162507
 30
0.0
  0
VERTEX
  5
98
330
45
100
AcDbEntity
  8
_U_57FA_U_677F_U_5916_U_5F
100
AcDbVertex
100
AcDb2dVertex
 10
123.3695351318714
 20
34.07661637871564
 30
0.0
  0
VERTEX
  5
99
330
45
100
AcDbEntity
  8
_U_57FA_U_677F_U_5916_U_5F
100
AcDbVertex
100
AcDb2dVertex
 10
123.3576050168501
 20
33.99573677996267
 30
0.0
  0
VERTEX
  5
9A
330
45
100
AcDbEntity
  8
_U_57FA_U_677F_U_5916_U_5F
100
AcDbVertex
100
AcDb2dVertex
 10
123.3595379626972
 20
33.91632918993434
 30
0.0
  0
VERTEX
  5
9B
330
45
100
AcDbEntity
  8
_U_57FA_U_677F_U_5916_U_5F
100
AcDbVertex
100
AcDb2dVertex
 10
123.3742658720598
 20
33.83960105319883
 30
0.0
  0
VERTEX
  5
9C
330
45
100
AcDbEntity
  8
_U_57FA_U_677F_U_5916_U_5F
100
AcDbVertex
100
AcDb2dVertex
 10
123.4007206475853
 20
33.7667598143243
 30
0.0
  0
VERTEX
  5
9D
330
45
100
AcDbEntity
  8
_U_57FA_U_677F_U_5916_U_5F
100
AcDbVertex
100
AcDb2dVertex
 10
123.4378341919209
 20
33.69901291787892
 30
0.0
  0
VERTEX
  5
9E
330
45
100
AcDbEntity
  8
_U_57FA_U_677F_U_5916_U_5F
100
AcDbVertex
100
AcDb2dVertex
 10
123.4845384077139
 20
33.63756780843089
 30
0.0
  0
VERTEX
  5
9F
330
45
100
AcDbEntity
  8
_U_57FA_U_677F_U_5916_U_5F
100
AcDbVertex
100
AcDb2dVertex
 10
123.5397651976117
 20
33.58363193054836
 30
0.0
  0
VERTEX
  5
A0
330
45
100
AcDbEntity
  8
_U_57FA_U_677F_U_5916_U_5F
100
AcDbVertex
100
AcDb2dVertex
 10
123.6024464642615
 20
33.5384127287995
 30
0.0
  0
VERTEX
  5
A1
330
45
100
AcDbEntity
  8
_U_57FA_U_677F_U_5916_U_5F
100
AcDbVertex
100
AcDb2dVertex
 10
123.6715141103106
 20
33.5031176477525
 30
0.0
  0
VERTEX
  5
A2
330
45
100
AcDbEntity
  8
_U_57FA_U_677F_U_5916_U_5F
100
AcDbVertex
100
AcDb2dVertex
 10
123.7459000384062
 20
33.47895413197552
 30
0.0
  0
VERTEX
  5
A3
330
45
100
AcDbEntity
  8
_U_57FA_U_677F_U_5916_U_5F
100
AcDbVertex
100
AcDb2dVertex
 10
123.8245361511958
 20
33.46712962603674
 30
0.0
  0
VERTEX
  5
A4
330
45
100
AcDbEntity
  8
_U_57FA_U_677F_U_5916_U_5F
100
AcDbVertex
100
AcDb2dVertex
 10
123.9063543513264
 20
33.46885157450433
 30
0.0
  0
VERTEX
  5
A5
330
45
100
AcDbEntity
  8
_U_57FA_U_677F_U_5916_U_5F
100
AcDbVertex
100
AcDb2dVertex
 10
123.9902865414455
 20
33.48532742194647
 30
0.0
  0
VERTEX
  5
A6
330
45
100
AcDbEntity
  8
_U_57FA_U_677F_U_5916_U_5F
100
AcDbVertex
100
AcDb2dVertex
 10
124.0752646242004
 20
33.51776461293132
 30
0.0
  0
VERTEX
  5
A7
330
45
100
AcDbEntity
  8
_U_57FA_U_677F_U_5916_U_5F
100
AcDbVertex
100
AcDb2dVertex
 10
124.8286234920663
 20
33.88572251082034
 30
0.0
  0
VERTEX
  5
A8
330
45
100
AcDbEntity
  8
_U_57FA_U_677F_U_5916_U_5F
100
AcDbVertex
100
AcDb2dVertex
 10
125.675132693224
 20
34.31555587122594
 30
0.0
  0
VERTEX
  5
A9
330
45
100
AcDbEntity
  8
_U_57FA_U_677F_U_5916_U_5F
100
AcDbVertex
100
AcDb2dVertex
 10
126.5932955699001
 20
34.80239277737839
 30
0.0
  0
VERTEX
  5
AA
330
45
100
AcDbEntity
  8
_U_57FA_U_677F_U_5916_U_5F
100
AcDbVertex
100
AcDb2dVertex
 10
127.5616154643212
 20
35.34136131250798
 30
0.0
  0
VERTEX
  5
AB
330
45
100
AcDbEntity
  8
_U_57FA_U_677F_U_5916_U_5F
100
AcDbVertex
100
AcDb2dVertex
 10
128.5585957187138
 20
35.92758955984499
 30
0.0
  0
VERTEX
  5
AC
330
45
100
AcDbEntity
  8
_U_57FA_U_677F_U_5916_U_5F
100
AcDbVertex
100
AcDb2dVertex
 10
129.5627396753044
 20
36.55620560261971
 30
0.0
  0
VERTEX
  5
AD
330
45
100
AcDbEntity
  8
_U_57FA_U_677F_U_5916_U_5F
100
AcDbVertex
100
AcDb2dVertex
 10
130.5525506763197
 20
37.22233752406243
 30
0.0
  0
VERTEX
  5
AE
330
45
100
AcDbEntity
  8
_U_57FA_U_677F_U_5916_U_5F
100
AcDbVertex
100
AcDb2dVertex
 10
131.5065320639862
 20
37.9211134074034
 30
0.0
  0
VERTEX
  5
AF
330
45
100
AcDbEntity
  8
_U_57FA_U_677F_U_5916_U_5F
100
AcDbVertex
100
AcDb2dVertex
 10
132.4031871805304
 20
38.64766133587294
 30
0.0
  0
VERTEX
  5
B0
330
45
100
AcDbEntity
  8
_U_57FA_U_677F_U_5916_U_5F
100
AcDbVertex
100
AcDb2dVertex
 10
133.2210193681788
 20
39.39710939270132
 30
0.0
  0
VERTEX
  5
B1
330
45
100
AcDbEntity
  8
_U_57FA_U_677F_U_5916_U_5F
100
AcDbVertex
100
AcDb2dVertex
 10
133.9385319691581
 20
40.16458566111881
 30
0.0
  0
VERTEX
  5
B2
330
45
100
AcDbEntity
  8
_U_57FA_U_677F_U_5916_U_5F
100
AcDbVertex
100
AcDb2dVertex
 10
134.5342283256948
 20
40.94521822435571
 30
0.0
  0
VERTEX
  5
B3
330
45
100
AcDbEntity
  8
_U_57FA_U_677F_U_5916_U_5F
100
AcDbVertex
100
AcDb2dVertex
 10
134.9866117800155
 20
41.7341351656423
 30
0.0
  0
VERTEX
  5
B4
330
45
100
AcDbEntity
  8
_U_57FA_U_677F_U_5916_U_5F
100
AcDbVertex
100
AcDb2dVertex
 10
135.2741856743466
 20
42.52646456820885
 30
0.0
  0
VERTEX
  5
B5
330
45
100
AcDbEntity
  8
_U_57FA_U_677F_U_5916_U_5F
100
AcDbVertex
100
AcDb2dVertex
 10
135.3754533509149
 20
43.31733451528567
 30
0.0
  0
VERTEX
  5
B6
330
45
100
AcDbEntity
  8
_U_57FA_U_677F_U_5916_U_5F
100
AcDbVertex
100
AcDb2dVertex
 10
135.2689181519467
 20
44.10187309010301
 30
0.0
  0
VERTEX
  5
B7
330
45
100
AcDbEntity
  8
_U_57FA_U_677F_U_5916_U_5F
100
AcDbVertex
100
AcDb2dVertex
 10
135.2689181519467
 20
44.10187309010301
 30
0.0
  0
SEQEND
  5
B9
330
45
100
AcDbEntity
  8
_U_57FA_U_677F_U_5916_U_5F
  0
HATCH
  5
B8
330
1F
100
AcDbEntity
  8
_U_57FA_U_677F_U_5916_U_5F
 62
   254
100
AcDbHatch
 10
0.0
 20
0.0
 30
0.0
210
0.0
220
0.0
230
1.0
  2
SOLID
 70
     1
 71
     0
 91
        1
 92
        1
 93
      112
 72
     1
 10
135.2689181519467
 20
44.10187309010301
 11
135.015083725814
 21
44.65517921979985
 72
     1
 10
135.015083725814
 20
44.65517921979985
 11
134.5898590059373
 21
45.15660346506119
 72
     1
 10
134.5898590059373
 20
45.15660346506119
 11
134.0120688927502
 21
45.6084267921733
 72
     1
 10
134.0120688927502
 20
45.6084267921733
 11
133.3005382866864
 21
46.01293016742186
 72
     1
 10
133.3005382866864
 20
46.01293016742186
 11
132.4740920881796
 21
46.3723945570928
 72
     1
 10
132.4740920881796
 20
46.3723945570928
 11
131.5515551976634
 21
46.68910092747212
 72
     1
 10
131.5515551976634
 20
46.68910092747212
 11
130.5517525155716
 21
46.96533024484577
 72
     1
 10
130.5517525155716
 20
46.96533024484577
 11
129.4935089423377
 21
47.20336347550004
 72
     1
 10
129.4935089423377
 20
47.20336347550004
 11
128.3956493783956
 21
47.40548158572058
 72
     1
 10
128.3956493783956
 20
47.40548158572058
 11
127.2769987241788
 21
47.57396554179304
 72
     1
 10
127.2769987241788
 20
47.57396554179304
 11
126.1563818801211
 21
47.71109631000371
 72
     1
 10
126.1563818801211
 20
47.71109631000371
 11
125.0526237466562
 21
47.81915485663855
 72
     1
 10
125.0526237466562
 20
47.81915485663855
 11
123.9845492242177
 21
47.90042214798353
 72
     1
 10
123.9845492242177
 20
47.90042214798353
 11
122.9709832132393
 21
47.95717915032463
 72
     1
 10
122.9709832132393
 20
47.95717915032463
 11
122.0307506141546
 21
47.99170682994748
 72
     1
 10
122.0307506141546
 20
47.99170682994748
 11
121.1826763273975
 21
48.00628615313838
 72
     1
 10
121.1826763273975
 20
48.00628615313838
 11
121.0895401822049
 21
47.99906026827049
 72
     1
 10
121.0895401822049
 20
47.99906026827049
 11
121.0047360101158
 21
47.97718169882697
 72
     1
 10
121.0047360101158
 20
47.97718169882697
 11
120.9287030166477
 21
47.94232327374994
 72
     1
 10
120.9287030166477
 20
47.94232327374994
 11
120.8618804073176
 21
47.89615782198153
 72
     1
 10
120.8618804073176
 20
47.89615782198153
 11
120.8047073876429
 21
47.84035817246383
 72
     1
 10
120.8047073876429
 20
47.84035817246383
 11
120.7576231631408
 21
47.77659715413898
 72
     1
 10
120.7576231631408
 20
47.77659715413898
 11
120.7210669393287
 21
47.7065475959491
 72
     1
 10
120.7210669393287
 20
47.7065475959491
 11
120.6954779217237
 21
47.63188232683631
 72
     1
 10
120.6954779217237
 20
47.63188232683631
 11
120.6812953158431
 21
47.55427417574272
 72
     1
 10
120.6812953158431
 20
47.55427417574272
 11
120.6789583272041
 21
47.47539597161045
 72
     1
 10
120.6789583272041
 20
47.47539597161045
 11
120.6889061613242
 21
47.39692054338163
 72
     1
 10
120.6889061613242
 20
47.39692054338163
 11
120.7115780237204
 21
47.32052071999836
 72
     1
 10
120.7115780237204
 20
47.32052071999836
 11
120.7474131199101
 21
47.24786933040277
 72
     1
 10
120.7474131199101
 20
47.24786933040277
 11
120.7968506554105
 21
47.18063920353699
 72
     1
 10
120.7968506554105
 20
47.18063920353699
 11
120.8603298357389
 21
47.12050316834312
 72
     1
 10
120.8603298357389
 20
47.12050316834312
 11
120.9382898664126
 21
47.06913405376329
 72
     1
 10
120.9382898664126
 20
47.06913405376329
 11
121.2107080268327
 21
46.91389110236879
 72
     1
 10
121.2107080268327
 20
46.91389110236879
 11
121.4913051559783
 21
46.74018382030841
 72
     1
 10
121.4913051559783
 20
46.74018382030841
 11
121.7782438765998
 21
46.54912840529212
 72
     1
 10
121.7782438765998
 20
46.54912840529212
 11
122.0696868114473
 21
46.34184105503051
 72
     1
 10
122.0696868114473
 20
46.34184105503051
 11
122.3637965832712
 21
46.11943796723386
 72
     1
 10
122.3637965832712
 20
46.11943796723386
 11
122.6587358148216
 21
45.88303533961243
 72
     1
 10
122.6587358148216
 20
45.88303533961243
 11
122.952667128849
 21
45.63374936987653
 72
     1
 10
122.952667128849
 20
45.63374936987653
 11
123.2437531481035
 21
45.37269625573608
 72
     1
 10
123.2437531481035
 20
45.37269625573608
 11
123.5301564953353
 21
45.1009921949017
 72
     1
 10
123.5301564953353
 20
45.1009921949017
 11
123.8100397932949
 21
44.81975338508398
 72
     1
 10
123.8100397932949
 20
44.81975338508398
 11
124.0815656647323
 21
44.53009602399288
 72
     1
 10
124.0815656647323
 20
44.53009602399288
 11
124.342896732398
 21
44.23313630933867
 72
     1
 10
124.342896732398
 20
44.23313630933867
 11
124.5921956190421
 21
43.92999043883162
 72
     1
 10
124.5921956190421
 20
43.92999043883162
 11
124.8276249474149
 21
43.62177461018203
 72
     1
 10
124.8276249474149
 20
43.62177461018203
 11
125.0473473402667
 21
43.30960502110048
 72
     1
 10
125.0473473402667
 20
43.30960502110048
 11
125.2495254203478
 21
42.99459786929692
 72
     1
 10
125.2495254203478
 20
42.99459786929692
 11
125.2886972326074
 21
42.78176632977222
 72
     1
 10
125.2886972326074
 20
42.78176632977222
 11
125.327869044867
 21
42.56893479024752
 72
     1
 10
125.327869044867
 20
42.56893479024752
 11
125.3670408571267
 21
42.35610325072282
 72
     1
 10
125.3670408571267
 20
42.35610325072282
 11
125.4062126693863
 21
42.14327171119812
 72
     1
 10
125.4062126693863
 20
42.14327171119812
 11
125.4453844816459
 21
41.93044017167342
 72
     1
 10
125.4453844816459
 20
41.93044017167342
 11
125.4845562939056
 21
41.71760863214872
 72
     1
 10
125.4845562939056
 20
41.71760863214872
 11
125.5237281061652
 21
41.50477709262402
 72
     1
 10
125.5237281061652
 20
41.50477709262402
 11
125.5628999184248
 21
41.29194555309932
 72
     1
 10
125.5628999184248
 20
41.29194555309932
 11
125.6020717306844
 21
41.07911401357462
 72
     1
 10
125.6020717306844
 20
41.07911401357462
 11
125.6412435429441
 21
40.86628247404992
 72
     1
 10
125.6412435429441
 20
40.86628247404992
 11
125.6804153552037
 21
40.65345093452522
 72
     1
 10
125.6804153552037
 20
40.65345093452522
 11
125.7195871674633
 21
40.44061939500052
 72
     1
 10
125.7195871674633
 20
40.44061939500052
 11
125.758758979723
 21
40.22778785547582
 72
     1
 10
125.758758979723
 20
40.22778785547582
 11
125.7979307919826
 21
40.01495631595112
 72
     1
 10
125.7979307919826
 20
40.01495631595112
 11
125.8371026042422
 21
39.80212477642642
 72
     1
 10
125.8371026042422
 20
39.80212477642642
 11
125.8762744165019
 21
39.58929323690172
 72
     1
 10
125.8762744165019
 20
39.58929323690172
 11
125.7989738144063
 21
39.23543775243171
 72
     1
 10
125.7989738144063
 20
39.23543775243171
 11
125.7039472245828
 21
38.87757974156023
 72
     1
 10
125.7039472245828
 20
38.87757974156023
 11
125.5928498446712
 21
38.51713109626391
 72
     1
 10
125.5928498446712
 20
38.51713109626391
 11
125.4673368723112
 21
38.1555037085194
 72
     1
 10
125.4673368723112
 20
38.1555037085194
 11
125.3290635051428
 21
37.79410947030333
 72
     1
 10
125.3290635051428
 20
37.79410947030333
 11
125.1796849408059
 21
37.43436027359234
 72
     1
 10
125.1796849408059
 20
37.43436027359234
 11
125.0208563769402
 21
37.07766801036308
 72
     1
 10
125.0208563769402
 20
37.07766801036308
 11
124.8542330111855
 21
36.72544457259219
 72
     1
 10
124.8542330111855
 20
36.72544457259219
 11
124.6814700411819
 21
36.37910185225629
 72
     1
 10
124.6814700411819
 20
36.37910185225629
 11
124.504222664569
 21
36.04005174133204
 72
     1
 10
124.504222664569
 20
36.04005174133204
 11
124.3241460789867
 21
35.70970613179607
 72
     1
 10
124.3241460789867
 20
35.70970613179607
 11
124.142895482075
 21
35.38947691562502
 72
     1
 10
124.142895482075
 20
35.38947691562502
 11
123.9621260714735
 21
35.08077598479552
 72
     1
 10
123.9621260714735
 20
35.08077598479552
 11
123.7834930448223
 21
34.78501523128423
 72
     1
 10
123.7834930448223
 20
34.78501523128423
 11
123.608651599761
 21
34.50360654706778
 72
     1
 10
123.608651599761
 20
34.50360654706778
 11
123.4392569339297
 21
34.23796182412281
 72
     1
 10
123.4392569339297
 20
34.23796182412281
 11
123.3963964051137
 21
34.15776054162507
 72
     1
 10
123.3963964051137
 20
34.15776054162507
 11
123.3695351318714
 21
34.07661637871564
 72
     1
 10
123.3695351318714
 20
34.07661637871564
 11
123.3576050168501
 21
33.99573677996267
 72
     1
 10
123.3576050168501
 20
33.99573677996267
 11
123.3595379626972
 21
33.91632918993434
 72
     1
 10
123.3595379626972
 20
33.91632918993434
 11
123.3742658720598
 21
33.83960105319883
 72
     1
 10
123.3742658720598
 20
33.83960105319883
 11
123.4007206475853
 21
33.7667598143243
 72
     1
 10
123.4007206475853
 20
33.7667598143243
 11
123.4378341919209
 21
33.69901291787892
 72
     1
 10
123.4378341919209
 20
33.69901291787892
 11
123.4845384077139
 21
33.63756780843089
 72
     1
 10
123.4845384077139
 20
33.63756780843089
 11
123.5397651976117
 21
33.58363193054836
 72
     1
 10
123.5397651976117
 20
33.58363193054836
 11
123.6024464642615
 21
33.5384127287995
 72
     1
 10
123.6024464642615
 20
33.5384127287995
 11
123.6715141103106
 21
33.5031176477525
 72
     1
 10
123.6715141103106
 20
33.5031176477525
 11
123.7459000384062
 21
33.47895413197552
 72
     1
 10
123.7459000384062
 20
33.47895413197552
 11
123.8245361511958
 21
33.46712962603674
 72
     1
 10
123.8245361511958
 20
33.46712962603674
 11
123.9063543513264
 21
33.46885157450433
 72
     1
 10
123.9063543513264
 20
33.46885157450433
 11
123.9902865414455
 21
33.48532742194647
 72
     1
 10
123.9902865414455
 20
33.48532742194647
 11
124.0752646242004
 21
33.51776461293132
 72
     1
 10
124.0752646242004
 20
33.51776461293132
 11
124.8286234920663
 21
33.88572251082034
 72
     1
 10
124.8286234920663
 20
33.88572251082034
 11
125.675132693224
 21
34.31555587122594
 72
     1
 10
125.675132693224
 20
34.31555587122594
 11
126.5932955699001
 21
34.80239277737839
 72
     1
 10
126.5932955699001
 20
34.80239277737839
 11
127.5616154643212
 21
35.34136131250798
 72
     1
 10
127.5616154643212
 20
35.34136131250798
 11
128.5585957187138
 21
35.92758955984499
 72
     1
 10
128.5585957187138
 20
35.92758955984499
 11
129.5627396753044
 21
36.55620560261971
 72
     1
 10
129.5627396753044
 20
36.55620560261971
 11
130.5525506763197
 21
37.22233752406243
 72
     1
 10
130.5525506763197
 20
37.22233752406243
 11
131.5065320639862
 21
37.9211134074034
 72
     1
 10
131.5065320639862
 20
37.9211134074034
 11
132.4031871805304
 21
38.64766133587294
 72
     1
 10
132.4031871805304
 20
38.64766133587294
 11
133.2210193681788
 21
39.39710939270132
 72
     1
 10
133.2210193681788
 20
39.39710939270132
 11
133.9385319691581
 21
40.16458566111881
 72
     1
 10
133.9385319691581
 20
40.16458566111881
 11
134.5342283256948
 21
40.94521822435571
 72
     1
 10
134.5342283256948
 20
40.94521822435571
 11
134.9866117800155
 21
41.7341351656423
 72
     1
 10
134.9866117800155
 20
41.7341351656423
 11
135.2741856743466
 21
42.52646456820885
 72
     1
 10
135.2741856743466
 20
42.52646456820885
 11
135.3754533509149
 21
43.31733451528567
 72
     1
 10
135.3754533509149
 20
43.31733451528567
 11
135.2689181519467
 21
44.10187309010301
 97
        0
 75
     2
 76
     1
 98
        0
  0
ENDSEC
  0
SECTION
  2
OBJECTS
  0
DICTIONARY
  5
C
330
0
100
AcDbDictionary
  3
ACAD_GROUP
350
D
  3
ACAD_LAYOUT
350
1A
  3
ACAD_MATERIAL
350
3B
  3
ACAD_MLEADERSTYLE
350
E3
  3
ACAD_MLINESTYLE
350
17
  3
ACAD_PLOTSETTINGS
350
19
  3
ACAD_VISUALSTYLE
350
2A
  3
ACDBHEADERROUNDTRIPXREC
350
C1
  3
ACDBVARIABLEDICTIONARY
350
E1
  0
DICTIONARY
  5
D
102
{ACAD_REACTORS
330
C
102
}
330
C
100
AcDbDictionary
  0
DICTIONARY
  5
1A
102
{ACAD_REACTORS
330
C
102
}
330
C
100
AcDbDictionary
  0
DICTIONARY
  5
3B
102
{ACAD_REACTORS
330
C
102
}
330
C
100
AcDbDictionary
  3
BYBLOCK
350
3D
  3
BYLAYER
350
3C
  3
GLOBAL
350
3E
  0
DICTIONARY
  5
E3
102
{ACAD_REACTORS
330
C
102
}
330
C
100
AcDbDictionary
  0
DICTIONARY
  5
17
102
{ACAD_REACTORS
330
C
102
}
330
C
100
AcDbDictionary
  3
STANDARD
350
18
  0
DICTIONARY
  5
19
102
{ACAD_REACTORS
330
C
102
}
330
C
100
AcDbDictionary
  0
DICTIONARY
  5
2A
102
{ACAD_REACTORS
330
C
102
}
330
C
100
AcDbDictionary
  3
2DWIREFRAME
350
2F
  3
3DWIREFRAME
350
30
  3
3D_HIDDEN
350
31
  3
BASIC
350
32
  3
BRIGHTEN
350
36
  3
COLORCHANGE
350
3A
  3
CONCEPTUAL
350
34
  3
DIM
350
35
  3
FACEPATTERN
350
39
  3
FLAT
350
2B
  3
FLATWITHEDGES
350
2C
  3
GOURAUD
350
2D
  3
GOURAUDWITHEDGES
350
2E
  3
LINEPATTERN
350
38
  3
REALISTIC
350
33
  3
THICKEN
350
37
  0
DICTIONARY
  5
C1
102
{ACAD_REACTORS
330
C
102
}
330
C
100
AcDbDictionary
  3
CEPSNTYPE
350
CA
  3
DIMSTYLEDATA
350
E0
  3
FINGERPRINTGUID
350
CB
  3
HYPERLINKBASE
350
C4
  3
INSUNITS
350
C9
  3
LAYOUTDICT
350
C6
  3
LWETCUNION
350
C8
  3
PLOTSETDICT
350
C7
  3
PSVPSCALE
350
CD
  3
PUCSBASE
350
D0
  3
PUCSORGBACK
350
D6
  3
PUCSORGBOTTOM
350
D2
  3
PUCSORGFRONT
350
D5
  3
PUCSORGLEFT
350
D3
  3
PUCSORGRIGHT
350
D4
  3
PUCSORGTOP
350
D1
  3
PUCSORTHOREF
350
CE
  3
PUCSORTHOVIEW
350
CF
  3
STYLESHEET
350
C5
  3
TSTACKALIGN
350
C2
  3
TSTACKSIZE
350
C3
  3
UCSBASE
350
D9
  3
UCSORGBACK
350
DF
  3
UCSORGBOTTOM
350
DB
  3
UCSORGFRONT
350
DE
  3
UCSORGLEFT
350
DC
  3
UCSORGRIGHT
350
DD
  3
UCSORGTOP
350
DA
  3
UCSORTHOREF
350
D7
  3
UCSORTHOVIEW
350
D8
  3
VERSIONGUID
350
CC
  0
DICTIONARY
  5
E1
102
{ACAD_REACTORS
330
C
102
}
330
C
100
AcDbDictionary
  3
DIMASSOC
350
E4
  3
HIDETEXT
350
E5
  0
MATERIAL
  5
3D
102
{ACAD_REACTORS
330
3B
102
}
102
{ACAD_XDICTIONARY
360
E8
102
}
330
3B
100
AcDbMaterial
  1
ByBlock
  0
MATERIAL
  5
3C
102
{ACAD_REACTORS
330
3B
102
}
102
{ACAD_XDICTIONARY
360
E6
102
}
330
3B
100
AcDbMaterial
  1
ByLayer
  0
MATERIAL
  5
3E
102
{ACAD_REACTORS
330
3B
102
}
102
{ACAD_XDICTIONARY
360
EA
102
}
330
3B
100
AcDbMaterial
  1
Global
  0
MLINESTYLE
  5
18
102
{ACAD_REACTORS
330
17
102
}
330
17
100
AcDbMlineStyle
  2
Standard
 70
     0
  3

 62
   256
 51
90.0
 52
90.0
 71
     2
 49
0.5
 62
   256
  6
BYLAYER
 49
-0.5
 62
   256
  6
BYLAYER
  0
ACAD_PROXY_OBJECT
  5
2F
102
{ACAD_REACTORS
330
2A
102
}
330
2A
100
AcDbProxyObject
 90
      499
 91
      501
 93
      436
310
42CC9915DA5C99599C985B595049028333333333333E3BF0000000000000FB0107901411070040501600405405064090741402480A0340
1001
ACAD
1000
AcDbSavedByObjectVersion
1070
     0
  0
ACAD_PROXY_OBJECT
  5
30
102
{ACAD_REACTORS
330
2A
102
}
330
2A
100
AcDbProxyObject
 90
      499
 91
      501
 93
      436
310
42CCD915DA5C99599C985B595059028333333333333E3BF0000000000000FB0107901411070040501600405405064090741402480A0340
1001
ACAD
1000
AcDbSavedByObjectVersion
1070
     0
  0
ACAD_PROXY_OBJECT
  5
31
102
{ACAD_REACTORS
330
2A
102
}
330
2A
100
AcDbProxyObject
 90
      499
 91
      501
 93
      500
310
424CD108121A5919195B90640502408333333333333E3BF0000000000000FB01079024090700405020000000000001110200405405064090740C02480A0340
1001
ACAD
1000
AcDbSavedByObjectVersion
1070
     0
  0
ACAD_PROXY_OBJECT
  5
32
102
{ACAD_REACTORS
330
2A
102
}
330
2A
100
AcDbProxyObject
 90
      499
 91
      501
 93
      388
310
4150985CDA58D07406404333333333333E3BF0000000000000FB0107A41107004050150841D405064090741402480A0350
1001
ACAD
1000
AcDbSavedByObjectVersion
1070
     0
  0
ACAD_PROXY_OBJECT
  5
36
102
{ACAD_REACTORS
330
2A
102
}
330
2A
100
AcDbProxyObject
 90
      499
 91
      501
 93
      428
310
42109C9A59DA1D195B90C409028333333333333E3BF0000000000000FB010790141107004050150841D405064090741402480A029950
1001
ACAD
1000
AcDbSavedByObjectVersion
1070
     0
  0
ACAD_PROXY_OBJECT
  5
3A
102
{ACAD_REACTORS
330
2A
102
}
330
2A
100
AcDbProxyObject
 90
      499
 91
      501
 93
      452
310
42D0DBDB1BDC90DA185B99D95104090240C333333333333E3BF0000000000000FB0108901411070040501508421405064090741402480A0350
1001
ACAD
1000
AcDbSavedByObjectVersion
1070
     0
  0
ACAD_PROXY_OBJECT
  5
34
102
{ACAD_REACTORS
330
2A
102
}
330
2A
100
AcDbProxyObject
 90
      499
 91
      501
 93
      500
310
4290DBDB98D95C1D1D585B10940D028333333333333E3BF0000000000000FB0107902409070040501000000000000111010841D405064090740C02480A0340
1001
ACAD
1000
AcDbSavedByObjectVersion
1070
     0
  0
ACAD_PROXY_OBJECT
  5
35
102
{ACAD_REACTORS
330
2A
102
}
330
2A
100
AcDbProxyObject
 90
      499
 91
      501
 93
      412
310
40D11A5B50B409028333333333333E3BF0000000000000FB010790141107004050150841D405064090741402480A02677FFFFFD0
1001
ACAD
1000
AcDbSavedByObjectVersion
1070
     0
  0
ACAD_PROXY_OBJECT
  5
39
102
{ACAD_REACTORS
330
2A
102
}
330
2A
100
AcDbProxyObject
 90
      499
 91
      501
 93
      444
310
42D19858D95C185D1D195C9B90F409028333333333333E3BF0000000000000FB010790141107004050150841D405064090741402480A0350
1001
ACAD
1000
AcDbSavedByObjectVersion
1070
     0
  0
ACAD_PROXY_OBJECT
  5
2B
102
{ACAD_REACTORS
330
2A
102
}
330
2A
100
AcDbProxyObject
 90
      499
 91
      501
 93
      388
310
41119B185D240901404333333333333E3BF0000000000000F9010740A41107004050150841D405064090741402480A1B50
1001
ACAD
1000
AcDbSavedByObjectVersion
1070
     0
  0
ACAD_PROXY_OBJECT
  5
2C
102
{ACAD_REACTORS
330
2A
102
}
330
2A
100
AcDbProxyObject
 90
      499
 91
      501
 93
      476
310
43519B185D15DA5D1A115919D95CD0140901404333333333333E3BF0000000000000F9010740901411070040501600405405064090741402480A1B50
1001
ACAD
1000
AcDbSavedByObjectVersion
1070
     0
  0
ACAD_PROXY_OBJECT
  5
2D
102
{ACAD_REACTORS
330
2A
102
}
330
2A
100
AcDbProxyObject
 90
      499
 91
      501
 93
      412
310
41D1DBDD5C985D5910240902404333333333333E3BF0000000000000F9010740A411070040501641D405064090741402480A1B50
1001
ACAD
1000
AcDbSavedByObjectVersion
1070
     0
  0
ACAD_PROXY_OBJECT
  5
2E
102
{ACAD_REACTORS
330
2A
102
}
330
2A
100
AcDbProxyObject
 90
      499
 91
      501
 93
      500
310
4411DBDD5C985D5915DA5D1A115919D95CD0340902404333333333333E3BF0000000000000F9010740901411070040501600405405064090741402480A1B50
1001
ACAD
1000
AcDbSavedByObjectVersion
1070
     0
  0
ACAD_PROXY_OBJECT
  5
38
102
{ACAD_REACTORS
330
2A
102
}
330
2A
100
AcDbProxyObject
 90
      499
 91
      501
 93
      444
310
42D31A5B995C185D1D195C9B90E409028333333333333E3BF0000000000000FB010790141107004050750841D405064090741402483A0350
1001
ACAD
1000
AcDbSavedByObjectVersion
1070
     0
  0
ACAD_PROXY_OBJECT
  5
33
102
{ACAD_REACTORS
330
2A
102
}
330
2A
100
AcDbProxyObject
 90
      499
 91
      501
 93
      420
310
425499585B1A5CDD1A58D08409028333333333333E3BF0000000000000FB01079019070040501508421405064090741402480A1B40
1001
ACAD
1000
AcDbSavedByObjectVersion
1070
     0
  0
ACAD_PROXY_OBJECT
  5
37
102
{ACAD_REACTORS
330
2A
102
}
330
2A
100
AcDbProxyObject
 90
      499
 91
      501
 93
      412
310
41D51A1A58DAD95B90D409028333333333333E3BF0000000000000FB010790141107004050150C41D405064090741402480A0350
1001
ACAD
1000
AcDbSavedByObjectVersion
1070
     0
  0
XRECORD
  5
CA
102
{ACAD_REACTORS
330
C1
102
}
330
C1
100
AcDbXrecord
 90
        0
  0
XRECORD
  5
E0
102
{ACAD_REACTORS
330
C1
102
}
330
C1
100
AcDbXrecord
1000
DSTYLE
1002
{
1070
   340
340
11
1002
}
  0
XRECORD
  5
CB
102
{ACAD_REACTORS
330
C1
102
}
330
C1
100
AcDbXrecord
  1
{B576A1DC-7625-8F2E-C28B-CB6550DC6243}
  0
XRECORD
  5
C4
102
{ACAD_REACTORS
330
C1
102
}
330
C1
100
AcDbXrecord
  1

  0
XRECORD
  5
C9
102
{ACAD_REACTORS
330
C1
102
}
330
C1
100
AcDbXrecord
 90
        1
  0
XRECORD
  5
C6
102
{ACAD_REACTORS
330
C1
102
}
330
C1
100
AcDbXrecord
340
1A
  0
XRECORD
  5
C8
102
{ACAD_REACTORS
330
C1
102
}
330
C1
100
AcDbXrecord
 90
    10269
  0
XRECORD
  5
C7
102
{ACAD_REACTORS
330
C1
102
}
330
C1
100
AcDbXrecord
340
19
  0
XRECORD
  5
CD
102
{ACAD_REACTORS
330
C1
102
}
330
C1
100
AcDbXrecord
 40
0.0
  0
XRECORD
  5
D0
102
{ACAD_REACTORS
330
C1
102
}
330
C1
100
AcDbXrecord
340
0
  0
XRECORD
  5
D6
102
{ACAD_REACTORS
330
C1
102
}
330
C1
100
AcDbXrecord
 10
0.0
 20
0.0
 30
0.0
  0
XRECORD
  5
D2
102
{ACAD_REACTORS
330
C1
102
}
330
C1
100
AcDbXrecord
 10
0.0
 20
0.0
 30
0.0
  0
XRECORD
  5
D5
102
{ACAD_REACTORS
330
C1
102
}
330
C1
100
AcDbXrecord
 10
0.0
 20
0.0
 30
0.0
  0
XRECORD
  5
D3
102
{ACAD_REACTORS
330
C1
102
}
330
C1
100
AcDbXrecord
 10
0.0
 20
0.0
 30
0.0
  0
XRECORD
  5
D4
102
{ACAD_REACTORS
330
C1
102
}
330
C1
100
AcDbXrecord
 10
0.0
 20
0.0
 30
0.0
  0
XRECORD
  5
D1
102
{ACAD_REACTORS
330
C1
102
}
330
C1
100
AcDbXrecord
 10
0.0
 20
0.0
 30
0.0
  0
XRECORD
  5
CE
102
{ACAD_REACTORS
330
C1
102
}
330
C1
100
AcDbXrecord
340
0
  0
XRECORD
  5
CF
102
{ACAD_REACTORS
330
C1
102
}
330
C1
100
AcDbXrecord
 70
     0
  0
XRECORD
  5
C5
102
{ACAD_REACTORS
330
C1
102
}
330
C1
100
AcDbXrecord
  1

  0
XRECORD
  5
C2
102
{ACAD_REACTORS
330
C1
102
}
330
C1
100
AcDbXrecord
 90
        1
  0
XRECORD
  5
C3
102
{ACAD_REACTORS
330
C1
102
}
330
C1
100
AcDbXrecord
 90
       70
  0
XRECORD
  5
D9
102
{ACAD_REACTORS
330
C1
102
}
330
C1
100
AcDbXrecord
340
0
  0
XRECORD
  5
DF
102
{ACAD_REACTORS
330
C1
102
}
330
C1
100
AcDbXrecord
 10
0.0
 20
0.0
 30
0.0
  0
XRECORD
  5
DB
102
{ACAD_REACTORS
330
C1
102
}
330
C1
100
AcDbXrecord
 10
0.0
 20
0.0
 30
0.0
  0
XRECORD
  5
DE
102
{ACAD_REACTORS
330
C1
102
}
330
C1
100
AcDbXrecord
 10
0.0
 20
0.0
 30
0.0
  0
XRECORD
  5
DC
102
{ACAD_REACTORS
330
C1
102
}
330
C1
100
AcDbXrecord
 10
0.0
 20
0.0
 30
0.0
  0
XRECORD
  5
DD
102
{ACAD_REACTORS
330
C1
102
}
330
C1
100
AcDbXrecord
 10
0.0
 20
0.0
 30
0.0
  0
XRECORD
  5
DA
102
{ACAD_REACTORS
330
C1
102
}
330
C1
100
AcDbXrecord
 10
0.0
 20
0.0
 30
0.0
  0
XRECORD
  5
D7
102
{ACAD_REACTORS
330
C1
102
}
330
C1
100
AcDbXrecord
340
0
  0
XRECORD
  5
D8
102
{ACAD_REACTORS
330
C1
102
}
330
C1
100
AcDbXrecord
 70
     0
  0
XRECORD
  5
CC
102
{ACAD_REACTORS
330
C1
102
}
330
C1
100
AcDbXrecord
  1
{FAEB1C32-E019-11D5-929B-00C0DF256EC4}
  0
DICTIONARYVAR
  5
E4
102
{ACAD_REACTORS
330
E1
102
}
330
E1
100
DictionaryVariables
280
     0
  1
2
  0
DICTIONARYVAR
  5
E5
102
{ACAD_REACTORS
330
E1
102
}
330
E1
100
DictionaryVariables
280
     0
  1
1
  0
DICTIONARY
  5
E8
330
3D
100
AcDbDictionary
280
     1
  3
ACAD_XREC_ROUNDTRIP
360
E9
  0
DICTIONARY
  5
E6
330
3C
100
AcDbDictionary
280
     1
  3
ACAD_XREC_ROUNDTRIP
360
E7
  0
DICTIONARY
  5
EA
330
3E
100
AcDbDictionary
280
     1
  3
ACAD_XREC_ROUNDTRIP
360
EB
  0
XRECORD
  5
E9
102
{ACAD_REACTORS
330
E8
102
}
330
E8
100
AcDbXrecord
102
MATERIAL
148
0.0
149
0.0
149
0.0
 93
        0
 94
      127
282
     0
 72
     1
 77
     1
171
     1
175
     1
179
     1
273
     0
  0
XRECORD
  5
E7
102
{ACAD_REACTORS
330
E6
102
}
330
E6
100
AcDbXrecord
102
MATERIAL
148
0.0
149
0.0
149
0.0
 93
        0
 94
      127
282
     0
 72
     1
 77
     1
171
     1
175
     1
179
     1
273
     0
  0
XRECORD
  5
EB
102
{ACAD_REACTORS
330
EA
102
}
330
EA
100
AcDbXrecord
102
MATERIAL
148
0.0
149
0.0
149
0.0
 93
        0
 94
      127
282
     0
 72
     1
 77
     1
171
     1
175
     1
179
     1
273
     0
  0
ENDSEC
  0
EOF
