  0
SECTION
  2
HEADER
  9
$ACADVER
  1
AC1014
  9
$ACADMAINTVER
 70
     9
  9
$DWGCODEPAGE
  3
UNDEFINED
  9
$INSBASE
 10
0.0
 20
0.0
 30
0.0
  9
$EXTMIN
 10
1.000000000000000E+20
 20
1.000000000000000E+20
 30
1.000000000000000E+20
  9
$EXTMAX
 10
-1.000000000000000E+20
 20
-1.000000000000000E+20
 30
-1.000000000000000E+20
  9
$LIMMIN
 10
0.0
 20
0.0
  9
$LIMMAX
 10
12.0
 20
9.0
  9
$ORTHOMODE
 70
     0
  9
$REGENMODE
 70
     1
  9
$FILLMODE
 70
     1
  9
$QTEXTMODE
 70
     0
  9
$MIRRTEXT
 70
     1
  9
$DRAGMODE
 70
     2
  9
$LTSCALE
 40
1.0
  9
$OSMODE
 70
    37
  9
$ATTMODE
 70
     1
  9
$TEXTSIZE
 40
0.2
  9
$TRACEWID
 40
0.05
  9
$TEXTSTYLE
  7
STANDARD
  9
$CLAYER
  8
0
  9
$CELTYPE
  6
BYLAYER
  9
$CECOLOR
 62
   256
  9
$CELTSCALE
 40
1.0
  9
$DELOBJ
 70
     1
  9
$DISPSILH
 70
     0
  9
$DIMSCALE
 40
1.0
  9
$DIMASZ
 40
0.18
  9
$DIMEXO
 40
0.0625
  9
$DIMDLI
 40
0.38
  9
$DIMRND
 40
0.0
  9
$DIMDLE
 40
0.0
  9
$DIMEXE
 40
0.18
  9
$DIMTP
 40
0.0
  9
$DIMTM
 40
0.0
  9
$DIMTXT
 40
0.18
  9
$DIMCEN
 40
0.09
  9
$DIMTSZ
 40
0.0
  9
$DIMTOL
 70
     0
  9
$DIMLIM
 70
     0
  9
$DIMTIH
 70
     1
  9
$DIMTOH
 70
     1
  9
$DIMSE1
 70
     0
  9
$DIMSE2
 70
     0
  9
$DIMTAD
 70
     0
  9
$DIMZIN
 70
     0
  9
$DIMBLK
  1

  9
$DIMASO
 70
     1
  9
$DIMSHO
 70
     1
  9
$DIMPOST
  1

  9
$DIMAPOST
  1

  9
$DIMALT
 70
     0
  9
$DIMALTD
 70
     2
  9
$DIMALTF
 40
25.4
  9
$DIMLFAC
 40
1.0
  9
$DIMTOFL
 70
     0
  9
$DIMTVP
 40
0.0
  9
$DIMTIX
 70
     0
  9
$DIMSOXD
 70
     0
  9
$DIMSAH
 70
     0
  9
$DIMBLK1
  1

  9
$DIMBLK2
  1

  9
$DIMSTYLE
  2
STANDARD
  9
$DIMCLRD
 70
     0
  9
$DIMCLRE
 70
     0
  9
$DIMCLRT
 70
     0
  9
$DIMTFAC
 40
1.0
  9
$DIMGAP
 40
0.09
  9
$DIMJUST
 70
     0
  9
$DIMSD1
 70
     0
  9
$DIMSD2
 70
     0
  9
$DIMTOLJ
 70
     1
  9
$DIMTZIN
 70
     0
  9
$DIMALTZ
 70
     0
  9
$DIMALTTZ
 70
     0
  9
$DIMFIT
 70
     3
  9
$DIMUPT
 70
     0
  9
$DIMUNIT
 70
     2
  9
$DIMDEC
 70
     4
  9
$DIMTDEC
 70
     4
  9
$DIMALTU
 70
     2
  9
$DIMALTTD
 70
     2
  9
$DIMTXSTY
  7
STANDARD
  9
$DIMAUNIT
 70
     0
  9
$LUNITS
 70
     2
  9
$LUPREC
 70
     4
  9
$SKETCHINC
 40
0.1
  9
$FILLETRAD
 40
0.5
  9
$AUNITS
 70
     0
  9
$AUPREC
 70
     0
  9
$MENU
  1
.
  9
$ELEVATION
 40
0.0
  9
$PELEVATION
 40
0.0
  9
$THICKNESS
 40
0.0
  9
$LIMCHECK
 70
     0
  9
$CHAMFERA
 40
0.5
  9
$CHAMFERB
 40
0.5
  9
$CHAMFERC
 40
1.0
  9
$CHAMFERD
 40
0.0
  9
$SKPOLY
 70
     0
  9
$TDCREATE
 40
2458708.591122674
  9
$TDUPDATE
 40
2458708.591122674
  9
$TDINDWG
 40
0.0000000116
  9
$TDUSRTIMER
 40
0.0000000116
  9
$USRTIMER
 70
     1
  9
$ANGBASE
 50
0.0
  9
$ANGDIR
 70
     0
  9
$PDMODE
 70
     0
  9
$PDSIZE
 40
0.0
  9
$PLINEWID
 40
0.0
  9
$COORDS
 70
     1
  9
$SPLFRAME
 70
     0
  9
$SPLINETYPE
 70
     6
  9
$SPLINESEGS
 70
     8
  9
$ATTDIA
 70
     0
  9
$ATTREQ
 70
     1
  9
$HANDLING
 70
     1
  9
$HANDSEED
  5
23F
  9
$SURFTAB1
 70
     6
  9
$SURFTAB2
 70
     6
  9
$SURFTYPE
 70
     6
  9
$SURFU
 70
     6
  9
$SURFV
 70
     6
  9
$UCSNAME
  2

  9
$UCSORG
 10
0.0
 20
0.0
 30
0.0
  9
$UCSXDIR
 10
1.0
 20
0.0
 30
0.0
  9
$UCSYDIR
 10
0.0
 20
1.0
 30
0.0
  9
$PUCSNAME
  2

  9
$PUCSORG
 10
0.0
 20
0.0
 30
0.0
  9
$PUCSXDIR
 10
1.0
 20
0.0
 30
0.0
  9
$PUCSYDIR
 10
0.0
 20
1.0
 30
0.0
  9
$USERI1
 70
     0
  9
$USERI2
 70
     0
  9
$USERI3
 70
     0
  9
$USERI4
 70
     0
  9
$USERI5
 70
     0
  9
$USERR1
 40
0.0
  9
$USERR2
 40
0.0
  9
$USERR3
 40
0.0
  9
$USERR4
 40
0.0
  9
$USERR5
 40
0.0
  9
$WORLDVIEW
 70
     1
  9
$SHADEDGE
 70
     3
  9
$SHADEDIF
 70
    70
  9
$TILEMODE
 70
     1
  9
$MAXACTVP
 70
    64
  9
$PINSBASE
 10
0.0
 20
0.0
 30
0.0
  9
$PLIMCHECK
 70
     0
  9
$PEXTMIN
 10
1.000000000000000E+20
 20
1.000000000000000E+20
 30
1.000000000000000E+20
  9
$PEXTMAX
 10
-1.000000000000000E+20
 20
-1.000000000000000E+20
 30
-1.000000000000000E+20
  9
$PLIMMIN
 10
0.0
 20
0.0
  9
$PLIMMAX
 10
12.0
 20
9.0
  9
$UNITMODE
 70
     0
  9
$VISRETAIN
 70
     1
  9
$PLINEGEN
 70
     0
  9
$PSLTSCALE
 70
     1
  9
$TREEDEPTH
 70
  3020
  9
$PICKSTYLE
 70
     1
  9
$CMLSTYLE
  2
STANDARD
  9
$CMLJUST
 70
     0
  9
$CMLSCALE
 40
1.0
  9
$PROXYGRAPHICS
 70
     1
  9
$MEASUREMENT
 70
     0
  0
ENDSEC
  0
SECTION
  2
CLASSES
  0
CLASS
  1
ACDBDICTIONARYWDFLT
  2
AcDbDictionaryWithDefault
  3
ObjectDBX Classes
 90
        0
280
     0
281
     0
  0
CLASS
  1
VISUALSTYLE
  2
AcDbVisualStyle
  3
ObjectDBX Classes
 90
     4095
280
     0
281
     0
  0
CLASS
  1
MATERIAL
  2
AcDbMaterial
  3
ObjectDBX Classes
 90
     1153
280
     0
281
     0
  0
CLASS
  1
SUN
  2
AcDbSun
  3
SCENEOE
 90
     1024
280
     0
281
     0
  0
CLASS
  1
DICTIONARYVAR
  2
AcDbDictionaryVar
  3
ObjectDBX Classes
 90
        0
280
     0
281
     0
  0
CLASS
  1
XRECORD
  2
AcDbXrecord
  3
AutoCAD 2000
 90
        0
280
     0
281
     0
  0
CLASS
  1
LWPOLYLINE
  2
AcDbPolyline
  3
AutoCAD 2000
 90
        0
280
     0
281
     1
  0
CLASS
  1
HATCH
  2
AcDbHatch
  3
AutoCAD 2000
 90
        0
280
     0
281
     1
  0
CLASS
  1
ACDBPLACEHOLDER
  2
AcDbPlaceHolder
  3
ObjectDBX Classes
 90
        0
280
     0
281
     0
  0
CLASS
  1
LAYOUT
  2
AcDbLayout
  3
ObjectDBX Classes
 90
        0
280
     0
281
     0
  0
ENDSEC
  0
SECTION
  2
TABLES
  0
TABLE
  2
VPORT
  5
8
330
0
100
AcDbSymbolTable
 70
     1
  0
VPORT
  5
29
330
8
100
AcDbSymbolTableRecord
100
AcDbViewportTableRecord
  2
*ACTIVE
 70
     0
 10
0.0
 20
0.0
 11
1.0
 21
1.0
 12
0.0
 22
0.0
 13
0.0
 23
0.0
 14
0.5
 24
0.5
 15
0.5
 25
0.5
 16
0.0
 26
0.0
 36
1.0
 17
148.5000416295416
 27
-105.0007777515277
 37
0.0
 40
210.0015555030554
 41
1.414275634995294
 42
50.0
 43
0.0
 44
0.0
 50
0.0
 51
0.0
 71
     0
 72
   100
 73
     1
 74
     3
 75
     0
 76
     0
 77
     0
 78
     0
  0
ENDTAB
  0
TABLE
  2
LTYPE
  5
5
330
0
100
AcDbSymbolTable
 70
     1
  0
LTYPE
  5
14
330
5
100
AcDbSymbolTableRecord
100
AcDbLinetypeTableRecord
  2
BYBLOCK
 70
     0
  3

 72
    65
 73
     0
 40
0.0
  0
LTYPE
  5
15
330
5
100
AcDbSymbolTableRecord
100
AcDbLinetypeTableRecord
  2
BYLAYER
 70
     0
  3

 72
    65
 73
     0
 40
0.0
  0
LTYPE
  5
16
330
5
100
AcDbSymbolTableRecord
100
AcDbLinetypeTableRecord
  2
CONTINUOUS
 70
     0
  3
Solid line
 72
    65
 73
     0
 40
0.0
  0
ENDTAB
  0
TABLE
  2
LAYER
  5
2
330
0
100
AcDbSymbolTable
 70
    14
  0
LAYER
  5
10
330
2
100
AcDbSymbolTableRecord
100
AcDbLayerTableRecord
  2
0
 70
     0
 62
     7
  6
CONTINUOUS
  0
LAYER
  5
40
330
2
100
AcDbSymbolTableRecord
100
AcDbLayerTableRecord
  2
_U_30AD_U_30C4_U_30CD
 70
     1
 62
     7
  6
CONTINUOUS
  0
LAYER
  5
41
330
2
100
AcDbSymbolTableRecord
100
AcDbLayerTableRecord
  2
_U_30AD_U_30C4_U_30CD_U_30
 70
     1
 62
     7
  6
CONTINUOUS
  0
LAYER
  5
42
330
2
100
AcDbSymbolTableRecord
100
AcDbLayerTableRecord
  2
_U_30AD_U_30C4_U_30CD_U_31
 70
     1
 62
     7
  6
CONTINUOUS
  0
LAYER
  5
43
330
2
100
AcDbSymbolTableRecord
100
AcDbLayerTableRecord
  2
_U_30EC_U_30A4_U_30E4_U_30
 70
     1
 62
     7
  6
CONTINUOUS
  0
LAYER
  5
44
330
2
100
AcDbSymbolTableRecord
100
AcDbLayerTableRecord
  2
_U_57FA_U_677F_U_5916_U_5F
 70
     4
 62
     7
  6
CONTINUOUS
  0
LAYER
  5
45
330
2
100
AcDbSymbolTableRecord
100
AcDbLayerTableRecord
  2
_U_57FA_U_677F_U_5916_U_50
 70
     1
 62
     7
  6
CONTINUOUS
  0
LAYER
  5
46
330
2
100
AcDbSymbolTableRecord
100
AcDbLayerTableRecord
  2
_U_30EC_U_30A4_U_30E4_U_31
 70
     0
 62
     7
  6
CONTINUOUS
  0
LAYER
  5
20E
330
2
100
AcDbSymbolTableRecord
100
AcDbLayerTableRecord
  2
_U_30EC_U_30A4_U_30E4_U_32
 70
     0
 62
     7
  6
CONTINUOUS
  0
LAYER
  5
20F
330
2
100
AcDbSymbolTableRecord
100
AcDbLayerTableRecord
  2
EYE
 70
     4
 62
     7
  6
CONTINUOUS
  0
LAYER
  5
210
330
2
100
AcDbSymbolTableRecord
100
AcDbLayerTableRecord
  2
_U_30EC_U_30A4_U_30E4_U_33
 70
     1
 62
     7
  6
CONTINUOUS
  0
LAYER
  5
211
330
2
100
AcDbSymbolTableRecord
100
AcDbLayerTableRecord
  2
_U_307B_U_3063_U_307A_U_FF
 70
     1
 62
     7
  6
CONTINUOUS
  0
LAYER
  5
212
330
2
100
AcDbSymbolTableRecord
100
AcDbLayerTableRecord
  2
_U_96FB_U_6C60
 70
     5
 62
     7
  6
CONTINUOUS
  0
LAYER
  5
213
330
2
100
AcDbSymbolTableRecord
100
AcDbLayerTableRecord
  2
_U_7A74
 70
     1
 62
     7
  6
CONTINUOUS
  0
ENDTAB
  0
TABLE
  2
STYLE
  5
3
330
0
100
AcDbSymbolTable
 70
     1
  0
STYLE
  5
11
330
3
100
AcDbSymbolTableRecord
100
AcDbTextStyleTableRecord
  2
STANDARD
 70
     0
 40
0.0
 41
1.0
 50
0.0
 71
     0
 42
0.2
  3
txt
  4

  0
ENDTAB
  0
TABLE
  2
VIEW
  5
6
330
0
100
AcDbSymbolTable
 70
     0
  0
ENDTAB
  0
TABLE
  2
UCS
  5
7
330
0
100
AcDbSymbolTable
 70
     0
  0
ENDTAB
  0
TABLE
  2
APPID
  5
9
330
0
100
AcDbSymbolTable
 70
     1
  0
APPID
  5
12
330
9
100
AcDbSymbolTableRecord
100
AcDbRegAppTableRecord
  2
ACAD
 70
     0
  0
ENDTAB
  0
TABLE
  2
DIMSTYLE
  5
A
330
0
100
AcDbSymbolTable
 70
     1
  0
DIMSTYLE
105
27
330
A
100
AcDbSymbolTableRecord
100
AcDbDimStyleTableRecord
  2
STANDARD
 70
     0
  3

  4

  5

  6

  7

 40
1.0
 41
0.18
 42
0.0625
 43
0.38
 44
0.18
 45
0.0
 46
0.0
 47
0.0
 48
0.0
140
0.18
141
0.09
142
0.0
143
25.4
144
1.0
145
0.0
146
1.0
147
0.09
 71
     0
 72
     0
 73
     1
 74
     1
 75
     0
 76
     0
 77
     0
 78
     0
170
     0
171
     2
172
     0
173
     0
174
     0
175
     0
176
     0
177
     0
178
     0
270
     2
271
     4
272
     4
273
     2
274
     2
340
11
275
     0
280
     0
281
     0
282
     0
283
     1
284
     0
285
     0
286
     0
287
     3
288
     0
  0
ENDTAB
  0
TABLE
  2
BLOCK_RECORD
  5
1
330
0
100
AcDbSymbolTable
 70
     1
  0
BLOCK_RECORD
  5
1F
330
1
100
AcDbSymbolTableRecord
100
AcDbBlockTableRecord
  2
*MODEL_SPACE
  0
BLOCK_RECORD
  5
1B
330
1
100
AcDbSymbolTableRecord
100
AcDbBlockTableRecord
  2
*PAPER_SPACE
  0
ENDTAB
  0
ENDSEC
  0
SECTION
  2
BLOCKS
  0
BLOCK
  5
20
330
1F
100
AcDbEntity
  8
0
100
AcDbBlockBegin
  2
*MODEL_SPACE
 70
     0
 10
0.0
 20
0.0
 30
0.0
  3
*MODEL_SPACE
  1

  0
ENDBLK
  5
21
330
1F
100
AcDbEntity
  8
0
100
AcDbBlockEnd
  0
BLOCK
  5
1C
330
1B
100
AcDbEntity
 67
     1
  8
0
100
AcDbBlockBegin
  2
*PAPER_SPACE
 70
     0
 10
0.0
 20
0.0
 30
0.0
  3
*PAPER_SPACE
  1

  0
ENDBLK
  5
1D
330
1B
100
AcDbEntity
 67
     1
  8
0
100
AcDbBlockEnd
  0
ENDSEC
  0
SECTION
  2
ENTITIES
  0
POLYLINE
  5
47
330
1F
100
AcDbEntity
  8
_U_30EC_U_30A4_U_30E4_U_31
100
AcDb2dPolyline
 66
     1
 10
0.0
 20
0.0
 30
0.0
  0
VERTEX
  5
48
330
47
100
AcDbEntity
  8
_U_30EC_U_30A4_U_30E4_U_31
100
AcDbVertex
100
AcDb2dVertex
 10
31.53578620855034
 20
29.36014425377235
 30
0.0
  0
VERTEX
  5
49
330
47
100
AcDbEntity
  8
_U_30EC_U_30A4_U_30E4_U_31
100
AcDbVertex
100
AcDb2dVertex
 10
31.5045607248284
 20
30.44139582667694
 30
0.0
  0
VERTEX
  5
4A
330
47
100
AcDbEntity
  8
_U_30EC_U_30A4_U_30E4_U_31
100
AcDbVertex
100
AcDb2dVertex
 10
31.44603378991684
 20
31.66984905227225
 30
0.0
  0
VERTEX
  5
4B
330
47
100
AcDbEntity
  8
_U_30EC_U_30A4_U_30E4_U_31
100
AcDbVertex
100
AcDb2dVertex
 10
31.35198711378759
 20
32.9724364702885
 30
0.0
  0
VERTEX
  5
4C
330
47
100
AcDbEntity
  8
_U_30EC_U_30A4_U_30E4_U_31
100
AcDbVertex
100
AcDb2dVertex
 10
31.2142024064126
 20
34.27609062045624
 30
0.0
  0
VERTEX
  5
4D
330
47
100
AcDbEntity
  8
_U_30EC_U_30A4_U_30E4_U_31
100
AcDbVertex
100
AcDb2dVertex
 10
31.02446137776347
 20
35.50774404250535
 30
0.0
  0
VERTEX
  5
4E
330
47
100
AcDbEntity
  8
_U_30EC_U_30A4_U_30E4_U_31
100
AcDbVertex
100
AcDb2dVertex
 10
30.7745457378131
 20
36.59432927616608
 30
0.0
  0
VERTEX
  5
4F
330
47
100
AcDbEntity
  8
_U_30EC_U_30A4_U_30E4_U_31
100
AcDbVertex
100
AcDb2dVertex
 10
30.4562371965331
 20
37.46277886116895
 30
0.0
  0
VERTEX
  5
50
330
47
100
AcDbEntity
  8
_U_30EC_U_30A4_U_30E4_U_31
100
AcDbVertex
100
AcDb2dVertex
 10
30.06131746389573
 20
38.0400253372442
 30
0.0
  0
VERTEX
  5
51
330
47
100
AcDbEntity
  8
_U_30EC_U_30A4_U_30E4_U_31
100
AcDbVertex
100
AcDb2dVertex
 10
29.95124069033086
 20
38.13743372213479
 30
0.0
  0
VERTEX
  5
52
330
47
100
AcDbEntity
  8
_U_30EC_U_30A4_U_30E4_U_31
100
AcDbVertex
100
AcDb2dVertex
 10
29.82365250369484
 20
38.23607028336805
 30
0.0
  0
VERTEX
  5
53
330
47
100
AcDbEntity
  8
_U_30EC_U_30A4_U_30E4_U_31
100
AcDbVertex
100
AcDb2dVertex
 10
29.67519323289253
 20
38.33271530222692
 30
0.0
  0
VERTEX
  5
54
330
47
100
AcDbEntity
  8
_U_30EC_U_30A4_U_30E4_U_31
100
AcDbVertex
100
AcDb2dVertex
 10
29.50250320682911
 20
38.42414905999402
 30
0.0
  0
VERTEX
  5
55
330
47
100
AcDbEntity
  8
_U_30EC_U_30A4_U_30E4_U_31
100
AcDbVertex
100
AcDb2dVertex
 10
29.30222275440945
 20
38.50715183795198
 30
0.0
  0
VERTEX
  5
56
330
47
100
AcDbEntity
  8
_U_30EC_U_30A4_U_30E4_U_31
100
AcDbVertex
100
AcDb2dVertex
 10
29.07099220453872
 20
38.57850391738437
 30
0.0
  0
VERTEX
  5
57
330
47
100
AcDbEntity
  8
_U_30EC_U_30A4_U_30E4_U_31
100
AcDbVertex
100
AcDb2dVertex
 10
28.80545188612178
 20
38.63498557957318
 30
0.0
  0
VERTEX
  5
58
330
47
100
AcDbEntity
  8
_U_30EC_U_30A4_U_30E4_U_31
100
AcDbVertex
100
AcDb2dVertex
 10
28.50224212806383
 20
38.67337710580199
 30
0.0
  0
VERTEX
  5
59
330
47
100
AcDbEntity
  8
_U_30EC_U_30A4_U_30E4_U_31
100
AcDbVertex
100
AcDb2dVertex
 10
28.05783521104827
 20
38.69045618288398
 30
0.0
  0
VERTEX
  5
5A
330
47
100
AcDbEntity
  8
_U_30EC_U_30A4_U_30E4_U_31
100
AcDbVertex
100
AcDb2dVertex
 10
27.56484722813124
 20
38.66825415451578
 30
0.0
  0
VERTEX
  5
5B
330
47
100
AcDbEntity
  8
_U_30EC_U_30A4_U_30E4_U_31
100
AcDbVertex
100
AcDb2dVertex
 10
27.02359517408695
 20
38.60685066072572
 30
0.0
  0
VERTEX
  5
5C
330
47
100
AcDbEntity
  8
_U_30EC_U_30A4_U_30E4_U_31
100
AcDbVertex
100
AcDb2dVertex
 10
26.43439604368964
 20
38.50632534154245
 30
0.0
  0
VERTEX
  5
5D
330
47
100
AcDbEntity
  8
_U_30EC_U_30A4_U_30E4_U_31
100
AcDbVertex
100
AcDb2dVertex
 10
25.79756683171321
 20
38.366757836994
 30
0.0
  0
VERTEX
  5
5E
330
47
100
AcDbEntity
  8
_U_30EC_U_30A4_U_30E4_U_31
100
AcDbVertex
100
AcDb2dVertex
 10
25.11342453293092
 20
38.18822778710904
 30
0.0
  0
VERTEX
  5
5F
330
47
100
AcDbEntity
  8
_U_30EC_U_30A4_U_30E4_U_31
100
AcDbVertex
100
AcDb2dVertex
 10
24.38228614211764
 20
37.97081483191558
 30
0.0
  0
VERTEX
  5
60
330
47
100
AcDbEntity
  8
_U_30EC_U_30A4_U_30E4_U_31
100
AcDbVertex
100
AcDb2dVertex
 10
23.60446865404662
 20
37.71459861144196
 30
0.0
  0
VERTEX
  5
61
330
47
100
AcDbEntity
  8
_U_30EC_U_30A4_U_30E4_U_31
100
AcDbVertex
100
AcDb2dVertex
 10
24.41595689360844
 20
38.29475995881354
 30
0.0
  0
VERTEX
  5
62
330
47
100
AcDbEntity
  8
_U_30EC_U_30A4_U_30E4_U_31
100
AcDbVertex
100
AcDb2dVertex
 10
25.3593688524164
 20
38.88562240631517
 30
0.0
  0
VERTEX
  5
63
330
47
100
AcDbEntity
  8
_U_30EC_U_30A4_U_30E4_U_31
100
AcDbVertex
100
AcDb2dVertex
 10
26.43046237330747
 20
39.45863946190027
 30
0.0
  0
VERTEX
  5
64
330
47
100
AcDbEntity
  8
_U_30EC_U_30A4_U_30E4_U_31
100
AcDbVertex
100
AcDb2dVertex
 10
27.62499529911795
 20
39.98526463352164
 30
0.0
  0
VERTEX
  5
65
330
47
100
AcDbEntity
  8
_U_30EC_U_30A4_U_30E4_U_31
100
AcDbVertex
100
AcDb2dVertex
 10
28.9387254726848
 20
40.43695142913241
 30
0.0
  0
VERTEX
  5
66
330
47
100
AcDbEntity
  8
_U_30EC_U_30A4_U_30E4_U_31
100
AcDbVertex
100
AcDb2dVertex
 10
30.36741073684432
 20
40.78515335668536
 30
0.0
  0
VERTEX
  5
67
330
47
100
AcDbEntity
  8
_U_30EC_U_30A4_U_30E4_U_31
100
AcDbVertex
100
AcDb2dVertex
 10
31.90680893443378
 20
41.00132392413362
 30
0.0
  0
VERTEX
  5
68
330
47
100
AcDbEntity
  8
_U_30EC_U_30A4_U_30E4_U_31
100
AcDbVertex
100
AcDb2dVertex
 10
33.55267790828918
 20
41.05691663943031
 30
0.0
  0
VERTEX
  5
69
330
47
100
AcDbEntity
  8
_U_30EC_U_30A4_U_30E4_U_31
100
AcDbVertex
100
AcDb2dVertex
 10
33.69631250855738
 20
40.32591224639699
 30
0.0
  0
VERTEX
  5
6A
330
47
100
AcDbEntity
  8
_U_30EC_U_30A4_U_30E4_U_31
100
AcDbVertex
100
AcDb2dVertex
 10
33.84339269324411
 20
39.26098271678966
 30
0.0
  0
VERTEX
  5
6B
330
47
100
AcDbEntity
  8
_U_30EC_U_30A4_U_30E4_U_31
100
AcDbVertex
100
AcDb2dVertex
 10
33.93566051832108
 20
37.92464888244153
 30
0.0
  0
VERTEX
  5
6C
330
47
100
AcDbEntity
  8
_U_30EC_U_30A4_U_30E4_U_31
100
AcDbVertex
100
AcDb2dVertex
 10
33.91485803975939
 20
36.37943157518647
 30
0.0
  0
VERTEX
  5
6D
330
47
100
AcDbEntity
  8
_U_30EC_U_30A4_U_30E4_U_31
100
AcDbVertex
100
AcDb2dVertex
 10
33.72272731353009
 20
34.68785162685835
 30
0.0
  0
VERTEX
  5
6E
330
47
100
AcDbEntity
  8
_U_30EC_U_30A4_U_30E4_U_31
100
AcDbVertex
100
AcDb2dVertex
 10
33.30101039560461
 20
32.91242986929071
 30
0.0
  0
VERTEX
  5
6F
330
47
100
AcDbEntity
  8
_U_30EC_U_30A4_U_30E4_U_31
100
AcDbVertex
100
AcDb2dVertex
 10
32.59144934195433
 20
31.11568713431743
 30
0.0
  0
VERTEX
  5
70
330
47
100
AcDbEntity
  8
_U_30EC_U_30A4_U_30E4_U_31
100
AcDbVertex
100
AcDb2dVertex
 10
31.53578620855034
 20
29.36014425377235
 30
0.0
  0
VERTEX
  5
71
330
47
100
AcDbEntity
  8
_U_30EC_U_30A4_U_30E4_U_31
100
AcDbVertex
100
AcDb2dVertex
 10
31.53578620855034
 20
29.36014425377235
 30
0.0
  0
SEQEND
  5
73
330
47
100
AcDbEntity
  8
_U_30EC_U_30A4_U_30E4_U_31
  0
HATCH
  5
72
330
1F
100
AcDbEntity
  8
_U_30EC_U_30A4_U_30E4_U_31
 62
   254
100
AcDbHatch
 10
0.0
 20
0.0
 30
0.0
210
0.0
220
0.0
230
1.0
  2
SOLID
 70
     1
 71
     0
 91
        1
 92
        1
 93
       40
 72
     1
 10
31.53578620855034
 20
29.36014425377235
 11
31.5045607248284
 21
30.44139582667694
 72
     1
 10
31.5045607248284
 20
30.44139582667694
 11
31.44603378991684
 21
31.66984905227225
 72
     1
 10
31.44603378991684
 20
31.66984905227225
 11
31.35198711378759
 21
32.9724364702885
 72
     1
 10
31.35198711378759
 20
32.9724364702885
 11
31.2142024064126
 21
34.27609062045624
 72
     1
 10
31.2142024064126
 20
34.27609062045624
 11
31.02446137776347
 21
35.50774404250535
 72
     1
 10
31.02446137776347
 20
35.50774404250535
 11
30.7745457378131
 21
36.59432927616608
 72
     1
 10
30.7745457378131
 20
36.59432927616608
 11
30.4562371965331
 21
37.46277886116895
 72
     1
 10
30.4562371965331
 20
37.46277886116895
 11
30.06131746389573
 21
38.0400253372442
 72
     1
 10
30.06131746389573
 20
38.0400253372442
 11
29.95124069033086
 21
38.13743372213479
 72
     1
 10
29.95124069033086
 20
38.13743372213479
 11
29.82365250369484
 21
38.23607028336805
 72
     1
 10
29.82365250369484
 20
38.23607028336805
 11
29.67519323289253
 21
38.33271530222692
 72
     1
 10
29.67519323289253
 20
38.33271530222692
 11
29.50250320682911
 21
38.42414905999402
 72
     1
 10
29.50250320682911
 20
38.42414905999402
 11
29.30222275440945
 21
38.50715183795198
 72
     1
 10
29.30222275440945
 20
38.50715183795198
 11
29.07099220453872
 21
38.57850391738437
 72
     1
 10
29.07099220453872
 20
38.57850391738437
 11
28.80545188612178
 21
38.63498557957318
 72
     1
 10
28.80545188612178
 20
38.63498557957318
 11
28.50224212806383
 21
38.67337710580199
 72
     1
 10
28.50224212806383
 20
38.67337710580199
 11
28.05783521104827
 21
38.69045618288398
 72
     1
 10
28.05783521104827
 20
38.69045618288398
 11
27.56484722813124
 21
38.66825415451578
 72
     1
 10
27.56484722813124
 20
38.66825415451578
 11
27.02359517408695
 21
38.60685066072572
 72
     1
 10
27.02359517408695
 20
38.60685066072572
 11
26.43439604368964
 21
38.50632534154245
 72
     1
 10
26.43439604368964
 20
38.50632534154245
 11
25.79756683171321
 21
38.366757836994
 72
     1
 10
25.79756683171321
 20
38.366757836994
 11
25.11342453293092
 21
38.18822778710904
 72
     1
 10
25.11342453293092
 20
38.18822778710904
 11
24.38228614211764
 21
37.97081483191558
 72
     1
 10
24.38228614211764
 20
37.97081483191558
 11
23.60446865404662
 21
37.71459861144196
 72
     1
 10
23.60446865404662
 20
37.71459861144196
 11
24.41595689360844
 21
38.29475995881354
 72
     1
 10
24.41595689360844
 20
38.29475995881354
 11
25.3593688524164
 21
38.88562240631517
 72
     1
 10
25.3593688524164
 20
38.88562240631517
 11
26.43046237330747
 21
39.45863946190027
 72
     1
 10
26.43046237330747
 20
39.45863946190027
 11
27.62499529911795
 21
39.98526463352164
 72
     1
 10
27.62499529911795
 20
39.98526463352164
 11
28.9387254726848
 21
40.43695142913241
 72
     1
 10
28.9387254726848
 20
40.43695142913241
 11
30.36741073684432
 21
40.78515335668536
 72
     1
 10
30.36741073684432
 20
40.78515335668536
 11
31.90680893443378
 21
41.00132392413362
 72
     1
 10
31.90680893443378
 20
41.00132392413362
 11
33.55267790828918
 21
41.05691663943031
 72
     1
 10
33.55267790828918
 20
41.05691663943031
 11
33.69631250855738
 21
40.32591224639699
 72
     1
 10
33.69631250855738
 20
40.32591224639699
 11
33.84339269324411
 21
39.26098271678966
 72
     1
 10
33.84339269324411
 20
39.26098271678966
 11
33.93566051832108
 21
37.92464888244153
 72
     1
 10
33.93566051832108
 20
37.92464888244153
 11
33.91485803975939
 21
36.37943157518647
 72
     1
 10
33.91485803975939
 20
36.37943157518647
 11
33.72272731353009
 21
34.68785162685835
 72
     1
 10
33.72272731353009
 20
34.68785162685835
 11
33.30101039560461
 21
32.91242986929071
 72
     1
 10
33.30101039560461
 20
32.91242986929071
 11
32.59144934195433
 21
31.11568713431743
 72
     1
 10
32.59144934195433
 20
31.11568713431743
 11
31.53578620855034
 21
29.36014425377235
 97
        0
 75
     2
 76
     1
 98
        0
  0
POLYLINE
  5
74
330
1F
100
AcDbEntity
  8
_U_30EC_U_30A4_U_30E4_U_31
100
AcDb2dPolyline
 66
     1
 10
0.0
 20
0.0
 30
0.0
  0
VERTEX
  5
75
330
74
100
AcDbEntity
  8
_U_30EC_U_30A4_U_30E4_U_31
100
AcDbVertex
100
AcDb2dVertex
 10
1.917051268758691
 20
37.08799422309688
 30
0.0
  0
VERTEX
  5
76
330
74
100
AcDbEntity
  8
_U_30EC_U_30A4_U_30E4_U_31
100
AcDbVertex
100
AcDb2dVertex
 10
1.63098874466709
 20
37.58118781320741
 30
0.0
  0
VERTEX
  5
77
330
74
100
AcDbEntity
  8
_U_30EC_U_30A4_U_30E4_U_31
100
AcDbVertex
100
AcDb2dVertex
 10
1.380370652079253
 20
38.03827366808228
 30
0.0
  0
VERTEX
  5
78
330
74
100
AcDbEntity
  8
_U_30EC_U_30A4_U_30E4_U_31
100
AcDbVertex
100
AcDb2dVertex
 10
1.165451284235215
 20
38.45152749230218
 30
0.0
  0
VERTEX
  5
79
330
74
100
AcDbEntity
  8
_U_30EC_U_30A4_U_30E4_U_31
100
AcDbVertex
100
AcDb2dVertex
 10
0.9864849343746891
 20
38.81322499044772
 30
0.0
  0
VERTEX
  5
7A
330
74
100
AcDbEntity
  8
_U_30EC_U_30A4_U_30E4_U_31
100
AcDbVertex
100
AcDb2dVertex
 10
0.8437258957380316
 20
39.11564186709958
 30
0.0
  0
VERTEX
  5
7B
330
74
100
AcDbEntity
  8
_U_30EC_U_30A4_U_30E4_U_31
100
AcDbVertex
100
AcDb2dVertex
 10
0.7374284615652767
 20
39.35105382683874
 30
0.0
  0
VERTEX
  5
7C
330
74
100
AcDbEntity
  8
_U_30EC_U_30A4_U_30E4_U_31
100
AcDbVertex
100
AcDb2dVertex
 10
0.6678469250961384
 20
39.51173657424582
 30
0.0
  0
VERTEX
  5
7D
330
74
100
AcDbEntity
  8
_U_30EC_U_30A4_U_30E4_U_31
100
AcDbVertex
100
AcDb2dVertex
 10
0.635235579570651
 20
39.58996581390086
 30
0.0
  0
VERTEX
  5
7E
330
74
100
AcDbEntity
  8
_U_30EC_U_30A4_U_30E4_U_31
100
AcDbVertex
100
AcDb2dVertex
 10
0.6195357626644565
 20
39.62878882886433
 30
0.0
  0
VERTEX
  5
7F
330
74
100
AcDbEntity
  8
_U_30EC_U_30A4_U_30E4_U_31
100
AcDbVertex
100
AcDb2dVertex
 10
0.6009437181296107
 20
39.67533998060423
 30
0.0
  0
VERTEX
  5
80
330
74
100
AcDbEntity
  8
_U_30EC_U_30A4_U_30E4_U_31
100
AcDbVertex
100
AcDb2dVertex
 10
0.5807838470552141
 20
39.72699278682411
 30
0.0
  0
VERTEX
  5
81
330
74
100
AcDbEntity
  8
_U_30EC_U_30A4_U_30E4_U_31
100
AcDbVertex
100
AcDb2dVertex
 10
0.5603805505290842
 20
39.78112076522784
 30
0.0
  0
VERTEX
  5
82
330
74
100
AcDbEntity
  8
_U_30EC_U_30A4_U_30E4_U_31
100
AcDbVertex
100
AcDb2dVertex
 10
0.5410582296396798
 20
39.83509743351836
 30
0.0
  0
VERTEX
  5
83
330
74
100
AcDbEntity
  8
_U_30EC_U_30A4_U_30E4_U_31
100
AcDbVertex
100
AcDb2dVertex
 10
0.5241412854754598
 20
39.88629630939953
 30
0.0
  0
VERTEX
  5
84
330
74
100
AcDbEntity
  8
_U_30EC_U_30A4_U_30E4_U_31
100
AcDbVertex
100
AcDb2dVertex
 10
0.5109541191248834
 20
39.93209091057491
 30
0.0
  0
VERTEX
  5
85
330
74
100
AcDbEntity
  8
_U_30EC_U_30A4_U_30E4_U_31
100
AcDbVertex
100
AcDb2dVertex
 10
0.5028211316757678
 20
39.96985475474774
 30
0.0
  0
VERTEX
  5
86
330
74
100
AcDbEntity
  8
_U_30EC_U_30A4_U_30E4_U_31
100
AcDbVertex
100
AcDb2dVertex
 10
0.5911766357232852
 20
40.03808063204384
 30
0.0
  0
VERTEX
  5
87
330
74
100
AcDbEntity
  8
_U_30EC_U_30A4_U_30E4_U_31
100
AcDbVertex
100
AcDb2dVertex
 10
0.733192484028789
 20
40.119013885725
 30
0.0
  0
VERTEX
  5
88
330
74
100
AcDbEntity
  8
_U_30EC_U_30A4_U_30E4_U_31
100
AcDbVertex
100
AcDb2dVertex
 10
0.9238672075872293
 20
40.2118844000751
 30
0.0
  0
VERTEX
  5
89
330
74
100
AcDbEntity
  8
_U_30EC_U_30A4_U_30E4_U_31
100
AcDbVertex
100
AcDb2dVertex
 10
1.158199337393556
 20
40.31592205937834
 30
0.0
  0
VERTEX
  5
8A
330
74
100
AcDbEntity
  8
_U_30EC_U_30A4_U_30E4_U_31
100
AcDbVertex
100
AcDb2dVertex
 10
1.431187404442076
 20
40.43035674791894
 30
0.0
  0
VERTEX
  5
8B
330
74
100
AcDbEntity
  8
_U_30EC_U_30A4_U_30E4_U_31
100
AcDbVertex
100
AcDb2dVertex
 10
1.737829939728381
 20
40.5544183499811
 30
0.0
  0
VERTEX
  5
8C
330
74
100
AcDbEntity
  8
_U_30EC_U_30A4_U_30E4_U_31
100
AcDbVertex
100
AcDb2dVertex
 10
2.0731254742471
 20
40.68733674984901
 30
0.0
  0
VERTEX
  5
8D
330
74
100
AcDbEntity
  8
_U_30EC_U_30A4_U_30E4_U_31
100
AcDbVertex
100
AcDb2dVertex
 10
2.432072538992542
 20
40.82834183180658
 30
0.0
  0
VERTEX
  5
8E
330
74
100
AcDbEntity
  8
_U_30EC_U_30A4_U_30E4_U_31
100
AcDbVertex
100
AcDb2dVertex
 10
2.441113628100804
 20
40.83187365799156
 30
0.0
  0
VERTEX
  5
8F
330
74
100
AcDbEntity
  8
_U_30EC_U_30A4_U_30E4_U_31
100
AcDbVertex
100
AcDb2dVertex
 10
2.450154717209065
 20
40.83540548417654
 30
0.0
  0
VERTEX
  5
90
330
74
100
AcDbEntity
  8
_U_30EC_U_30A4_U_30E4_U_31
100
AcDbVertex
100
AcDb2dVertex
 10
2.459195806317327
 20
40.83893731036152
 30
0.0
  0
VERTEX
  5
91
330
74
100
AcDbEntity
  8
_U_30EC_U_30A4_U_30E4_U_31
100
AcDbVertex
100
AcDb2dVertex
 10
2.468236895425588
 20
40.84246913654683
 30
0.0
  0
VERTEX
  5
92
330
74
100
AcDbEntity
  8
_U_30EC_U_30A4_U_30E4_U_31
100
AcDbVertex
100
AcDb2dVertex
 10
2.47727798453385
 20
40.84600096273213
 30
0.0
  0
VERTEX
  5
93
330
74
100
AcDbEntity
  8
_U_30EC_U_30A4_U_30E4_U_31
100
AcDbVertex
100
AcDb2dVertex
 10
2.486319073642112
 20
40.84953278891712
 30
0.0
  0
VERTEX
  5
94
330
74
100
AcDbEntity
  8
_U_30EC_U_30A4_U_30E4_U_31
100
AcDbVertex
100
AcDb2dVertex
 10
2.495360162750373
 20
40.8530646151021
 30
0.0
  0
VERTEX
  5
95
330
74
100
AcDbEntity
  8
_U_30EC_U_30A4_U_30E4_U_31
100
AcDbVertex
100
AcDb2dVertex
 10
2.504401251858635
 20
40.85659644128709
 30
0.0
  0
VERTEX
  5
96
330
74
100
AcDbEntity
  8
_U_30EC_U_30A4_U_30E4_U_31
100
AcDbVertex
100
AcDb2dVertex
 10
2.846413941074962
 20
40.95507720287915
 30
0.0
  0
VERTEX
  5
97
330
74
100
AcDbEntity
  8
_U_30EC_U_30A4_U_30E4_U_31
100
AcDbVertex
100
AcDb2dVertex
 10
3.571673274291228
 20
41.15658216726275
 30
0.0
  0
VERTEX
  5
98
330
74
100
AcDbEntity
  8
_U_30EC_U_30A4_U_30E4_U_31
100
AcDbVertex
100
AcDb2dVertex
 10
4.628737026856603
 20
41.4377418890025
 30
0.0
  0
VERTEX
  5
99
330
74
100
AcDbEntity
  8
_U_30EC_U_30A4_U_30E4_U_31
100
AcDbVertex
100
AcDb2dVertex
 10
5.966162974118649
 20
41.77518692266428
 30
0.0
  0
VERTEX
  5
9A
330
74
100
AcDbEntity
  8
_U_30EC_U_30A4_U_30E4_U_31
100
AcDbVertex
100
AcDb2dVertex
 10
7.532508891425896
 20
42.14554782281365
 30
0.0
  0
VERTEX
  5
9B
330
74
100
AcDbEntity
  8
_U_30EC_U_30A4_U_30E4_U_31
100
AcDbVertex
100
AcDb2dVertex
 10
9.27633255412719
 20
42.52545514401552
 30
0.0
  0
VERTEX
  5
9C
330
74
100
AcDbEntity
  8
_U_30EC_U_30A4_U_30E4_U_31
100
AcDbVertex
100
AcDb2dVertex
 10
11.14619173756977
 20
42.89153944083515
 30
0.0
  0
VERTEX
  5
9D
330
74
100
AcDbEntity
  8
_U_30EC_U_30A4_U_30E4_U_31
100
AcDbVertex
100
AcDb2dVertex
 10
13.09064421710282
 20
43.22043126783841
 30
0.0
  0
VERTEX
  5
9E
330
74
100
AcDbEntity
  8
_U_30EC_U_30A4_U_30E4_U_31
100
AcDbVertex
100
AcDb2dVertex
 10
12.62646068873508
 20
42.66567337624984
 30
0.0
  0
VERTEX
  5
9F
330
74
100
AcDbEntity
  8
_U_30EC_U_30A4_U_30E4_U_31
100
AcDbVertex
100
AcDb2dVertex
 10
12.20719048845926
 20
42.14243657051538
 30
0.0
  0
VERTEX
  5
A0
330
74
100
AcDbEntity
  8
_U_30EC_U_30A4_U_30E4_U_31
100
AcDbVertex
100
AcDb2dVertex
 10
11.83291261587553
 20
41.65560750524756
 30
0.0
  0
VERTEX
  5
A1
330
74
100
AcDbEntity
  8
_U_30EC_U_30A4_U_30E4_U_31
100
AcDbVertex
100
AcDb2dVertex
 10
11.5037060705841
 20
41.21007283505985
 30
0.0
  0
VERTEX
  5
A2
330
74
100
AcDbEntity
  8
_U_30EC_U_30A4_U_30E4_U_31
100
AcDbVertex
100
AcDb2dVertex
 10
11.21964985218546
 20
40.8107192145651
 30
0.0
  0
VERTEX
  5
A3
330
74
100
AcDbEntity
  8
_U_30EC_U_30A4_U_30E4_U_31
100
AcDbVertex
100
AcDb2dVertex
 10
10.98082296027981
 20
40.46243329837584
 30
0.0
  0
VERTEX
  5
A4
330
74
100
AcDbEntity
  8
_U_30EC_U_30A4_U_30E4_U_31
100
AcDbVertex
100
AcDb2dVertex
 10
10.78730439446765
 20
40.17010174110553
 30
0.0
  0
VERTEX
  5
A5
330
74
100
AcDbEntity
  8
_U_30EC_U_30A4_U_30E4_U_31
100
AcDbVertex
100
AcDb2dVertex
 10
10.63917315434884
 20
39.93861119736734
 30
0.0
  0
VERTEX
  5
A6
330
74
100
AcDbEntity
  8
_U_30EC_U_30A4_U_30E4_U_31
100
AcDbVertex
100
AcDb2dVertex
 10
10.56398746988411
 20
39.94621137156379
 30
0.0
  0
VERTEX
  5
A7
330
74
100
AcDbEntity
  8
_U_30EC_U_30A4_U_30E4_U_31
100
AcDbVertex
100
AcDb2dVertex
 10
10.4891984680988
 20
39.95362081377485
 30
0.0
  0
VERTEX
  5
A8
330
74
100
AcDbEntity
  8
_U_30EC_U_30A4_U_30E4_U_31
100
AcDbVertex
100
AcDb2dVertex
 10
10.41479863307653
 20
39.96084626052273
 30
0.0
  0
VERTEX
  5
A9
330
74
100
AcDbEntity
  8
_U_30EC_U_30A4_U_30E4_U_31
100
AcDbVertex
100
AcDb2dVertex
 10
10.34078044890095
 20
39.96789444832829
 30
0.0
  0
VERTEX
  5
AA
330
74
100
AcDbEntity
  8
_U_30EC_U_30A4_U_30E4_U_31
100
AcDbVertex
100
AcDb2dVertex
 10
10.26713639965537
 20
39.97477211371375
 30
0.0
  0
VERTEX
  5
AB
330
74
100
AcDbEntity
  8
_U_30EC_U_30A4_U_30E4_U_31
100
AcDbVertex
100
AcDb2dVertex
 10
10.19385896942375
 20
39.98148599320064
 30
0.0
  0
VERTEX
  5
AC
330
74
100
AcDbEntity
  8
_U_30EC_U_30A4_U_30E4_U_31
100
AcDbVertex
100
AcDb2dVertex
 10
10.12094064228973
 20
39.9880428233105
 30
0.0
  0
VERTEX
  5
AD
330
74
100
AcDbEntity
  8
_U_30EC_U_30A4_U_30E4_U_31
100
AcDbVertex
100
AcDb2dVertex
 10
10.04837390233726
 20
39.99444934056488
 30
0.0
  0
VERTEX
  5
AE
330
74
100
AcDbEntity
  8
_U_30EC_U_30A4_U_30E4_U_31
100
AcDbVertex
100
AcDb2dVertex
 10
7.900843233347574
 20
40.12072531508655
 30
0.0
  0
VERTEX
  5
AF
330
74
100
AcDbEntity
  8
_U_30EC_U_30A4_U_30E4_U_31
100
AcDbVertex
100
AcDb2dVertex
 10
6.108313520342374
 20
40.11460842349842
 30
0.0
  0
VERTEX
  5
B0
330
74
100
AcDbEntity
  8
_U_30EC_U_30A4_U_30E4_U_31
100
AcDbVertex
100
AcDb2dVertex
 10
4.648230641490933
 20
40.01089627614385
 30
0.0
  0
VERTEX
  5
B1
330
74
100
AcDbEntity
  8
_U_30EC_U_30A4_U_30E4_U_31
100
AcDbVertex
100
AcDb2dVertex
 10
3.498040474962198
 20
39.84438648336685
 30
0.0
  0
VERTEX
  5
B2
330
74
100
AcDbEntity
  8
_U_30EC_U_30A4_U_30E4_U_31
100
AcDbVertex
100
AcDb2dVertex
 10
2.635188898925761
 20
39.6498766555114
 30
0.0
  0
VERTEX
  5
B3
330
74
100
AcDbEntity
  8
_U_30EC_U_30A4_U_30E4_U_31
100
AcDbVertex
100
AcDb2dVertex
 10
2.037121791550891
 20
39.46216440292119
 30
0.0
  0
VERTEX
  5
B4
330
74
100
AcDbEntity
  8
_U_30EC_U_30A4_U_30E4_U_31
100
AcDbVertex
100
AcDb2dVertex
 10
1.681285031006538
 20
39.31604733594054
 30
0.0
  0
VERTEX
  5
B5
330
74
100
AcDbEntity
  8
_U_30EC_U_30A4_U_30E4_U_31
100
AcDbVertex
100
AcDb2dVertex
 10
1.545124495462292
 20
39.24632306491313
 30
0.0
  0
VERTEX
  5
B6
330
74
100
AcDbEntity
  8
_U_30EC_U_30A4_U_30E4_U_31
100
AcDbVertex
100
AcDb2dVertex
 10
1.505116423807801
 20
39.22284892714767
 30
0.0
  0
VERTEX
  5
B7
330
74
100
AcDbEntity
  8
_U_30EC_U_30A4_U_30E4_U_31
100
AcDbVertex
100
AcDb2dVertex
 10
1.465108352153631
 20
39.1993747893822
 30
0.0
  0
VERTEX
  5
B8
330
74
100
AcDbEntity
  8
_U_30EC_U_30A4_U_30E4_U_31
100
AcDbVertex
100
AcDb2dVertex
 10
1.425100280499461
 20
39.17590065161674
 30
0.0
  0
VERTEX
  5
B9
330
74
100
AcDbEntity
  8
_U_30EC_U_30A4_U_30E4_U_31
100
AcDbVertex
100
AcDb2dVertex
 10
1.38509220884497
 20
39.15242651385159
 30
0.0
  0
VERTEX
  5
BA
330
74
100
AcDbEntity
  8
_U_30EC_U_30A4_U_30E4_U_31
100
AcDbVertex
100
AcDb2dVertex
 10
1.3450841371908
 20
39.12895237608645
 30
0.0
  0
VERTEX
  5
BB
330
74
100
AcDbEntity
  8
_U_30EC_U_30A4_U_30E4_U_31
100
AcDbVertex
100
AcDb2dVertex
 10
1.30507606553663
 20
39.10547823832099
 30
0.0
  0
VERTEX
  5
BC
330
74
100
AcDbEntity
  8
_U_30EC_U_30A4_U_30E4_U_31
100
AcDbVertex
100
AcDb2dVertex
 10
1.265067993882139
 20
39.08200410055553
 30
0.0
  0
VERTEX
  5
BD
330
74
100
AcDbEntity
  8
_U_30EC_U_30A4_U_30E4_U_31
100
AcDbVertex
100
AcDb2dVertex
 10
1.225059922227969
 20
39.05852996279007
 30
0.0
  0
VERTEX
  5
BE
330
74
100
AcDbEntity
  8
_U_30EC_U_30A4_U_30E4_U_31
100
AcDbVertex
100
AcDb2dVertex
 10
1.235963945090515
 20
39.01344000253635
 30
0.0
  0
VERTEX
  5
BF
330
74
100
AcDbEntity
  8
_U_30EC_U_30A4_U_30E4_U_31
100
AcDbVertex
100
AcDb2dVertex
 10
1.246867967953062
 20
38.96835004228264
 30
0.0
  0
VERTEX
  5
C0
330
74
100
AcDbEntity
  8
_U_30EC_U_30A4_U_30E4_U_31
100
AcDbVertex
100
AcDb2dVertex
 10
1.257771990815609
 20
38.92326008202892
 30
0.0
  0
VERTEX
  5
C1
330
74
100
AcDbEntity
  8
_U_30EC_U_30A4_U_30E4_U_31
100
AcDbVertex
100
AcDb2dVertex
 10
1.268676013678156
 20
38.87817012177521
 30
0.0
  0
VERTEX
  5
C2
330
74
100
AcDbEntity
  8
_U_30EC_U_30A4_U_30E4_U_31
100
AcDbVertex
100
AcDb2dVertex
 10
1.279580036540702
 20
38.83308016152149
 30
0.0
  0
VERTEX
  5
C3
330
74
100
AcDbEntity
  8
_U_30EC_U_30A4_U_30E4_U_31
100
AcDbVertex
100
AcDb2dVertex
 10
1.290484059403249
 20
38.78799020126778
 30
0.0
  0
VERTEX
  5
C4
330
74
100
AcDbEntity
  8
_U_30EC_U_30A4_U_30E4_U_31
100
AcDbVertex
100
AcDb2dVertex
 10
1.301388082265796
 20
38.74290024101406
 30
0.0
  0
VERTEX
  5
C5
330
74
100
AcDbEntity
  8
_U_30EC_U_30A4_U_30E4_U_31
100
AcDbVertex
100
AcDb2dVertex
 10
1.312292105128343
 20
38.69781028076035
 30
0.0
  0
VERTEX
  5
C6
330
74
100
AcDbEntity
  8
_U_30EC_U_30A4_U_30E4_U_31
100
AcDbVertex
100
AcDb2dVertex
 10
1.360930433813319
 20
38.51215429624455
 30
0.0
  0
VERTEX
  5
C7
330
74
100
AcDbEntity
  8
_U_30EC_U_30A4_U_30E4_U_31
100
AcDbVertex
100
AcDb2dVertex
 10
1.418184565027547
 20
38.32114680342256
 30
0.0
  0
VERTEX
  5
C8
330
74
100
AcDbEntity
  8
_U_30EC_U_30A4_U_30E4_U_31
100
AcDbVertex
100
AcDb2dVertex
 10
1.483597535616031
 20
38.12523912463411
 30
0.0
  0
VERTEX
  5
C9
330
74
100
AcDbEntity
  8
_U_30EC_U_30A4_U_30E4_U_31
100
AcDbVertex
100
AcDb2dVertex
 10
1.55671238242474
 20
37.9248825822192
 30
0.0
  0
VERTEX
  5
CA
330
74
100
AcDbEntity
  8
_U_30EC_U_30A4_U_30E4_U_31
100
AcDbVertex
100
AcDb2dVertex
 10
1.637072142298034
 20
37.72052849851784
 30
0.0
  0
VERTEX
  5
CB
330
74
100
AcDbEntity
  8
_U_30EC_U_30A4_U_30E4_U_31
100
AcDbVertex
100
AcDb2dVertex
 10
1.724219852081241
 20
37.5126281958707
 30
0.0
  0
VERTEX
  5
CC
330
74
100
AcDbEntity
  8
_U_30EC_U_30A4_U_30E4_U_31
100
AcDbVertex
100
AcDb2dVertex
 10
1.817698548619685
 20
37.30163299661682
 30
0.0
  0
VERTEX
  5
CD
330
74
100
AcDbEntity
  8
_U_30EC_U_30A4_U_30E4_U_31
100
AcDbVertex
100
AcDb2dVertex
 10
1.917051268758691
 20
37.08799422309688
 30
0.0
  0
VERTEX
  5
CE
330
74
100
AcDbEntity
  8
_U_30EC_U_30A4_U_30E4_U_31
100
AcDbVertex
100
AcDb2dVertex
 10
1.917051268758691
 20
37.08799422309688
 30
0.0
  0
SEQEND
  5
D0
330
74
100
AcDbEntity
  8
_U_30EC_U_30A4_U_30E4_U_31
  0
HATCH
  5
CF
330
1F
100
AcDbEntity
  8
_U_30EC_U_30A4_U_30E4_U_31
 62
   254
100
AcDbHatch
 10
0.0
 20
0.0
 30
0.0
210
0.0
220
0.0
230
1.0
  2
SOLID
 70
     1
 71
     0
 91
        1
 92
        1
 93
       88
 72
     1
 10
1.917051268758691
 20
37.08799422309688
 11
1.63098874466709
 21
37.58118781320741
 72
     1
 10
1.63098874466709
 20
37.58118781320741
 11
1.380370652079253
 21
38.03827366808228
 72
     1
 10
1.380370652079253
 20
38.03827366808228
 11
1.165451284235215
 21
38.45152749230218
 72
     1
 10
1.165451284235215
 20
38.45152749230218
 11
0.9864849343746891
 21
38.81322499044772
 72
     1
 10
0.9864849343746891
 20
38.81322499044772
 11
0.8437258957380316
 21
39.11564186709958
 72
     1
 10
0.8437258957380316
 20
39.11564186709958
 11
0.7374284615652767
 21
39.35105382683874
 72
     1
 10
0.7374284615652767
 20
39.35105382683874
 11
0.6678469250961384
 21
39.51173657424582
 72
     1
 10
0.6678469250961384
 20
39.51173657424582
 11
0.635235579570651
 21
39.58996581390086
 72
     1
 10
0.635235579570651
 20
39.58996581390086
 11
0.6195357626644565
 21
39.62878882886433
 72
     1
 10
0.6195357626644565
 20
39.62878882886433
 11
0.6009437181296107
 21
39.67533998060423
 72
     1
 10
0.6009437181296107
 20
39.67533998060423
 11
0.5807838470552141
 21
39.72699278682411
 72
     1
 10
0.5807838470552141
 20
39.72699278682411
 11
0.5603805505290842
 21
39.78112076522784
 72
     1
 10
0.5603805505290842
 20
39.78112076522784
 11
0.5410582296396798
 21
39.83509743351836
 72
     1
 10
0.5410582296396798
 20
39.83509743351836
 11
0.5241412854754598
 21
39.88629630939953
 72
     1
 10
0.5241412854754598
 20
39.88629630939953
 11
0.5109541191248834
 21
39.93209091057491
 72
     1
 10
0.5109541191248834
 20
39.93209091057491
 11
0.5028211316757678
 21
39.96985475474774
 72
     1
 10
0.5028211316757678
 20
39.96985475474774
 11
0.5911766357232852
 21
40.03808063204384
 72
     1
 10
0.5911766357232852
 20
40.03808063204384
 11
0.733192484028789
 21
40.119013885725
 72
     1
 10
0.733192484028789
 20
40.119013885725
 11
0.9238672075872293
 21
40.2118844000751
 72
     1
 10
0.9238672075872293
 20
40.2118844000751
 11
1.158199337393556
 21
40.31592205937834
 72
     1
 10
1.158199337393556
 20
40.31592205937834
 11
1.431187404442076
 21
40.43035674791894
 72
     1
 10
1.431187404442076
 20
40.43035674791894
 11
1.737829939728381
 21
40.5544183499811
 72
     1
 10
1.737829939728381
 20
40.5544183499811
 11
2.0731254742471
 21
40.68733674984901
 72
     1
 10
2.0731254742471
 20
40.68733674984901
 11
2.432072538992542
 21
40.82834183180658
 72
     1
 10
2.432072538992542
 20
40.82834183180658
 11
2.441113628100804
 21
40.83187365799156
 72
     1
 10
2.441113628100804
 20
40.83187365799156
 11
2.450154717209065
 21
40.83540548417654
 72
     1
 10
2.450154717209065
 20
40.83540548417654
 11
2.459195806317327
 21
40.83893731036152
 72
     1
 10
2.459195806317327
 20
40.83893731036152
 11
2.468236895425588
 21
40.84246913654683
 72
     1
 10
2.468236895425588
 20
40.84246913654683
 11
2.47727798453385
 21
40.84600096273213
 72
     1
 10
2.47727798453385
 20
40.84600096273213
 11
2.486319073642112
 21
40.84953278891712
 72
     1
 10
2.486319073642112
 20
40.84953278891712
 11
2.495360162750373
 21
40.8530646151021
 72
     1
 10
2.495360162750373
 20
40.8530646151021
 11
2.504401251858635
 21
40.85659644128709
 72
     1
 10
2.504401251858635
 20
40.85659644128709
 11
2.846413941074962
 21
40.95507720287915
 72
     1
 10
2.846413941074962
 20
40.95507720287915
 11
3.571673274291228
 21
41.15658216726275
 72
     1
 10
3.571673274291228
 20
41.15658216726275
 11
4.628737026856603
 21
41.4377418890025
 72
     1
 10
4.628737026856603
 20
41.4377418890025
 11
5.966162974118649
 21
41.77518692266428
 72
     1
 10
5.966162974118649
 20
41.77518692266428
 11
7.532508891425896
 21
42.14554782281365
 72
     1
 10
7.532508891425896
 20
42.14554782281365
 11
9.27633255412719
 21
42.52545514401552
 72
     1
 10
9.27633255412719
 20
42.52545514401552
 11
11.14619173756977
 21
42.89153944083515
 72
     1
 10
11.14619173756977
 20
42.89153944083515
 11
13.09064421710282
 21
43.22043126783841
 72
     1
 10
13.09064421710282
 20
43.22043126783841
 11
12.62646068873508
 21
42.66567337624984
 72
     1
 10
12.62646068873508
 20
42.66567337624984
 11
12.20719048845926
 21
42.14243657051538
 72
     1
 10
12.20719048845926
 20
42.14243657051538
 11
11.83291261587553
 21
41.65560750524756
 72
     1
 10
11.83291261587553
 20
41.65560750524756
 11
11.5037060705841
 21
41.21007283505985
 72
     1
 10
11.5037060705841
 20
41.21007283505985
 11
11.21964985218546
 21
40.8107192145651
 72
     1
 10
11.21964985218546
 20
40.8107192145651
 11
10.98082296027981
 21
40.46243329837584
 72
     1
 10
10.98082296027981
 20
40.46243329837584
 11
10.78730439446765
 21
40.17010174110553
 72
     1
 10
10.78730439446765
 20
40.17010174110553
 11
10.63917315434884
 21
39.93861119736734
 72
     1
 10
10.63917315434884
 20
39.93861119736734
 11
10.56398746988411
 21
39.94621137156379
 72
     1
 10
10.56398746988411
 20
39.94621137156379
 11
10.4891984680988
 21
39.95362081377485
 72
     1
 10
10.4891984680988
 20
39.95362081377485
 11
10.41479863307653
 21
39.96084626052273
 72
     1
 10
10.41479863307653
 20
39.96084626052273
 11
10.34078044890095
 21
39.96789444832829
 72
     1
 10
10.34078044890095
 20
39.96789444832829
 11
10.26713639965537
 21
39.97477211371375
 72
     1
 10
10.26713639965537
 20
39.97477211371375
 11
10.19385896942375
 21
39.98148599320064
 72
     1
 10
10.19385896942375
 20
39.98148599320064
 11
10.12094064228973
 21
39.9880428233105
 72
     1
 10
10.12094064228973
 20
39.9880428233105
 11
10.04837390233726
 21
39.99444934056488
 72
     1
 10
10.04837390233726
 20
39.99444934056488
 11
7.900843233347574
 21
40.12072531508655
 72
     1
 10
7.900843233347574
 20
40.12072531508655
 11
6.108313520342374
 21
40.11460842349842
 72
     1
 10
6.108313520342374
 20
40.11460842349842
 11
4.648230641490933
 21
40.01089627614385
 72
     1
 10
4.648230641490933
 20
40.01089627614385
 11
3.498040474962198
 21
39.84438648336685
 72
     1
 10
3.498040474962198
 20
39.84438648336685
 11
2.635188898925761
 21
39.6498766555114
 72
     1
 10
2.635188898925761
 20
39.6498766555114
 11
2.037121791550891
 21
39.46216440292119
 72
     1
 10
2.037121791550891
 20
39.46216440292119
 11
1.681285031006538
 21
39.31604733594054
 72
     1
 10
1.681285031006538
 20
39.31604733594054
 11
1.545124495462292
 21
39.24632306491313
 72
     1
 10
1.545124495462292
 20
39.24632306491313
 11
1.505116423807801
 21
39.22284892714767
 72
     1
 10
1.505116423807801
 20
39.22284892714767
 11
1.465108352153631
 21
39.1993747893822
 72
     1
 10
1.465108352153631
 20
39.1993747893822
 11
1.425100280499461
 21
39.17590065161674
 72
     1
 10
1.425100280499461
 20
39.17590065161674
 11
1.38509220884497
 21
39.15242651385159
 72
     1
 10
1.38509220884497
 20
39.15242651385159
 11
1.3450841371908
 21
39.12895237608645
 72
     1
 10
1.3450841371908
 20
39.12895237608645
 11
1.30507606553663
 21
39.10547823832099
 72
     1
 10
1.30507606553663
 20
39.10547823832099
 11
1.265067993882139
 21
39.08200410055553
 72
     1
 10
1.265067993882139
 20
39.08200410055553
 11
1.225059922227969
 21
39.05852996279007
 72
     1
 10
1.225059922227969
 20
39.05852996279007
 11
1.235963945090515
 21
39.01344000253635
 72
     1
 10
1.235963945090515
 20
39.01344000253635
 11
1.246867967953062
 21
38.96835004228264
 72
     1
 10
1.246867967953062
 20
38.96835004228264
 11
1.257771990815609
 21
38.92326008202892
 72
     1
 10
1.257771990815609
 20
38.92326008202892
 11
1.268676013678156
 21
38.87817012177521
 72
     1
 10
1.268676013678156
 20
38.87817012177521
 11
1.279580036540702
 21
38.83308016152149
 72
     1
 10
1.279580036540702
 20
38.83308016152149
 11
1.290484059403249
 21
38.78799020126778
 72
     1
 10
1.290484059403249
 20
38.78799020126778
 11
1.301388082265796
 21
38.74290024101406
 72
     1
 10
1.301388082265796
 20
38.74290024101406
 11
1.312292105128343
 21
38.69781028076035
 72
     1
 10
1.312292105128343
 20
38.69781028076035
 11
1.360930433813319
 21
38.51215429624455
 72
     1
 10
1.360930433813319
 20
38.51215429624455
 11
1.418184565027547
 21
38.32114680342256
 72
     1
 10
1.418184565027547
 20
38.32114680342256
 11
1.483597535616031
 21
38.12523912463411
 72
     1
 10
1.483597535616031
 20
38.12523912463411
 11
1.55671238242474
 21
37.9248825822192
 72
     1
 10
1.55671238242474
 20
37.9248825822192
 11
1.637072142298034
 21
37.72052849851784
 72
     1
 10
1.637072142298034
 20
37.72052849851784
 11
1.724219852081241
 21
37.5126281958707
 72
     1
 10
1.724219852081241
 20
37.5126281958707
 11
1.817698548619685
 21
37.30163299661682
 72
     1
 10
1.817698548619685
 20
37.30163299661682
 11
1.917051268758691
 21
37.08799422309688
 97
        0
 75
     2
 76
     1
 98
        0
  0
POLYLINE
  5
D1
330
1F
100
AcDbEntity
  8
_U_30EC_U_30A4_U_30E4_U_31
100
AcDb2dPolyline
 66
     1
 10
0.0
 20
0.0
 30
0.0
  0
VERTEX
  5
D2
330
D1
100
AcDbEntity
  8
_U_30EC_U_30A4_U_30E4_U_31
100
AcDbVertex
100
AcDb2dVertex
 10
27.44467480017902
 20
5.676971691120827
 30
0.0
  0
VERTEX
  5
D3
330
D1
100
AcDbEntity
  8
_U_30EC_U_30A4_U_30E4_U_31
100
AcDbVertex
100
AcDb2dVertex
 10
27.28362696209257
 20
5.707796601965601
 30
0.0
  0
VERTEX
  5
D4
330
D1
100
AcDbEntity
  8
_U_30EC_U_30A4_U_30E4_U_31
100
AcDbVertex
100
AcDb2dVertex
 10
27.11540594704025
 20
5.771996464630934
 30
0.0
  0
VERTEX
  5
D5
330
D1
100
AcDbEntity
  8
_U_30EC_U_30A4_U_30E4_U_31
100
AcDbVertex
100
AcDb2dVertex
 10
26.94154849418533
 20
5.868352749912278
 30
0.0
  0
VERTEX
  5
D6
330
D1
100
AcDbEntity
  8
_U_30EC_U_30A4_U_30E4_U_31
100
AcDbVertex
100
AcDb2dVertex
 10
26.76359134269301
 20
5.995646928604443
 30
0.0
  0
VERTEX
  5
D7
330
D1
100
AcDbEntity
  8
_U_30EC_U_30A4_U_30E4_U_31
100
AcDbVertex
100
AcDb2dVertex
 10
26.5830712317269
 20
6.152660471502242
 30
0.0
  0
VERTEX
  5
D8
330
D1
100
AcDbEntity
  8
_U_30EC_U_30A4_U_30E4_U_31
100
AcDbVertex
100
AcDb2dVertex
 10
26.40152490045158
 20
6.338174849401125
 30
0.0
  0
VERTEX
  5
D9
330
D1
100
AcDbEntity
  8
_U_30EC_U_30A4_U_30E4_U_31
100
AcDbVertex
100
AcDb2dVertex
 10
26.22048908803126
 20
6.550971533095583
 30
0.0
  0
VERTEX
  5
DA
330
D1
100
AcDbEntity
  8
_U_30EC_U_30A4_U_30E4_U_31
100
AcDbVertex
100
AcDb2dVertex
 10
26.04150053363021
 20
6.789831993381392
 30
0.0
  0
VERTEX
  5
DB
330
D1
100
AcDbEntity
  8
_U_30EC_U_30A4_U_30E4_U_31
100
AcDbVertex
100
AcDb2dVertex
 10
25.6848083354718
 20
7.361449991616511
 30
0.0
  0
VERTEX
  5
DC
330
D1
100
AcDbEntity
  8
_U_30EC_U_30A4_U_30E4_U_31
100
AcDbVertex
100
AcDb2dVertex
 10
25.36375833771046
 20
8.013659064753249
 30
0.0
  0
VERTEX
  5
DD
330
D1
100
AcDbEntity
  8
_U_30EC_U_30A4_U_30E4_U_31
100
AcDbVertex
100
AcDb2dVertex
 10
25.08994416445676
 20
8.72856767116741
 30
0.0
  0
VERTEX
  5
DE
330
D1
100
AcDbEntity
  8
_U_30EC_U_30A4_U_30E4_U_31
100
AcDbVertex
100
AcDb2dVertex
 10
24.87495943982096
 20
9.488284269234484
 30
0.0
  0
VERTEX
  5
DF
330
D1
100
AcDbEntity
  8
_U_30EC_U_30A4_U_30E4_U_31
100
AcDbVertex
100
AcDb2dVertex
 10
24.73039778791329
 20
10.2749173173306
 30
0.0
  0
VERTEX
  5
E0
330
D1
100
AcDbEntity
  8
_U_30EC_U_30A4_U_30E4_U_31
100
AcDbVertex
100
AcDb2dVertex
 10
24.66785283284401
 20
11.07057527383124
 30
0.0
  0
VERTEX
  5
E1
330
D1
100
AcDbEntity
  8
_U_30EC_U_30A4_U_30E4_U_31
100
AcDbVertex
100
AcDb2dVertex
 10
24.69891819872336
 20
11.85736659711254
 30
0.0
  0
VERTEX
  5
E2
330
D1
100
AcDbEntity
  8
_U_30EC_U_30A4_U_30E4_U_31
100
AcDbVertex
100
AcDb2dVertex
 10
24.8351875096616
 20
12.61739974554966
 30
0.0
  0
VERTEX
  5
E3
330
D1
100
AcDbEntity
  8
_U_30EC_U_30A4_U_30E4_U_31
100
AcDbVertex
100
AcDb2dVertex
 10
24.9791325533287
 20
13.13962805300411
 30
0.0
  0
VERTEX
  5
E4
330
D1
100
AcDbEntity
  8
_U_30EC_U_30A4_U_30E4_U_31
100
AcDbVertex
100
AcDb2dVertex
 10
25.1350401737362
 20
13.64639857280591
 30
0.0
  0
VERTEX
  5
E5
330
D1
100
AcDbEntity
  8
_U_30EC_U_30A4_U_30E4_U_31
100
AcDbVertex
100
AcDb2dVertex
 10
25.30275111003253
 20
14.13730376362355
 30
0.0
  0
VERTEX
  5
E6
330
D1
100
AcDbEntity
  8
_U_30EC_U_30A4_U_30E4_U_31
100
AcDbVertex
100
AcDb2dVertex
 10
25.48210610136544
 20
14.61193608412421
 30
0.0
  0
VERTEX
  5
E7
330
D1
100
AcDbEntity
  8
_U_30EC_U_30A4_U_30E4_U_31
100
AcDbVertex
100
AcDb2dVertex
 10
25.67294588688302
 20
15.06988799297607
 30
0.0
  0
VERTEX
  5
E8
330
D1
100
AcDbEntity
  8
_U_30EC_U_30A4_U_30E4_U_31
100
AcDbVertex
100
AcDb2dVertex
 10
25.87511120573336
 20
15.51075194884663
 30
0.0
  0
VERTEX
  5
E9
330
D1
100
AcDbEntity
  8
_U_30EC_U_30A4_U_30E4_U_31
100
AcDbVertex
100
AcDb2dVertex
 10
26.08844279706454
 20
15.93412041040373
 30
0.0
  0
VERTEX
  5
EA
330
D1
100
AcDbEntity
  8
_U_30EC_U_30A4_U_30E4_U_31
100
AcDbVertex
100
AcDb2dVertex
 10
26.31278140002466
 20
16.33958583631521
 30
0.0
  0
VERTEX
  5
EB
330
D1
100
AcDbEntity
  8
_U_30EC_U_30A4_U_30E4_U_31
100
AcDbVertex
100
AcDb2dVertex
 10
26.39805851640369
 20
16.50961493721415
 30
0.0
  0
VERTEX
  5
EC
330
D1
100
AcDbEntity
  8
_U_30EC_U_30A4_U_30E4_U_31
100
AcDbVertex
100
AcDb2dVertex
 10
26.46032913585433
 20
16.68467403834693
 30
0.0
  0
VERTEX
  5
ED
330
D1
100
AcDbEntity
  8
_U_30EC_U_30A4_U_30E4_U_31
100
AcDbVertex
100
AcDb2dVertex
 10
26.49954880918965
 20
16.86321283999964
 30
0.0
  0
VERTEX
  5
EE
330
D1
100
AcDbEntity
  8
_U_30EC_U_30A4_U_30E4_U_31
100
AcDbVertex
100
AcDb2dVertex
 10
26.51567308722305
 20
17.04368104245775
 30
0.0
  0
VERTEX
  5
EF
330
D1
100
AcDbEntity
  8
_U_30EC_U_30A4_U_30E4_U_31
100
AcDbVertex
100
AcDb2dVertex
 10
26.50865752076728
 20
17.22452834600702
 30
0.0
  0
VERTEX
  5
F0
330
D1
100
AcDbEntity
  8
_U_30EC_U_30A4_U_30E4_U_31
100
AcDbVertex
100
AcDb2dVertex
 10
26.4784576606351
 20
17.40420445093324
 30
0.0
  0
VERTEX
  5
F1
330
D1
100
AcDbEntity
  8
_U_30EC_U_30A4_U_30E4_U_31
100
AcDbVertex
100
AcDb2dVertex
 10
26.42502905763958
 20
17.58115905752218
 30
0.0
  0
VERTEX
  5
F2
330
D1
100
AcDbEntity
  8
_U_30EC_U_30A4_U_30E4_U_31
100
AcDbVertex
100
AcDb2dVertex
 10
26.34832726259381
 20
17.75384186605961
 30
0.0
  0
VERTEX
  5
F3
330
D1
100
AcDbEntity
  8
_U_30EC_U_30A4_U_30E4_U_31
100
AcDbVertex
100
AcDb2dVertex
 10
26.30974178505864
 20
17.82371544732337
 30
0.0
  0
VERTEX
  5
F4
330
D1
100
AcDbEntity
  8
_U_30EC_U_30A4_U_30E4_U_31
100
AcDbVertex
100
AcDb2dVertex
 10
26.26776374962399
 20
17.89117462090987
 30
0.0
  0
VERTEX
  5
F5
330
D1
100
AcDbEntity
  8
_U_30EC_U_30A4_U_30E4_U_31
100
AcDbVertex
100
AcDb2dVertex
 10
26.22254261956054
 20
17.95612120497789
 30
0.0
  0
VERTEX
  5
F6
330
D1
100
AcDbEntity
  8
_U_30EC_U_30A4_U_30E4_U_31
100
AcDbVertex
100
AcDb2dVertex
 10
26.1742278581399
 20
18.01845701768779
 30
0.0
  0
VERTEX
  5
F7
330
D1
100
AcDbEntity
  8
_U_30EC_U_30A4_U_30E4_U_31
100
AcDbVertex
100
AcDb2dVertex
 10
26.12296892863274
 20
18.07808387719802
 30
0.0
  0
VERTEX
  5
F8
330
D1
100
AcDbEntity
  8
_U_30EC_U_30A4_U_30E4_U_31
100
AcDbVertex
100
AcDb2dVertex
 10
26.068915294311
 20
18.13490360166831
 30
0.0
  0
VERTEX
  5
F9
330
D1
100
AcDbEntity
  8
_U_30EC_U_30A4_U_30E4_U_31
100
AcDbVertex
100
AcDb2dVertex
 10
26.01221641844566
 20
18.18881800925776
 30
0.0
  0
VERTEX
  5
FA
330
D1
100
AcDbEntity
  8
_U_30EC_U_30A4_U_30E4_U_31
100
AcDbVertex
100
AcDb2dVertex
 10
25.95302176430771
 20
18.23972891812577
 30
0.0
  0
VERTEX
  5
FB
330
D1
100
AcDbEntity
  8
_U_30EC_U_30A4_U_30E4_U_31
100
AcDbVertex
100
AcDb2dVertex
 10
26.19792361839151
 20
18.37676044030248
 30
0.0
  0
VERTEX
  5
FC
330
D1
100
AcDbEntity
  8
_U_30EC_U_30A4_U_30E4_U_31
100
AcDbVertex
100
AcDb2dVertex
 10
26.45459181855202
 20
18.51749197473541
 30
0.0
  0
VERTEX
  5
FD
330
D1
100
AcDbEntity
  8
_U_30EC_U_30A4_U_30E4_U_31
100
AcDbVertex
100
AcDb2dVertex
 10
26.71876066434264
 20
18.65932613468213
 30
0.0
  0
VERTEX
  5
FE
330
D1
100
AcDbEntity
  8
_U_30EC_U_30A4_U_30E4_U_31
100
AcDbVertex
100
AcDb2dVertex
 10
26.98616445531741
 20
18.79966553340082
 30
0.0
  0
VERTEX
  5
FF
330
D1
100
AcDbEntity
  8
_U_30EC_U_30A4_U_30E4_U_31
100
AcDbVertex
100
AcDb2dVertex
 10
27.2525374910304
 20
18.93591278414873
 30
0.0
  0
VERTEX
  5
100
330
D1
100
AcDbEntity
  8
_U_30EC_U_30A4_U_30E4_U_31
100
AcDbVertex
100
AcDb2dVertex
 10
27.513614071035
 20
19.06547050018374
 30
0.0
  0
VERTEX
  5
101
330
D1
100
AcDbEntity
  8
_U_30EC_U_30A4_U_30E4_U_31
100
AcDbVertex
100
AcDb2dVertex
 10
27.76512849488591
 20
19.18574129476405
 30
0.0
  0
VERTEX
  5
102
330
D1
100
AcDbEntity
  8
_U_30EC_U_30A4_U_30E4_U_31
100
AcDbVertex
100
AcDb2dVertex
 10
28.00281506213686
 20
19.29412778114722
 30
0.0
  0
VERTEX
  5
103
330
D1
100
AcDbEntity
  8
_U_30EC_U_30A4_U_30E4_U_31
100
AcDbVertex
100
AcDb2dVertex
 10
28.66492031400701
 20
19.5738929424798
 30
0.0
  0
VERTEX
  5
104
330
D1
100
AcDbEntity
  8
_U_30EC_U_30A4_U_30E4_U_31
100
AcDbVertex
100
AcDb2dVertex
 10
29.42671154379846
 20
19.87229204973998
 30
0.0
  0
VERTEX
  5
105
330
D1
100
AcDbEntity
  8
_U_30EC_U_30A4_U_30E4_U_31
100
AcDbVertex
100
AcDb2dVertex
 10
30.27317229715741
 20
20.18539475266498
 30
0.0
  0
VERTEX
  5
106
330
D1
100
AcDbEntity
  8
_U_30EC_U_30A4_U_30E4_U_31
100
AcDbVertex
100
AcDb2dVertex
 10
31.18928611973107
 20
20.50927070099234
 30
0.0
  0
VERTEX
  5
107
330
D1
100
AcDbEntity
  8
_U_30EC_U_30A4_U_30E4_U_31
100
AcDbVertex
100
AcDb2dVertex
 10
32.16003655716534
 20
20.83998954445992
 30
0.0
  0
VERTEX
  5
108
330
D1
100
AcDbEntity
  8
_U_30EC_U_30A4_U_30E4_U_31
100
AcDbVertex
100
AcDb2dVertex
 10
33.17040715510774
 20
21.17362093280526
 30
0.0
  0
VERTEX
  5
109
330
D1
100
AcDbEntity
  8
_U_30EC_U_30A4_U_30E4_U_31
100
AcDbVertex
100
AcDb2dVertex
 10
34.20538145920449
 20
21.5062345157659
 30
0.0
  0
VERTEX
  5
10A
330
D1
100
AcDbEntity
  8
_U_30EC_U_30A4_U_30E4_U_31
100
AcDbVertex
100
AcDb2dVertex
 10
35.24994301510279
 20
21.83389994307906
 30
0.0
  0
VERTEX
  5
10B
330
D1
100
AcDbEntity
  8
_U_30EC_U_30A4_U_30E4_U_31
100
AcDbVertex
100
AcDb2dVertex
 10
35.01574285322355
 20
21.64451322545353
 30
0.0
  0
VERTEX
  5
10C
330
D1
100
AcDbEntity
  8
_U_30EC_U_30A4_U_30E4_U_31
100
AcDbVertex
100
AcDb2dVertex
 10
34.77363713704283
 20
21.44360551512684
 30
0.0
  0
VERTEX
  5
10D
330
D1
100
AcDbEntity
  8
_U_30EC_U_30A4_U_30E4_U_31
100
AcDbVertex
100
AcDb2dVertex
 10
34.52134999515229
 20
21.22934352468245
 30
0.0
  0
VERTEX
  5
10E
330
D1
100
AcDbEntity
  8
_U_30EC_U_30A4_U_30E4_U_31
100
AcDbVertex
100
AcDb2dVertex
 10
34.25660555614429
 20
20.99989396670289
 30
0.0
  0
VERTEX
  5
10F
330
D1
100
AcDbEntity
  8
_U_30EC_U_30A4_U_30E4_U_31
100
AcDbVertex
100
AcDb2dVertex
 10
33.97712794861015
 20
20.75342355377163
 30
0.0
  0
VERTEX
  5
110
330
D1
100
AcDbEntity
  8
_U_30EC_U_30A4_U_30E4_U_31
100
AcDbVertex
100
AcDb2dVertex
 10
33.6806413011419
 20
20.48809899847119
 30
0.0
  0
VERTEX
  5
111
330
D1
100
AcDbEntity
  8
_U_30EC_U_30A4_U_30E4_U_31
100
AcDbVertex
100
AcDb2dVertex
 10
33.36486974233154
 20
20.20208701338537
 30
0.0
  0
VERTEX
  5
112
330
D1
100
AcDbEntity
  8
_U_30EC_U_30A4_U_30E4_U_31
100
AcDbVertex
100
AcDb2dVertex
 10
33.02753740077042
 20
19.89355431109701
 30
0.0
  0
VERTEX
  5
113
330
D1
100
AcDbEntity
  8
_U_30EC_U_30A4_U_30E4_U_31
100
AcDbVertex
100
AcDb2dVertex
 10
32.18574669383349
 20
19.09012309646225
 30
0.0
  0
VERTEX
  5
114
330
D1
100
AcDbEntity
  8
_U_30EC_U_30A4_U_30E4_U_31
100
AcDbVertex
100
AcDb2dVertex
 10
31.34672001021112
 20
18.23272822814964
 30
0.0
  0
VERTEX
  5
115
330
D1
100
AcDbEntity
  8
_U_30EC_U_30A4_U_30E4_U_31
100
AcDbVertex
100
AcDb2dVertex
 10
30.53387287572715
 20
17.34929445925631
 30
0.0
  0
VERTEX
  5
116
330
D1
100
AcDbEntity
  8
_U_30EC_U_30A4_U_30E4_U_31
100
AcDbVertex
100
AcDb2dVertex
 10
29.77062081620512
 20
16.46774654288005
 30
0.0
  0
VERTEX
  5
117
330
D1
100
AcDbEntity
  8
_U_30EC_U_30A4_U_30E4_U_31
100
AcDbVertex
100
AcDb2dVertex
 10
29.08037935746886
 20
15.61600923211769
 30
0.0
  0
VERTEX
  5
118
330
D1
100
AcDbEntity
  8
_U_30EC_U_30A4_U_30E4_U_31
100
AcDbVertex
100
AcDb2dVertex
 10
28.48656402534224
 20
14.82200728006702
 30
0.0
  0
VERTEX
  5
119
330
D1
100
AcDbEntity
  8
_U_30EC_U_30A4_U_30E4_U_31
100
AcDbVertex
100
AcDb2dVertex
 10
28.01259034564845
 20
14.11366543982519
 30
0.0
  0
VERTEX
  5
11A
330
D1
100
AcDbEntity
  8
_U_30EC_U_30A4_U_30E4_U_31
100
AcDbVertex
100
AcDb2dVertex
 10
27.68187384421199
 20
13.51890846448999
 30
0.0
  0
VERTEX
  5
11B
330
D1
100
AcDbEntity
  8
_U_30EC_U_30A4_U_30E4_U_31
100
AcDbVertex
100
AcDb2dVertex
 10
27.58638049587283
 20
13.24768304326779
 30
0.0
  0
VERTEX
  5
11C
330
D1
100
AcDbEntity
  8
_U_30EC_U_30A4_U_30E4_U_31
100
AcDbVertex
100
AcDb2dVertex
 10
27.54798264119366
 20
12.9661027935074
 30
0.0
  0
VERTEX
  5
11D
330
D1
100
AcDbEntity
  8
_U_30EC_U_30A4_U_30E4_U_31
100
AcDbVertex
100
AcDb2dVertex
 10
27.55926611999443
 20
12.67391465715121
 30
0.0
  0
VERTEX
  5
11E
330
D1
100
AcDbEntity
  8
_U_30EC_U_30A4_U_30E4_U_31
100
AcDbVertex
100
AcDb2dVertex
 10
27.61281677209476
 20
12.37086557614094
 30
0.0
  0
VERTEX
  5
11F
330
D1
100
AcDbEntity
  8
_U_30EC_U_30A4_U_30E4_U_31
100
AcDbVertex
100
AcDb2dVertex
 10
27.70122043731366
 20
12.05670249241866
 30
0.0
  0
VERTEX
  5
120
330
D1
100
AcDbEntity
  8
_U_30EC_U_30A4_U_30E4_U_31
100
AcDbVertex
100
AcDb2dVertex
 10
27.81706295547042
 20
11.73117234792676
 30
0.0
  0
VERTEX
  5
121
330
D1
100
AcDbEntity
  8
_U_30EC_U_30A4_U_30E4_U_31
100
AcDbVertex
100
AcDb2dVertex
 10
27.95293016638468
 20
11.3940220846073
 30
0.0
  0
VERTEX
  5
122
330
D1
100
AcDbEntity
  8
_U_30EC_U_30A4_U_30E4_U_31
100
AcDbVertex
100
AcDb2dVertex
 10
28.10140790987574
 20
11.04499864440233
 30
0.0
  0
VERTEX
  5
123
330
D1
100
AcDbEntity
  8
_U_30EC_U_30A4_U_30E4_U_31
100
AcDbVertex
100
AcDb2dVertex
 10
28.32442034449829
 20
10.51723247976525
 30
0.0
  0
VERTEX
  5
124
330
D1
100
AcDbEntity
  8
_U_30EC_U_30A4_U_30E4_U_31
100
AcDbVertex
100
AcDb2dVertex
 10
28.53404158132556
 20
9.97212744713208
 30
0.0
  0
VERTEX
  5
125
330
D1
100
AcDbEntity
  8
_U_30EC_U_30A4_U_30E4_U_31
100
AcDbVertex
100
AcDb2dVertex
 10
28.7094645312399
 20
9.409674162696476
 30
0.0
  0
VERTEX
  5
126
330
D1
100
AcDbEntity
  8
_U_30EC_U_30A4_U_30E4_U_31
100
AcDbVertex
100
AcDb2dVertex
 10
28.82988210512304
 20
8.829863242653076
 30
0.0
  0
VERTEX
  5
127
330
D1
100
AcDbEntity
  8
_U_30EC_U_30A4_U_30E4_U_31
100
AcDbVertex
100
AcDb2dVertex
 10
28.87448721385734
 20
8.232685303195543
 30
0.0
  0
VERTEX
  5
128
330
D1
100
AcDbEntity
  8
_U_30EC_U_30A4_U_30E4_U_31
100
AcDbVertex
100
AcDb2dVertex
 10
28.82247276832483
 20
7.618130960517548
 30
0.0
  0
VERTEX
  5
129
330
D1
100
AcDbEntity
  8
_U_30EC_U_30A4_U_30E4_U_31
100
AcDbVertex
100
AcDb2dVertex
 10
28.6530316794079
 20
6.986190830813399
 30
0.0
  0
VERTEX
  5
12A
330
D1
100
AcDbEntity
  8
_U_30EC_U_30A4_U_30E4_U_31
100
AcDbVertex
100
AcDb2dVertex
 10
28.34535685798888
 20
6.336855530277085
 30
0.0
  0
VERTEX
  5
12B
330
D1
100
AcDbEntity
  8
_U_30EC_U_30A4_U_30E4_U_31
100
AcDbVertex
100
AcDb2dVertex
 10
28.24192768446404
 20
6.173470538212832
 30
0.0
  0
VERTEX
  5
12C
330
D1
100
AcDbEntity
  8
_U_30EC_U_30A4_U_30E4_U_31
100
AcDbVertex
100
AcDb2dVertex
 10
28.13568672498045
 20
6.033046608444704
 30
0.0
  0
VERTEX
  5
12D
330
D1
100
AcDbEntity
  8
_U_30EC_U_30A4_U_30E4_U_31
100
AcDbVertex
100
AcDb2dVertex
 10
28.02673186056014
 20
5.915660282991663
 30
0.0
  0
VERTEX
  5
12E
330
D1
100
AcDbEntity
  8
_U_30EC_U_30A4_U_30E4_U_31
100
AcDbVertex
100
AcDb2dVertex
 10
27.91516097222546
 20
5.821388103872989
 30
0.0
  0
VERTEX
  5
12F
330
D1
100
AcDbEntity
  8
_U_30EC_U_30A4_U_30E4_U_31
100
AcDbVertex
100
AcDb2dVertex
 10
27.80107194099811
 20
5.75030661310764
 30
0.0
  0
VERTEX
  5
130
330
D1
100
AcDbEntity
  8
_U_30EC_U_30A4_U_30E4_U_31
100
AcDbVertex
100
AcDb2dVertex
 10
27.6845626478998
 20
5.702492352714257
 30
0.0
  0
VERTEX
  5
131
330
D1
100
AcDbEntity
  8
_U_30EC_U_30A4_U_30E4_U_31
100
AcDbVertex
100
AcDb2dVertex
 10
27.56573097395286
 20
5.67802186471244
 30
0.0
  0
VERTEX
  5
132
330
D1
100
AcDbEntity
  8
_U_30EC_U_30A4_U_30E4_U_31
100
AcDbVertex
100
AcDb2dVertex
 10
27.44467480017902
 20
5.676971691120827
 30
0.0
  0
VERTEX
  5
133
330
D1
100
AcDbEntity
  8
_U_30EC_U_30A4_U_30E4_U_31
100
AcDbVertex
100
AcDb2dVertex
 10
27.44467480017902
 20
5.676971691120827
 30
0.0
  0
SEQEND
  5
135
330
D1
100
AcDbEntity
  8
_U_30EC_U_30A4_U_30E4_U_31
  0
HATCH
  5
134
330
1F
100
AcDbEntity
  8
_U_30EC_U_30A4_U_30E4_U_31
 62
   254
100
AcDbHatch
 10
0.0
 20
0.0
 30
0.0
210
0.0
220
0.0
230
1.0
  2
SOLID
 70
     1
 71
     0
 91
        1
 92
        1
 93
       96
 72
     1
 10
27.44467480017902
 20
5.676971691120827
 11
27.28362696209257
 21
5.707796601965601
 72
     1
 10
27.28362696209257
 20
5.707796601965601
 11
27.11540594704025
 21
5.771996464630934
 72
     1
 10
27.11540594704025
 20
5.771996464630934
 11
26.94154849418533
 21
5.868352749912278
 72
     1
 10
26.94154849418533
 20
5.868352749912278
 11
26.76359134269301
 21
5.995646928604443
 72
     1
 10
26.76359134269301
 20
5.995646928604443
 11
26.5830712317269
 21
6.152660471502242
 72
     1
 10
26.5830712317269
 20
6.152660471502242
 11
26.40152490045158
 21
6.338174849401125
 72
     1
 10
26.40152490045158
 20
6.338174849401125
 11
26.22048908803126
 21
6.550971533095583
 72
     1
 10
26.22048908803126
 20
6.550971533095583
 11
26.04150053363021
 21
6.789831993381392
 72
     1
 10
26.04150053363021
 20
6.789831993381392
 11
25.6848083354718
 21
7.361449991616511
 72
     1
 10
25.6848083354718
 20
7.361449991616511
 11
25.36375833771046
 21
8.013659064753249
 72
     1
 10
25.36375833771046
 20
8.013659064753249
 11
25.08994416445676
 21
8.72856767116741
 72
     1
 10
25.08994416445676
 20
8.72856767116741
 11
24.87495943982096
 21
9.488284269234484
 72
     1
 10
24.87495943982096
 20
9.488284269234484
 11
24.73039778791329
 21
10.2749173173306
 72
     1
 10
24.73039778791329
 20
10.2749173173306
 11
24.66785283284401
 21
11.07057527383124
 72
     1
 10
24.66785283284401
 20
11.07057527383124
 11
24.69891819872336
 21
11.85736659711254
 72
     1
 10
24.69891819872336
 20
11.85736659711254
 11
24.8351875096616
 21
12.61739974554966
 72
     1
 10
24.8351875096616
 20
12.61739974554966
 11
24.9791325533287
 21
13.13962805300411
 72
     1
 10
24.9791325533287
 20
13.13962805300411
 11
25.1350401737362
 21
13.64639857280591
 72
     1
 10
25.1350401737362
 20
13.64639857280591
 11
25.30275111003253
 21
14.13730376362355
 72
     1
 10
25.30275111003253
 20
14.13730376362355
 11
25.48210610136544
 21
14.61193608412421
 72
     1
 10
25.48210610136544
 20
14.61193608412421
 11
25.67294588688302
 21
15.06988799297607
 72
     1
 10
25.67294588688302
 20
15.06988799297607
 11
25.87511120573336
 21
15.51075194884663
 72
     1
 10
25.87511120573336
 20
15.51075194884663
 11
26.08844279706454
 21
15.93412041040373
 72
     1
 10
26.08844279706454
 20
15.93412041040373
 11
26.31278140002466
 21
16.33958583631521
 72
     1
 10
26.31278140002466
 20
16.33958583631521
 11
26.39805851640369
 21
16.50961493721415
 72
     1
 10
26.39805851640369
 20
16.50961493721415
 11
26.46032913585433
 21
16.68467403834693
 72
     1
 10
26.46032913585433
 20
16.68467403834693
 11
26.49954880918965
 21
16.86321283999964
 72
     1
 10
26.49954880918965
 20
16.86321283999964
 11
26.51567308722305
 21
17.04368104245775
 72
     1
 10
26.51567308722305
 20
17.04368104245775
 11
26.50865752076728
 21
17.22452834600702
 72
     1
 10
26.50865752076728
 20
17.22452834600702
 11
26.4784576606351
 21
17.40420445093324
 72
     1
 10
26.4784576606351
 20
17.40420445093324
 11
26.42502905763958
 21
17.58115905752218
 72
     1
 10
26.42502905763958
 20
17.58115905752218
 11
26.34832726259381
 21
17.75384186605961
 72
     1
 10
26.34832726259381
 20
17.75384186605961
 11
26.30974178505864
 21
17.82371544732337
 72
     1
 10
26.30974178505864
 20
17.82371544732337
 11
26.26776374962399
 21
17.89117462090987
 72
     1
 10
26.26776374962399
 20
17.89117462090987
 11
26.22254261956054
 21
17.95612120497789
 72
     1
 10
26.22254261956054
 20
17.95612120497789
 11
26.1742278581399
 21
18.01845701768779
 72
     1
 10
26.1742278581399
 20
18.01845701768779
 11
26.12296892863274
 21
18.07808387719802
 72
     1
 10
26.12296892863274
 20
18.07808387719802
 11
26.068915294311
 21
18.13490360166831
 72
     1
 10
26.068915294311
 20
18.13490360166831
 11
26.01221641844566
 21
18.18881800925776
 72
     1
 10
26.01221641844566
 20
18.18881800925776
 11
25.95302176430771
 21
18.23972891812577
 72
     1
 10
25.95302176430771
 20
18.23972891812577
 11
26.19792361839151
 21
18.37676044030248
 72
     1
 10
26.19792361839151
 20
18.37676044030248
 11
26.45459181855202
 21
18.51749197473541
 72
     1
 10
26.45459181855202
 20
18.51749197473541
 11
26.71876066434264
 21
18.65932613468213
 72
     1
 10
26.71876066434264
 20
18.65932613468213
 11
26.98616445531741
 21
18.79966553340082
 72
     1
 10
26.98616445531741
 20
18.79966553340082
 11
27.2525374910304
 21
18.93591278414873
 72
     1
 10
27.2525374910304
 20
18.93591278414873
 11
27.513614071035
 21
19.06547050018374
 72
     1
 10
27.513614071035
 20
19.06547050018374
 11
27.76512849488591
 21
19.18574129476405
 72
     1
 10
27.76512849488591
 20
19.18574129476405
 11
28.00281506213686
 21
19.29412778114722
 72
     1
 10
28.00281506213686
 20
19.29412778114722
 11
28.66492031400701
 21
19.5738929424798
 72
     1
 10
28.66492031400701
 20
19.5738929424798
 11
29.42671154379846
 21
19.87229204973998
 72
     1
 10
29.42671154379846
 20
19.87229204973998
 11
30.27317229715741
 21
20.18539475266498
 72
     1
 10
30.27317229715741
 20
20.18539475266498
 11
31.18928611973107
 21
20.50927070099234
 72
     1
 10
31.18928611973107
 20
20.50927070099234
 11
32.16003655716534
 21
20.83998954445992
 72
     1
 10
32.16003655716534
 20
20.83998954445992
 11
33.17040715510774
 21
21.17362093280526
 72
     1
 10
33.17040715510774
 20
21.17362093280526
 11
34.20538145920449
 21
21.5062345157659
 72
     1
 10
34.20538145920449
 20
21.5062345157659
 11
35.24994301510279
 21
21.83389994307906
 72
     1
 10
35.24994301510279
 20
21.83389994307906
 11
35.01574285322355
 21
21.64451322545353
 72
     1
 10
35.01574285322355
 20
21.64451322545353
 11
34.77363713704283
 21
21.44360551512684
 72
     1
 10
34.77363713704283
 20
21.44360551512684
 11
34.52134999515229
 21
21.22934352468245
 72
     1
 10
34.52134999515229
 20
21.22934352468245
 11
34.25660555614429
 21
20.99989396670289
 72
     1
 10
34.25660555614429
 20
20.99989396670289
 11
33.97712794861015
 21
20.75342355377163
 72
     1
 10
33.97712794861015
 20
20.75342355377163
 11
33.6806413011419
 21
20.48809899847119
 72
     1
 10
33.6806413011419
 20
20.48809899847119
 11
33.36486974233154
 21
20.20208701338537
 72
     1
 10
33.36486974233154
 20
20.20208701338537
 11
33.02753740077042
 21
19.89355431109701
 72
     1
 10
33.02753740077042
 20
19.89355431109701
 11
32.18574669383349
 21
19.09012309646225
 72
     1
 10
32.18574669383349
 20
19.09012309646225
 11
31.34672001021112
 21
18.23272822814964
 72
     1
 10
31.34672001021112
 20
18.23272822814964
 11
30.53387287572715
 21
17.34929445925631
 72
     1
 10
30.53387287572715
 20
17.34929445925631
 11
29.77062081620512
 21
16.46774654288005
 72
     1
 10
29.77062081620512
 20
16.46774654288005
 11
29.08037935746886
 21
15.61600923211769
 72
     1
 10
29.08037935746886
 20
15.61600923211769
 11
28.48656402534224
 21
14.82200728006702
 72
     1
 10
28.48656402534224
 20
14.82200728006702
 11
28.01259034564845
 21
14.11366543982519
 72
     1
 10
28.01259034564845
 20
14.11366543982519
 11
27.68187384421199
 21
13.51890846448999
 72
     1
 10
27.68187384421199
 20
13.51890846448999
 11
27.58638049587283
 21
13.24768304326779
 72
     1
 10
27.58638049587283
 20
13.24768304326779
 11
27.54798264119366
 21
12.9661027935074
 72
     1
 10
27.54798264119366
 20
12.9661027935074
 11
27.55926611999443
 21
12.67391465715121
 72
     1
 10
27.55926611999443
 20
12.67391465715121
 11
27.61281677209476
 21
12.37086557614094
 72
     1
 10
27.61281677209476
 20
12.37086557614094
 11
27.70122043731366
 21
12.05670249241866
 72
     1
 10
27.70122043731366
 20
12.05670249241866
 11
27.81706295547042
 21
11.73117234792676
 72
     1
 10
27.81706295547042
 20
11.73117234792676
 11
27.95293016638468
 21
11.3940220846073
 72
     1
 10
27.95293016638468
 20
11.3940220846073
 11
28.10140790987574
 21
11.04499864440233
 72
     1
 10
28.10140790987574
 20
11.04499864440233
 11
28.32442034449829
 21
10.51723247976525
 72
     1
 10
28.32442034449829
 20
10.51723247976525
 11
28.53404158132556
 21
9.97212744713208
 72
     1
 10
28.53404158132556
 20
9.97212744713208
 11
28.7094645312399
 21
9.409674162696476
 72
     1
 10
28.7094645312399
 20
9.409674162696476
 11
28.82988210512304
 21
8.829863242653076
 72
     1
 10
28.82988210512304
 20
8.829863242653076
 11
28.87448721385734
 21
8.232685303195543
 72
     1
 10
28.87448721385734
 20
8.232685303195543
 11
28.82247276832483
 21
7.618130960517548
 72
     1
 10
28.82247276832483
 20
7.618130960517548
 11
28.6530316794079
 21
6.986190830813399
 72
     1
 10
28.6530316794079
 20
6.986190830813399
 11
28.34535685798888
 21
6.336855530277085
 72
     1
 10
28.34535685798888
 20
6.336855530277085
 11
28.24192768446404
 21
6.173470538212832
 72
     1
 10
28.24192768446404
 20
6.173470538212832
 11
28.13568672498045
 21
6.033046608444704
 72
     1
 10
28.13568672498045
 20
6.033046608444704
 11
28.02673186056014
 21
5.915660282991663
 72
     1
 10
28.02673186056014
 20
5.915660282991663
 11
27.91516097222546
 21
5.821388103872989
 72
     1
 10
27.91516097222546
 20
5.821388103872989
 11
27.80107194099811
 21
5.75030661310764
 72
     1
 10
27.80107194099811
 20
5.75030661310764
 11
27.6845626478998
 21
5.702492352714257
 72
     1
 10
27.6845626478998
 20
5.702492352714257
 11
27.56573097395286
 21
5.67802186471244
 72
     1
 10
27.56573097395286
 20
5.67802186471244
 11
27.44467480017902
 21
5.676971691120827
 97
        0
 75
     2
 76
     1
 98
        0
  0
POLYLINE
  5
136
330
1F
100
AcDbEntity
  8
_U_30EC_U_30A4_U_30E4_U_31
100
AcDb2dPolyline
 66
     1
 10
0.0
 20
0.0
 30
0.0
  0
VERTEX
  5
137
330
136
100
AcDbEntity
  8
_U_30EC_U_30A4_U_30E4_U_31
100
AcDbVertex
100
AcDb2dVertex
 10
10.98110254623283
 20
13.48506307508367
 30
0.0
  0
VERTEX
  5
138
330
136
100
AcDbEntity
  8
_U_30EC_U_30A4_U_30E4_U_31
100
AcDbVertex
100
AcDb2dVertex
 10
11.01045799255426
 20
13.62236287552405
 30
0.0
  0
VERTEX
  5
139
330
136
100
AcDbEntity
  8
_U_30EC_U_30A4_U_30E4_U_31
100
AcDbVertex
100
AcDb2dVertex
 10
11.08547078721486
 20
14.00101831219846
 30
0.0
  0
VERTEX
  5
13A
330
136
100
AcDbEntity
  8
_U_30EC_U_30A4_U_30E4_U_31
100
AcDbVertex
100
AcDb2dVertex
 10
11.18656061376024
 20
14.57116343813828
 30
0.0
  0
VERTEX
  5
13B
330
136
100
AcDbEntity
  8
_U_30EC_U_30A4_U_30E4_U_31
100
AcDbVertex
100
AcDb2dVertex
 10
11.29414715573503
 20
15.28293230637362
 30
0.0
  0
VERTEX
  5
13C
330
136
100
AcDbEntity
  8
_U_30EC_U_30A4_U_30E4_U_31
100
AcDbVertex
100
AcDb2dVertex
 10
11.38865009668451
 20
16.08645896993553
 30
0.0
  0
VERTEX
  5
13D
330
136
100
AcDbEntity
  8
_U_30EC_U_30A4_U_30E4_U_31
100
AcDbVertex
100
AcDb2dVertex
 10
11.45048912015429
 20
16.93187748185476
 30
0.0
  0
VERTEX
  5
13E
330
136
100
AcDbEntity
  8
_U_30EC_U_30A4_U_30E4_U_31
100
AcDbVertex
100
AcDb2dVertex
 10
11.46008390968836
 20
17.76932189516202
 30
0.0
  0
VERTEX
  5
13F
330
136
100
AcDbEntity
  8
_U_30EC_U_30A4_U_30E4_U_31
100
AcDbVertex
100
AcDb2dVertex
 10
11.39785414883264
 20
18.54892626288807
 30
0.0
  0
VERTEX
  5
140
330
136
100
AcDbEntity
  8
_U_30EC_U_30A4_U_30E4_U_31
100
AcDbVertex
100
AcDb2dVertex
 10
11.0622082049039
 20
19.95036807284592
 30
0.0
  0
VERTEX
  5
141
330
136
100
AcDbEntity
  8
_U_30EC_U_30A4_U_30E4_U_31
100
AcDbVertex
100
AcDb2dVertex
 10
10.4979747649006
 20
21.19604740083293
 30
0.0
  0
VERTEX
  5
142
330
136
100
AcDbEntity
  8
_U_30EC_U_30A4_U_30E4_U_31
100
AcDbVertex
100
AcDb2dVertex
 10
9.735473092210434
 20
22.29251610779209
 30
0.0
  0
VERTEX
  5
143
330
136
100
AcDbEntity
  8
_U_30EC_U_30A4_U_30E4_U_31
100
AcDbVertex
100
AcDb2dVertex
 10
8.805022450220465
 20
23.24632605466603
 30
0.0
  0
VERTEX
  5
144
330
136
100
AcDbEntity
  8
_U_30EC_U_30A4_U_30E4_U_31
100
AcDbVertex
100
AcDb2dVertex
 10
7.736942102317744
 20
24.06402910239871
 30
0.0
  0
VERTEX
  5
145
330
136
100
AcDbEntity
  8
_U_30EC_U_30A4_U_30E4_U_31
100
AcDbVertex
100
AcDb2dVertex
 10
6.561551311889644
 20
24.75217711193246
 30
0.0
  0
VERTEX
  5
146
330
136
100
AcDbEntity
  8
_U_30EC_U_30A4_U_30E4_U_31
100
AcDbVertex
100
AcDb2dVertex
 10
5.309169342323219
 20
25.3173219442109
 30
0.0
  0
VERTEX
  5
147
330
136
100
AcDbEntity
  8
_U_30EC_U_30A4_U_30E4_U_31
100
AcDbVertex
100
AcDb2dVertex
 10
4.010115457005845
 20
25.766015460177
 30
0.0
  0
VERTEX
  5
148
330
136
100
AcDbEntity
  8
_U_30EC_U_30A4_U_30E4_U_31
100
AcDbVertex
100
AcDb2dVertex
 10
4.148257495661722
 20
25.70579268132173
 30
0.0
  0
VERTEX
  5
149
330
136
100
AcDbEntity
  8
_U_30EC_U_30A4_U_30E4_U_31
100
AcDbVertex
100
AcDb2dVertex
 10
4.526999642333694
 20
25.52995928735699
 30
0.0
  0
VERTEX
  5
14A
330
136
100
AcDbEntity
  8
_U_30EC_U_30A4_U_30E4_U_31
100
AcDbVertex
100
AcDb2dVertex
 10
5.092815943079708
 20
25.24576769218383
 30
0.0
  0
VERTEX
  5
14B
330
136
100
AcDbEntity
  8
_U_30EC_U_30A4_U_30E4_U_31
100
AcDbVertex
100
AcDb2dVertex
 10
5.792180443956431
 20
24.86047030970359
 30
0.0
  0
VERTEX
  5
14C
330
136
100
AcDbEntity
  8
_U_30EC_U_30A4_U_30E4_U_31
100
AcDbVertex
100
AcDb2dVertex
 10
6.571567191021813
 20
24.38131955381695
 30
0.0
  0
VERTEX
  5
14D
330
136
100
AcDbEntity
  8
_U_30EC_U_30A4_U_30E4_U_31
100
AcDbVertex
100
AcDb2dVertex
 10
7.377450230332841
 20
23.81556783842528
 30
0.0
  0
VERTEX
  5
14E
330
136
100
AcDbEntity
  8
_U_30EC_U_30A4_U_30E4_U_31
100
AcDbVertex
100
AcDb2dVertex
 10
8.156303607946823
 20
23.1704675774299
 30
0.0
  0
VERTEX
  5
14F
330
136
100
AcDbEntity
  8
_U_30EC_U_30A4_U_30E4_U_31
100
AcDbVertex
100
AcDb2dVertex
 10
8.854601369920747
 20
22.45327118473185
 30
0.0
  0
VERTEX
  5
150
330
136
100
AcDbEntity
  8
_U_30EC_U_30A4_U_30E4_U_31
100
AcDbVertex
100
AcDb2dVertex
 10
9.478839412699585
 20
21.68697363282026
 30
0.0
  0
VERTEX
  5
151
330
136
100
AcDbEntity
  8
_U_30EC_U_30A4_U_30E4_U_31
100
AcDbVertex
100
AcDb2dVertex
 10
9.98168006254424
 20
20.99033672194552
 30
0.0
  0
VERTEX
  5
152
330
136
100
AcDbEntity
  8
_U_30EC_U_30A4_U_30E4_U_31
100
AcDbVertex
100
AcDb2dVertex
 10
10.37534160520035
 20
20.34244823644144
 30
0.0
  0
VERTEX
  5
153
330
136
100
AcDbEntity
  8
_U_30EC_U_30A4_U_30E4_U_31
100
AcDbVertex
100
AcDb2dVertex
 10
10.67204232641227
 20
19.72239596064151
 30
0.0
  0
VERTEX
  5
154
330
136
100
AcDbEntity
  8
_U_30EC_U_30A4_U_30E4_U_31
100
AcDbVertex
100
AcDb2dVertex
 10
10.8840005119253
 20
19.10926767887954
 30
0.0
  0
VERTEX
  5
155
330
136
100
AcDbEntity
  8
_U_30EC_U_30A4_U_30E4_U_31
100
AcDbVertex
100
AcDb2dVertex
 10
11.02343444748478
 20
18.48215117548902
 30
0.0
  0
VERTEX
  5
156
330
136
100
AcDbEntity
  8
_U_30EC_U_30A4_U_30E4_U_31
100
AcDbVertex
100
AcDb2dVertex
 10
11.10256241883504
 20
17.82013423480343
 30
0.0
  0
VERTEX
  5
157
330
136
100
AcDbEntity
  8
_U_30EC_U_30A4_U_30E4_U_31
100
AcDbVertex
100
AcDb2dVertex
 10
11.13360271172077
 20
17.10230464115628
 30
0.0
  0
VERTEX
  5
158
330
136
100
AcDbEntity
  8
_U_30EC_U_30A4_U_30E4_U_31
100
AcDbVertex
100
AcDb2dVertex
 10
11.13611718264084
 20
16.33030584899648
 30
0.0
  0
VERTEX
  5
159
330
136
100
AcDbEntity
  8
_U_30EC_U_30A4_U_30E4_U_31
100
AcDbVertex
100
AcDb2dVertex
 10
11.1230978117455
 20
15.63112958644759
 30
0.0
  0
VERTEX
  5
15A
330
136
100
AcDbEntity
  8
_U_30EC_U_30A4_U_30E4_U_31
100
AcDbVertex
100
AcDb2dVertex
 10
11.09922909257012
 20
15.01405653104754
 30
0.0
  0
VERTEX
  5
15B
330
136
100
AcDbEntity
  8
_U_30EC_U_30A4_U_30E4_U_31
100
AcDbVertex
100
AcDb2dVertex
 10
11.06919551865008
 20
14.48836736033327
 30
0.0
  0
VERTEX
  5
15C
330
136
100
AcDbEntity
  8
_U_30EC_U_30A4_U_30E4_U_31
100
AcDbVertex
100
AcDb2dVertex
 10
11.03768158352076
 20
14.0633427518427
 30
0.0
  0
VERTEX
  5
15D
330
136
100
AcDbEntity
  8
_U_30EC_U_30A4_U_30E4_U_31
100
AcDbVertex
100
AcDb2dVertex
 10
11.00937178071786
 20
13.74826338311246
 30
0.0
  0
VERTEX
  5
15E
330
136
100
AcDbEntity
  8
_U_30EC_U_30A4_U_30E4_U_31
100
AcDbVertex
100
AcDb2dVertex
 10
10.98895060377676
 20
13.55240993168047
 30
0.0
  0
VERTEX
  5
15F
330
136
100
AcDbEntity
  8
_U_30EC_U_30A4_U_30E4_U_31
100
AcDbVertex
100
AcDb2dVertex
 10
10.98110254623283
 20
13.48506307508367
 30
0.0
  0
VERTEX
  5
160
330
136
100
AcDbEntity
  8
_U_30EC_U_30A4_U_30E4_U_31
100
AcDbVertex
100
AcDb2dVertex
 10
10.98110254623283
 20
13.48506307508367
 30
0.0
  0
SEQEND
  5
162
330
136
100
AcDbEntity
  8
_U_30EC_U_30A4_U_30E4_U_31
  0
HATCH
  5
161
330
1F
100
AcDbEntity
  8
_U_30EC_U_30A4_U_30E4_U_31
 62
   254
100
AcDbHatch
 10
0.0
 20
0.0
 30
0.0
210
0.0
220
0.0
230
1.0
  2
SOLID
 70
     1
 71
     0
 91
        1
 92
        1
 93
       40
 72
     1
 10
10.98110254623283
 20
13.48506307508367
 11
11.01045799255426
 21
13.62236287552405
 72
     1
 10
11.01045799255426
 20
13.62236287552405
 11
11.08547078721486
 21
14.00101831219846
 72
     1
 10
11.08547078721486
 20
14.00101831219846
 11
11.18656061376024
 21
14.57116343813828
 72
     1
 10
11.18656061376024
 20
14.57116343813828
 11
11.29414715573503
 21
15.28293230637362
 72
     1
 10
11.29414715573503
 20
15.28293230637362
 11
11.38865009668451
 21
16.08645896993553
 72
     1
 10
11.38865009668451
 20
16.08645896993553
 11
11.45048912015429
 21
16.93187748185476
 72
     1
 10
11.45048912015429
 20
16.93187748185476
 11
11.46008390968836
 21
17.76932189516202
 72
     1
 10
11.46008390968836
 20
17.76932189516202
 11
11.39785414883264
 21
18.54892626288807
 72
     1
 10
11.39785414883264
 20
18.54892626288807
 11
11.0622082049039
 21
19.95036807284592
 72
     1
 10
11.0622082049039
 20
19.95036807284592
 11
10.4979747649006
 21
21.19604740083293
 72
     1
 10
10.4979747649006
 20
21.19604740083293
 11
9.735473092210434
 21
22.29251610779209
 72
     1
 10
9.735473092210434
 20
22.29251610779209
 11
8.805022450220465
 21
23.24632605466603
 72
     1
 10
8.805022450220465
 20
23.24632605466603
 11
7.736942102317744
 21
24.06402910239871
 72
     1
 10
7.736942102317744
 20
24.06402910239871
 11
6.561551311889644
 21
24.75217711193246
 72
     1
 10
6.561551311889644
 20
24.75217711193246
 11
5.309169342323219
 21
25.3173219442109
 72
     1
 10
5.309169342323219
 20
25.3173219442109
 11
4.010115457005845
 21
25.766015460177
 72
     1
 10
4.010115457005845
 20
25.766015460177
 11
4.148257495661722
 21
25.70579268132173
 72
     1
 10
4.148257495661722
 20
25.70579268132173
 11
4.526999642333694
 21
25.52995928735699
 72
     1
 10
4.526999642333694
 20
25.52995928735699
 11
5.092815943079708
 21
25.24576769218383
 72
     1
 10
5.092815943079708
 20
25.24576769218383
 11
5.792180443956431
 21
24.86047030970359
 72
     1
 10
5.792180443956431
 20
24.86047030970359
 11
6.571567191021813
 21
24.38131955381695
 72
     1
 10
6.571567191021813
 20
24.38131955381695
 11
7.377450230332841
 21
23.81556783842528
 72
     1
 10
7.377450230332841
 20
23.81556783842528
 11
8.156303607946823
 21
23.1704675774299
 72
     1
 10
8.156303607946823
 20
23.1704675774299
 11
8.854601369920747
 21
22.45327118473185
 72
     1
 10
8.854601369920747
 20
22.45327118473185
 11
9.478839412699585
 21
21.68697363282026
 72
     1
 10
9.478839412699585
 20
21.68697363282026
 11
9.98168006254424
 21
20.99033672194552
 72
     1
 10
9.98168006254424
 20
20.99033672194552
 11
10.37534160520035
 21
20.34244823644144
 72
     1
 10
10.37534160520035
 20
20.34244823644144
 11
10.67204232641227
 21
19.72239596064151
 72
     1
 10
10.67204232641227
 20
19.72239596064151
 11
10.8840005119253
 21
19.10926767887954
 72
     1
 10
10.8840005119253
 20
19.10926767887954
 11
11.02343444748478
 21
18.48215117548902
 72
     1
 10
11.02343444748478
 20
18.48215117548902
 11
11.10256241883504
 21
17.82013423480343
 72
     1
 10
11.10256241883504
 20
17.82013423480343
 11
11.13360271172077
 21
17.10230464115628
 72
     1
 10
11.13360271172077
 20
17.10230464115628
 11
11.13611718264084
 21
16.33030584899648
 72
     1
 10
11.13611718264084
 20
16.33030584899648
 11
11.1230978117455
 21
15.63112958644759
 72
     1
 10
11.1230978117455
 20
15.63112958644759
 11
11.09922909257012
 21
15.01405653104754
 72
     1
 10
11.09922909257012
 20
15.01405653104754
 11
11.06919551865008
 21
14.48836736033327
 72
     1
 10
11.06919551865008
 20
14.48836736033327
 11
11.03768158352076
 21
14.0633427518427
 72
     1
 10
11.03768158352076
 20
14.0633427518427
 11
11.00937178071786
 21
13.74826338311246
 72
     1
 10
11.00937178071786
 20
13.74826338311246
 11
10.98895060377676
 21
13.55240993168047
 72
     1
 10
10.98895060377676
 20
13.55240993168047
 11
10.98110254623283
 21
13.48506307508367
 97
        0
 75
     2
 76
     1
 98
        0
  0
POLYLINE
  5
163
330
1F
100
AcDbEntity
  8
_U_30EC_U_30A4_U_30E4_U_31
100
AcDb2dPolyline
 66
     1
 10
0.0
 20
0.0
 30
0.0
  0
VERTEX
  5
164
330
163
100
AcDbEntity
  8
_U_30EC_U_30A4_U_30E4_U_31
100
AcDbVertex
100
AcDb2dVertex
 10
12.37629755110413
 20
8.961047163425883
 30
0.0
  0
VERTEX
  5
165
330
163
100
AcDbEntity
  8
_U_30EC_U_30A4_U_30E4_U_31
100
AcDbVertex
100
AcDb2dVertex
 10
12.94572231658937
 20
10.33157430472828
 30
0.0
  0
VERTEX
  5
166
330
163
100
AcDbEntity
  8
_U_30EC_U_30A4_U_30E4_U_31
100
AcDbVertex
100
AcDb2dVertex
 10
13.41491692483723
 20
11.55035554840184
 30
0.0
  0
VERTEX
  5
167
330
163
100
AcDbEntity
  8
_U_30EC_U_30A4_U_30E4_U_31
100
AcDbVertex
100
AcDb2dVertex
 10
13.80426263243681
 20
12.64434552279344
 30
0.0
  0
VERTEX
  5
168
330
163
100
AcDbEntity
  8
_U_30EC_U_30A4_U_30E4_U_31
100
AcDbVertex
100
AcDb2dVertex
 10
14.13414069597722
 20
13.64049885624927
 30
0.0
  0
VERTEX
  5
169
330
163
100
AcDbEntity
  8
_U_30EC_U_30A4_U_30E4_U_31
100
AcDbVertex
100
AcDb2dVertex
 10
14.4249323720479
 20
14.56577017711653
 30
0.0
  0
VERTEX
  5
16A
330
163
100
AcDbEntity
  8
_U_30EC_U_30A4_U_30E4_U_31
100
AcDbVertex
100
AcDb2dVertex
 10
14.69701891723891
 20
15.44711411374175
 30
0.0
  0
VERTEX
  5
16B
330
163
100
AcDbEntity
  8
_U_30EC_U_30A4_U_30E4_U_31
100
AcDbVertex
100
AcDb2dVertex
 10
14.97078158813871
 20
16.31148529447146
 30
0.0
  0
VERTEX
  5
16C
330
163
100
AcDbEntity
  8
_U_30EC_U_30A4_U_30E4_U_31
100
AcDbVertex
100
AcDb2dVertex
 10
15.26660164133738
 20
17.18583834765222
 30
0.0
  0
VERTEX
  5
16D
330
163
100
AcDbEntity
  8
_U_30EC_U_30A4_U_30E4_U_31
100
AcDbVertex
100
AcDb2dVertex
 10
15.57706126624046
 20
18.10254356661204
 30
0.0
  0
VERTEX
  5
16E
330
163
100
AcDbEntity
  8
_U_30EC_U_30A4_U_30E4_U_31
100
AcDbVertex
100
AcDb2dVertex
 10
15.89694379149405
 20
19.06523980193311
 30
0.0
  0
VERTEX
  5
16F
330
163
100
AcDbEntity
  8
_U_30EC_U_30A4_U_30E4_U_31
100
AcDbVertex
100
AcDb2dVertex
 10
16.24993218254822
 20
20.05778451784482
 30
0.0
  0
VERTEX
  5
170
330
163
100
AcDbEntity
  8
_U_30EC_U_30A4_U_30E4_U_31
100
AcDbVertex
100
AcDb2dVertex
 10
16.65970940485402
 20
21.06403517857623
 30
0.0
  0
VERTEX
  5
171
330
163
100
AcDbEntity
  8
_U_30EC_U_30A4_U_30E4_U_31
100
AcDbVertex
100
AcDb2dVertex
 10
17.14995842386087
 20
22.0678492483564
 30
0.0
  0
VERTEX
  5
172
330
163
100
AcDbEntity
  8
_U_30EC_U_30A4_U_30E4_U_31
100
AcDbVertex
100
AcDb2dVertex
 10
17.74436220501916
 20
23.05308419141439
 30
0.0
  0
VERTEX
  5
173
330
163
100
AcDbEntity
  8
_U_30EC_U_30A4_U_30E4_U_31
100
AcDbVertex
100
AcDb2dVertex
 10
18.46660371377897
 20
24.00359747197928
 30
0.0
  0
VERTEX
  5
174
330
163
100
AcDbEntity
  8
_U_30EC_U_30A4_U_30E4_U_31
100
AcDbVertex
100
AcDb2dVertex
 10
19.3403659155907
 20
24.90324655428011
 30
0.0
  0
VERTEX
  5
175
330
163
100
AcDbEntity
  8
_U_30EC_U_30A4_U_30E4_U_31
100
AcDbVertex
100
AcDb2dVertex
 10
20.08889456207241
 20
25.50697760458875
 30
0.0
  0
VERTEX
  5
176
330
163
100
AcDbEntity
  8
_U_30EC_U_30A4_U_30E4_U_31
100
AcDbVertex
100
AcDb2dVertex
 10
20.86973499550741
 20
25.99789681720803
 30
0.0
  0
VERTEX
  5
177
330
163
100
AcDbEntity
  8
_U_30EC_U_30A4_U_30E4_U_31
100
AcDbVertex
100
AcDb2dVertex
 10
21.66951068950296
 20
26.37729403835592
 30
0.0
  0
VERTEX
  5
178
330
163
100
AcDbEntity
  8
_U_30EC_U_30A4_U_30E4_U_31
100
AcDbVertex
100
AcDb2dVertex
 10
22.47484511766637
 20
26.64645911425069
 30
0.0
  0
VERTEX
  5
179
330
163
100
AcDbEntity
  8
_U_30EC_U_30A4_U_30E4_U_31
100
AcDbVertex
100
AcDb2dVertex
 10
23.2723617536049
 20
26.80668189111028
 30
0.0
  0
VERTEX
  5
17A
330
163
100
AcDbEntity
  8
_U_30EC_U_30A4_U_30E4_U_31
100
AcDbVertex
100
AcDb2dVertex
 10
24.04868407092551
 20
26.85925221515267
 30
0.0
  0
VERTEX
  5
17B
330
163
100
AcDbEntity
  8
_U_30EC_U_30A4_U_30E4_U_31
100
AcDbVertex
100
AcDb2dVertex
 10
24.79043554323613
 20
26.80545993259548
 30
0.0
  0
VERTEX
  5
17C
330
163
100
AcDbEntity
  8
_U_30EC_U_30A4_U_30E4_U_31
100
AcDbVertex
100
AcDb2dVertex
 10
25.48423964414339
 20
26.64659488965731
 30
0.0
  0
VERTEX
  5
17D
330
163
100
AcDbEntity
  8
_U_30EC_U_30A4_U_30E4_U_31
100
AcDbVertex
100
AcDb2dVertex
 10
26.21258462058507
 20
26.30131195013491
 30
0.0
  0
VERTEX
  5
17E
330
163
100
AcDbEntity
  8
_U_30EC_U_30A4_U_30E4_U_31
100
AcDbVertex
100
AcDb2dVertex
 10
26.78183740874136
 20
25.81285584256477
 30
0.0
  0
VERTEX
  5
17F
330
163
100
AcDbEntity
  8
_U_30EC_U_30A4_U_30E4_U_31
100
AcDbVertex
100
AcDb2dVertex
 10
27.2108526083457
 20
25.22785559565473
 30
0.0
  0
VERTEX
  5
180
330
163
100
AcDbEntity
  8
_U_30EC_U_30A4_U_30E4_U_31
100
AcDbVertex
100
AcDb2dVertex
 10
27.51848481913056
 20
24.59294023811229
 30
0.0
  0
VERTEX
  5
181
330
163
100
AcDbEntity
  8
_U_30EC_U_30A4_U_30E4_U_31
100
AcDbVertex
100
AcDb2dVertex
 10
27.7235886408297
 20
23.95473879864559
 30
0.0
  0
VERTEX
  5
182
330
163
100
AcDbEntity
  8
_U_30EC_U_30A4_U_30E4_U_31
100
AcDbVertex
100
AcDb2dVertex
 10
27.84501867317591
 20
23.35988030596183
 30
0.0
  0
VERTEX
  5
183
330
163
100
AcDbEntity
  8
_U_30EC_U_30A4_U_30E4_U_31
100
AcDbVertex
100
AcDb2dVertex
 10
27.90162951590262
 20
22.85499378876914
 30
0.0
  0
VERTEX
  5
184
330
163
100
AcDbEntity
  8
_U_30EC_U_30A4_U_30E4_U_31
100
AcDbVertex
100
AcDb2dVertex
 10
27.91227576874262
 20
22.48670827577503
 30
0.0
  0
VERTEX
  5
185
330
163
100
AcDbEntity
  8
_U_30EC_U_30A4_U_30E4_U_31
100
AcDbVertex
100
AcDb2dVertex
 10
27.86572850164754
 20
21.95080416302511
 30
0.0
  0
VERTEX
  5
186
330
163
100
AcDbEntity
  8
_U_30EC_U_30A4_U_30E4_U_31
100
AcDbVertex
100
AcDb2dVertex
 10
27.76166398863455
 20
21.41467676235608
 30
0.0
  0
VERTEX
  5
187
330
163
100
AcDbEntity
  8
_U_30EC_U_30A4_U_30E4_U_31
100
AcDbVertex
100
AcDb2dVertex
 10
27.61972304935325
 20
20.9004183520748
 30
0.0
  0
VERTEX
  5
188
330
163
100
AcDbEntity
  8
_U_30EC_U_30A4_U_30E4_U_31
100
AcDbVertex
100
AcDb2dVertex
 10
27.45954650345389
 20
20.43012121048906
 30
0.0
  0
VERTEX
  5
189
330
163
100
AcDbEntity
  8
_U_30EC_U_30A4_U_30E4_U_31
100
AcDbVertex
100
AcDb2dVertex
 10
27.30077517058608
 20
20.02587761590603
 30
0.0
  0
VERTEX
  5
18A
330
163
100
AcDbEntity
  8
_U_30EC_U_30A4_U_30E4_U_31
100
AcDbVertex
100
AcDb2dVertex
 10
27.16304987039973
 20
19.70977984663256
 30
0.0
  0
VERTEX
  5
18B
330
163
100
AcDbEntity
  8
_U_30EC_U_30A4_U_30E4_U_31
100
AcDbVertex
100
AcDb2dVertex
 10
27.06601142254445
 20
19.50392018097644
 30
0.0
  0
VERTEX
  5
18C
330
163
100
AcDbEntity
  8
_U_30EC_U_30A4_U_30E4_U_31
100
AcDbVertex
100
AcDb2dVertex
 10
27.02930064667048
 20
19.43039089724518
 30
0.0
  0
VERTEX
  5
18D
330
163
100
AcDbEntity
  8
_U_30EC_U_30A4_U_30E4_U_31
100
AcDbVertex
100
AcDb2dVertex
 10
27.19963793963205
 20
19.86577658527829
 30
0.0
  0
VERTEX
  5
18E
330
163
100
AcDbEntity
  8
_U_30EC_U_30A4_U_30E4_U_31
100
AcDbVertex
100
AcDb2dVertex
 10
27.33290203038466
 20
20.31199123375255
 30
0.0
  0
VERTEX
  5
18F
330
163
100
AcDbEntity
  8
_U_30EC_U_30A4_U_30E4_U_31
100
AcDbVertex
100
AcDb2dVertex
 10
27.42738960661556
 20
20.77232399633204
 30
0.0
  0
VERTEX
  5
190
330
163
100
AcDbEntity
  8
_U_30EC_U_30A4_U_30E4_U_31
100
AcDbVertex
100
AcDb2dVertex
 10
27.48139735601262
 20
21.25006402668084
 30
0.0
  0
VERTEX
  5
191
330
163
100
AcDbEntity
  8
_U_30EC_U_30A4_U_30E4_U_31
100
AcDbVertex
100
AcDb2dVertex
 10
27.49322196626311
 20
21.7485004784627
 30
0.0
  0
VERTEX
  5
192
330
163
100
AcDbEntity
  8
_U_30EC_U_30A4_U_30E4_U_31
100
AcDbVertex
100
AcDb2dVertex
 10
27.46116012505459
 20
22.27092250534204
 30
0.0
  0
VERTEX
  5
193
330
163
100
AcDbEntity
  8
_U_30EC_U_30A4_U_30E4_U_31
100
AcDbVertex
100
AcDb2dVertex
 10
27.38350852007431
 20
22.82061926098228
 30
0.0
  0
VERTEX
  5
194
330
163
100
AcDbEntity
  8
_U_30EC_U_30A4_U_30E4_U_31
100
AcDbVertex
100
AcDb2dVertex
 10
27.25856383900984
 20
23.40087989904815
 30
0.0
  0
VERTEX
  5
195
330
163
100
AcDbEntity
  8
_U_30EC_U_30A4_U_30E4_U_31
100
AcDbVertex
100
AcDb2dVertex
 10
27.1336604800886
 20
23.76288993339102
 30
0.0
  0
VERTEX
  5
196
330
163
100
AcDbEntity
  8
_U_30EC_U_30A4_U_30E4_U_31
100
AcDbVertex
100
AcDb2dVertex
 10
26.94547976938829
 20
24.12038000968274
 30
0.0
  0
VERTEX
  5
197
330
163
100
AcDbEntity
  8
_U_30EC_U_30A4_U_30E4_U_31
100
AcDbVertex
100
AcDb2dVertex
 10
26.70331867704619
 20
24.4625338519307
 30
0.0
  0
VERTEX
  5
198
330
163
100
AcDbEntity
  8
_U_30EC_U_30A4_U_30E4_U_31
100
AcDbVertex
100
AcDb2dVertex
 10
26.41647417319958
 20
24.77853518414327
 30
0.0
  0
VERTEX
  5
199
330
163
100
AcDbEntity
  8
_U_30EC_U_30A4_U_30E4_U_31
100
AcDbVertex
100
AcDb2dVertex
 10
26.09424322798638
 20
25.05756773032753
 30
0.0
  0
VERTEX
  5
19A
330
163
100
AcDbEntity
  8
_U_30EC_U_30A4_U_30E4_U_31
100
AcDbVertex
100
AcDb2dVertex
 10
25.74592281154385
 20
25.28881521449121
 30
0.0
  0
VERTEX
  5
19B
330
163
100
AcDbEntity
  8
_U_30EC_U_30A4_U_30E4_U_31
100
AcDbVertex
100
AcDb2dVertex
 10
25.38080989400929
 20
25.46146136064203
 30
0.0
  0
VERTEX
  5
19C
330
163
100
AcDbEntity
  8
_U_30EC_U_30A4_U_30E4_U_31
100
AcDbVertex
100
AcDb2dVertex
 10
25.0082014455206
 20
25.5646898927877
 30
0.0
  0
VERTEX
  5
19D
330
163
100
AcDbEntity
  8
_U_30EC_U_30A4_U_30E4_U_31
100
AcDbVertex
100
AcDb2dVertex
 10
24.26866764950642
 20
25.65292864232147
 30
0.0
  0
VERTEX
  5
19E
330
163
100
AcDbEntity
  8
_U_30EC_U_30A4_U_30E4_U_31
100
AcDbVertex
100
AcDb2dVertex
 10
23.56669066352318
 20
25.65318435424578
 30
0.0
  0
VERTEX
  5
19F
330
163
100
AcDbEntity
  8
_U_30EC_U_30A4_U_30E4_U_31
100
AcDbVertex
100
AcDb2dVertex
 10
22.89795063224997
 20
25.56515865109488
 30
0.0
  0
VERTEX
  5
1A0
330
163
100
AcDbEntity
  8
_U_30EC_U_30A4_U_30E4_U_31
100
AcDbVertex
100
AcDb2dVertex
 10
22.25812770036558
 20
25.38855315540331
 30
0.0
  0
VERTEX
  5
1A1
330
163
100
AcDbEntity
  8
_U_30EC_U_30A4_U_30E4_U_31
100
AcDbVertex
100
AcDb2dVertex
 10
21.64290201254879
 20
25.12306948970564
 30
0.0
  0
VERTEX
  5
1A2
330
163
100
AcDbEntity
  8
_U_30EC_U_30A4_U_30E4_U_31
100
AcDbVertex
100
AcDb2dVertex
 10
21.04795371347902
 20
24.76840927653642
 30
0.0
  0
VERTEX
  5
1A3
330
163
100
AcDbEntity
  8
_U_30EC_U_30A4_U_30E4_U_31
100
AcDbVertex
100
AcDb2dVertex
 10
20.46896294783504
 20
24.32427413843021
 30
0.0
  0
VERTEX
  5
1A4
330
163
100
AcDbEntity
  8
_U_30EC_U_30A4_U_30E4_U_31
100
AcDbVertex
100
AcDb2dVertex
 10
19.90160986029531
 20
23.79036569792125
 30
0.0
  0
VERTEX
  5
1A5
330
163
100
AcDbEntity
  8
_U_30EC_U_30A4_U_30E4_U_31
100
AcDbVertex
100
AcDb2dVertex
 10
19.33920107076127
 20
23.19710188251893
 30
0.0
  0
VERTEX
  5
1A6
330
163
100
AcDbEntity
  8
_U_30EC_U_30A4_U_30E4_U_31
100
AcDbVertex
100
AcDb2dVertex
 10
18.80404882857236
 20
22.58473466089355
 30
0.0
  0
VERTEX
  5
1A7
330
163
100
AcDbEntity
  8
_U_30EC_U_30A4_U_30E4_U_31
100
AcDbVertex
100
AcDb2dVertex
 10
18.28509024674551
 20
21.91604417973069
 30
0.0
  0
VERTEX
  5
1A8
330
163
100
AcDbEntity
  8
_U_30EC_U_30A4_U_30E4_U_31
100
AcDbVertex
100
AcDb2dVertex
 10
17.77126243829766
 20
21.15381058571621
 30
0.0
  0
VERTEX
  5
1A9
330
163
100
AcDbEntity
  8
_U_30EC_U_30A4_U_30E4_U_31
100
AcDbVertex
100
AcDb2dVertex
 10
17.25150251624542
 20
20.26081402553601
 30
0.0
  0
VERTEX
  5
1AA
330
163
100
AcDbEntity
  8
_U_30EC_U_30A4_U_30E4_U_31
100
AcDbVertex
100
AcDb2dVertex
 10
16.71474759360572
 20
19.19983464587564
 30
0.0
  0
VERTEX
  5
1AB
330
163
100
AcDbEntity
  8
_U_30EC_U_30A4_U_30E4_U_31
100
AcDbVertex
100
AcDb2dVertex
 10
16.1499347833955
 20
17.93365259342098
 30
0.0
  0
VERTEX
  5
1AC
330
163
100
AcDbEntity
  8
_U_30EC_U_30A4_U_30E4_U_31
100
AcDbVertex
100
AcDb2dVertex
 10
15.54600119863136
 20
16.42504801485824
 30
0.0
  0
VERTEX
  5
1AD
330
163
100
AcDbEntity
  8
_U_30EC_U_30A4_U_30E4_U_31
100
AcDbVertex
100
AcDb2dVertex
 10
15.07120607425978
 20
15.21774156842311
 30
0.0
  0
VERTEX
  5
1AE
330
163
100
AcDbEntity
  8
_U_30EC_U_30A4_U_30E4_U_31
100
AcDbVertex
100
AcDb2dVertex
 10
14.55320483441515
 20
13.95605683061309
 30
0.0
  0
VERTEX
  5
1AF
330
163
100
AcDbEntity
  8
_U_30EC_U_30A4_U_30E4_U_31
100
AcDbVertex
100
AcDb2dVertex
 10
14.02482656089534
 20
12.7063695671172
 30
0.0
  0
VERTEX
  5
1B0
330
163
100
AcDbEntity
  8
_U_30EC_U_30A4_U_30E4_U_31
100
AcDbVertex
100
AcDb2dVertex
 10
13.51890033549885
 20
11.5350555436232
 30
0.0
  0
VERTEX
  5
1B1
330
163
100
AcDbEntity
  8
_U_30EC_U_30A4_U_30E4_U_31
100
AcDbVertex
100
AcDb2dVertex
 10
13.06825524002324
 20
10.50849052581884
 30
0.0
  0
VERTEX
  5
1B2
330
163
100
AcDbEntity
  8
_U_30EC_U_30A4_U_30E4_U_31
100
AcDbVertex
100
AcDb2dVertex
 10
12.70572035626701
 20
9.693050279392507
 30
0.0
  0
VERTEX
  5
1B3
330
163
100
AcDbEntity
  8
_U_30EC_U_30A4_U_30E4_U_31
100
AcDbVertex
100
AcDb2dVertex
 10
12.46412476602769
 20
9.15511057003227
 30
0.0
  0
VERTEX
  5
1B4
330
163
100
AcDbEntity
  8
_U_30EC_U_30A4_U_30E4_U_31
100
AcDbVertex
100
AcDb2dVertex
 10
12.37629755110413
 20
8.961047163425883
 30
0.0
  0
VERTEX
  5
1B5
330
163
100
AcDbEntity
  8
_U_30EC_U_30A4_U_30E4_U_31
100
AcDbVertex
100
AcDb2dVertex
 10
12.37629755110413
 20
8.961047163425883
 30
0.0
  0
SEQEND
  5
1B7
330
163
100
AcDbEntity
  8
_U_30EC_U_30A4_U_30E4_U_31
  0
HATCH
  5
1B6
330
1F
100
AcDbEntity
  8
_U_30EC_U_30A4_U_30E4_U_31
 62
   254
100
AcDbHatch
 10
0.0
 20
0.0
 30
0.0
210
0.0
220
0.0
230
1.0
  2
SOLID
 70
     1
 71
     0
 91
        1
 92
        1
 93
       80
 72
     1
 10
12.37629755110413
 20
8.961047163425883
 11
12.94572231658937
 21
10.33157430472828
 72
     1
 10
12.94572231658937
 20
10.33157430472828
 11
13.41491692483723
 21
11.55035554840184
 72
     1
 10
13.41491692483723
 20
11.55035554840184
 11
13.80426263243681
 21
12.64434552279344
 72
     1
 10
13.80426263243681
 20
12.64434552279344
 11
14.13414069597722
 21
13.64049885624927
 72
     1
 10
14.13414069597722
 20
13.64049885624927
 11
14.4249323720479
 21
14.56577017711653
 72
     1
 10
14.4249323720479
 20
14.56577017711653
 11
14.69701891723891
 21
15.44711411374175
 72
     1
 10
14.69701891723891
 20
15.44711411374175
 11
14.97078158813871
 21
16.31148529447146
 72
     1
 10
14.97078158813871
 20
16.31148529447146
 11
15.26660164133738
 21
17.18583834765222
 72
     1
 10
15.26660164133738
 20
17.18583834765222
 11
15.57706126624046
 21
18.10254356661204
 72
     1
 10
15.57706126624046
 20
18.10254356661204
 11
15.89694379149405
 21
19.06523980193311
 72
     1
 10
15.89694379149405
 20
19.06523980193311
 11
16.24993218254822
 21
20.05778451784482
 72
     1
 10
16.24993218254822
 20
20.05778451784482
 11
16.65970940485402
 21
21.06403517857623
 72
     1
 10
16.65970940485402
 20
21.06403517857623
 11
17.14995842386087
 21
22.0678492483564
 72
     1
 10
17.14995842386087
 20
22.0678492483564
 11
17.74436220501916
 21
23.05308419141439
 72
     1
 10
17.74436220501916
 20
23.05308419141439
 11
18.46660371377897
 21
24.00359747197928
 72
     1
 10
18.46660371377897
 20
24.00359747197928
 11
19.3403659155907
 21
24.90324655428011
 72
     1
 10
19.3403659155907
 20
24.90324655428011
 11
20.08889456207241
 21
25.50697760458875
 72
     1
 10
20.08889456207241
 20
25.50697760458875
 11
20.86973499550741
 21
25.99789681720803
 72
     1
 10
20.86973499550741
 20
25.99789681720803
 11
21.66951068950296
 21
26.37729403835592
 72
     1
 10
21.66951068950296
 20
26.37729403835592
 11
22.47484511766637
 21
26.64645911425069
 72
     1
 10
22.47484511766637
 20
26.64645911425069
 11
23.2723617536049
 21
26.80668189111028
 72
     1
 10
23.2723617536049
 20
26.80668189111028
 11
24.04868407092551
 21
26.85925221515267
 72
     1
 10
24.04868407092551
 20
26.85925221515267
 11
24.79043554323613
 21
26.80545993259548
 72
     1
 10
24.79043554323613
 20
26.80545993259548
 11
25.48423964414339
 21
26.64659488965731
 72
     1
 10
25.48423964414339
 20
26.64659488965731
 11
26.21258462058507
 21
26.30131195013491
 72
     1
 10
26.21258462058507
 20
26.30131195013491
 11
26.78183740874136
 21
25.81285584256477
 72
     1
 10
26.78183740874136
 20
25.81285584256477
 11
27.2108526083457
 21
25.22785559565473
 72
     1
 10
27.2108526083457
 20
25.22785559565473
 11
27.51848481913056
 21
24.59294023811229
 72
     1
 10
27.51848481913056
 20
24.59294023811229
 11
27.7235886408297
 21
23.95473879864559
 72
     1
 10
27.7235886408297
 20
23.95473879864559
 11
27.84501867317591
 21
23.35988030596183
 72
     1
 10
27.84501867317591
 20
23.35988030596183
 11
27.90162951590262
 21
22.85499378876914
 72
     1
 10
27.90162951590262
 20
22.85499378876914
 11
27.91227576874262
 21
22.48670827577503
 72
     1
 10
27.91227576874262
 20
22.48670827577503
 11
27.86572850164754
 21
21.95080416302511
 72
     1
 10
27.86572850164754
 20
21.95080416302511
 11
27.76166398863455
 21
21.41467676235608
 72
     1
 10
27.76166398863455
 20
21.41467676235608
 11
27.61972304935325
 21
20.9004183520748
 72
     1
 10
27.61972304935325
 20
20.9004183520748
 11
27.45954650345389
 21
20.43012121048906
 72
     1
 10
27.45954650345389
 20
20.43012121048906
 11
27.30077517058608
 21
20.02587761590603
 72
     1
 10
27.30077517058608
 20
20.02587761590603
 11
27.16304987039973
 21
19.70977984663256
 72
     1
 10
27.16304987039973
 20
19.70977984663256
 11
27.06601142254445
 21
19.50392018097644
 72
     1
 10
27.06601142254445
 20
19.50392018097644
 11
27.02930064667048
 21
19.43039089724518
 72
     1
 10
27.02930064667048
 20
19.43039089724518
 11
27.19963793963205
 21
19.86577658527829
 72
     1
 10
27.19963793963205
 20
19.86577658527829
 11
27.33290203038466
 21
20.31199123375255
 72
     1
 10
27.33290203038466
 20
20.31199123375255
 11
27.42738960661556
 21
20.77232399633204
 72
     1
 10
27.42738960661556
 20
20.77232399633204
 11
27.48139735601262
 21
21.25006402668084
 72
     1
 10
27.48139735601262
 20
21.25006402668084
 11
27.49322196626311
 21
21.7485004784627
 72
     1
 10
27.49322196626311
 20
21.7485004784627
 11
27.46116012505459
 21
22.27092250534204
 72
     1
 10
27.46116012505459
 20
22.27092250534204
 11
27.38350852007431
 21
22.82061926098228
 72
     1
 10
27.38350852007431
 20
22.82061926098228
 11
27.25856383900984
 21
23.40087989904815
 72
     1
 10
27.25856383900984
 20
23.40087989904815
 11
27.1336604800886
 21
23.76288993339102
 72
     1
 10
27.1336604800886
 20
23.76288993339102
 11
26.94547976938829
 21
24.12038000968274
 72
     1
 10
26.94547976938829
 20
24.12038000968274
 11
26.70331867704619
 21
24.4625338519307
 72
     1
 10
26.70331867704619
 20
24.4625338519307
 11
26.41647417319958
 21
24.77853518414327
 72
     1
 10
26.41647417319958
 20
24.77853518414327
 11
26.09424322798638
 21
25.05756773032753
 72
     1
 10
26.09424322798638
 20
25.05756773032753
 11
25.74592281154385
 21
25.28881521449121
 72
     1
 10
25.74592281154385
 20
25.28881521449121
 11
25.38080989400929
 21
25.46146136064203
 72
     1
 10
25.38080989400929
 20
25.46146136064203
 11
25.0082014455206
 21
25.5646898927877
 72
     1
 10
25.0082014455206
 20
25.5646898927877
 11
24.26866764950642
 21
25.65292864232147
 72
     1
 10
24.26866764950642
 20
25.65292864232147
 11
23.56669066352318
 21
25.65318435424578
 72
     1
 10
23.56669066352318
 20
25.65318435424578
 11
22.89795063224997
 21
25.56515865109488
 72
     1
 10
22.89795063224997
 20
25.56515865109488
 11
22.25812770036558
 21
25.38855315540331
 72
     1
 10
22.25812770036558
 20
25.38855315540331
 11
21.64290201254879
 21
25.12306948970564
 72
     1
 10
21.64290201254879
 20
25.12306948970564
 11
21.04795371347902
 21
24.76840927653642
 72
     1
 10
21.04795371347902
 20
24.76840927653642
 11
20.46896294783504
 21
24.32427413843021
 72
     1
 10
20.46896294783504
 20
24.32427413843021
 11
19.90160986029531
 21
23.79036569792125
 72
     1
 10
19.90160986029531
 20
23.79036569792125
 11
19.33920107076127
 21
23.19710188251893
 72
     1
 10
19.33920107076127
 20
23.19710188251893
 11
18.80404882857236
 21
22.58473466089355
 72
     1
 10
18.80404882857236
 20
22.58473466089355
 11
18.28509024674551
 21
21.91604417973069
 72
     1
 10
18.28509024674551
 20
21.91604417973069
 11
17.77126243829766
 21
21.15381058571621
 72
     1
 10
17.77126243829766
 20
21.15381058571621
 11
17.25150251624542
 21
20.26081402553601
 72
     1
 10
17.25150251624542
 20
20.26081402553601
 11
16.71474759360572
 21
19.19983464587564
 72
     1
 10
16.71474759360572
 20
19.19983464587564
 11
16.1499347833955
 21
17.93365259342098
 72
     1
 10
16.1499347833955
 20
17.93365259342098
 11
15.54600119863136
 21
16.42504801485824
 72
     1
 10
15.54600119863136
 20
16.42504801485824
 11
15.07120607425978
 21
15.21774156842311
 72
     1
 10
15.07120607425978
 20
15.21774156842311
 11
14.55320483441515
 21
13.95605683061309
 72
     1
 10
14.55320483441515
 20
13.95605683061309
 11
14.02482656089534
 21
12.7063695671172
 72
     1
 10
14.02482656089534
 20
12.7063695671172
 11
13.51890033549885
 21
11.5350555436232
 72
     1
 10
13.51890033549885
 20
11.5350555436232
 11
13.06825524002324
 21
10.50849052581884
 72
     1
 10
13.06825524002324
 20
10.50849052581884
 11
12.70572035626701
 21
9.693050279392507
 72
     1
 10
12.70572035626701
 20
9.693050279392507
 11
12.46412476602769
 21
9.15511057003227
 72
     1
 10
12.46412476602769
 20
9.15511057003227
 11
12.37629755110413
 21
8.961047163425883
 97
        0
 75
     2
 76
     1
 98
        0
  0
POLYLINE
  5
1B8
330
1F
100
AcDbEntity
  8
_U_30EC_U_30A4_U_30E4_U_31
100
AcDb2dPolyline
 66
     1
 10
0.0
 20
0.0
 30
0.0
  0
VERTEX
  5
1B9
330
1B8
100
AcDbEntity
  8
_U_30EC_U_30A4_U_30E4_U_31
100
AcDbVertex
100
AcDb2dVertex
 10
49.66316887967304
 20
24.59377081945694
 30
0.0
  0
VERTEX
  5
1BA
330
1B8
100
AcDbEntity
  8
_U_30EC_U_30A4_U_30E4_U_31
100
AcDbVertex
100
AcDb2dVertex
 10
48.44961246314701
 20
25.08120876692623
 30
0.0
  0
VERTEX
  5
1BB
330
1B8
100
AcDbEntity
  8
_U_30EC_U_30A4_U_30E4_U_31
100
AcDbVertex
100
AcDb2dVertex
 10
47.6515345621421
 20
25.21281141446277
 30
0.0
  0
VERTEX
  5
1BC
330
1B8
100
AcDbEntity
  8
_U_30EC_U_30A4_U_30E4_U_31
100
AcDbVertex
100
AcDb2dVertex
 10
46.69302287075846
 20
25.21793599399708
 30
0.0
  0
VERTEX
  5
1BD
330
1B8
100
AcDbEntity
  8
_U_30EC_U_30A4_U_30E4_U_31
100
AcDbVertex
100
AcDb2dVertex
 10
44.90168087766246
 20
24.86442613351688
 30
0.0
  0
VERTEX
  5
1BE
330
1B8
100
AcDbEntity
  8
_U_30EC_U_30A4_U_30E4_U_31
100
AcDbVertex
100
AcDb2dVertex
 10
43.43889333462538
 20
24.27792015899988
 30
0.0
  0
VERTEX
  5
1BF
330
1B8
100
AcDbEntity
  8
_U_30EC_U_30A4_U_30E4_U_31
100
AcDbVertex
100
AcDb2dVertex
 10
42.28336524517901
 20
23.62272759324571
 30
0.0
  0
VERTEX
  5
1C0
330
1B8
100
AcDbEntity
  8
_U_30EC_U_30A4_U_30E4_U_31
100
AcDbVertex
100
AcDb2dVertex
 10
39.05582753982271
 20
20.36442087883676
 30
0.0
  0
VERTEX
  5
1C1
330
1B8
100
AcDbEntity
  8
_U_30EC_U_30A4_U_30E4_U_31
100
AcDbVertex
100
AcDb2dVertex
 10
36.89777079433448
 20
17.91014968928928
 30
0.0
  0
VERTEX
  5
1C2
330
1B8
100
AcDbEntity
  8
_U_30EC_U_30A4_U_30E4_U_31
100
AcDbVertex
100
AcDb2dVertex
 10
33.93566051832108
 20
14.02188309697629
 30
0.0
  0
VERTEX
  5
1C3
330
1B8
100
AcDbEntity
  8
_U_30EC_U_30A4_U_30E4_U_31
100
AcDbVertex
100
AcDb2dVertex
 10
33.13239814218549
 20
12.74326987422289
 30
0.0
  0
VERTEX
  5
1C4
330
1B8
100
AcDbEntity
  8
_U_30EC_U_30A4_U_30E4_U_31
100
AcDbVertex
100
AcDb2dVertex
 10
32.72208408573123
 20
12.00087022852964
 30
0.0
  0
VERTEX
  5
1C5
330
1B8
100
AcDbEntity
  8
_U_30EC_U_30A4_U_30E4_U_31
100
AcDbVertex
100
AcDb2dVertex
 10
32.62581519876528
 20
11.42336456596786
 30
0.0
  0
VERTEX
  5
1C6
330
1B8
100
AcDbEntity
  8
_U_30EC_U_30A4_U_30E4_U_31
100
AcDbVertex
100
AcDb2dVertex
 10
32.63587057121285
 20
10.40204447751876
 30
0.0
  0
VERTEX
  5
1C7
330
1B8
100
AcDbEntity
  8
_U_30EC_U_30A4_U_30E4_U_31
100
AcDbVertex
100
AcDb2dVertex
 10
32.76084140994029
 20
9.07398169980173
 30
0.0
  0
VERTEX
  5
1C8
330
1B8
100
AcDbEntity
  8
_U_30EC_U_30A4_U_30E4_U_31
100
AcDbVertex
100
AcDb2dVertex
 10
33.00938351735428
 20
7.576226437589363
 30
0.0
  0
VERTEX
  5
1C9
330
1B8
100
AcDbEntity
  8
_U_30EC_U_30A4_U_30E4_U_31
100
AcDbVertex
100
AcDb2dVertex
 10
33.26668431422724
 20
6.54204689582896
 30
0.0
  0
VERTEX
  5
1CA
330
1B8
100
AcDbEntity
  8
_U_30EC_U_30A4_U_30E4_U_31
100
AcDbVertex
100
AcDb2dVertex
 10
33.60293453810669
 20
5.464123897957842
 30
0.0
  0
VERTEX
  5
1CB
330
1B8
100
AcDbEntity
  8
_U_30EC_U_30A4_U_30E4_U_31
100
AcDbVertex
100
AcDb2dVertex
 10
34.0250157358786
 20
4.420018629843951
 30
0.0
  0
VERTEX
  5
1CC
330
1B8
100
AcDbEntity
  8
_U_30EC_U_30A4_U_30E4_U_31
100
AcDbVertex
100
AcDb2dVertex
 10
34.5827370936211
 20
3.435630769407932
 30
0.0
  0
VERTEX
  5
1CD
330
1B8
100
AcDbEntity
  8
_U_30EC_U_30A4_U_30E4_U_31
100
AcDbVertex
100
AcDb2dVertex
 10
35.03101215716617
 20
2.999986943694343
 30
0.0
  0
VERTEX
  5
1CE
330
1B8
100
AcDbEntity
  8
_U_30EC_U_30A4_U_30E4_U_31
100
AcDbVertex
100
AcDb2dVertex
 10
35.62481388236883
 20
2.502096020292357
 30
0.0
  0
VERTEX
  5
1CF
330
1B8
100
AcDbEntity
  8
_U_30EC_U_30A4_U_30E4_U_31
100
AcDbVertex
100
AcDb2dVertex
 10
36.03312229291128
 20
2.29127770844185
 30
0.0
  0
VERTEX
  5
1D0
330
1B8
100
AcDbEntity
  8
_U_30EC_U_30A4_U_30E4_U_31
100
AcDbVertex
100
AcDb2dVertex
 10
36.94310120164646
 20
2.028352327376939
 30
0.0
  0
VERTEX
  5
1D1
330
1B8
100
AcDbEntity
  8
_U_30EC_U_30A4_U_30E4_U_31
100
AcDbVertex
100
AcDb2dVertex
 10
37.7164605425447
 20
2.176771347250859
 30
0.0
  0
VERTEX
  5
1D2
330
1B8
100
AcDbEntity
  8
_U_30EC_U_30A4_U_30E4_U_31
100
AcDbVertex
100
AcDb2dVertex
 10
38.12122647420946
 20
2.55455047845481
 30
0.0
  0
VERTEX
  5
1D3
330
1B8
100
AcDbEntity
  8
_U_30EC_U_30A4_U_30E4_U_31
100
AcDbVertex
100
AcDb2dVertex
 10
38.25176378541218
 20
3.356522764327883
 30
0.0
  0
VERTEX
  5
1D4
330
1B8
100
AcDbEntity
  8
_U_30EC_U_30A4_U_30E4_U_31
100
AcDbVertex
100
AcDb2dVertex
 10
38.0127172224294
 20
4.561057337051923
 30
0.0
  0
VERTEX
  5
1D5
330
1B8
100
AcDbEntity
  8
_U_30EC_U_30A4_U_30E4_U_31
100
AcDbVertex
100
AcDb2dVertex
 10
37.68788778186391
 20
5.408550826423383
 30
0.0
  0
VERTEX
  5
1D6
330
1B8
100
AcDbEntity
  8
_U_30EC_U_30A4_U_30E4_U_31
100
AcDbVertex
100
AcDb2dVertex
 10
37.09173678086987
 20
6.448974939798642
 30
0.0
  0
VERTEX
  5
1D7
330
1B8
100
AcDbEntity
  8
_U_30EC_U_30A4_U_30E4_U_31
100
AcDbVertex
100
AcDb2dVertex
 10
36.39528795579817
 20
7.664442413858542
 30
0.0
  0
VERTEX
  5
1D8
330
1B8
100
AcDbEntity
  8
_U_30EC_U_30A4_U_30E4_U_31
100
AcDbVertex
100
AcDb2dVertex
 10
35.94421581819968
 20
8.636755772156468
 30
0.0
  0
VERTEX
  5
1D9
330
1B8
100
AcDbEntity
  8
_U_30EC_U_30A4_U_30E4_U_31
100
AcDbVertex
100
AcDb2dVertex
 10
35.65903912127541
 20
9.694182802547832
 30
0.0
  0
VERTEX
  5
1DA
330
1B8
100
AcDbEntity
  8
_U_30EC_U_30A4_U_30E4_U_31
100
AcDbVertex
100
AcDb2dVertex
 10
35.60748074570866
 20
10.35943295273558
 30
0.0
  0
VERTEX
  5
1DB
330
1B8
100
AcDbEntity
  8
_U_30EC_U_30A4_U_30E4_U_31
100
AcDbVertex
100
AcDb2dVertex
 10
35.79700163583212
 20
11.69940844531127
 30
0.0
  0
VERTEX
  5
1DC
330
1B8
100
AcDbEntity
  8
_U_30EC_U_30A4_U_30E4_U_31
100
AcDbVertex
100
AcDb2dVertex
 10
36.09388516453237
 20
12.52101505126202
 30
0.0
  0
VERTEX
  5
1DD
330
1B8
100
AcDbEntity
  8
_U_30EC_U_30A4_U_30E4_U_31
100
AcDbVertex
100
AcDb2dVertex
 10
36.84885630827809
 20
13.72843489145496
 30
0.0
  0
VERTEX
  5
1DE
330
1B8
100
AcDbEntity
  8
_U_30EC_U_30A4_U_30E4_U_31
100
AcDbVertex
100
AcDb2dVertex
 10
39.01717787484756
 20
16.15660278499939
 30
0.0
  0
VERTEX
  5
1DF
330
1B8
100
AcDbEntity
  8
_U_30EC_U_30A4_U_30E4_U_31
100
AcDbVertex
100
AcDb2dVertex
 10
41.82355428252462
 20
18.83552906736642
 30
0.0
  0
VERTEX
  5
1E0
330
1B8
100
AcDbEntity
  8
_U_30EC_U_30A4_U_30E4_U_31
100
AcDbVertex
100
AcDb2dVertex
 10
43.97548054455726
 20
20.67094486544864
 30
0.0
  0
VERTEX
  5
1E1
330
1B8
100
AcDbEntity
  8
_U_30EC_U_30A4_U_30E4_U_31
100
AcDbVertex
100
AcDb2dVertex
 10
46.80864071975305
 20
22.79352766957991
 30
0.0
  0
VERTEX
  5
1E2
330
1B8
100
AcDbEntity
  8
_U_30EC_U_30A4_U_30E4_U_31
100
AcDbVertex
100
AcDb2dVertex
 10
49.66316887967304
 20
24.59377081945694
 30
0.0
  0
SEQEND
  5
1E4
330
1B8
100
AcDbEntity
  8
_U_30EC_U_30A4_U_30E4_U_31
  0
HATCH
  5
1E3
330
1F
100
AcDbEntity
  8
_U_30EC_U_30A4_U_30E4_U_31
 62
    30
100
AcDbHatch
 10
0.0
 20
0.0
 30
0.0
210
0.0
220
0.0
230
1.0
  2
SOLID
 70
     1
 71
     0
 91
        1
 92
        1
 93
       41
 72
     1
 10
49.66316887967304
 20
24.59377081945694
 11
48.44961246314701
 21
25.08120876692623
 72
     1
 10
48.44961246314701
 20
25.08120876692623
 11
47.6515345621421
 21
25.21281141446277
 72
     1
 10
47.6515345621421
 20
25.21281141446277
 11
46.69302287075846
 21
25.21793599399708
 72
     1
 10
46.69302287075846
 20
25.21793599399708
 11
44.90168087766246
 21
24.86442613351688
 72
     1
 10
44.90168087766246
 20
24.86442613351688
 11
43.43889333462538
 21
24.27792015899988
 72
     1
 10
43.43889333462538
 20
24.27792015899988
 11
42.28336524517901
 21
23.62272759324571
 72
     1
 10
42.28336524517901
 20
23.62272759324571
 11
39.05582753982271
 21
20.36442087883676
 72
     1
 10
39.05582753982271
 20
20.36442087883676
 11
36.89777079433448
 21
17.91014968928928
 72
     1
 10
36.89777079433448
 20
17.91014968928928
 11
33.93566051832108
 21
14.02188309697629
 72
     1
 10
33.93566051832108
 20
14.02188309697629
 11
33.13239814218549
 21
12.74326987422289
 72
     1
 10
33.13239814218549
 20
12.74326987422289
 11
32.72208408573123
 21
12.00087022852964
 72
     1
 10
32.72208408573123
 20
12.00087022852964
 11
32.62581519876528
 21
11.42336456596786
 72
     1
 10
32.62581519876528
 20
11.42336456596786
 11
32.63587057121285
 21
10.40204447751876
 72
     1
 10
32.63587057121285
 20
10.40204447751876
 11
32.76084140994029
 21
9.07398169980173
 72
     1
 10
32.76084140994029
 20
9.07398169980173
 11
33.00938351735428
 21
7.576226437589363
 72
     1
 10
33.00938351735428
 20
7.576226437589363
 11
33.26668431422724
 21
6.54204689582896
 72
     1
 10
33.26668431422724
 20
6.54204689582896
 11
33.60293453810669
 21
5.464123897957842
 72
     1
 10
33.60293453810669
 20
5.464123897957842
 11
34.0250157358786
 21
4.420018629843951
 72
     1
 10
34.0250157358786
 20
4.420018629843951
 11
34.5827370936211
 21
3.435630769407932
 72
     1
 10
34.5827370936211
 20
3.435630769407932
 11
35.03101215716617
 21
2.999986943694343
 72
     1
 10
35.03101215716617
 20
2.999986943694343
 11
35.62481388236883
 21
2.502096020292357
 72
     1
 10
35.62481388236883
 20
2.502096020292357
 11
36.03312229291128
 21
2.29127770844185
 72
     1
 10
36.03312229291128
 20
2.29127770844185
 11
36.94310120164646
 21
2.028352327376939
 72
     1
 10
36.94310120164646
 20
2.028352327376939
 11
37.7164605425447
 21
2.176771347250859
 72
     1
 10
37.7164605425447
 20
2.176771347250859
 11
38.12122647420946
 21
2.55455047845481
 72
     1
 10
38.12122647420946
 20
2.55455047845481
 11
38.25176378541218
 21
3.356522764327883
 72
     1
 10
38.25176378541218
 20
3.356522764327883
 11
38.0127172224294
 21
4.561057337051923
 72
     1
 10
38.0127172224294
 20
4.561057337051923
 11
37.68788778186391
 21
5.408550826423383
 72
     1
 10
37.68788778186391
 20
5.408550826423383
 11
37.09173678086987
 21
6.448974939798642
 72
     1
 10
37.09173678086987
 20
6.448974939798642
 11
36.39528795579817
 21
7.664442413858542
 72
     1
 10
36.39528795579817
 20
7.664442413858542
 11
35.94421581819968
 21
8.636755772156468
 72
     1
 10
35.94421581819968
 20
8.636755772156468
 11
35.65903912127541
 21
9.694182802547832
 72
     1
 10
35.65903912127541
 20
9.694182802547832
 11
35.60748074570866
 21
10.35943295273558
 72
     1
 10
35.60748074570866
 20
10.35943295273558
 11
35.79700163583212
 21
11.69940844531127
 72
     1
 10
35.79700163583212
 20
11.69940844531127
 11
36.09388516453237
 21
12.52101505126202
 72
     1
 10
36.09388516453237
 20
12.52101505126202
 11
36.84885630827809
 21
13.72843489145496
 72
     1
 10
36.84885630827809
 20
13.72843489145496
 11
39.01717787484756
 21
16.15660278499939
 72
     1
 10
39.01717787484756
 20
16.15660278499939
 11
41.82355428252462
 21
18.83552906736642
 72
     1
 10
41.82355428252462
 20
18.83552906736642
 11
43.97548054455726
 21
20.67094486544864
 72
     1
 10
43.97548054455726
 20
20.67094486544864
 11
46.80864071975305
 21
22.79352766957991
 72
     1
 10
46.80864071975305
 20
22.79352766957991
 11
49.66316887967304
 21
24.59377081945694
 97
        0
 75
     2
 76
     1
 98
        0
  0
POLYLINE
  5
1E5
330
1F
100
AcDbEntity
  8
_U_30EC_U_30A4_U_30E4_U_31
100
AcDb2dPolyline
 66
     1
 10
0.0
 20
0.0
 30
0.0
  0
VERTEX
  5
1E6
330
1E5
100
AcDbEntity
  8
_U_30EC_U_30A4_U_30E4_U_31
100
AcDbVertex
100
AcDb2dVertex
 10
99.62637670545264
 20
11.13535458340097
 30
0.0
  0
VERTEX
  5
1E7
330
1E5
100
AcDbEntity
  8
_U_30EC_U_30A4_U_30E4_U_31
100
AcDbVertex
100
AcDb2dVertex
 10
99.54102446480557
 20
10.40822411754543
 30
0.0
  0
VERTEX
  5
1E8
330
1E5
100
AcDbEntity
  8
_U_30EC_U_30A4_U_30E4_U_31
100
AcDbVertex
100
AcDb2dVertex
 10
99.34812064947837
 20
9.7656276821592
 30
0.0
  0
VERTEX
  5
1E9
330
1E5
100
AcDbEntity
  8
_U_30EC_U_30A4_U_30E4_U_31
100
AcDbVertex
100
AcDb2dVertex
 10
99.02611188084143
 20
9.246817833927357
 30
0.0
  0
VERTEX
  5
1EA
330
1E5
100
AcDbEntity
  8
_U_30EC_U_30A4_U_30E4_U_31
100
AcDbVertex
100
AcDb2dVertex
 10
98.55335865287802
 20
8.891090193228528
 30
0.0
  0
VERTEX
  5
1EB
330
1E5
100
AcDbEntity
  8
_U_30EC_U_30A4_U_30E4_U_31
100
AcDbVertex
100
AcDb2dVertex
 10
97.96407507012603
 20
8.746417714694818
 30
0.0
  0
VERTEX
  5
1EC
330
1E5
100
AcDbEntity
  8
_U_30EC_U_30A4_U_30E4_U_31
100
AcDbVertex
100
AcDb2dVertex
 10
97.38368414009534
 20
8.825827165629828
 30
0.0
  0
VERTEX
  5
1ED
330
1E5
100
AcDbEntity
  8
_U_30EC_U_30A4_U_30E4_U_31
100
AcDbVertex
100
AcDb2dVertex
 10
97.16334875196684
 20
8.907239078315637
 30
0.0
  0
VERTEX
  5
1EE
330
1E5
100
AcDbEntity
  8
_U_30EC_U_30A4_U_30E4_U_31
100
AcDbVertex
100
AcDb2dVertex
 10
97.55883483216441
 20
8.113079339345697
 30
0.0
  0
VERTEX
  5
1EF
330
1E5
100
AcDbEntity
  8
_U_30EC_U_30A4_U_30E4_U_31
100
AcDbVertex
100
AcDb2dVertex
 10
98.13889213415567
 20
7.06514652235255
 30
0.0
  0
VERTEX
  5
1F0
330
1E5
100
AcDbEntity
  8
_U_30EC_U_30A4_U_30E4_U_31
100
AcDbVertex
100
AcDb2dVertex
 10
98.82924792623992
 20
6.031735594083432
 30
0.0
  0
VERTEX
  5
1F1
330
1E5
100
AcDbEntity
  8
_U_30EC_U_30A4_U_30E4_U_31
100
AcDbVertex
100
AcDb2dVertex
 10
99.62637670545264
 20
5.048447800255686
 30
0.0
  0
VERTEX
  5
1F2
330
1E5
100
AcDbEntity
  8
_U_30EC_U_30A4_U_30E4_U_31
100
AcDbVertex
100
AcDb2dVertex
 10
100.4910490966249
 20
4.163459602951698
 30
0.0
  0
VERTEX
  5
1F3
330
1E5
100
AcDbEntity
  8
_U_30EC_U_30A4_U_30E4_U_31
100
AcDbVertex
100
AcDb2dVertex
 10
101.5573527249352
 20
3.268328319905487
 30
0.0
  0
VERTEX
  5
1F4
330
1E5
100
AcDbEntity
  8
_U_30EC_U_30A4_U_30E4_U_31
100
AcDbVertex
100
AcDb2dVertex
 10
102.8916597382192
 20
2.363947691333839
 30
0.0
  0
VERTEX
  5
1F5
330
1E5
100
AcDbEntity
  8
_U_30EC_U_30A4_U_30E4_U_31
100
AcDbVertex
100
AcDb2dVertex
 10
103.9221262037339
 20
1.803144475166222
 30
0.0
  0
VERTEX
  5
1F6
330
1E5
100
AcDbEntity
  8
_U_30EC_U_30A4_U_30E4_U_31
100
AcDbVertex
100
AcDb2dVertex
 10
104.4774802537733
 20
1.500908208585189
 30
0.0
  0
VERTEX
  5
1F7
330
1E5
100
AcDbEntity
  8
_U_30EC_U_30A4_U_30E4_U_31
100
AcDbVertex
100
AcDb2dVertex
 10
105.5372722915291
 20
1.025191264896982
 30
0.0
  0
VERTEX
  5
1F8
330
1E5
100
AcDbEntity
  8
_U_30EC_U_30A4_U_30E4_U_31
100
AcDbVertex
100
AcDb2dVertex
 10
106.499643644381
 20
0.6796405085951934
 30
0.0
  0
VERTEX
  5
1F9
330
1E5
100
AcDbEntity
  8
_U_30EC_U_30A4_U_30E4_U_31
100
AcDbVertex
100
AcDb2dVertex
 10
107.2300353340873
 20
0.5168807535592465
 30
0.0
  0
VERTEX
  5
1FA
330
1E5
100
AcDbEntity
  8
_U_30EC_U_30A4_U_30E4_U_31
100
AcDbVertex
100
AcDb2dVertex
 10
107.650650046003
 20
0.4851648684528401
 30
0.0
  0
VERTEX
  5
1FB
330
1E5
100
AcDbEntity
  8
_U_30EC_U_30A4_U_30E4_U_31
100
AcDbVertex
100
AcDb2dVertex
 10
107.9960639320929
 20
0.538520784780647
 30
0.0
  0
VERTEX
  5
1FC
330
1E5
100
AcDbEntity
  8
_U_30EC_U_30A4_U_30E4_U_31
100
AcDbVertex
100
AcDb2dVertex
 10
108.2306534027916
 20
0.7083209285098984
 30
0.0
  0
VERTEX
  5
1FD
330
1E5
100
AcDbEntity
  8
_U_30EC_U_30A4_U_30E4_U_31
100
AcDbVertex
100
AcDb2dVertex
 10
108.3222498790057
 20
1.030932588856763
 30
0.0
  0
VERTEX
  5
1FE
330
1E5
100
AcDbEntity
  8
_U_30EC_U_30A4_U_30E4_U_31
100
AcDbVertex
100
AcDb2dVertex
 10
108.3200105669403
 20
1.300382119496866
 30
0.0
  0
VERTEX
  5
1FF
330
1E5
100
AcDbEntity
  8
_U_30EC_U_30A4_U_30E4_U_31
100
AcDbVertex
100
AcDb2dVertex
 10
108.273243395728
 20
1.614273381896691
 30
0.0
  0
VERTEX
  5
200
330
1E5
100
AcDbEntity
  8
_U_30EC_U_30A4_U_30E4_U_31
100
AcDbVertex
100
AcDb2dVertex
 10
107.963486136198
 20
2.570978009013445
 30
0.0
  0
VERTEX
  5
201
330
1E5
100
AcDbEntity
  8
_U_30EC_U_30A4_U_30E4_U_31
100
AcDbVertex
100
AcDb2dVertex
 10
107.4021038227734
 20
3.711316012575147
 30
0.0
  0
VERTEX
  5
202
330
1E5
100
AcDbEntity
  8
_U_30EC_U_30A4_U_30E4_U_31
100
AcDbVertex
100
AcDb2dVertex
 10
106.7157752288558
 20
4.784303832933408
 30
0.0
  0
VERTEX
  5
203
330
1E5
100
AcDbEntity
  8
_U_30EC_U_30A4_U_30E4_U_31
100
AcDbVertex
100
AcDb2dVertex
 10
105.9294055531768
 20
5.757077842598403
 30
0.0
  0
VERTEX
  5
204
330
1E5
100
AcDbEntity
  8
_U_30EC_U_30A4_U_30E4_U_31
100
AcDbVertex
100
AcDb2dVertex
 10
105.6284220598549
 20
6.051728621672744
 30
0.0
  0
VERTEX
  5
205
330
1E5
100
AcDbEntity
  8
_U_30EC_U_30A4_U_30E4_U_31
100
AcDbVertex
100
AcDb2dVertex
 10
105.0837923802295
 20
6.427259118155982
 30
0.0
  0
VERTEX
  5
206
330
1E5
100
AcDbEntity
  8
_U_30EC_U_30A4_U_30E4_U_31
100
AcDbVertex
100
AcDb2dVertex
 10
104.114322588307
 20
7.063752530146452
 30
0.0
  0
VERTEX
  5
207
330
1E5
100
AcDbEntity
  8
_U_30EC_U_30A4_U_30E4_U_31
100
AcDbVertex
100
AcDb2dVertex
 10
103.0095886660492
 20
7.836997667388901
 30
0.0
  0
VERTEX
  5
208
330
1E5
100
AcDbEntity
  8
_U_30EC_U_30A4_U_30E4_U_31
100
AcDbVertex
100
AcDb2dVertex
 10
101.8563722523669
 20
8.755032517056868
 30
0.0
  0
VERTEX
  5
209
330
1E5
100
AcDbEntity
  8
_U_30EC_U_30A4_U_30E4_U_31
100
AcDbVertex
100
AcDb2dVertex
 10
100.8606891514878
 20
9.675320321782191
 30
0.0
  0
VERTEX
  5
20A
330
1E5
100
AcDbEntity
  8
_U_30EC_U_30A4_U_30E4_U_31
100
AcDbVertex
100
AcDb2dVertex
 10
100.1663329502246
 20
10.44176122556557
 30
0.0
  0
VERTEX
  5
20B
330
1E5
100
AcDbEntity
  8
_U_30EC_U_30A4_U_30E4_U_31
100
AcDbVertex
100
AcDb2dVertex
 10
99.62637670545264
 20
11.13535458340097
 30
0.0
  0
SEQEND
  5
20D
330
1E5
100
AcDbEntity
  8
_U_30EC_U_30A4_U_30E4_U_31
  0
HATCH
  5
20C
330
1F
100
AcDbEntity
  8
_U_30EC_U_30A4_U_30E4_U_31
 62
    30
100
AcDbHatch
 10
0.0
 20
0.0
 30
0.0
210
0.0
220
0.0
230
1.0
  2
SOLID
 70
     1
 71
     0
 91
        1
 92
        1
 93
       37
 72
     1
 10
99.62637670545264
 20
11.13535458340097
 11
99.54102446480557
 21
10.40822411754543
 72
     1
 10
99.54102446480557
 20
10.40822411754543
 11
99.34812064947837
 21
9.7656276821592
 72
     1
 10
99.34812064947837
 20
9.7656276821592
 11
99.02611188084143
 21
9.246817833927357
 72
     1
 10
99.02611188084143
 20
9.246817833927357
 11
98.55335865287802
 21
8.891090193228528
 72
     1
 10
98.55335865287802
 20
8.891090193228528
 11
97.96407507012603
 21
8.746417714694818
 72
     1
 10
97.96407507012603
 20
8.746417714694818
 11
97.38368414009534
 21
8.825827165629828
 72
     1
 10
97.38368414009534
 20
8.825827165629828
 11
97.16334875196684
 21
8.907239078315637
 72
     1
 10
97.16334875196684
 20
8.907239078315637
 11
97.55883483216441
 21
8.113079339345697
 72
     1
 10
97.55883483216441
 20
8.113079339345697
 11
98.13889213415567
 21
7.06514652235255
 72
     1
 10
98.13889213415567
 20
7.06514652235255
 11
98.82924792623992
 21
6.031735594083432
 72
     1
 10
98.82924792623992
 20
6.031735594083432
 11
99.62637670545264
 21
5.048447800255686
 72
     1
 10
99.62637670545264
 20
5.048447800255686
 11
100.4910490966249
 21
4.163459602951698
 72
     1
 10
100.4910490966249
 20
4.163459602951698
 11
101.5573527249352
 21
3.268328319905487
 72
     1
 10
101.5573527249352
 20
3.268328319905487
 11
102.8916597382192
 21
2.363947691333839
 72
     1
 10
102.8916597382192
 20
2.363947691333839
 11
103.9221262037339
 21
1.803144475166222
 72
     1
 10
103.9221262037339
 20
1.803144475166222
 11
104.4774802537733
 21
1.500908208585189
 72
     1
 10
104.4774802537733
 20
1.500908208585189
 11
105.5372722915291
 21
1.025191264896982
 72
     1
 10
105.5372722915291
 20
1.025191264896982
 11
106.499643644381
 21
0.6796405085951934
 72
     1
 10
106.499643644381
 20
0.6796405085951934
 11
107.2300353340873
 21
0.5168807535592465
 72
     1
 10
107.2300353340873
 20
0.5168807535592465
 11
107.650650046003
 21
0.4851648684528401
 72
     1
 10
107.650650046003
 20
0.4851648684528401
 11
107.9960639320929
 21
0.538520784780647
 72
     1
 10
107.9960639320929
 20
0.538520784780647
 11
108.2306534027916
 21
0.7083209285098984
 72
     1
 10
108.2306534027916
 20
0.7083209285098984
 11
108.3222498790057
 21
1.030932588856763
 72
     1
 10
108.3222498790057
 20
1.030932588856763
 11
108.3200105669403
 21
1.300382119496866
 72
     1
 10
108.3200105669403
 20
1.300382119496866
 11
108.273243395728
 21
1.614273381896691
 72
     1
 10
108.273243395728
 20
1.614273381896691
 11
107.963486136198
 21
2.570978009013445
 72
     1
 10
107.963486136198
 20
2.570978009013445
 11
107.4021038227734
 21
3.711316012575147
 72
     1
 10
107.4021038227734
 20
3.711316012575147
 11
106.7157752288558
 21
4.784303832933408
 72
     1
 10
106.7157752288558
 20
4.784303832933408
 11
105.9294055531768
 21
5.757077842598403
 72
     1
 10
105.9294055531768
 20
5.757077842598403
 11
105.6284220598549
 21
6.051728621672744
 72
     1
 10
105.6284220598549
 20
6.051728621672744
 11
105.0837923802295
 21
6.427259118155982
 72
     1
 10
105.0837923802295
 20
6.427259118155982
 11
104.114322588307
 21
7.063752530146452
 72
     1
 10
104.114322588307
 20
7.063752530146452
 11
103.0095886660492
 21
7.836997667388901
 72
     1
 10
103.0095886660492
 20
7.836997667388901
 11
101.8563722523669
 21
8.755032517056868
 72
     1
 10
101.8563722523669
 20
8.755032517056868
 11
100.8606891514878
 21
9.675320321782191
 72
     1
 10
100.8606891514878
 20
9.675320321782191
 11
100.1663329502246
 21
10.44176122556557
 72
     1
 10
100.1663329502246
 20
10.44176122556557
 11
99.62637670545264
 21
11.13535458340097
 97
        0
 75
     2
 76
     1
 98
        0
  0
ENDSEC
  0
SECTION
  2
OBJECTS
  0
DICTIONARY
  5
C
330
0
100
AcDbDictionary
  3
ACAD_GROUP
350
D
  3
ACAD_LAYOUT
350
1A
  3
ACAD_MATERIAL
350
3B
  3
ACAD_MLEADERSTYLE
350
236
  3
ACAD_MLINESTYLE
350
17
  3
ACAD_PLOTSETTINGS
350
19
  3
ACAD_VISUALSTYLE
350
2A
  3
ACDBHEADERROUNDTRIPXREC
350
214
  3
ACDBVARIABLEDICTIONARY
350
234
  0
DICTIONARY
  5
D
102
{ACAD_REACTORS
330
C
102
}
330
C
100
AcDbDictionary
  0
DICTIONARY
  5
1A
102
{ACAD_REACTORS
330
C
102
}
330
C
100
AcDbDictionary
  0
DICTIONARY
  5
3B
102
{ACAD_REACTORS
330
C
102
}
330
C
100
AcDbDictionary
  3
BYBLOCK
350
3D
  3
BYLAYER
350
3C
  3
GLOBAL
350
3E
  0
DICTIONARY
  5
236
102
{ACAD_REACTORS
330
C
102
}
330
C
100
AcDbDictionary
  0
DICTIONARY
  5
17
102
{ACAD_REACTORS
330
C
102
}
330
C
100
AcDbDictionary
  3
STANDARD
350
18
  0
DICTIONARY
  5
19
102
{ACAD_REACTORS
330
C
102
}
330
C
100
AcDbDictionary
  0
DICTIONARY
  5
2A
102
{ACAD_REACTORS
330
C
102
}
330
C
100
AcDbDictionary
  3
2DWIREFRAME
350
2F
  3
3DWIREFRAME
350
30
  3
3D_HIDDEN
350
31
  3
BASIC
350
32
  3
BRIGHTEN
350
36
  3
COLORCHANGE
350
3A
  3
CONCEPTUAL
350
34
  3
DIM
350
35
  3
FACEPATTERN
350
39
  3
FLAT
350
2B
  3
FLATWITHEDGES
350
2C
  3
GOURAUD
350
2D
  3
GOURAUDWITHEDGES
350
2E
  3
LINEPATTERN
350
38
  3
REALISTIC
350
33
  3
THICKEN
350
37
  0
DICTIONARY
  5
214
102
{ACAD_REACTORS
330
C
102
}
330
C
100
AcDbDictionary
  3
CEPSNTYPE
350
21D
  3
DIMSTYLEDATA
350
233
  3
FINGERPRINTGUID
350
21E
  3
HYPERLINKBASE
350
217
  3
INSUNITS
350
21C
  3
LAYOUTDICT
350
219
  3
LWETCUNION
350
21B
  3
PLOTSETDICT
350
21A
  3
PSVPSCALE
350
220
  3
PUCSBASE
350
223
  3
PUCSORGBACK
350
229
  3
PUCSORGBOTTOM
350
225
  3
PUCSORGFRONT
350
228
  3
PUCSORGLEFT
350
226
  3
PUCSORGRIGHT
350
227
  3
PUCSORGTOP
350
224
  3
PUCSORTHOREF
350
221
  3
PUCSORTHOVIEW
350
222
  3
STYLESHEET
350
218
  3
TSTACKALIGN
350
215
  3
TSTACKSIZE
350
216
  3
UCSBASE
350
22C
  3
UCSORGBACK
350
232
  3
UCSORGBOTTOM
350
22E
  3
UCSORGFRONT
350
231
  3
UCSORGLEFT
350
22F
  3
UCSORGRIGHT
350
230
  3
UCSORGTOP
350
22D
  3
UCSORTHOREF
350
22A
  3
UCSORTHOVIEW
350
22B
  3
VERSIONGUID
350
21F
  0
DICTIONARY
  5
234
102
{ACAD_REACTORS
330
C
102
}
330
C
100
AcDbDictionary
  3
DIMASSOC
350
237
  3
HIDETEXT
350
238
  0
MATERIAL
  5
3D
102
{ACAD_REACTORS
330
3B
102
}
102
{ACAD_XDICTIONARY
360
23B
102
}
330
3B
100
AcDbMaterial
  1
ByBlock
  0
MATERIAL
  5
3C
102
{ACAD_REACTORS
330
3B
102
}
102
{ACAD_XDICTIONARY
360
239
102
}
330
3B
100
AcDbMaterial
  1
ByLayer
  0
MATERIAL
  5
3E
102
{ACAD_REACTORS
330
3B
102
}
102
{ACAD_XDICTIONARY
360
23D
102
}
330
3B
100
AcDbMaterial
  1
Global
  0
MLINESTYLE
  5
18
102
{ACAD_REACTORS
330
17
102
}
330
17
100
AcDbMlineStyle
  2
Standard
 70
     0
  3

 62
   256
 51
90.0
 52
90.0
 71
     2
 49
0.5
 62
   256
  6
BYLAYER
 49
-0.5
 62
   256
  6
BYLAYER
  0
ACAD_PROXY_OBJECT
  5
2F
102
{ACAD_REACTORS
330
2A
102
}
330
2A
100
AcDbProxyObject
 90
      499
 91
      501
 93
      436
310
42CC9915DA5C99599C985B595049028333333333333E3BF0000000000000FB0107901411070040501600405405064090741402480A0340
1001
ACAD
1000
AcDbSavedByObjectVersion
1070
     0
  0
ACAD_PROXY_OBJECT
  5
30
102
{ACAD_REACTORS
330
2A
102
}
330
2A
100
AcDbProxyObject
 90
      499
 91
      501
 93
      436
310
42CCD915DA5C99599C985B595059028333333333333E3BF0000000000000FB0107901411070040501600405405064090741402480A0340
1001
ACAD
1000
AcDbSavedByObjectVersion
1070
     0
  0
ACAD_PROXY_OBJECT
  5
31
102
{ACAD_REACTORS
330
2A
102
}
330
2A
100
AcDbProxyObject
 90
      499
 91
      501
 93
      500
310
424CD108121A5919195B90640502408333333333333E3BF0000000000000FB01079024090700405020000000000001110200405405064090740C02480A0340
1001
ACAD
1000
AcDbSavedByObjectVersion
1070
     0
  0
ACAD_PROXY_OBJECT
  5
32
102
{ACAD_REACTORS
330
2A
102
}
330
2A
100
AcDbProxyObject
 90
      499
 91
      501
 93
      388
310
4150985CDA58D07406404333333333333E3BF0000000000000FB0107A41107004050150841D405064090741402480A0350
1001
ACAD
1000
AcDbSavedByObjectVersion
1070
     0
  0
ACAD_PROXY_OBJECT
  5
36
102
{ACAD_REACTORS
330
2A
102
}
330
2A
100
AcDbProxyObject
 90
      499
 91
      501
 93
      428
310
42109C9A59DA1D195B90C409028333333333333E3BF0000000000000FB010790141107004050150841D405064090741402480A029950
1001
ACAD
1000
AcDbSavedByObjectVersion
1070
     0
  0
ACAD_PROXY_OBJECT
  5
3A
102
{ACAD_REACTORS
330
2A
102
}
330
2A
100
AcDbProxyObject
 90
      499
 91
      501
 93
      452
310
42D0DBDB1BDC90DA185B99D95104090240C333333333333E3BF0000000000000FB0108901411070040501508421405064090741402480A0350
1001
ACAD
1000
AcDbSavedByObjectVersion
1070
     0
  0
ACAD_PROXY_OBJECT
  5
34
102
{ACAD_REACTORS
330
2A
102
}
330
2A
100
AcDbProxyObject
 90
      499
 91
      501
 93
      500
310
4290DBDB98D95C1D1D585B10940D028333333333333E3BF0000000000000FB0107902409070040501000000000000111010841D405064090740C02480A0340
1001
ACAD
1000
AcDbSavedByObjectVersion
1070
     0
  0
ACAD_PROXY_OBJECT
  5
35
102
{ACAD_REACTORS
330
2A
102
}
330
2A
100
AcDbProxyObject
 90
      499
 91
      501
 93
      412
310
40D11A5B50B409028333333333333E3BF0000000000000FB010790141107004050150841D405064090741402480A02677FFFFFD0
1001
ACAD
1000
AcDbSavedByObjectVersion
1070
     0
  0
ACAD_PROXY_OBJECT
  5
39
102
{ACAD_REACTORS
330
2A
102
}
330
2A
100
AcDbProxyObject
 90
      499
 91
      501
 93
      444
310
42D19858D95C185D1D195C9B90F409028333333333333E3BF0000000000000FB010790141107004050150841D405064090741402480A0350
1001
ACAD
1000
AcDbSavedByObjectVersion
1070
     0
  0
ACAD_PROXY_OBJECT
  5
2B
102
{ACAD_REACTORS
330
2A
102
}
330
2A
100
AcDbProxyObject
 90
      499
 91
      501
 93
      388
310
41119B185D240901404333333333333E3BF0000000000000F9010740A41107004050150841D405064090741402480A1B50
1001
ACAD
1000
AcDbSavedByObjectVersion
1070
     0
  0
ACAD_PROXY_OBJECT
  5
2C
102
{ACAD_REACTORS
330
2A
102
}
330
2A
100
AcDbProxyObject
 90
      499
 91
      501
 93
      476
310
43519B185D15DA5D1A115919D95CD0140901404333333333333E3BF0000000000000F9010740901411070040501600405405064090741402480A1B50
1001
ACAD
1000
AcDbSavedByObjectVersion
1070
     0
  0
ACAD_PROXY_OBJECT
  5
2D
102
{ACAD_REACTORS
330
2A
102
}
330
2A
100
AcDbProxyObject
 90
      499
 91
      501
 93
      412
310
41D1DBDD5C985D5910240902404333333333333E3BF0000000000000F9010740A411070040501641D405064090741402480A1B50
1001
ACAD
1000
AcDbSavedByObjectVersion
1070
     0
  0
ACAD_PROXY_OBJECT
  5
2E
102
{ACAD_REACTORS
330
2A
102
}
330
2A
100
AcDbProxyObject
 90
      499
 91
      501
 93
      500
310
4411DBDD5C985D5915DA5D1A115919D95CD0340902404333333333333E3BF0000000000000F9010740901411070040501600405405064090741402480A1B50
1001
ACAD
1000
AcDbSavedByObjectVersion
1070
     0
  0
ACAD_PROXY_OBJECT
  5
38
102
{ACAD_REACTORS
330
2A
102
}
330
2A
100
AcDbProxyObject
 90
      499
 91
      501
 93
      444
310
42D31A5B995C185D1D195C9B90E409028333333333333E3BF0000000000000FB010790141107004050750841D405064090741402483A0350
1001
ACAD
1000
AcDbSavedByObjectVersion
1070
     0
  0
ACAD_PROXY_OBJECT
  5
33
102
{ACAD_REACTORS
330
2A
102
}
330
2A
100
AcDbProxyObject
 90
      499
 91
      501
 93
      420
310
425499585B1A5CDD1A58D08409028333333333333E3BF0000000000000FB01079019070040501508421405064090741402480A1B40
1001
ACAD
1000
AcDbSavedByObjectVersion
1070
     0
  0
ACAD_PROXY_OBJECT
  5
37
102
{ACAD_REACTORS
330
2A
102
}
330
2A
100
AcDbProxyObject
 90
      499
 91
      501
 93
      412
310
41D51A1A58DAD95B90D409028333333333333E3BF0000000000000FB010790141107004050150C41D405064090741402480A0350
1001
ACAD
1000
AcDbSavedByObjectVersion
1070
     0
  0
XRECORD
  5
21D
102
{ACAD_REACTORS
330
214
102
}
330
214
100
AcDbXrecord
 90
        0
  0
XRECORD
  5
233
102
{ACAD_REACTORS
330
214
102
}
330
214
100
AcDbXrecord
1000
DSTYLE
1002
{
1070
   340
340
11
1002
}
  0
XRECORD
  5
21E
102
{ACAD_REACTORS
330
214
102
}
330
214
100
AcDbXrecord
  1
{60E99B3A-2469-3D89-630D-AE7BB2B81E42}
  0
XRECORD
  5
217
102
{ACAD_REACTORS
330
214
102
}
330
214
100
AcDbXrecord
  1

  0
XRECORD
  5
21C
102
{ACAD_REACTORS
330
214
102
}
330
214
100
AcDbXrecord
 90
        1
  0
XRECORD
  5
219
102
{ACAD_REACTORS
330
214
102
}
330
214
100
AcDbXrecord
340
1A
  0
XRECORD
  5
21B
102
{ACAD_REACTORS
330
214
102
}
330
214
100
AcDbXrecord
 90
    10269
  0
XRECORD
  5
21A
102
{ACAD_REACTORS
330
214
102
}
330
214
100
AcDbXrecord
340
19
  0
XRECORD
  5
220
102
{ACAD_REACTORS
330
214
102
}
330
214
100
AcDbXrecord
 40
0.0
  0
XRECORD
  5
223
102
{ACAD_REACTORS
330
214
102
}
330
214
100
AcDbXrecord
340
0
  0
XRECORD
  5
229
102
{ACAD_REACTORS
330
214
102
}
330
214
100
AcDbXrecord
 10
0.0
 20
0.0
 30
0.0
  0
XRECORD
  5
225
102
{ACAD_REACTORS
330
214
102
}
330
214
100
AcDbXrecord
 10
0.0
 20
0.0
 30
0.0
  0
XRECORD
  5
228
102
{ACAD_REACTORS
330
214
102
}
330
214
100
AcDbXrecord
 10
0.0
 20
0.0
 30
0.0
  0
XRECORD
  5
226
102
{ACAD_REACTORS
330
214
102
}
330
214
100
AcDbXrecord
 10
0.0
 20
0.0
 30
0.0
  0
XRECORD
  5
227
102
{ACAD_REACTORS
330
214
102
}
330
214
100
AcDbXrecord
 10
0.0
 20
0.0
 30
0.0
  0
XRECORD
  5
224
102
{ACAD_REACTORS
330
214
102
}
330
214
100
AcDbXrecord
 10
0.0
 20
0.0
 30
0.0
  0
XRECORD
  5
221
102
{ACAD_REACTORS
330
214
102
}
330
214
100
AcDbXrecord
340
0
  0
XRECORD
  5
222
102
{ACAD_REACTORS
330
214
102
}
330
214
100
AcDbXrecord
 70
     0
  0
XRECORD
  5
218
102
{ACAD_REACTORS
330
214
102
}
330
214
100
AcDbXrecord
  1

  0
XRECORD
  5
215
102
{ACAD_REACTORS
330
214
102
}
330
214
100
AcDbXrecord
 90
        1
  0
XRECORD
  5
216
102
{ACAD_REACTORS
330
214
102
}
330
214
100
AcDbXrecord
 90
       70
  0
XRECORD
  5
22C
102
{ACAD_REACTORS
330
214
102
}
330
214
100
AcDbXrecord
340
0
  0
XRECORD
  5
232
102
{ACAD_REACTORS
330
214
102
}
330
214
100
AcDbXrecord
 10
0.0
 20
0.0
 30
0.0
  0
XRECORD
  5
22E
102
{ACAD_REACTORS
330
214
102
}
330
214
100
AcDbXrecord
 10
0.0
 20
0.0
 30
0.0
  0
XRECORD
  5
231
102
{ACAD_REACTORS
330
214
102
}
330
214
100
AcDbXrecord
 10
0.0
 20
0.0
 30
0.0
  0
XRECORD
  5
22F
102
{ACAD_REACTORS
330
214
102
}
330
214
100
AcDbXrecord
 10
0.0
 20
0.0
 30
0.0
  0
XRECORD
  5
230
102
{ACAD_REACTORS
330
214
102
}
330
214
100
AcDbXrecord
 10
0.0
 20
0.0
 30
0.0
  0
XRECORD
  5
22D
102
{ACAD_REACTORS
330
214
102
}
330
214
100
AcDbXrecord
 10
0.0
 20
0.0
 30
0.0
  0
XRECORD
  5
22A
102
{ACAD_REACTORS
330
214
102
}
330
214
100
AcDbXrecord
340
0
  0
XRECORD
  5
22B
102
{ACAD_REACTORS
330
214
102
}
330
214
100
AcDbXrecord
 70
     0
  0
XRECORD
  5
21F
102
{ACAD_REACTORS
330
214
102
}
330
214
100
AcDbXrecord
  1
{FAEB1C32-E019-11D5-929B-00C0DF256EC4}
  0
DICTIONARYVAR
  5
237
102
{ACAD_REACTORS
330
234
102
}
330
234
100
DictionaryVariables
280
     0
  1
2
  0
DICTIONARYVAR
  5
238
102
{ACAD_REACTORS
330
234
102
}
330
234
100
DictionaryVariables
280
     0
  1
1
  0
DICTIONARY
  5
23B
330
3D
100
AcDbDictionary
280
     1
  3
ACAD_XREC_ROUNDTRIP
360
23C
  0
DICTIONARY
  5
239
330
3C
100
AcDbDictionary
280
     1
  3
ACAD_XREC_ROUNDTRIP
360
23A
  0
DICTIONARY
  5
23D
330
3E
100
AcDbDictionary
280
     1
  3
ACAD_XREC_ROUNDTRIP
360
23E
  0
XRECORD
  5
23C
102
{ACAD_REACTORS
330
23B
102
}
330
23B
100
AcDbXrecord
102
MATERIAL
148
0.0
149
0.0
149
0.0
 93
        0
 94
      127
282
     0
 72
     1
 77
     1
171
     1
175
     1
179
     1
273
     0
  0
XRECORD
  5
23A
102
{ACAD_REACTORS
330
239
102
}
330
239
100
AcDbXrecord
102
MATERIAL
148
0.0
149
0.0
149
0.0
 93
        0
 94
      127
282
     0
 72
     1
 77
     1
171
     1
175
     1
179
     1
273
     0
  0
XRECORD
  5
23E
102
{ACAD_REACTORS
330
23D
102
}
330
23D
100
AcDbXrecord
102
MATERIAL
148
0.0
149
0.0
149
0.0
 93
        0
 94
      127
282
     0
 72
     1
 77
     1
171
     1
175
     1
179
     1
273
     0
  0
ENDSEC
  0
EOF
