  0
SECTION
  2
HEADER
  9
$ACADVER
  1
AC1014
  9
$ACADMAINTVER
 70
     9
  9
$DWGCODEPAGE
  3
UNDEFINED
  9
$INSBASE
 10
0.0
 20
0.0
 30
0.0
  9
$EXTMIN
 10
1.000000000000000E+20
 20
1.000000000000000E+20
 30
1.000000000000000E+20
  9
$EXTMAX
 10
-1.000000000000000E+20
 20
-1.000000000000000E+20
 30
-1.000000000000000E+20
  9
$LIMMIN
 10
0.0
 20
0.0
  9
$LIMMAX
 10
12.0
 20
9.0
  9
$ORTHOMODE
 70
     0
  9
$REGENMODE
 70
     1
  9
$FILLMODE
 70
     1
  9
$QTEXTMODE
 70
     0
  9
$MIRRTEXT
 70
     1
  9
$DRAGMODE
 70
     2
  9
$LTSCALE
 40
1.0
  9
$OSMODE
 70
    37
  9
$ATTMODE
 70
     1
  9
$TEXTSIZE
 40
0.2
  9
$TRACEWID
 40
0.05
  9
$TEXTSTYLE
  7
STANDARD
  9
$CLAYER
  8
0
  9
$CELTYPE
  6
BYLAYER
  9
$CECOLOR
 62
   256
  9
$CELTSCALE
 40
1.0
  9
$DELOBJ
 70
     1
  9
$DISPSILH
 70
     0
  9
$DIMSCALE
 40
1.0
  9
$DIMASZ
 40
0.18
  9
$DIMEXO
 40
0.0625
  9
$DIMDLI
 40
0.38
  9
$DIMRND
 40
0.0
  9
$DIMDLE
 40
0.0
  9
$DIMEXE
 40
0.18
  9
$DIMTP
 40
0.0
  9
$DIMTM
 40
0.0
  9
$DIMTXT
 40
0.18
  9
$DIMCEN
 40
0.09
  9
$DIMTSZ
 40
0.0
  9
$DIMTOL
 70
     0
  9
$DIMLIM
 70
     0
  9
$DIMTIH
 70
     1
  9
$DIMTOH
 70
     1
  9
$DIMSE1
 70
     0
  9
$DIMSE2
 70
     0
  9
$DIMTAD
 70
     0
  9
$DIMZIN
 70
     0
  9
$DIMBLK
  1

  9
$DIMASO
 70
     1
  9
$DIMSHO
 70
     1
  9
$DIMPOST
  1

  9
$DIMAPOST
  1

  9
$DIMALT
 70
     0
  9
$DIMALTD
 70
     2
  9
$DIMALTF
 40
25.4
  9
$DIMLFAC
 40
1.0
  9
$DIMTOFL
 70
     0
  9
$DIMTVP
 40
0.0
  9
$DIMTIX
 70
     0
  9
$DIMSOXD
 70
     0
  9
$DIMSAH
 70
     0
  9
$DIMBLK1
  1

  9
$DIMBLK2
  1

  9
$DIMSTYLE
  2
STANDARD
  9
$DIMCLRD
 70
     0
  9
$DIMCLRE
 70
     0
  9
$DIMCLRT
 70
     0
  9
$DIMTFAC
 40
1.0
  9
$DIMGAP
 40
0.09
  9
$DIMJUST
 70
     0
  9
$DIMSD1
 70
     0
  9
$DIMSD2
 70
     0
  9
$DIMTOLJ
 70
     1
  9
$DIMTZIN
 70
     0
  9
$DIMALTZ
 70
     0
  9
$DIMALTTZ
 70
     0
  9
$DIMFIT
 70
     3
  9
$DIMUPT
 70
     0
  9
$DIMUNIT
 70
     2
  9
$DIMDEC
 70
     4
  9
$DIMTDEC
 70
     4
  9
$DIMALTU
 70
     2
  9
$DIMALTTD
 70
     2
  9
$DIMTXSTY
  7
STANDARD
  9
$DIMAUNIT
 70
     0
  9
$LUNITS
 70
     2
  9
$LUPREC
 70
     4
  9
$SKETCHINC
 40
0.1
  9
$FILLETRAD
 40
0.5
  9
$AUNITS
 70
     0
  9
$AUPREC
 70
     0
  9
$MENU
  1
.
  9
$ELEVATION
 40
0.0
  9
$PELEVATION
 40
0.0
  9
$THICKNESS
 40
0.0
  9
$LIMCHECK
 70
     0
  9
$CHAMFERA
 40
0.5
  9
$CHAMFERB
 40
0.5
  9
$CHAMFERC
 40
1.0
  9
$CHAMFERD
 40
0.0
  9
$SKPOLY
 70
     0
  9
$TDCREATE
 40
2458710.865682859
  9
$TDUPDATE
 40
2458710.865682859
  9
$TDINDWG
 40
0.0000000116
  9
$TDUSRTIMER
 40
0.0000000116
  9
$USRTIMER
 70
     1
  9
$ANGBASE
 50
0.0
  9
$ANGDIR
 70
     0
  9
$PDMODE
 70
     0
  9
$PDSIZE
 40
0.0
  9
$PLINEWID
 40
0.0
  9
$COORDS
 70
     1
  9
$SPLFRAME
 70
     0
  9
$SPLINETYPE
 70
     6
  9
$SPLINESEGS
 70
     8
  9
$ATTDIA
 70
     0
  9
$ATTREQ
 70
     1
  9
$HANDLING
 70
     1
  9
$HANDSEED
  5
126
  9
$SURFTAB1
 70
     6
  9
$SURFTAB2
 70
     6
  9
$SURFTYPE
 70
     6
  9
$SURFU
 70
     6
  9
$SURFV
 70
     6
  9
$UCSNAME
  2

  9
$UCSORG
 10
0.0
 20
0.0
 30
0.0
  9
$UCSXDIR
 10
1.0
 20
0.0
 30
0.0
  9
$UCSYDIR
 10
0.0
 20
1.0
 30
0.0
  9
$PUCSNAME
  2

  9
$PUCSORG
 10
0.0
 20
0.0
 30
0.0
  9
$PUCSXDIR
 10
1.0
 20
0.0
 30
0.0
  9
$PUCSYDIR
 10
0.0
 20
1.0
 30
0.0
  9
$USERI1
 70
     0
  9
$USERI2
 70
     0
  9
$USERI3
 70
     0
  9
$USERI4
 70
     0
  9
$USERI5
 70
     0
  9
$USERR1
 40
0.0
  9
$USERR2
 40
0.0
  9
$USERR3
 40
0.0
  9
$USERR4
 40
0.0
  9
$USERR5
 40
0.0
  9
$WORLDVIEW
 70
     1
  9
$SHADEDGE
 70
     3
  9
$SHADEDIF
 70
    70
  9
$TILEMODE
 70
     1
  9
$MAXACTVP
 70
    64
  9
$PINSBASE
 10
0.0
 20
0.0
 30
0.0
  9
$PLIMCHECK
 70
     0
  9
$PEXTMIN
 10
1.000000000000000E+20
 20
1.000000000000000E+20
 30
1.000000000000000E+20
  9
$PEXTMAX
 10
-1.000000000000000E+20
 20
-1.000000000000000E+20
 30
-1.000000000000000E+20
  9
$PLIMMIN
 10
0.0
 20
0.0
  9
$PLIMMAX
 10
12.0
 20
9.0
  9
$UNITMODE
 70
     0
  9
$VISRETAIN
 70
     1
  9
$PLINEGEN
 70
     0
  9
$PSLTSCALE
 70
     1
  9
$TREEDEPTH
 70
  3020
  9
$PICKSTYLE
 70
     1
  9
$CMLSTYLE
  2
STANDARD
  9
$CMLJUST
 70
     0
  9
$CMLSCALE
 40
1.0
  9
$PROXYGRAPHICS
 70
     1
  9
$MEASUREMENT
 70
     0
  0
ENDSEC
  0
SECTION
  2
CLASSES
  0
CLASS
  1
ACDBDICTIONARYWDFLT
  2
AcDbDictionaryWithDefault
  3
ObjectDBX Classes
 90
        0
280
     0
281
     0
  0
CLASS
  1
VISUALSTYLE
  2
AcDbVisualStyle
  3
ObjectDBX Classes
 90
     4095
280
     0
281
     0
  0
CLASS
  1
MATERIAL
  2
AcDbMaterial
  3
ObjectDBX Classes
 90
     1153
280
     0
281
     0
  0
CLASS
  1
SUN
  2
AcDbSun
  3
SCENEOE
 90
     1024
280
     0
281
     0
  0
CLASS
  1
DICTIONARYVAR
  2
AcDbDictionaryVar
  3
ObjectDBX Classes
 90
        0
280
     0
281
     0
  0
CLASS
  1
XRECORD
  2
AcDbXrecord
  3
AutoCAD 2000
 90
        0
280
     0
281
     0
  0
CLASS
  1
LWPOLYLINE
  2
AcDbPolyline
  3
AutoCAD 2000
 90
        0
280
     0
281
     1
  0
CLASS
  1
HATCH
  2
AcDbHatch
  3
AutoCAD 2000
 90
        0
280
     0
281
     1
  0
CLASS
  1
ACDBPLACEHOLDER
  2
AcDbPlaceHolder
  3
ObjectDBX Classes
 90
        0
280
     0
281
     0
  0
CLASS
  1
LAYOUT
  2
AcDbLayout
  3
ObjectDBX Classes
 90
        0
280
     0
281
     0
  0
ENDSEC
  0
SECTION
  2
TABLES
  0
TABLE
  2
VPORT
  5
8
330
0
100
AcDbSymbolTable
 70
     1
  0
VPORT
  5
29
330
8
100
AcDbSymbolTableRecord
100
AcDbViewportTableRecord
  2
*ACTIVE
 70
     0
 10
0.0
 20
0.0
 11
1.0
 21
1.0
 12
0.0
 22
0.0
 13
0.0
 23
0.0
 14
0.5
 24
0.5
 15
0.5
 25
0.5
 16
0.0
 26
0.0
 36
1.0
 17
148.5000416295416
 27
-105.0007777515277
 37
0.0
 40
210.0015555030554
 41
1.414275634995294
 42
50.0
 43
0.0
 44
0.0
 50
0.0
 51
0.0
 71
     0
 72
   100
 73
     1
 74
     3
 75
     0
 76
     0
 77
     0
 78
     0
  0
ENDTAB
  0
TABLE
  2
LTYPE
  5
5
330
0
100
AcDbSymbolTable
 70
     1
  0
LTYPE
  5
14
330
5
100
AcDbSymbolTableRecord
100
AcDbLinetypeTableRecord
  2
BYBLOCK
 70
     0
  3

 72
    65
 73
     0
 40
0.0
  0
LTYPE
  5
15
330
5
100
AcDbSymbolTableRecord
100
AcDbLinetypeTableRecord
  2
BYLAYER
 70
     0
  3

 72
    65
 73
     0
 40
0.0
  0
LTYPE
  5
16
330
5
100
AcDbSymbolTableRecord
100
AcDbLinetypeTableRecord
  2
CONTINUOUS
 70
     0
  3
Solid line
 72
    65
 73
     0
 40
0.0
  0
ENDTAB
  0
TABLE
  2
LAYER
  5
2
330
0
100
AcDbSymbolTable
 70
    10
  0
LAYER
  5
10
330
2
100
AcDbSymbolTableRecord
100
AcDbLayerTableRecord
  2
0
 70
     0
 62
     7
  6
CONTINUOUS
  0
LAYER
  5
40
330
2
100
AcDbSymbolTableRecord
100
AcDbLayerTableRecord
  2
_U_30AD_U_30C4_U_30CD
 70
     1
 62
     7
  6
CONTINUOUS
  0
LAYER
  5
41
330
2
100
AcDbSymbolTableRecord
100
AcDbLayerTableRecord
  2
_U_57FA_U_677F_U_5916_U_5F
 70
     0
 62
     7
  6
CONTINUOUS
  0
LAYER
  5
42
330
2
100
AcDbSymbolTableRecord
100
AcDbLayerTableRecord
  2
_U_30EC_U_30A4_U_30E4_U_30
 70
     0
 62
     7
  6
CONTINUOUS
  0
LAYER
  5
43
330
2
100
AcDbSymbolTableRecord
100
AcDbLayerTableRecord
  2
_U_30EC_U_30A4_U_30E4_U_31
 70
     0
 62
     7
  6
CONTINUOUS
  0
LAYER
  5
44
330
2
100
AcDbSymbolTableRecord
100
AcDbLayerTableRecord
  2
EYE
 70
     4
 62
     7
  6
CONTINUOUS
  0
LAYER
  5
45
330
2
100
AcDbSymbolTableRecord
100
AcDbLayerTableRecord
  2
_U_96FB_U_6C60
 70
     4
 62
     7
  6
CONTINUOUS
  0
LAYER
  5
46
330
2
100
AcDbSymbolTableRecord
100
AcDbLayerTableRecord
  2
_U_30EC_U_30A4_U_30E4_U_32
 70
     4
 62
     7
  6
CONTINUOUS
  0
LAYER
  5
47
330
2
100
AcDbSymbolTableRecord
100
AcDbLayerTableRecord
  2
_U_706B
 70
     0
 62
     7
  6
CONTINUOUS
  0
LAYER
  5
FA
330
2
100
AcDbSymbolTableRecord
100
AcDbLayerTableRecord
  2
_U_30EC_U_30A4_U_30E4_U_33
 70
     0
 62
     7
  6
CONTINUOUS
  0
ENDTAB
  0
TABLE
  2
STYLE
  5
3
330
0
100
AcDbSymbolTable
 70
     1
  0
STYLE
  5
11
330
3
100
AcDbSymbolTableRecord
100
AcDbTextStyleTableRecord
  2
STANDARD
 70
     0
 40
0.0
 41
1.0
 50
0.0
 71
     0
 42
0.2
  3
txt
  4

  0
ENDTAB
  0
TABLE
  2
VIEW
  5
6
330
0
100
AcDbSymbolTable
 70
     0
  0
ENDTAB
  0
TABLE
  2
UCS
  5
7
330
0
100
AcDbSymbolTable
 70
     0
  0
ENDTAB
  0
TABLE
  2
APPID
  5
9
330
0
100
AcDbSymbolTable
 70
     1
  0
APPID
  5
12
330
9
100
AcDbSymbolTableRecord
100
AcDbRegAppTableRecord
  2
ACAD
 70
     0
  0
ENDTAB
  0
TABLE
  2
DIMSTYLE
  5
A
330
0
100
AcDbSymbolTable
 70
     1
  0
DIMSTYLE
105
27
330
A
100
AcDbSymbolTableRecord
100
AcDbDimStyleTableRecord
  2
STANDARD
 70
     0
  3

  4

  5

  6

  7

 40
1.0
 41
0.18
 42
0.0625
 43
0.38
 44
0.18
 45
0.0
 46
0.0
 47
0.0
 48
0.0
140
0.18
141
0.09
142
0.0
143
25.4
144
1.0
145
0.0
146
1.0
147
0.09
 71
     0
 72
     0
 73
     1
 74
     1
 75
     0
 76
     0
 77
     0
 78
     0
170
     0
171
     2
172
     0
173
     0
174
     0
175
     0
176
     0
177
     0
178
     0
270
     2
271
     4
272
     4
273
     2
274
     2
340
11
275
     0
280
     0
281
     0
282
     0
283
     1
284
     0
285
     0
286
     0
287
     3
288
     0
  0
ENDTAB
  0
TABLE
  2
BLOCK_RECORD
  5
1
330
0
100
AcDbSymbolTable
 70
     1
  0
BLOCK_RECORD
  5
1F
330
1
100
AcDbSymbolTableRecord
100
AcDbBlockTableRecord
  2
*MODEL_SPACE
  0
BLOCK_RECORD
  5
1B
330
1
100
AcDbSymbolTableRecord
100
AcDbBlockTableRecord
  2
*PAPER_SPACE
  0
ENDTAB
  0
ENDSEC
  0
SECTION
  2
BLOCKS
  0
BLOCK
  5
20
330
1F
100
AcDbEntity
  8
0
100
AcDbBlockBegin
  2
*MODEL_SPACE
 70
     0
 10
0.0
 20
0.0
 30
0.0
  3
*MODEL_SPACE
  1

  0
ENDBLK
  5
21
330
1F
100
AcDbEntity
  8
0
100
AcDbBlockEnd
  0
BLOCK
  5
1C
330
1B
100
AcDbEntity
 67
     1
  8
0
100
AcDbBlockBegin
  2
*PAPER_SPACE
 70
     0
 10
0.0
 20
0.0
 30
0.0
  3
*PAPER_SPACE
  1

  0
ENDBLK
  5
1D
330
1B
100
AcDbEntity
 67
     1
  8
0
100
AcDbBlockEnd
  0
ENDSEC
  0
SECTION
  2
ENTITIES
  0
POLYLINE
  5
48
330
1F
100
AcDbEntity
  8
_U_706B
100
AcDb2dPolyline
 66
     1
 10
0.0
 20
0.0
 30
0.0
  0
VERTEX
  5
49
330
48
100
AcDbEntity
  8
_U_706B
100
AcDbVertex
100
AcDb2dVertex
 10
106.5942590157954
 20
40.12021137267828
 30
0.0
  0
VERTEX
  5
4A
330
48
100
AcDbEntity
  8
_U_706B
100
AcDbVertex
100
AcDb2dVertex
 10
106.6962555842798
 20
40.16726501837847
 30
0.0
  0
VERTEX
  5
4B
330
48
100
AcDbEntity
  8
_U_706B
100
AcDbVertex
100
AcDb2dVertex
 10
106.7989074442421
 20
40.22513337056077
 30
0.0
  0
VERTEX
  5
4C
330
48
100
AcDbEntity
  8
_U_706B
100
AcDbVertex
100
AcDb2dVertex
 10
106.9017192790977
 20
40.29469351554612
 30
0.0
  0
VERTEX
  5
4D
330
48
100
AcDbEntity
  8
_U_706B
100
AcDbVertex
100
AcDb2dVertex
 10
107.0041957722623
 20
40.37682253965552
 30
0.0
  0
VERTEX
  5
4E
330
48
100
AcDbEntity
  8
_U_706B
100
AcDbVertex
100
AcDb2dVertex
 10
107.1058416071507
 20
40.47239752921089
 30
0.0
  0
VERTEX
  5
4F
330
48
100
AcDbEntity
  8
_U_706B
100
AcDbVertex
100
AcDb2dVertex
 10
107.2061614671785
 20
40.58229557053321
 30
0.0
  0
VERTEX
  5
50
330
48
100
AcDbEntity
  8
_U_706B
100
AcDbVertex
100
AcDb2dVertex
 10
107.3046600357604
 20
40.70739374994377
 30
0.0
  0
VERTEX
  5
51
330
48
100
AcDbEntity
  8
_U_706B
100
AcDbVertex
100
AcDb2dVertex
 10
107.4008419963122
 20
40.84856915376419
 30
0.0
  0
VERTEX
  5
52
330
48
100
AcDbEntity
  8
_U_706B
100
AcDbVertex
100
AcDb2dVertex
 10
107.6064500638617
 20
41.34031994695652
 30
0.0
  0
VERTEX
  5
53
330
48
100
AcDbEntity
  8
_U_706B
100
AcDbVertex
100
AcDb2dVertex
 10
107.6929305817155
 20
41.88307547974397
 30
0.0
  0
VERTEX
  5
54
330
48
100
AcDbEntity
  8
_U_706B
100
AcDbVertex
100
AcDb2dVertex
 10
107.7423065128199
 20
42.46121826628546
 30
0.0
  0
VERTEX
  5
55
330
48
100
AcDbEntity
  8
_U_706B
100
AcDbVertex
100
AcDb2dVertex
 10
107.8366008201211
 20
43.05913082074026
 30
0.0
  0
VERTEX
  5
56
330
48
100
AcDbEntity
  8
_U_706B
100
AcDbVertex
100
AcDb2dVertex
 10
108.0578364665657
 20
43.66119565726731
 30
0.0
  0
VERTEX
  5
57
330
48
100
AcDbEntity
  8
_U_706B
100
AcDbVertex
100
AcDb2dVertex
 10
108.4880364151003
 20
44.25179529002587
 30
0.0
  0
VERTEX
  5
58
330
48
100
AcDbEntity
  8
_U_706B
100
AcDbVertex
100
AcDb2dVertex
 10
109.2092236286709
 20
44.81531223317487
 30
0.0
  0
VERTEX
  5
59
330
48
100
AcDbEntity
  8
_U_706B
100
AcDbVertex
100
AcDb2dVertex
 10
110.3034210702238
 20
45.33612900087358
 30
0.0
  0
VERTEX
  5
5A
330
48
100
AcDbEntity
  8
_U_706B
100
AcDbVertex
100
AcDb2dVertex
 10
110.2122789916741
 20
45.32204183217416
 30
0.0
  0
VERTEX
  5
5B
330
48
100
AcDbEntity
  8
_U_706B
100
AcDbVertex
100
AcDb2dVertex
 10
109.957816425426
 20
45.27469628697187
 30
0.0
  0
VERTEX
  5
5C
330
48
100
AcDbEntity
  8
_U_706B
100
AcDbVertex
100
AcDb2dVertex
 10
109.5684788755814
 20
45.18646630660874
 30
0.0
  0
VERTEX
  5
5D
330
48
100
AcDbEntity
  8
_U_706B
100
AcDbVertex
100
AcDb2dVertex
 10
109.0727118462416
 20
45.04972583242805
 30
0.0
  0
VERTEX
  5
5E
330
48
100
AcDbEntity
  8
_U_706B
100
AcDbVertex
100
AcDb2dVertex
 10
108.4989608415083
 20
44.85684880577182
 30
0.0
  0
VERTEX
  5
5F
330
48
100
AcDbEntity
  8
_U_706B
100
AcDbVertex
100
AcDb2dVertex
 10
107.8756713654831
 20
44.60020916798304
 30
0.0
  0
VERTEX
  5
60
330
48
100
AcDbEntity
  8
_U_706B
100
AcDbVertex
100
AcDb2dVertex
 10
107.2312889222676
 20
44.27218086040468
 30
0.0
  0
VERTEX
  5
61
330
48
100
AcDbEntity
  8
_U_706B
100
AcDbVertex
100
AcDb2dVertex
 10
106.5942590159635
 20
43.86513782437876
 30
0.0
  0
VERTEX
  5
62
330
48
100
AcDbEntity
  8
_U_706B
100
AcDbVertex
100
AcDb2dVertex
 10
106.5942590159696
 20
44.00093379907626
 30
0.0
  0
VERTEX
  5
63
330
48
100
AcDbEntity
  8
_U_706B
100
AcDbVertex
100
AcDb2dVertex
 10
106.5942590159757
 20
44.13672977377376
 30
0.0
  0
VERTEX
  5
64
330
48
100
AcDbEntity
  8
_U_706B
100
AcDbVertex
100
AcDb2dVertex
 10
106.5942590159818
 20
44.27252574847125
 30
0.0
  0
VERTEX
  5
65
330
48
100
AcDbEntity
  8
_U_706B
100
AcDbVertex
100
AcDb2dVertex
 10
106.5942590159879
 20
44.40832172316875
 30
0.0
  0
VERTEX
  5
66
330
48
100
AcDbEntity
  8
_U_706B
100
AcDbVertex
100
AcDb2dVertex
 10
106.594259015994
 20
44.54411769786625
 30
0.0
  0
VERTEX
  5
67
330
48
100
AcDbEntity
  8
_U_706B
100
AcDbVertex
100
AcDb2dVertex
 10
106.5942590160001
 20
44.67991367256374
 30
0.0
  0
VERTEX
  5
68
330
48
100
AcDbEntity
  8
_U_706B
100
AcDbVertex
100
AcDb2dVertex
 10
106.5942590160062
 20
44.81570964726124
 30
0.0
  0
VERTEX
  5
69
330
48
100
AcDbEntity
  8
_U_706B
100
AcDbVertex
100
AcDb2dVertex
 10
106.5942590160123
 20
44.95150562195874
 30
0.0
  0
VERTEX
  5
6A
330
48
100
AcDbEntity
  8
_U_706B
100
AcDbVertex
100
AcDb2dVertex
 10
107.8058094803067
 20
45.69337480510012
 30
0.0
  0
VERTEX
  5
6B
330
48
100
AcDbEntity
  8
_U_706B
100
AcDbVertex
100
AcDb2dVertex
 10
109.0774168912539
 20
46.28110792660908
 30
0.0
  0
VERTEX
  5
6C
330
48
100
AcDbEntity
  8
_U_706B
100
AcDbVertex
100
AcDb2dVertex
 10
110.3407808010108
 20
46.73172490206499
 30
0.0
  0
VERTEX
  5
6D
330
48
100
AcDbEntity
  8
_U_706B
100
AcDbVertex
100
AcDb2dVertex
 10
111.5276007617337
 20
47.06224564704756
 30
0.0
  0
VERTEX
  5
6E
330
48
100
AcDbEntity
  8
_U_706B
100
AcDbVertex
100
AcDb2dVertex
 10
112.5695763255792
 20
47.28969007713649
 30
0.0
  0
VERTEX
  5
6F
330
48
100
AcDbEntity
  8
_U_706B
100
AcDbVertex
100
AcDb2dVertex
 10
113.3984070447036
 20
47.43107810791084
 30
0.0
  0
VERTEX
  5
70
330
48
100
AcDbEntity
  8
_U_706B
100
AcDbVertex
100
AcDb2dVertex
 10
113.9457924712635
 20
47.50342965495031
 30
0.0
  0
VERTEX
  5
71
330
48
100
AcDbEntity
  8
_U_706B
100
AcDbVertex
100
AcDb2dVertex
 10
114.1434321574154
 20
47.52376463383461
 30
0.0
  0
VERTEX
  5
72
330
48
100
AcDbEntity
  8
_U_706B
100
AcDbVertex
100
AcDb2dVertex
 10
113.8672768442915
 20
47.39434402029919
 30
0.0
  0
VERTEX
  5
73
330
48
100
AcDbEntity
  8
_U_706B
100
AcDbVertex
100
AcDb2dVertex
 10
113.6302141970692
 20
47.28420467090321
 30
0.0
  0
VERTEX
  5
74
330
48
100
AcDbEntity
  8
_U_706B
100
AcDbVertex
100
AcDb2dVertex
 10
113.4238611781042
 20
47.18717922550199
 30
0.0
  0
VERTEX
  5
75
330
48
100
AcDbEntity
  8
_U_706B
100
AcDbVertex
100
AcDb2dVertex
 10
113.2398347497512
 20
47.09710032395056
 30
0.0
  0
VERTEX
  5
76
330
48
100
AcDbEntity
  8
_U_706B
100
AcDbVertex
100
AcDb2dVertex
 10
113.0697518743659
 20
47.00780060610393
 30
0.0
  0
VERTEX
  5
77
330
48
100
AcDbEntity
  8
_U_706B
100
AcDbVertex
100
AcDb2dVertex
 10
112.9052295143032
 20
46.91311271181714
 30
0.0
  0
VERTEX
  5
78
330
48
100
AcDbEntity
  8
_U_706B
100
AcDbVertex
100
AcDb2dVertex
 10
112.7378846319182
 20
46.80686928094521
 30
0.0
  0
VERTEX
  5
79
330
48
100
AcDbEntity
  8
_U_706B
100
AcDbVertex
100
AcDb2dVertex
 10
112.5593341895661
 20
46.68290295334348
 30
0.0
  0
VERTEX
  5
7A
330
48
100
AcDbEntity
  8
_U_706B
100
AcDbVertex
100
AcDb2dVertex
 10
113.8706637364826
 20
46.93135821838671
 30
0.0
  0
VERTEX
  5
7B
330
48
100
AcDbEntity
  8
_U_706B
100
AcDbVertex
100
AcDb2dVertex
 10
115.1096969957936
 20
47.01560329309887
 30
0.0
  0
VERTEX
  5
7C
330
48
100
AcDbEntity
  8
_U_706B
100
AcDbVertex
100
AcDb2dVertex
 10
116.2448268144905
 20
46.97604041703191
 30
0.0
  0
VERTEX
  5
7D
330
48
100
AcDbEntity
  8
_U_706B
100
AcDbVertex
100
AcDb2dVertex
 10
117.2444460395649
 20
46.85307182973841
 30
0.0
  0
VERTEX
  5
7E
330
48
100
AcDbEntity
  8
_U_706B
100
AcDbVertex
100
AcDb2dVertex
 10
118.0769475180082
 20
46.68709977077096
 30
0.0
  0
VERTEX
  5
7F
330
48
100
AcDbEntity
  8
_U_706B
100
AcDbVertex
100
AcDb2dVertex
 10
118.7107240968115
 20
46.5185264796815
 30
0.0
  0
VERTEX
  5
80
330
48
100
AcDbEntity
  8
_U_706B
100
AcDbVertex
100
AcDb2dVertex
 10
119.1141686229666
 20
46.38775419602295
 30
0.0
  0
VERTEX
  5
81
330
48
100
AcDbEntity
  8
_U_706B
100
AcDbVertex
100
AcDb2dVertex
 10
119.2556739434647
 20
46.33518515934722
 30
0.0
  0
VERTEX
  5
82
330
48
100
AcDbEntity
  8
_U_706B
100
AcDbVertex
100
AcDb2dVertex
 10
118.2334596946114
 20
46.30680340974374
 30
0.0
  0
VERTEX
  5
83
330
48
100
AcDbEntity
  8
_U_706B
100
AcDbVertex
100
AcDb2dVertex
 10
117.3737602554814
 20
46.2052101849378
 30
0.0
  0
VERTEX
  5
84
330
48
100
AcDbEntity
  8
_U_706B
100
AcDbVertex
100
AcDb2dVertex
 10
116.6520924023258
 20
46.04403060207029
 30
0.0
  0
VERTEX
  5
85
330
48
100
AcDbEntity
  8
_U_706B
100
AcDbVertex
100
AcDb2dVertex
 10
116.0439729113947
 20
45.83688977828177
 30
0.0
  0
VERTEX
  5
86
330
48
100
AcDbEntity
  8
_U_706B
100
AcDbVertex
100
AcDb2dVertex
 10
115.5249185589387
 20
45.59741283071309
 30
0.0
  0
VERTEX
  5
87
330
48
100
AcDbEntity
  8
_U_706B
100
AcDbVertex
100
AcDb2dVertex
 10
115.0704461212087
 20
45.33922487650481
 30
0.0
  0
VERTEX
  5
88
330
48
100
AcDbEntity
  8
_U_706B
100
AcDbVertex
100
AcDb2dVertex
 10
114.6560723744549
 20
45.07595103279749
 30
0.0
  0
VERTEX
  5
89
330
48
100
AcDbEntity
  8
_U_706B
100
AcDbVertex
100
AcDb2dVertex
 10
114.2573140949284
 20
44.82121641673167
 30
0.0
  0
VERTEX
  5
8A
330
48
100
AcDbEntity
  8
_U_706B
100
AcDbVertex
100
AcDb2dVertex
 10
114.782478150957
 20
44.91920276283584
 30
0.0
  0
VERTEX
  5
8B
330
48
100
AcDbEntity
  8
_U_706B
100
AcDbVertex
100
AcDb2dVertex
 10
115.2701906715301
 20
44.98771915994196
 30
0.0
  0
VERTEX
  5
8C
330
48
100
AcDbEntity
  8
_U_706B
100
AcDbVertex
100
AcDb2dVertex
 10
115.7104128536296
 20
45.0318219753669
 30
0.0
  0
VERTEX
  5
8D
330
48
100
AcDbEntity
  8
_U_706B
100
AcDbVertex
100
AcDb2dVertex
 10
116.0931058942373
 20
45.05656757642789
 30
0.0
  0
VERTEX
  5
8E
330
48
100
AcDbEntity
  8
_U_706B
100
AcDbVertex
100
AcDb2dVertex
 10
116.4082309903342
 20
45.06701233044213
 30
0.0
  0
VERTEX
  5
8F
330
48
100
AcDbEntity
  8
_U_706B
100
AcDbVertex
100
AcDb2dVertex
 10
116.6457493389025
 20
45.06821260472652
 30
0.0
  0
VERTEX
  5
90
330
48
100
AcDbEntity
  8
_U_706B
100
AcDbVertex
100
AcDb2dVertex
 10
116.7956221369237
 20
45.06522476659794
 30
0.0
  0
VERTEX
  5
91
330
48
100
AcDbEntity
  8
_U_706B
100
AcDbVertex
100
AcDb2dVertex
 10
116.8478105813794
 20
45.06310518337363
 30
0.0
  0
VERTEX
  5
92
330
48
100
AcDbEntity
  8
_U_706B
100
AcDbVertex
100
AcDb2dVertex
 10
115.2602073382281
 20
44.50678946548943
 30
0.0
  0
VERTEX
  5
93
330
48
100
AcDbEntity
  8
_U_706B
100
AcDbVertex
100
AcDb2dVertex
 10
114.0685245444725
 20
43.93791344755842
 30
0.0
  0
VERTEX
  5
94
330
48
100
AcDbEntity
  8
_U_706B
100
AcDbVertex
100
AcDb2dVertex
 10
113.1892081209985
 20
43.36092362416235
 30
0.0
  0
VERTEX
  5
95
330
48
100
AcDbEntity
  8
_U_706B
100
AcDbVertex
100
AcDb2dVertex
 10
112.5387039886921
 20
42.78026648988325
 30
0.0
  0
VERTEX
  5
96
330
48
100
AcDbEntity
  8
_U_706B
100
AcDbVertex
100
AcDb2dVertex
 10
112.033458068439
 20
42.2003885393032
 30
0.0
  0
VERTEX
  5
97
330
48
100
AcDbEntity
  8
_U_706B
100
AcDbVertex
100
AcDb2dVertex
 10
111.589916281125
 20
41.62573626700391
 30
0.0
  0
VERTEX
  5
98
330
48
100
AcDbEntity
  8
_U_706B
100
AcDbVertex
100
AcDb2dVertex
 10
111.1245245476359
 20
41.06075616756744
 30
0.0
  0
VERTEX
  5
99
330
48
100
AcDbEntity
  8
_U_706B
100
AcDbVertex
100
AcDb2dVertex
 10
110.5537287888575
 20
40.50989473557585
 30
0.0
  0
VERTEX
  5
9A
330
48
100
AcDbEntity
  8
_U_706B
100
AcDbVertex
100
AcDb2dVertex
 10
110.3401992726424
 20
40.31772531603992
 30
0.0
  0
VERTEX
  5
9B
330
48
100
AcDbEntity
  8
_U_706B
100
AcDbVertex
100
AcDb2dVertex
 10
110.1138220567091
 20
40.13341409538413
 30
0.0
  0
VERTEX
  5
9C
330
48
100
AcDbEntity
  8
_U_706B
100
AcDbVertex
100
AcDb2dVertex
 10
109.875239816219
 20
39.95781671219146
 30
0.0
  0
VERTEX
  5
9D
330
48
100
AcDbEntity
  8
_U_706B
100
AcDbVertex
100
AcDb2dVertex
 10
109.6250952263334
 20
39.79178880504486
 30
0.0
  0
VERTEX
  5
9E
330
48
100
AcDbEntity
  8
_U_706B
100
AcDbVertex
100
AcDb2dVertex
 10
109.3640309622133
 20
39.63618601252764
 30
0.0
  0
VERTEX
  5
9F
330
48
100
AcDbEntity
  8
_U_706B
100
AcDbVertex
100
AcDb2dVertex
 10
109.0926896990203
 20
39.49186397322339
 30
0.0
  0
VERTEX
  5
A0
330
48
100
AcDbEntity
  8
_U_706B
100
AcDbVertex
100
AcDb2dVertex
 10
108.8117141119154
 20
39.35967832571508
 30
0.0
  0
VERTEX
  5
A1
330
48
100
AcDbEntity
  8
_U_706B
100
AcDbVertex
100
AcDb2dVertex
 10
108.5217468760596
 20
39.24048470858632
 30
0.0
  0
VERTEX
  5
A2
330
48
100
AcDbEntity
  8
_U_706B
100
AcDbVertex
100
AcDb2dVertex
 10
108.2673571059563
 20
39.16073503766194
 30
0.0
  0
VERTEX
  5
A3
330
48
100
AcDbEntity
  8
_U_706B
100
AcDbVertex
100
AcDb2dVertex
 10
108.0158958352333
 20
39.09237184468162
 30
0.0
  0
VERTEX
  5
A4
330
48
100
AcDbEntity
  8
_U_706B
100
AcDbVertex
100
AcDb2dVertex
 10
107.7678207838526
 20
39.03531993639919
 30
0.0
  0
VERTEX
  5
A5
330
48
100
AcDbEntity
  8
_U_706B
100
AcDbVertex
100
AcDb2dVertex
 10
107.5235896717759
 20
38.98950411956909
 30
0.0
  0
VERTEX
  5
A6
330
48
100
AcDbEntity
  8
_U_706B
100
AcDbVertex
100
AcDb2dVertex
 10
107.2836602189647
 20
38.95484920094418
 30
0.0
  0
VERTEX
  5
A7
330
48
100
AcDbEntity
  8
_U_706B
100
AcDbVertex
100
AcDb2dVertex
 10
107.0484901453808
 20
38.93127998727891
 30
0.0
  0
VERTEX
  5
A8
330
48
100
AcDbEntity
  8
_U_706B
100
AcDbVertex
100
AcDb2dVertex
 10
106.8185371709858
 20
38.91872128532678
 30
0.0
  0
VERTEX
  5
A9
330
48
100
AcDbEntity
  8
_U_706B
100
AcDbVertex
100
AcDb2dVertex
 10
106.5942590157415
 20
38.91709790184191
 30
0.0
  0
VERTEX
  5
AA
330
48
100
AcDbEntity
  8
_U_706B
100
AcDbVertex
100
AcDb2dVertex
 10
106.5942590157482
 20
39.06748708569645
 30
0.0
  0
VERTEX
  5
AB
330
48
100
AcDbEntity
  8
_U_706B
100
AcDbVertex
100
AcDb2dVertex
 10
106.594259015755
 20
39.217876269551
 30
0.0
  0
VERTEX
  5
AC
330
48
100
AcDbEntity
  8
_U_706B
100
AcDbVertex
100
AcDb2dVertex
 10
106.5942590157617
 20
39.36826545340554
 30
0.0
  0
VERTEX
  5
AD
330
48
100
AcDbEntity
  8
_U_706B
100
AcDbVertex
100
AcDb2dVertex
 10
106.5942590157684
 20
39.51865463726009
 30
0.0
  0
VERTEX
  5
AE
330
48
100
AcDbEntity
  8
_U_706B
100
AcDbVertex
100
AcDb2dVertex
 10
106.5942590157752
 20
39.66904382111464
 30
0.0
  0
VERTEX
  5
AF
330
48
100
AcDbEntity
  8
_U_706B
100
AcDbVertex
100
AcDb2dVertex
 10
106.5942590157819
 20
39.81943300496918
 30
0.0
  0
VERTEX
  5
B0
330
48
100
AcDbEntity
  8
_U_706B
100
AcDbVertex
100
AcDb2dVertex
 10
106.5942590157887
 20
39.96982218882373
 30
0.0
  0
VERTEX
  5
B1
330
48
100
AcDbEntity
  8
_U_706B
100
AcDbVertex
100
AcDb2dVertex
 10
106.5942590157954
 20
40.12021137267828
 30
0.0
  0
VERTEX
  5
B2
330
48
100
AcDbEntity
  8
_U_706B
100
AcDbVertex
100
AcDb2dVertex
 10
106.5942590157954
 20
40.12021137267828
 30
0.0
  0
SEQEND
  5
B4
330
48
100
AcDbEntity
  8
_U_706B
  0
HATCH
  5
B3
330
1F
100
AcDbEntity
  8
_U_706B
 62
    11
100
AcDbHatch
 10
0.0
 20
0.0
 30
0.0
210
0.0
220
0.0
230
1.0
  2
SOLID
 70
     1
 71
     0
 91
        1
 92
        1
 93
      104
 72
     1
 10
106.5942590157954
 20
40.12021137267828
 11
106.6962555842798
 21
40.16726501837847
 72
     1
 10
106.6962555842798
 20
40.16726501837847
 11
106.7989074442421
 21
40.22513337056077
 72
     1
 10
106.7989074442421
 20
40.22513337056077
 11
106.9017192790977
 21
40.29469351554612
 72
     1
 10
106.9017192790977
 20
40.29469351554612
 11
107.0041957722623
 21
40.37682253965552
 72
     1
 10
107.0041957722623
 20
40.37682253965552
 11
107.1058416071507
 21
40.47239752921089
 72
     1
 10
107.1058416071507
 20
40.47239752921089
 11
107.2061614671785
 21
40.58229557053321
 72
     1
 10
107.2061614671785
 20
40.58229557053321
 11
107.3046600357604
 21
40.70739374994377
 72
     1
 10
107.3046600357604
 20
40.70739374994377
 11
107.4008419963122
 21
40.84856915376419
 72
     1
 10
107.4008419963122
 20
40.84856915376419
 11
107.6064500638617
 21
41.34031994695652
 72
     1
 10
107.6064500638617
 20
41.34031994695652
 11
107.6929305817155
 21
41.88307547974397
 72
     1
 10
107.6929305817155
 20
41.88307547974397
 11
107.7423065128199
 21
42.46121826628546
 72
     1
 10
107.7423065128199
 20
42.46121826628546
 11
107.8366008201211
 21
43.05913082074026
 72
     1
 10
107.8366008201211
 20
43.05913082074026
 11
108.0578364665657
 21
43.66119565726731
 72
     1
 10
108.0578364665657
 20
43.66119565726731
 11
108.4880364151003
 21
44.25179529002587
 72
     1
 10
108.4880364151003
 20
44.25179529002587
 11
109.2092236286709
 21
44.81531223317487
 72
     1
 10
109.2092236286709
 20
44.81531223317487
 11
110.3034210702238
 21
45.33612900087358
 72
     1
 10
110.3034210702238
 20
45.33612900087358
 11
110.2122789916741
 21
45.32204183217416
 72
     1
 10
110.2122789916741
 20
45.32204183217416
 11
109.957816425426
 21
45.27469628697187
 72
     1
 10
109.957816425426
 20
45.27469628697187
 11
109.5684788755814
 21
45.18646630660874
 72
     1
 10
109.5684788755814
 20
45.18646630660874
 11
109.0727118462416
 21
45.04972583242805
 72
     1
 10
109.0727118462416
 20
45.04972583242805
 11
108.4989608415083
 21
44.85684880577182
 72
     1
 10
108.4989608415083
 20
44.85684880577182
 11
107.8756713654831
 21
44.60020916798304
 72
     1
 10
107.8756713654831
 20
44.60020916798304
 11
107.2312889222676
 21
44.27218086040468
 72
     1
 10
107.2312889222676
 20
44.27218086040468
 11
106.5942590159635
 21
43.86513782437876
 72
     1
 10
106.5942590159635
 20
43.86513782437876
 11
106.5942590159696
 21
44.00093379907626
 72
     1
 10
106.5942590159696
 20
44.00093379907626
 11
106.5942590159757
 21
44.13672977377376
 72
     1
 10
106.5942590159757
 20
44.13672977377376
 11
106.5942590159818
 21
44.27252574847125
 72
     1
 10
106.5942590159818
 20
44.27252574847125
 11
106.5942590159879
 21
44.40832172316875
 72
     1
 10
106.5942590159879
 20
44.40832172316875
 11
106.594259015994
 21
44.54411769786625
 72
     1
 10
106.594259015994
 20
44.54411769786625
 11
106.5942590160001
 21
44.67991367256374
 72
     1
 10
106.5942590160001
 20
44.67991367256374
 11
106.5942590160062
 21
44.81570964726124
 72
     1
 10
106.5942590160062
 20
44.81570964726124
 11
106.5942590160123
 21
44.95150562195874
 72
     1
 10
106.5942590160123
 20
44.95150562195874
 11
107.8058094803067
 21
45.69337480510012
 72
     1
 10
107.8058094803067
 20
45.69337480510012
 11
109.0774168912539
 21
46.28110792660908
 72
     1
 10
109.0774168912539
 20
46.28110792660908
 11
110.3407808010108
 21
46.73172490206499
 72
     1
 10
110.3407808010108
 20
46.73172490206499
 11
111.5276007617337
 21
47.06224564704756
 72
     1
 10
111.5276007617337
 20
47.06224564704756
 11
112.5695763255792
 21
47.28969007713649
 72
     1
 10
112.5695763255792
 20
47.28969007713649
 11
113.3984070447036
 21
47.43107810791084
 72
     1
 10
113.3984070447036
 20
47.43107810791084
 11
113.9457924712635
 21
47.50342965495031
 72
     1
 10
113.9457924712635
 20
47.50342965495031
 11
114.1434321574154
 21
47.52376463383461
 72
     1
 10
114.1434321574154
 20
47.52376463383461
 11
113.8672768442915
 21
47.39434402029919
 72
     1
 10
113.8672768442915
 20
47.39434402029919
 11
113.6302141970692
 21
47.28420467090321
 72
     1
 10
113.6302141970692
 20
47.28420467090321
 11
113.4238611781042
 21
47.18717922550199
 72
     1
 10
113.4238611781042
 20
47.18717922550199
 11
113.2398347497512
 21
47.09710032395056
 72
     1
 10
113.2398347497512
 20
47.09710032395056
 11
113.0697518743659
 21
47.00780060610393
 72
     1
 10
113.0697518743659
 20
47.00780060610393
 11
112.9052295143032
 21
46.91311271181714
 72
     1
 10
112.9052295143032
 20
46.91311271181714
 11
112.7378846319182
 21
46.80686928094521
 72
     1
 10
112.7378846319182
 20
46.80686928094521
 11
112.5593341895661
 21
46.68290295334348
 72
     1
 10
112.5593341895661
 20
46.68290295334348
 11
113.8706637364826
 21
46.93135821838671
 72
     1
 10
113.8706637364826
 20
46.93135821838671
 11
115.1096969957936
 21
47.01560329309887
 72
     1
 10
115.1096969957936
 20
47.01560329309887
 11
116.2448268144905
 21
46.97604041703191
 72
     1
 10
116.2448268144905
 20
46.97604041703191
 11
117.2444460395649
 21
46.85307182973841
 72
     1
 10
117.2444460395649
 20
46.85307182973841
 11
118.0769475180082
 21
46.68709977077096
 72
     1
 10
118.0769475180082
 20
46.68709977077096
 11
118.7107240968115
 21
46.5185264796815
 72
     1
 10
118.7107240968115
 20
46.5185264796815
 11
119.1141686229666
 21
46.38775419602295
 72
     1
 10
119.1141686229666
 20
46.38775419602295
 11
119.2556739434647
 21
46.33518515934722
 72
     1
 10
119.2556739434647
 20
46.33518515934722
 11
118.2334596946114
 21
46.30680340974374
 72
     1
 10
118.2334596946114
 20
46.30680340974374
 11
117.3737602554814
 21
46.2052101849378
 72
     1
 10
117.3737602554814
 20
46.2052101849378
 11
116.6520924023258
 21
46.04403060207029
 72
     1
 10
116.6520924023258
 20
46.04403060207029
 11
116.0439729113947
 21
45.83688977828177
 72
     1
 10
116.0439729113947
 20
45.83688977828177
 11
115.5249185589387
 21
45.59741283071309
 72
     1
 10
115.5249185589387
 20
45.59741283071309
 11
115.0704461212087
 21
45.33922487650481
 72
     1
 10
115.0704461212087
 20
45.33922487650481
 11
114.6560723744549
 21
45.07595103279749
 72
     1
 10
114.6560723744549
 20
45.07595103279749
 11
114.2573140949284
 21
44.82121641673167
 72
     1
 10
114.2573140949284
 20
44.82121641673167
 11
114.782478150957
 21
44.91920276283584
 72
     1
 10
114.782478150957
 20
44.91920276283584
 11
115.2701906715301
 21
44.98771915994196
 72
     1
 10
115.2701906715301
 20
44.98771915994196
 11
115.7104128536296
 21
45.0318219753669
 72
     1
 10
115.7104128536296
 20
45.0318219753669
 11
116.0931058942373
 21
45.05656757642789
 72
     1
 10
116.0931058942373
 20
45.05656757642789
 11
116.4082309903342
 21
45.06701233044213
 72
     1
 10
116.4082309903342
 20
45.06701233044213
 11
116.6457493389025
 21
45.06821260472652
 72
     1
 10
116.6457493389025
 20
45.06821260472652
 11
116.7956221369237
 21
45.06522476659794
 72
     1
 10
116.7956221369237
 20
45.06522476659794
 11
116.8478105813794
 21
45.06310518337363
 72
     1
 10
116.8478105813794
 20
45.06310518337363
 11
115.2602073382281
 21
44.50678946548943
 72
     1
 10
115.2602073382281
 20
44.50678946548943
 11
114.0685245444725
 21
43.93791344755842
 72
     1
 10
114.0685245444725
 20
43.93791344755842
 11
113.1892081209985
 21
43.36092362416235
 72
     1
 10
113.1892081209985
 20
43.36092362416235
 11
112.5387039886921
 21
42.78026648988325
 72
     1
 10
112.5387039886921
 20
42.78026648988325
 11
112.033458068439
 21
42.2003885393032
 72
     1
 10
112.033458068439
 20
42.2003885393032
 11
111.589916281125
 21
41.62573626700391
 72
     1
 10
111.589916281125
 20
41.62573626700391
 11
111.1245245476359
 21
41.06075616756744
 72
     1
 10
111.1245245476359
 20
41.06075616756744
 11
110.5537287888575
 21
40.50989473557585
 72
     1
 10
110.5537287888575
 20
40.50989473557585
 11
110.3401992726424
 21
40.31772531603992
 72
     1
 10
110.3401992726424
 20
40.31772531603992
 11
110.1138220567091
 21
40.13341409538413
 72
     1
 10
110.1138220567091
 20
40.13341409538413
 11
109.875239816219
 21
39.95781671219146
 72
     1
 10
109.875239816219
 20
39.95781671219146
 11
109.6250952263334
 21
39.79178880504486
 72
     1
 10
109.6250952263334
 20
39.79178880504486
 11
109.3640309622133
 21
39.63618601252764
 72
     1
 10
109.3640309622133
 20
39.63618601252764
 11
109.0926896990203
 21
39.49186397322339
 72
     1
 10
109.0926896990203
 20
39.49186397322339
 11
108.8117141119154
 21
39.35967832571508
 72
     1
 10
108.8117141119154
 20
39.35967832571508
 11
108.5217468760596
 21
39.24048470858632
 72
     1
 10
108.5217468760596
 20
39.24048470858632
 11
108.2673571059563
 21
39.16073503766194
 72
     1
 10
108.2673571059563
 20
39.16073503766194
 11
108.0158958352333
 21
39.09237184468162
 72
     1
 10
108.0158958352333
 20
39.09237184468162
 11
107.7678207838526
 21
39.03531993639919
 72
     1
 10
107.7678207838526
 20
39.03531993639919
 11
107.5235896717759
 21
38.98950411956909
 72
     1
 10
107.5235896717759
 20
38.98950411956909
 11
107.2836602189647
 21
38.95484920094418
 72
     1
 10
107.2836602189647
 20
38.95484920094418
 11
107.0484901453808
 21
38.93127998727891
 72
     1
 10
107.0484901453808
 20
38.93127998727891
 11
106.8185371709858
 21
38.91872128532678
 72
     1
 10
106.8185371709858
 20
38.91872128532678
 11
106.5942590157415
 21
38.91709790184191
 72
     1
 10
106.5942590157415
 20
38.91709790184191
 11
106.5942590157482
 21
39.06748708569645
 72
     1
 10
106.5942590157482
 20
39.06748708569645
 11
106.594259015755
 21
39.217876269551
 72
     1
 10
106.594259015755
 20
39.217876269551
 11
106.5942590157617
 21
39.36826545340554
 72
     1
 10
106.5942590157617
 20
39.36826545340554
 11
106.5942590157684
 21
39.51865463726009
 72
     1
 10
106.5942590157684
 20
39.51865463726009
 11
106.5942590157752
 21
39.66904382111464
 72
     1
 10
106.5942590157752
 20
39.66904382111464
 11
106.5942590157819
 21
39.81943300496918
 72
     1
 10
106.5942590157819
 20
39.81943300496918
 11
106.5942590157887
 21
39.96982218882373
 72
     1
 10
106.5942590157887
 20
39.96982218882373
 11
106.5942590157954
 21
40.12021137267828
 97
        0
 75
     2
 76
     1
 98
        0
  0
POLYLINE
  5
B5
330
1F
100
AcDbEntity
  8
_U_706B
100
AcDb2dPolyline
 66
     1
 10
0.0
 20
0.0
 30
0.0
  0
VERTEX
  5
B6
330
B5
100
AcDbEntity
  8
_U_706B
100
AcDbVertex
100
AcDb2dVertex
 10
104.6442273120381
 20
42.97107095050367
 30
0.0
  0
VERTEX
  5
B7
330
B5
100
AcDbEntity
  8
_U_706B
100
AcDbVertex
100
AcDb2dVertex
 10
104.8407859480976
 20
43.25727515968461
 30
0.0
  0
VERTEX
  5
B8
330
B5
100
AcDbEntity
  8
_U_706B
100
AcDbVertex
100
AcDb2dVertex
 10
105.0521679990347
 20
43.53136089223868
 30
0.0
  0
VERTEX
  5
B9
330
B5
100
AcDbEntity
  8
_U_706B
100
AcDbVertex
100
AcDb2dVertex
 10
105.2773467490152
 20
43.79361605250814
 30
0.0
  0
VERTEX
  5
BA
330
B5
100
AcDbEntity
  8
_U_706B
100
AcDbVertex
100
AcDb2dVertex
 10
105.515295482204
 20
44.04432854483462
 30
0.0
  0
VERTEX
  5
BB
330
B5
100
AcDbEntity
  8
_U_706B
100
AcDbVertex
100
AcDb2dVertex
 10
105.7649874827668
 20
44.28378627356006
 30
0.0
  0
VERTEX
  5
BC
330
B5
100
AcDbEntity
  8
_U_706B
100
AcDbVertex
100
AcDb2dVertex
 10
106.0253960348685
 20
44.5122771430264
 30
0.0
  0
VERTEX
  5
BD
330
B5
100
AcDbEntity
  8
_U_706B
100
AcDbVertex
100
AcDb2dVertex
 10
106.2954944226745
 20
44.73008905757592
 30
0.0
  0
VERTEX
  5
BE
330
B5
100
AcDbEntity
  8
_U_706B
100
AcDbVertex
100
AcDb2dVertex
 10
106.5742559303504
 20
44.93750992155055
 30
0.0
  0
VERTEX
  5
BF
330
B5
100
AcDbEntity
  8
_U_706B
100
AcDbVertex
100
AcDb2dVertex
 10
106.5742559303443
 20
44.80166819167864
 30
0.0
  0
VERTEX
  5
C0
330
B5
100
AcDbEntity
  8
_U_706B
100
AcDbVertex
100
AcDb2dVertex
 10
106.5742559303382
 20
44.66582646180673
 30
0.0
  0
VERTEX
  5
C1
330
B5
100
AcDbEntity
  8
_U_706B
100
AcDbVertex
100
AcDb2dVertex
 10
106.5742559303321
 20
44.52998473193482
 30
0.0
  0
VERTEX
  5
C2
330
B5
100
AcDbEntity
  8
_U_706B
100
AcDbVertex
100
AcDb2dVertex
 10
106.574255930326
 20
44.39414300206291
 30
0.0
  0
VERTEX
  5
C3
330
B5
100
AcDbEntity
  8
_U_706B
100
AcDbVertex
100
AcDb2dVertex
 10
106.5742559303199
 20
44.258301272191
 30
0.0
  0
VERTEX
  5
C4
330
B5
100
AcDbEntity
  8
_U_706B
100
AcDbVertex
100
AcDb2dVertex
 10
106.5742559303138
 20
44.12245954231909
 30
0.0
  0
VERTEX
  5
C5
330
B5
100
AcDbEntity
  8
_U_706B
100
AcDbVertex
100
AcDb2dVertex
 10
106.5742559303077
 20
43.98661781244718
 30
0.0
  0
VERTEX
  5
C6
330
B5
100
AcDbEntity
  8
_U_706B
100
AcDbVertex
100
AcDb2dVertex
 10
106.5742559303016
 20
43.85077608257527
 30
0.0
  0
VERTEX
  5
C7
330
B5
100
AcDbEntity
  8
_U_706B
100
AcDbVertex
100
AcDb2dVertex
 10
106.3887804759449
 20
43.71097678245127
 30
0.0
  0
VERTEX
  5
C8
330
B5
100
AcDbEntity
  8
_U_706B
100
AcDbVertex
100
AcDb2dVertex
 10
106.2073697464299
 20
43.56317722372458
 30
0.0
  0
VERTEX
  5
C9
330
B5
100
AcDbEntity
  8
_U_706B
100
AcDbVertex
100
AcDb2dVertex
 10
106.0308082243143
 20
43.4071447615191
 30
0.0
  0
VERTEX
  5
CA
330
B5
100
AcDbEntity
  8
_U_706B
100
AcDbVertex
100
AcDb2dVertex
 10
105.8598803921568
 20
43.24264675095872
 30
0.0
  0
VERTEX
  5
CB
330
B5
100
AcDbEntity
  8
_U_706B
100
AcDbVertex
100
AcDb2dVertex
 10
105.6953707325158
 20
43.06945054716829
 30
0.0
  0
VERTEX
  5
CC
330
B5
100
AcDbEntity
  8
_U_706B
100
AcDbVertex
100
AcDb2dVertex
 10
105.5380637279493
 20
42.88732350527172
 30
0.0
  0
VERTEX
  5
CD
330
B5
100
AcDbEntity
  8
_U_706B
100
AcDbVertex
100
AcDb2dVertex
 10
105.3887438610161
 20
42.69603298039321
 30
0.0
  0
VERTEX
  5
CE
330
B5
100
AcDbEntity
  8
_U_706B
100
AcDbVertex
100
AcDb2dVertex
 10
105.2481956142745
 20
42.49534632765697
 30
0.0
  0
VERTEX
  5
CF
330
B5
100
AcDbEntity
  8
_U_706B
100
AcDbVertex
100
AcDb2dVertex
 10
105.2076002609698
 20
42.43019524884171
 30
0.0
  0
VERTEX
  5
D0
330
B5
100
AcDbEntity
  8
_U_706B
100
AcDbVertex
100
AcDb2dVertex
 10
105.1107154454255
 20
42.25109511359076
 30
0.0
  0
VERTEX
  5
D1
330
B5
100
AcDbEntity
  8
_U_706B
100
AcDbVertex
100
AcDb2dVertex
 10
104.9948930341968
 20
41.9825755736975
 30
0.0
  0
VERTEX
  5
D2
330
B5
100
AcDbEntity
  8
_U_706B
100
AcDbVertex
100
AcDb2dVertex
 10
104.8974848938382
 20
41.64916628095498
 30
0.0
  0
VERTEX
  5
D3
330
B5
100
AcDbEntity
  8
_U_706B
100
AcDbVertex
100
AcDb2dVertex
 10
104.855842890905
 20
41.27539688715594
 30
0.0
  0
VERTEX
  5
D4
330
B5
100
AcDbEntity
  8
_U_706B
100
AcDbVertex
100
AcDb2dVertex
 10
104.9073188919517
 20
40.88579704409343
 30
0.0
  0
VERTEX
  5
D5
330
B5
100
AcDbEntity
  8
_U_706B
100
AcDbVertex
100
AcDb2dVertex
 10
105.0892647635337
 20
40.50489640356019
 30
0.0
  0
VERTEX
  5
D6
330
B5
100
AcDbEntity
  8
_U_706B
100
AcDbVertex
100
AcDb2dVertex
 10
105.4390323722056
 20
40.15722461734959
 30
0.0
  0
VERTEX
  5
D7
330
B5
100
AcDbEntity
  8
_U_706B
100
AcDbVertex
100
AcDb2dVertex
 10
105.4631691939593
 20
40.14554005790034
 30
0.0
  0
VERTEX
  5
D8
330
B5
100
AcDbEntity
  8
_U_706B
100
AcDbVertex
100
AcDb2dVertex
 10
105.5319231142708
 20
40.11675685705755
 30
0.0
  0
VERTEX
  5
D9
330
B5
100
AcDbEntity
  8
_U_706B
100
AcDbVertex
100
AcDb2dVertex
 10
105.6398093157163
 20
40.08028073107978
 30
0.0
  0
VERTEX
  5
DA
330
B5
100
AcDbEntity
  8
_U_706B
100
AcDbVertex
100
AcDb2dVertex
 10
105.7813429808731
 20
40.04551739622496
 30
0.0
  0
VERTEX
  5
DB
330
B5
100
AcDbEntity
  8
_U_706B
100
AcDbVertex
100
AcDb2dVertex
 10
105.9510392923165
 20
40.02187256875165
 30
0.0
  0
VERTEX
  5
DC
330
B5
100
AcDbEntity
  8
_U_706B
100
AcDbVertex
100
AcDb2dVertex
 10
106.1434134326237
 20
40.01875196491746
 30
0.0
  0
VERTEX
  5
DD
330
B5
100
AcDbEntity
  8
_U_706B
100
AcDbVertex
100
AcDb2dVertex
 10
106.3529805843707
 20
40.04556130098062
 30
0.0
  0
VERTEX
  5
DE
330
B5
100
AcDbEntity
  8
_U_706B
100
AcDbVertex
100
AcDb2dVertex
 10
106.5742559301338
 20
40.11170629319971
 30
0.0
  0
VERTEX
  5
DF
330
B5
100
AcDbEntity
  8
_U_706B
100
AcDbVertex
100
AcDb2dVertex
 10
106.5742559301271
 20
39.96251750980331
 30
0.0
  0
VERTEX
  5
E0
330
B5
100
AcDbEntity
  8
_U_706B
100
AcDbVertex
100
AcDb2dVertex
 10
106.5742559301204
 20
39.8133287264069
 30
0.0
  0
VERTEX
  5
E1
330
B5
100
AcDbEntity
  8
_U_706B
100
AcDbVertex
100
AcDb2dVertex
 10
106.5742559301136
 20
39.6641399430105
 30
0.0
  0
VERTEX
  5
E2
330
B5
100
AcDbEntity
  8
_U_706B
100
AcDbVertex
100
AcDb2dVertex
 10
106.5742559301069
 20
39.51495115961409
 30
0.0
  0
VERTEX
  5
E3
330
B5
100
AcDbEntity
  8
_U_706B
100
AcDbVertex
100
AcDb2dVertex
 10
106.5742559301002
 20
39.36576237621768
 30
0.0
  0
VERTEX
  5
E4
330
B5
100
AcDbEntity
  8
_U_706B
100
AcDbVertex
100
AcDb2dVertex
 10
106.5742559300937
 20
39.21657359282128
 30
0.0
  0
VERTEX
  5
E5
330
B5
100
AcDbEntity
  8
_U_706B
100
AcDbVertex
100
AcDb2dVertex
 10
106.574255930087
 20
39.06738480942487
 30
0.0
  0
VERTEX
  5
E6
330
B5
100
AcDbEntity
  8
_U_706B
100
AcDbVertex
100
AcDb2dVertex
 10
106.5742559300803
 20
38.91819602602847
 30
0.0
  0
VERTEX
  5
E7
330
B5
100
AcDbEntity
  8
_U_706B
100
AcDbVertex
100
AcDb2dVertex
 10
106.1112735766295
 20
38.95407455916528
 30
0.0
  0
VERTEX
  5
E8
330
B5
100
AcDbEntity
  8
_U_706B
100
AcDbVertex
100
AcDb2dVertex
 10
105.6820592988772
 20
39.04037647202701
 30
0.0
  0
VERTEX
  5
E9
330
B5
100
AcDbEntity
  8
_U_706B
100
AcDbVertex
100
AcDb2dVertex
 10
105.2913434585221
 20
39.17647044413727
 30
0.0
  0
VERTEX
  5
EA
330
B5
100
AcDbEntity
  8
_U_706B
100
AcDbVertex
100
AcDb2dVertex
 10
104.9438564172631
 20
39.36172515501938
 30
0.0
  0
VERTEX
  5
EB
330
B5
100
AcDbEntity
  8
_U_706B
100
AcDbVertex
100
AcDb2dVertex
 10
104.6443285367992
 20
39.59550928419664
 30
0.0
  0
VERTEX
  5
EC
330
B5
100
AcDbEntity
  8
_U_706B
100
AcDbVertex
100
AcDb2dVertex
 10
104.3974901788288
 20
39.87719151119236
 30
0.0
  0
VERTEX
  5
ED
330
B5
100
AcDbEntity
  8
_U_706B
100
AcDbVertex
100
AcDb2dVertex
 10
104.2080717050511
 20
40.20614051553049
 30
0.0
  0
VERTEX
  5
EE
330
B5
100
AcDbEntity
  8
_U_706B
100
AcDbVertex
100
AcDb2dVertex
 10
104.0808034771651
 20
40.58172497673367
 30
0.0
  0
VERTEX
  5
EF
330
B5
100
AcDbEntity
  8
_U_706B
100
AcDbVertex
100
AcDb2dVertex
 10
104.0266192155712
 20
41.01613658811842
 30
0.0
  0
VERTEX
  5
F0
330
B5
100
AcDbEntity
  8
_U_706B
100
AcDbVertex
100
AcDb2dVertex
 10
104.0536474447541
 20
41.44252144663204
 30
0.0
  0
VERTEX
  5
F1
330
B5
100
AcDbEntity
  8
_U_706B
100
AcDbVertex
100
AcDb2dVertex
 10
104.1390836680325
 20
41.84550101947261
 30
0.0
  0
VERTEX
  5
F2
330
B5
100
AcDbEntity
  8
_U_706B
100
AcDbVertex
100
AcDb2dVertex
 10
104.260123388726
 20
42.20969677383793
 30
0.0
  0
VERTEX
  5
F3
330
B5
100
AcDbEntity
  8
_U_706B
100
AcDbVertex
100
AcDb2dVertex
 10
104.3939621101542
 20
42.51973017692607
 30
0.0
  0
VERTEX
  5
F4
330
B5
100
AcDbEntity
  8
_U_706B
100
AcDbVertex
100
AcDb2dVertex
 10
104.5177953356357
 20
42.76022269593419
 30
0.0
  0
VERTEX
  5
F5
330
B5
100
AcDbEntity
  8
_U_706B
100
AcDbVertex
100
AcDb2dVertex
 10
104.6088185684907
 20
42.91579579806069
 30
0.0
  0
VERTEX
  5
F6
330
B5
100
AcDbEntity
  8
_U_706B
100
AcDbVertex
100
AcDb2dVertex
 10
104.6442273120381
 20
42.97107095050367
 30
0.0
  0
VERTEX
  5
F7
330
B5
100
AcDbEntity
  8
_U_706B
100
AcDbVertex
100
AcDb2dVertex
 10
104.6442273120381
 20
42.97107095050367
 30
0.0
  0
SEQEND
  5
F9
330
B5
100
AcDbEntity
  8
_U_706B
  0
HATCH
  5
F8
330
1F
100
AcDbEntity
  8
_U_706B
 62
    11
100
AcDbHatch
 10
0.0
 20
0.0
 30
0.0
210
0.0
220
0.0
230
1.0
  2
SOLID
 70
     1
 71
     0
 91
        1
 92
        1
 93
       64
 72
     1
 10
104.6442273120381
 20
42.97107095050367
 11
104.8407859480976
 21
43.25727515968461
 72
     1
 10
104.8407859480976
 20
43.25727515968461
 11
105.0521679990347
 21
43.53136089223868
 72
     1
 10
105.0521679990347
 20
43.53136089223868
 11
105.2773467490152
 21
43.79361605250814
 72
     1
 10
105.2773467490152
 20
43.79361605250814
 11
105.515295482204
 21
44.04432854483462
 72
     1
 10
105.515295482204
 20
44.04432854483462
 11
105.7649874827668
 21
44.28378627356006
 72
     1
 10
105.7649874827668
 20
44.28378627356006
 11
106.0253960348685
 21
44.5122771430264
 72
     1
 10
106.0253960348685
 20
44.5122771430264
 11
106.2954944226745
 21
44.73008905757592
 72
     1
 10
106.2954944226745
 20
44.73008905757592
 11
106.5742559303504
 21
44.93750992155055
 72
     1
 10
106.5742559303504
 20
44.93750992155055
 11
106.5742559303443
 21
44.80166819167864
 72
     1
 10
106.5742559303443
 20
44.80166819167864
 11
106.5742559303382
 21
44.66582646180673
 72
     1
 10
106.5742559303382
 20
44.66582646180673
 11
106.5742559303321
 21
44.52998473193482
 72
     1
 10
106.5742559303321
 20
44.52998473193482
 11
106.574255930326
 21
44.39414300206291
 72
     1
 10
106.574255930326
 20
44.39414300206291
 11
106.5742559303199
 21
44.258301272191
 72
     1
 10
106.5742559303199
 20
44.258301272191
 11
106.5742559303138
 21
44.12245954231909
 72
     1
 10
106.5742559303138
 20
44.12245954231909
 11
106.5742559303077
 21
43.98661781244718
 72
     1
 10
106.5742559303077
 20
43.98661781244718
 11
106.5742559303016
 21
43.85077608257527
 72
     1
 10
106.5742559303016
 20
43.85077608257527
 11
106.3887804759449
 21
43.71097678245127
 72
     1
 10
106.3887804759449
 20
43.71097678245127
 11
106.2073697464299
 21
43.56317722372458
 72
     1
 10
106.2073697464299
 20
43.56317722372458
 11
106.0308082243143
 21
43.4071447615191
 72
     1
 10
106.0308082243143
 20
43.4071447615191
 11
105.8598803921568
 21
43.24264675095872
 72
     1
 10
105.8598803921568
 20
43.24264675095872
 11
105.6953707325158
 21
43.06945054716829
 72
     1
 10
105.6953707325158
 20
43.06945054716829
 11
105.5380637279493
 21
42.88732350527172
 72
     1
 10
105.5380637279493
 20
42.88732350527172
 11
105.3887438610161
 21
42.69603298039321
 72
     1
 10
105.3887438610161
 20
42.69603298039321
 11
105.2481956142745
 21
42.49534632765697
 72
     1
 10
105.2481956142745
 20
42.49534632765697
 11
105.2076002609698
 21
42.43019524884171
 72
     1
 10
105.2076002609698
 20
42.43019524884171
 11
105.1107154454255
 21
42.25109511359076
 72
     1
 10
105.1107154454255
 20
42.25109511359076
 11
104.9948930341968
 21
41.9825755736975
 72
     1
 10
104.9948930341968
 20
41.9825755736975
 11
104.8974848938382
 21
41.64916628095498
 72
     1
 10
104.8974848938382
 20
41.64916628095498
 11
104.855842890905
 21
41.27539688715594
 72
     1
 10
104.855842890905
 20
41.27539688715594
 11
104.9073188919517
 21
40.88579704409343
 72
     1
 10
104.9073188919517
 20
40.88579704409343
 11
105.0892647635337
 21
40.50489640356019
 72
     1
 10
105.0892647635337
 20
40.50489640356019
 11
105.4390323722056
 21
40.15722461734959
 72
     1
 10
105.4390323722056
 20
40.15722461734959
 11
105.4631691939593
 21
40.14554005790034
 72
     1
 10
105.4631691939593
 20
40.14554005790034
 11
105.5319231142708
 21
40.11675685705755
 72
     1
 10
105.5319231142708
 20
40.11675685705755
 11
105.6398093157163
 21
40.08028073107978
 72
     1
 10
105.6398093157163
 20
40.08028073107978
 11
105.7813429808731
 21
40.04551739622496
 72
     1
 10
105.7813429808731
 20
40.04551739622496
 11
105.9510392923165
 21
40.02187256875165
 72
     1
 10
105.9510392923165
 20
40.02187256875165
 11
106.1434134326237
 21
40.01875196491746
 72
     1
 10
106.1434134326237
 20
40.01875196491746
 11
106.3529805843707
 21
40.04556130098062
 72
     1
 10
106.3529805843707
 20
40.04556130098062
 11
106.5742559301338
 21
40.11170629319971
 72
     1
 10
106.5742559301338
 20
40.11170629319971
 11
106.5742559301271
 21
39.96251750980331
 72
     1
 10
106.5742559301271
 20
39.96251750980331
 11
106.5742559301204
 21
39.8133287264069
 72
     1
 10
106.5742559301204
 20
39.8133287264069
 11
106.5742559301136
 21
39.6641399430105
 72
     1
 10
106.5742559301136
 20
39.6641399430105
 11
106.5742559301069
 21
39.51495115961409
 72
     1
 10
106.5742559301069
 20
39.51495115961409
 11
106.5742559301002
 21
39.36576237621768
 72
     1
 10
106.5742559301002
 20
39.36576237621768
 11
106.5742559300937
 21
39.21657359282128
 72
     1
 10
106.5742559300937
 20
39.21657359282128
 11
106.574255930087
 21
39.06738480942487
 72
     1
 10
106.574255930087
 20
39.06738480942487
 11
106.5742559300803
 21
38.91819602602847
 72
     1
 10
106.5742559300803
 20
38.91819602602847
 11
106.1112735766295
 21
38.95407455916528
 72
     1
 10
106.1112735766295
 20
38.95407455916528
 11
105.6820592988772
 21
39.04037647202701
 72
     1
 10
105.6820592988772
 20
39.04037647202701
 11
105.2913434585221
 21
39.17647044413727
 72
     1
 10
105.2913434585221
 20
39.17647044413727
 11
104.9438564172631
 21
39.36172515501938
 72
     1
 10
104.9438564172631
 20
39.36172515501938
 11
104.6443285367992
 21
39.59550928419664
 72
     1
 10
104.6443285367992
 20
39.59550928419664
 11
104.3974901788288
 21
39.87719151119236
 72
     1
 10
104.3974901788288
 20
39.87719151119236
 11
104.2080717050511
 21
40.20614051553049
 72
     1
 10
104.2080717050511
 20
40.20614051553049
 11
104.0808034771651
 21
40.58172497673367
 72
     1
 10
104.0808034771651
 20
40.58172497673367
 11
104.0266192155712
 21
41.01613658811842
 72
     1
 10
104.0266192155712
 20
41.01613658811842
 11
104.0536474447541
 21
41.44252144663204
 72
     1
 10
104.0536474447541
 20
41.44252144663204
 11
104.1390836680325
 21
41.84550101947261
 72
     1
 10
104.1390836680325
 20
41.84550101947261
 11
104.260123388726
 21
42.20969677383793
 72
     1
 10
104.260123388726
 20
42.20969677383793
 11
104.3939621101542
 21
42.51973017692607
 72
     1
 10
104.3939621101542
 20
42.51973017692607
 11
104.5177953356357
 21
42.76022269593419
 72
     1
 10
104.5177953356357
 20
42.76022269593419
 11
104.6088185684907
 21
42.91579579806069
 72
     1
 10
104.6088185684907
 20
42.91579579806069
 11
104.6442273120381
 21
42.97107095050367
 97
        0
 75
     2
 76
     1
 98
        0
  0
ENDSEC
  0
SECTION
  2
OBJECTS
  0
DICTIONARY
  5
C
330
0
100
AcDbDictionary
  3
ACAD_GROUP
350
D
  3
ACAD_LAYOUT
350
1A
  3
ACAD_MATERIAL
350
3B
  3
ACAD_MLEADERSTYLE
350
11D
  3
ACAD_MLINESTYLE
350
17
  3
ACAD_PLOTSETTINGS
350
19
  3
ACAD_VISUALSTYLE
350
2A
  3
ACDBHEADERROUNDTRIPXREC
350
FB
  3
ACDBVARIABLEDICTIONARY
350
11B
  0
DICTIONARY
  5
D
102
{ACAD_REACTORS
330
C
102
}
330
C
100
AcDbDictionary
  0
DICTIONARY
  5
1A
102
{ACAD_REACTORS
330
C
102
}
330
C
100
AcDbDictionary
  0
DICTIONARY
  5
3B
102
{ACAD_REACTORS
330
C
102
}
330
C
100
AcDbDictionary
  3
BYBLOCK
350
3D
  3
BYLAYER
350
3C
  3
GLOBAL
350
3E
  0
DICTIONARY
  5
11D
102
{ACAD_REACTORS
330
C
102
}
330
C
100
AcDbDictionary
  0
DICTIONARY
  5
17
102
{ACAD_REACTORS
330
C
102
}
330
C
100
AcDbDictionary
  3
STANDARD
350
18
  0
DICTIONARY
  5
19
102
{ACAD_REACTORS
330
C
102
}
330
C
100
AcDbDictionary
  0
DICTIONARY
  5
2A
102
{ACAD_REACTORS
330
C
102
}
330
C
100
AcDbDictionary
  3
2DWIREFRAME
350
2F
  3
3DWIREFRAME
350
30
  3
3D_HIDDEN
350
31
  3
BASIC
350
32
  3
BRIGHTEN
350
36
  3
COLORCHANGE
350
3A
  3
CONCEPTUAL
350
34
  3
DIM
350
35
  3
FACEPATTERN
350
39
  3
FLAT
350
2B
  3
FLATWITHEDGES
350
2C
  3
GOURAUD
350
2D
  3
GOURAUDWITHEDGES
350
2E
  3
LINEPATTERN
350
38
  3
REALISTIC
350
33
  3
THICKEN
350
37
  0
DICTIONARY
  5
FB
102
{ACAD_REACTORS
330
C
102
}
330
C
100
AcDbDictionary
  3
CEPSNTYPE
350
104
  3
DIMSTYLEDATA
350
11A
  3
FINGERPRINTGUID
350
105
  3
HYPERLINKBASE
350
FE
  3
INSUNITS
350
103
  3
LAYOUTDICT
350
100
  3
LWETCUNION
350
102
  3
PLOTSETDICT
350
101
  3
PSVPSCALE
350
107
  3
PUCSBASE
350
10A
  3
PUCSORGBACK
350
110
  3
PUCSORGBOTTOM
350
10C
  3
PUCSORGFRONT
350
10F
  3
PUCSORGLEFT
350
10D
  3
PUCSORGRIGHT
350
10E
  3
PUCSORGTOP
350
10B
  3
PUCSORTHOREF
350
108
  3
PUCSORTHOVIEW
350
109
  3
STYLESHEET
350
FF
  3
TSTACKALIGN
350
FC
  3
TSTACKSIZE
350
FD
  3
UCSBASE
350
113
  3
UCSORGBACK
350
119
  3
UCSORGBOTTOM
350
115
  3
UCSORGFRONT
350
118
  3
UCSORGLEFT
350
116
  3
UCSORGRIGHT
350
117
  3
UCSORGTOP
350
114
  3
UCSORTHOREF
350
111
  3
UCSORTHOVIEW
350
112
  3
VERSIONGUID
350
106
  0
DICTIONARY
  5
11B
102
{ACAD_REACTORS
330
C
102
}
330
C
100
AcDbDictionary
  3
DIMASSOC
350
11E
  3
HIDETEXT
350
11F
  0
MATERIAL
  5
3D
102
{ACAD_REACTORS
330
3B
102
}
102
{ACAD_XDICTIONARY
360
122
102
}
330
3B
100
AcDbMaterial
  1
ByBlock
  0
MATERIAL
  5
3C
102
{ACAD_REACTORS
330
3B
102
}
102
{ACAD_XDICTIONARY
360
120
102
}
330
3B
100
AcDbMaterial
  1
ByLayer
  0
MATERIAL
  5
3E
102
{ACAD_REACTORS
330
3B
102
}
102
{ACAD_XDICTIONARY
360
124
102
}
330
3B
100
AcDbMaterial
  1
Global
  0
MLINESTYLE
  5
18
102
{ACAD_REACTORS
330
17
102
}
330
17
100
AcDbMlineStyle
  2
Standard
 70
     0
  3

 62
   256
 51
90.0
 52
90.0
 71
     2
 49
0.5
 62
   256
  6
BYLAYER
 49
-0.5
 62
   256
  6
BYLAYER
  0
ACAD_PROXY_OBJECT
  5
2F
102
{ACAD_REACTORS
330
2A
102
}
330
2A
100
AcDbProxyObject
 90
      499
 91
      501
 93
      436
310
42CC9915DA5C99599C985B595049028333333333333E3BF0000000000000FB0107901411070040501600405405064090741402480A0340
1001
ACAD
1000
AcDbSavedByObjectVersion
1070
     0
  0
ACAD_PROXY_OBJECT
  5
30
102
{ACAD_REACTORS
330
2A
102
}
330
2A
100
AcDbProxyObject
 90
      499
 91
      501
 93
      436
310
42CCD915DA5C99599C985B595059028333333333333E3BF0000000000000FB0107901411070040501600405405064090741402480A0340
1001
ACAD
1000
AcDbSavedByObjectVersion
1070
     0
  0
ACAD_PROXY_OBJECT
  5
31
102
{ACAD_REACTORS
330
2A
102
}
330
2A
100
AcDbProxyObject
 90
      499
 91
      501
 93
      500
310
424CD108121A5919195B90640502408333333333333E3BF0000000000000FB01079024090700405020000000000001110200405405064090740C02480A0340
1001
ACAD
1000
AcDbSavedByObjectVersion
1070
     0
  0
ACAD_PROXY_OBJECT
  5
32
102
{ACAD_REACTORS
330
2A
102
}
330
2A
100
AcDbProxyObject
 90
      499
 91
      501
 93
      388
310
4150985CDA58D07406404333333333333E3BF0000000000000FB0107A41107004050150841D405064090741402480A0350
1001
ACAD
1000
AcDbSavedByObjectVersion
1070
     0
  0
ACAD_PROXY_OBJECT
  5
36
102
{ACAD_REACTORS
330
2A
102
}
330
2A
100
AcDbProxyObject
 90
      499
 91
      501
 93
      428
310
42109C9A59DA1D195B90C409028333333333333E3BF0000000000000FB010790141107004050150841D405064090741402480A029950
1001
ACAD
1000
AcDbSavedByObjectVersion
1070
     0
  0
ACAD_PROXY_OBJECT
  5
3A
102
{ACAD_REACTORS
330
2A
102
}
330
2A
100
AcDbProxyObject
 90
      499
 91
      501
 93
      452
310
42D0DBDB1BDC90DA185B99D95104090240C333333333333E3BF0000000000000FB0108901411070040501508421405064090741402480A0350
1001
ACAD
1000
AcDbSavedByObjectVersion
1070
     0
  0
ACAD_PROXY_OBJECT
  5
34
102
{ACAD_REACTORS
330
2A
102
}
330
2A
100
AcDbProxyObject
 90
      499
 91
      501
 93
      500
310
4290DBDB98D95C1D1D585B10940D028333333333333E3BF0000000000000FB0107902409070040501000000000000111010841D405064090740C02480A0340
1001
ACAD
1000
AcDbSavedByObjectVersion
1070
     0
  0
ACAD_PROXY_OBJECT
  5
35
102
{ACAD_REACTORS
330
2A
102
}
330
2A
100
AcDbProxyObject
 90
      499
 91
      501
 93
      412
310
40D11A5B50B409028333333333333E3BF0000000000000FB010790141107004050150841D405064090741402480A02677FFFFFD0
1001
ACAD
1000
AcDbSavedByObjectVersion
1070
     0
  0
ACAD_PROXY_OBJECT
  5
39
102
{ACAD_REACTORS
330
2A
102
}
330
2A
100
AcDbProxyObject
 90
      499
 91
      501
 93
      444
310
42D19858D95C185D1D195C9B90F409028333333333333E3BF0000000000000FB010790141107004050150841D405064090741402480A0350
1001
ACAD
1000
AcDbSavedByObjectVersion
1070
     0
  0
ACAD_PROXY_OBJECT
  5
2B
102
{ACAD_REACTORS
330
2A
102
}
330
2A
100
AcDbProxyObject
 90
      499
 91
      501
 93
      388
310
41119B185D240901404333333333333E3BF0000000000000F9010740A41107004050150841D405064090741402480A1B50
1001
ACAD
1000
AcDbSavedByObjectVersion
1070
     0
  0
ACAD_PROXY_OBJECT
  5
2C
102
{ACAD_REACTORS
330
2A
102
}
330
2A
100
AcDbProxyObject
 90
      499
 91
      501
 93
      476
310
43519B185D15DA5D1A115919D95CD0140901404333333333333E3BF0000000000000F9010740901411070040501600405405064090741402480A1B50
1001
ACAD
1000
AcDbSavedByObjectVersion
1070
     0
  0
ACAD_PROXY_OBJECT
  5
2D
102
{ACAD_REACTORS
330
2A
102
}
330
2A
100
AcDbProxyObject
 90
      499
 91
      501
 93
      412
310
41D1DBDD5C985D5910240902404333333333333E3BF0000000000000F9010740A411070040501641D405064090741402480A1B50
1001
ACAD
1000
AcDbSavedByObjectVersion
1070
     0
  0
ACAD_PROXY_OBJECT
  5
2E
102
{ACAD_REACTORS
330
2A
102
}
330
2A
100
AcDbProxyObject
 90
      499
 91
      501
 93
      500
310
4411DBDD5C985D5915DA5D1A115919D95CD0340902404333333333333E3BF0000000000000F9010740901411070040501600405405064090741402480A1B50
1001
ACAD
1000
AcDbSavedByObjectVersion
1070
     0
  0
ACAD_PROXY_OBJECT
  5
38
102
{ACAD_REACTORS
330
2A
102
}
330
2A
100
AcDbProxyObject
 90
      499
 91
      501
 93
      444
310
42D31A5B995C185D1D195C9B90E409028333333333333E3BF0000000000000FB010790141107004050750841D405064090741402483A0350
1001
ACAD
1000
AcDbSavedByObjectVersion
1070
     0
  0
ACAD_PROXY_OBJECT
  5
33
102
{ACAD_REACTORS
330
2A
102
}
330
2A
100
AcDbProxyObject
 90
      499
 91
      501
 93
      420
310
425499585B1A5CDD1A58D08409028333333333333E3BF0000000000000FB01079019070040501508421405064090741402480A1B40
1001
ACAD
1000
AcDbSavedByObjectVersion
1070
     0
  0
ACAD_PROXY_OBJECT
  5
37
102
{ACAD_REACTORS
330
2A
102
}
330
2A
100
AcDbProxyObject
 90
      499
 91
      501
 93
      412
310
41D51A1A58DAD95B90D409028333333333333E3BF0000000000000FB010790141107004050150C41D405064090741402480A0350
1001
ACAD
1000
AcDbSavedByObjectVersion
1070
     0
  0
XRECORD
  5
104
102
{ACAD_REACTORS
330
FB
102
}
330
FB
100
AcDbXrecord
 90
        0
  0
XRECORD
  5
11A
102
{ACAD_REACTORS
330
FB
102
}
330
FB
100
AcDbXrecord
1000
DSTYLE
1002
{
1070
   340
340
11
1002
}
  0
XRECORD
  5
105
102
{ACAD_REACTORS
330
FB
102
}
330
FB
100
AcDbXrecord
  1
{D3EC6E26-2F1E-986C-D857-0CBB4C999624}
  0
XRECORD
  5
FE
102
{ACAD_REACTORS
330
FB
102
}
330
FB
100
AcDbXrecord
  1

  0
XRECORD
  5
103
102
{ACAD_REACTORS
330
FB
102
}
330
FB
100
AcDbXrecord
 90
        1
  0
XRECORD
  5
100
102
{ACAD_REACTORS
330
FB
102
}
330
FB
100
AcDbXrecord
340
1A
  0
XRECORD
  5
102
102
{ACAD_REACTORS
330
FB
102
}
330
FB
100
AcDbXrecord
 90
    10269
  0
XRECORD
  5
101
102
{ACAD_REACTORS
330
FB
102
}
330
FB
100
AcDbXrecord
340
19
  0
XRECORD
  5
107
102
{ACAD_REACTORS
330
FB
102
}
330
FB
100
AcDbXrecord
 40
0.0
  0
XRECORD
  5
10A
102
{ACAD_REACTORS
330
FB
102
}
330
FB
100
AcDbXrecord
340
0
  0
XRECORD
  5
110
102
{ACAD_REACTORS
330
FB
102
}
330
FB
100
AcDbXrecord
 10
0.0
 20
0.0
 30
0.0
  0
XRECORD
  5
10C
102
{ACAD_REACTORS
330
FB
102
}
330
FB
100
AcDbXrecord
 10
0.0
 20
0.0
 30
0.0
  0
XRECORD
  5
10F
102
{ACAD_REACTORS
330
FB
102
}
330
FB
100
AcDbXrecord
 10
0.0
 20
0.0
 30
0.0
  0
XRECORD
  5
10D
102
{ACAD_REACTORS
330
FB
102
}
330
FB
100
AcDbXrecord
 10
0.0
 20
0.0
 30
0.0
  0
XRECORD
  5
10E
102
{ACAD_REACTORS
330
FB
102
}
330
FB
100
AcDbXrecord
 10
0.0
 20
0.0
 30
0.0
  0
XRECORD
  5
10B
102
{ACAD_REACTORS
330
FB
102
}
330
FB
100
AcDbXrecord
 10
0.0
 20
0.0
 30
0.0
  0
XRECORD
  5
108
102
{ACAD_REACTORS
330
FB
102
}
330
FB
100
AcDbXrecord
340
0
  0
XRECORD
  5
109
102
{ACAD_REACTORS
330
FB
102
}
330
FB
100
AcDbXrecord
 70
     0
  0
XRECORD
  5
FF
102
{ACAD_REACTORS
330
FB
102
}
330
FB
100
AcDbXrecord
  1

  0
XRECORD
  5
FC
102
{ACAD_REACTORS
330
FB
102
}
330
FB
100
AcDbXrecord
 90
        1
  0
XRECORD
  5
FD
102
{ACAD_REACTORS
330
FB
102
}
330
FB
100
AcDbXrecord
 90
       70
  0
XRECORD
  5
113
102
{ACAD_REACTORS
330
FB
102
}
330
FB
100
AcDbXrecord
340
0
  0
XRECORD
  5
119
102
{ACAD_REACTORS
330
FB
102
}
330
FB
100
AcDbXrecord
 10
0.0
 20
0.0
 30
0.0
  0
XRECORD
  5
115
102
{ACAD_REACTORS
330
FB
102
}
330
FB
100
AcDbXrecord
 10
0.0
 20
0.0
 30
0.0
  0
XRECORD
  5
118
102
{ACAD_REACTORS
330
FB
102
}
330
FB
100
AcDbXrecord
 10
0.0
 20
0.0
 30
0.0
  0
XRECORD
  5
116
102
{ACAD_REACTORS
330
FB
102
}
330
FB
100
AcDbXrecord
 10
0.0
 20
0.0
 30
0.0
  0
XRECORD
  5
117
102
{ACAD_REACTORS
330
FB
102
}
330
FB
100
AcDbXrecord
 10
0.0
 20
0.0
 30
0.0
  0
XRECORD
  5
114
102
{ACAD_REACTORS
330
FB
102
}
330
FB
100
AcDbXrecord
 10
0.0
 20
0.0
 30
0.0
  0
XRECORD
  5
111
102
{ACAD_REACTORS
330
FB
102
}
330
FB
100
AcDbXrecord
340
0
  0
XRECORD
  5
112
102
{ACAD_REACTORS
330
FB
102
}
330
FB
100
AcDbXrecord
 70
     0
  0
XRECORD
  5
106
102
{ACAD_REACTORS
330
FB
102
}
330
FB
100
AcDbXrecord
  1
{FAEB1C32-E019-11D5-929B-00C0DF256EC4}
  0
DICTIONARYVAR
  5
11E
102
{ACAD_REACTORS
330
11B
102
}
330
11B
100
DictionaryVariables
280
     0
  1
2
  0
DICTIONARYVAR
  5
11F
102
{ACAD_REACTORS
330
11B
102
}
330
11B
100
DictionaryVariables
280
     0
  1
1
  0
DICTIONARY
  5
122
330
3D
100
AcDbDictionary
280
     1
  3
ACAD_XREC_ROUNDTRIP
360
123
  0
DICTIONARY
  5
120
330
3C
100
AcDbDictionary
280
     1
  3
ACAD_XREC_ROUNDTRIP
360
121
  0
DICTIONARY
  5
124
330
3E
100
AcDbDictionary
280
     1
  3
ACAD_XREC_ROUNDTRIP
360
125
  0
XRECORD
  5
123
102
{ACAD_REACTORS
330
122
102
}
330
122
100
AcDbXrecord
102
MATERIAL
148
0.0
149
0.0
149
0.0
 93
        0
 94
      127
282
     0
 72
     1
 77
     1
171
     1
175
     1
179
     1
273
     0
  0
XRECORD
  5
121
102
{ACAD_REACTORS
330
120
102
}
330
120
100
AcDbXrecord
102
MATERIAL
148
0.0
149
0.0
149
0.0
 93
        0
 94
      127
282
     0
 72
     1
 77
     1
171
     1
175
     1
179
     1
273
     0
  0
XRECORD
  5
125
102
{ACAD_REACTORS
330
124
102
}
330
124
100
AcDbXrecord
102
MATERIAL
148
0.0
149
0.0
149
0.0
 93
        0
 94
      127
282
     0
 72
     1
 77
     1
171
     1
175
     1
179
     1
273
     0
  0
ENDSEC
  0
EOF
