G04 EAGLE Gerber RS-274X export*
G75*
%MOMM*%
%FSLAX34Y34*%
%LPD*%
%INSilk bottom*%
%IPPOS*%
%AMOC8*
5,1,8,0,0,1.08239X$1,22.5*%
G01*
%ADD10C,0.000000*%
%ADD11C,0.001000*%
%ADD12C,0.400000*%
%ADD13C,0.200000*%
%ADD14C,0.127000*%
%ADD15R,0.200000X1.400000*%


D10*
X261280Y78740D02*
X261283Y78998D01*
X261293Y79255D01*
X261308Y79512D01*
X261331Y79769D01*
X261359Y80025D01*
X261394Y80281D01*
X261435Y80535D01*
X261482Y80788D01*
X261535Y81041D01*
X261595Y81291D01*
X261660Y81540D01*
X261732Y81788D01*
X261810Y82034D01*
X261894Y82277D01*
X261984Y82519D01*
X262079Y82758D01*
X262181Y82995D01*
X262288Y83229D01*
X262401Y83461D01*
X262520Y83690D01*
X262644Y83915D01*
X262774Y84138D01*
X262909Y84357D01*
X263050Y84573D01*
X263195Y84786D01*
X263346Y84995D01*
X263502Y85200D01*
X263663Y85401D01*
X263829Y85598D01*
X264000Y85791D01*
X264175Y85980D01*
X264355Y86165D01*
X264540Y86345D01*
X264729Y86520D01*
X264922Y86691D01*
X265119Y86857D01*
X265320Y87018D01*
X265525Y87174D01*
X265734Y87325D01*
X265947Y87470D01*
X266163Y87611D01*
X266382Y87746D01*
X266605Y87876D01*
X266830Y88000D01*
X267059Y88119D01*
X267291Y88232D01*
X267525Y88339D01*
X267762Y88441D01*
X268001Y88536D01*
X268243Y88626D01*
X268486Y88710D01*
X268732Y88788D01*
X268980Y88860D01*
X269229Y88925D01*
X269479Y88985D01*
X269732Y89038D01*
X269985Y89085D01*
X270239Y89126D01*
X270495Y89161D01*
X270751Y89189D01*
X271008Y89212D01*
X271265Y89227D01*
X271522Y89237D01*
X271780Y89240D01*
X272038Y89237D01*
X272295Y89227D01*
X272552Y89212D01*
X272809Y89189D01*
X273065Y89161D01*
X273321Y89126D01*
X273575Y89085D01*
X273828Y89038D01*
X274081Y88985D01*
X274331Y88925D01*
X274580Y88860D01*
X274828Y88788D01*
X275074Y88710D01*
X275317Y88626D01*
X275559Y88536D01*
X275798Y88441D01*
X276035Y88339D01*
X276269Y88232D01*
X276501Y88119D01*
X276730Y88000D01*
X276955Y87876D01*
X277178Y87746D01*
X277397Y87611D01*
X277613Y87470D01*
X277826Y87325D01*
X278035Y87174D01*
X278240Y87018D01*
X278441Y86857D01*
X278638Y86691D01*
X278831Y86520D01*
X279020Y86345D01*
X279205Y86165D01*
X279385Y85980D01*
X279560Y85791D01*
X279731Y85598D01*
X279897Y85401D01*
X280058Y85200D01*
X280214Y84995D01*
X280365Y84786D01*
X280510Y84573D01*
X280651Y84357D01*
X280786Y84138D01*
X280916Y83915D01*
X281040Y83690D01*
X281159Y83461D01*
X281272Y83229D01*
X281379Y82995D01*
X281481Y82758D01*
X281576Y82519D01*
X281666Y82277D01*
X281750Y82034D01*
X281828Y81788D01*
X281900Y81540D01*
X281965Y81291D01*
X282025Y81041D01*
X282078Y80788D01*
X282125Y80535D01*
X282166Y80281D01*
X282201Y80025D01*
X282229Y79769D01*
X282252Y79512D01*
X282267Y79255D01*
X282277Y78998D01*
X282280Y78740D01*
X282277Y78482D01*
X282267Y78225D01*
X282252Y77968D01*
X282229Y77711D01*
X282201Y77455D01*
X282166Y77199D01*
X282125Y76945D01*
X282078Y76692D01*
X282025Y76439D01*
X281965Y76189D01*
X281900Y75940D01*
X281828Y75692D01*
X281750Y75446D01*
X281666Y75203D01*
X281576Y74961D01*
X281481Y74722D01*
X281379Y74485D01*
X281272Y74251D01*
X281159Y74019D01*
X281040Y73790D01*
X280916Y73565D01*
X280786Y73342D01*
X280651Y73123D01*
X280510Y72907D01*
X280365Y72694D01*
X280214Y72485D01*
X280058Y72280D01*
X279897Y72079D01*
X279731Y71882D01*
X279560Y71689D01*
X279385Y71500D01*
X279205Y71315D01*
X279020Y71135D01*
X278831Y70960D01*
X278638Y70789D01*
X278441Y70623D01*
X278240Y70462D01*
X278035Y70306D01*
X277826Y70155D01*
X277613Y70010D01*
X277397Y69869D01*
X277178Y69734D01*
X276955Y69604D01*
X276730Y69480D01*
X276501Y69361D01*
X276269Y69248D01*
X276035Y69141D01*
X275798Y69039D01*
X275559Y68944D01*
X275317Y68854D01*
X275074Y68770D01*
X274828Y68692D01*
X274580Y68620D01*
X274331Y68555D01*
X274081Y68495D01*
X273828Y68442D01*
X273575Y68395D01*
X273321Y68354D01*
X273065Y68319D01*
X272809Y68291D01*
X272552Y68268D01*
X272295Y68253D01*
X272038Y68243D01*
X271780Y68240D01*
X271522Y68243D01*
X271265Y68253D01*
X271008Y68268D01*
X270751Y68291D01*
X270495Y68319D01*
X270239Y68354D01*
X269985Y68395D01*
X269732Y68442D01*
X269479Y68495D01*
X269229Y68555D01*
X268980Y68620D01*
X268732Y68692D01*
X268486Y68770D01*
X268243Y68854D01*
X268001Y68944D01*
X267762Y69039D01*
X267525Y69141D01*
X267291Y69248D01*
X267059Y69361D01*
X266830Y69480D01*
X266605Y69604D01*
X266382Y69734D01*
X266163Y69869D01*
X265947Y70010D01*
X265734Y70155D01*
X265525Y70306D01*
X265320Y70462D01*
X265119Y70623D01*
X264922Y70789D01*
X264729Y70960D01*
X264540Y71135D01*
X264355Y71315D01*
X264175Y71500D01*
X264000Y71689D01*
X263829Y71882D01*
X263663Y72079D01*
X263502Y72280D01*
X263346Y72485D01*
X263195Y72694D01*
X263050Y72907D01*
X262909Y73123D01*
X262774Y73342D01*
X262644Y73565D01*
X262520Y73790D01*
X262401Y74019D01*
X262288Y74251D01*
X262181Y74485D01*
X262079Y74722D01*
X261984Y74961D01*
X261894Y75203D01*
X261810Y75446D01*
X261732Y75692D01*
X261660Y75940D01*
X261595Y76189D01*
X261535Y76439D01*
X261482Y76692D01*
X261435Y76945D01*
X261394Y77199D01*
X261359Y77455D01*
X261331Y77711D01*
X261308Y77968D01*
X261293Y78225D01*
X261283Y78482D01*
X261280Y78740D01*
X353990Y39370D02*
X353993Y39628D01*
X354003Y39885D01*
X354018Y40142D01*
X354041Y40399D01*
X354069Y40655D01*
X354104Y40911D01*
X354145Y41165D01*
X354192Y41418D01*
X354245Y41671D01*
X354305Y41921D01*
X354370Y42170D01*
X354442Y42418D01*
X354520Y42664D01*
X354604Y42907D01*
X354694Y43149D01*
X354789Y43388D01*
X354891Y43625D01*
X354998Y43859D01*
X355111Y44091D01*
X355230Y44320D01*
X355354Y44545D01*
X355484Y44768D01*
X355619Y44987D01*
X355760Y45203D01*
X355905Y45416D01*
X356056Y45625D01*
X356212Y45830D01*
X356373Y46031D01*
X356539Y46228D01*
X356710Y46421D01*
X356885Y46610D01*
X357065Y46795D01*
X357250Y46975D01*
X357439Y47150D01*
X357632Y47321D01*
X357829Y47487D01*
X358030Y47648D01*
X358235Y47804D01*
X358444Y47955D01*
X358657Y48100D01*
X358873Y48241D01*
X359092Y48376D01*
X359315Y48506D01*
X359540Y48630D01*
X359769Y48749D01*
X360001Y48862D01*
X360235Y48969D01*
X360472Y49071D01*
X360711Y49166D01*
X360953Y49256D01*
X361196Y49340D01*
X361442Y49418D01*
X361690Y49490D01*
X361939Y49555D01*
X362189Y49615D01*
X362442Y49668D01*
X362695Y49715D01*
X362949Y49756D01*
X363205Y49791D01*
X363461Y49819D01*
X363718Y49842D01*
X363975Y49857D01*
X364232Y49867D01*
X364490Y49870D01*
X364748Y49867D01*
X365005Y49857D01*
X365262Y49842D01*
X365519Y49819D01*
X365775Y49791D01*
X366031Y49756D01*
X366285Y49715D01*
X366538Y49668D01*
X366791Y49615D01*
X367041Y49555D01*
X367290Y49490D01*
X367538Y49418D01*
X367784Y49340D01*
X368027Y49256D01*
X368269Y49166D01*
X368508Y49071D01*
X368745Y48969D01*
X368979Y48862D01*
X369211Y48749D01*
X369440Y48630D01*
X369665Y48506D01*
X369888Y48376D01*
X370107Y48241D01*
X370323Y48100D01*
X370536Y47955D01*
X370745Y47804D01*
X370950Y47648D01*
X371151Y47487D01*
X371348Y47321D01*
X371541Y47150D01*
X371730Y46975D01*
X371915Y46795D01*
X372095Y46610D01*
X372270Y46421D01*
X372441Y46228D01*
X372607Y46031D01*
X372768Y45830D01*
X372924Y45625D01*
X373075Y45416D01*
X373220Y45203D01*
X373361Y44987D01*
X373496Y44768D01*
X373626Y44545D01*
X373750Y44320D01*
X373869Y44091D01*
X373982Y43859D01*
X374089Y43625D01*
X374191Y43388D01*
X374286Y43149D01*
X374376Y42907D01*
X374460Y42664D01*
X374538Y42418D01*
X374610Y42170D01*
X374675Y41921D01*
X374735Y41671D01*
X374788Y41418D01*
X374835Y41165D01*
X374876Y40911D01*
X374911Y40655D01*
X374939Y40399D01*
X374962Y40142D01*
X374977Y39885D01*
X374987Y39628D01*
X374990Y39370D01*
X374987Y39112D01*
X374977Y38855D01*
X374962Y38598D01*
X374939Y38341D01*
X374911Y38085D01*
X374876Y37829D01*
X374835Y37575D01*
X374788Y37322D01*
X374735Y37069D01*
X374675Y36819D01*
X374610Y36570D01*
X374538Y36322D01*
X374460Y36076D01*
X374376Y35833D01*
X374286Y35591D01*
X374191Y35352D01*
X374089Y35115D01*
X373982Y34881D01*
X373869Y34649D01*
X373750Y34420D01*
X373626Y34195D01*
X373496Y33972D01*
X373361Y33753D01*
X373220Y33537D01*
X373075Y33324D01*
X372924Y33115D01*
X372768Y32910D01*
X372607Y32709D01*
X372441Y32512D01*
X372270Y32319D01*
X372095Y32130D01*
X371915Y31945D01*
X371730Y31765D01*
X371541Y31590D01*
X371348Y31419D01*
X371151Y31253D01*
X370950Y31092D01*
X370745Y30936D01*
X370536Y30785D01*
X370323Y30640D01*
X370107Y30499D01*
X369888Y30364D01*
X369665Y30234D01*
X369440Y30110D01*
X369211Y29991D01*
X368979Y29878D01*
X368745Y29771D01*
X368508Y29669D01*
X368269Y29574D01*
X368027Y29484D01*
X367784Y29400D01*
X367538Y29322D01*
X367290Y29250D01*
X367041Y29185D01*
X366791Y29125D01*
X366538Y29072D01*
X366285Y29025D01*
X366031Y28984D01*
X365775Y28949D01*
X365519Y28921D01*
X365262Y28898D01*
X365005Y28883D01*
X364748Y28873D01*
X364490Y28870D01*
X364232Y28873D01*
X363975Y28883D01*
X363718Y28898D01*
X363461Y28921D01*
X363205Y28949D01*
X362949Y28984D01*
X362695Y29025D01*
X362442Y29072D01*
X362189Y29125D01*
X361939Y29185D01*
X361690Y29250D01*
X361442Y29322D01*
X361196Y29400D01*
X360953Y29484D01*
X360711Y29574D01*
X360472Y29669D01*
X360235Y29771D01*
X360001Y29878D01*
X359769Y29991D01*
X359540Y30110D01*
X359315Y30234D01*
X359092Y30364D01*
X358873Y30499D01*
X358657Y30640D01*
X358444Y30785D01*
X358235Y30936D01*
X358030Y31092D01*
X357829Y31253D01*
X357632Y31419D01*
X357439Y31590D01*
X357250Y31765D01*
X357065Y31945D01*
X356885Y32130D01*
X356710Y32319D01*
X356539Y32512D01*
X356373Y32709D01*
X356212Y32910D01*
X356056Y33115D01*
X355905Y33324D01*
X355760Y33537D01*
X355619Y33753D01*
X355484Y33972D01*
X355354Y34195D01*
X355230Y34420D01*
X355111Y34649D01*
X354998Y34881D01*
X354891Y35115D01*
X354789Y35352D01*
X354694Y35591D01*
X354604Y35833D01*
X354520Y36076D01*
X354442Y36322D01*
X354370Y36570D01*
X354305Y36819D01*
X354245Y37069D01*
X354192Y37322D01*
X354145Y37575D01*
X354104Y37829D01*
X354069Y38085D01*
X354041Y38341D01*
X354018Y38598D01*
X354003Y38855D01*
X353993Y39112D01*
X353990Y39370D01*
X1052490Y24130D02*
X1052493Y24388D01*
X1052503Y24645D01*
X1052518Y24902D01*
X1052541Y25159D01*
X1052569Y25415D01*
X1052604Y25671D01*
X1052645Y25925D01*
X1052692Y26178D01*
X1052745Y26431D01*
X1052805Y26681D01*
X1052870Y26930D01*
X1052942Y27178D01*
X1053020Y27424D01*
X1053104Y27667D01*
X1053194Y27909D01*
X1053289Y28148D01*
X1053391Y28385D01*
X1053498Y28619D01*
X1053611Y28851D01*
X1053730Y29080D01*
X1053854Y29305D01*
X1053984Y29528D01*
X1054119Y29747D01*
X1054260Y29963D01*
X1054405Y30176D01*
X1054556Y30385D01*
X1054712Y30590D01*
X1054873Y30791D01*
X1055039Y30988D01*
X1055210Y31181D01*
X1055385Y31370D01*
X1055565Y31555D01*
X1055750Y31735D01*
X1055939Y31910D01*
X1056132Y32081D01*
X1056329Y32247D01*
X1056530Y32408D01*
X1056735Y32564D01*
X1056944Y32715D01*
X1057157Y32860D01*
X1057373Y33001D01*
X1057592Y33136D01*
X1057815Y33266D01*
X1058040Y33390D01*
X1058269Y33509D01*
X1058501Y33622D01*
X1058735Y33729D01*
X1058972Y33831D01*
X1059211Y33926D01*
X1059453Y34016D01*
X1059696Y34100D01*
X1059942Y34178D01*
X1060190Y34250D01*
X1060439Y34315D01*
X1060689Y34375D01*
X1060942Y34428D01*
X1061195Y34475D01*
X1061449Y34516D01*
X1061705Y34551D01*
X1061961Y34579D01*
X1062218Y34602D01*
X1062475Y34617D01*
X1062732Y34627D01*
X1062990Y34630D01*
X1063248Y34627D01*
X1063505Y34617D01*
X1063762Y34602D01*
X1064019Y34579D01*
X1064275Y34551D01*
X1064531Y34516D01*
X1064785Y34475D01*
X1065038Y34428D01*
X1065291Y34375D01*
X1065541Y34315D01*
X1065790Y34250D01*
X1066038Y34178D01*
X1066284Y34100D01*
X1066527Y34016D01*
X1066769Y33926D01*
X1067008Y33831D01*
X1067245Y33729D01*
X1067479Y33622D01*
X1067711Y33509D01*
X1067940Y33390D01*
X1068165Y33266D01*
X1068388Y33136D01*
X1068607Y33001D01*
X1068823Y32860D01*
X1069036Y32715D01*
X1069245Y32564D01*
X1069450Y32408D01*
X1069651Y32247D01*
X1069848Y32081D01*
X1070041Y31910D01*
X1070230Y31735D01*
X1070415Y31555D01*
X1070595Y31370D01*
X1070770Y31181D01*
X1070941Y30988D01*
X1071107Y30791D01*
X1071268Y30590D01*
X1071424Y30385D01*
X1071575Y30176D01*
X1071720Y29963D01*
X1071861Y29747D01*
X1071996Y29528D01*
X1072126Y29305D01*
X1072250Y29080D01*
X1072369Y28851D01*
X1072482Y28619D01*
X1072589Y28385D01*
X1072691Y28148D01*
X1072786Y27909D01*
X1072876Y27667D01*
X1072960Y27424D01*
X1073038Y27178D01*
X1073110Y26930D01*
X1073175Y26681D01*
X1073235Y26431D01*
X1073288Y26178D01*
X1073335Y25925D01*
X1073376Y25671D01*
X1073411Y25415D01*
X1073439Y25159D01*
X1073462Y24902D01*
X1073477Y24645D01*
X1073487Y24388D01*
X1073490Y24130D01*
X1073487Y23872D01*
X1073477Y23615D01*
X1073462Y23358D01*
X1073439Y23101D01*
X1073411Y22845D01*
X1073376Y22589D01*
X1073335Y22335D01*
X1073288Y22082D01*
X1073235Y21829D01*
X1073175Y21579D01*
X1073110Y21330D01*
X1073038Y21082D01*
X1072960Y20836D01*
X1072876Y20593D01*
X1072786Y20351D01*
X1072691Y20112D01*
X1072589Y19875D01*
X1072482Y19641D01*
X1072369Y19409D01*
X1072250Y19180D01*
X1072126Y18955D01*
X1071996Y18732D01*
X1071861Y18513D01*
X1071720Y18297D01*
X1071575Y18084D01*
X1071424Y17875D01*
X1071268Y17670D01*
X1071107Y17469D01*
X1070941Y17272D01*
X1070770Y17079D01*
X1070595Y16890D01*
X1070415Y16705D01*
X1070230Y16525D01*
X1070041Y16350D01*
X1069848Y16179D01*
X1069651Y16013D01*
X1069450Y15852D01*
X1069245Y15696D01*
X1069036Y15545D01*
X1068823Y15400D01*
X1068607Y15259D01*
X1068388Y15124D01*
X1068165Y14994D01*
X1067940Y14870D01*
X1067711Y14751D01*
X1067479Y14638D01*
X1067245Y14531D01*
X1067008Y14429D01*
X1066769Y14334D01*
X1066527Y14244D01*
X1066284Y14160D01*
X1066038Y14082D01*
X1065790Y14010D01*
X1065541Y13945D01*
X1065291Y13885D01*
X1065038Y13832D01*
X1064785Y13785D01*
X1064531Y13744D01*
X1064275Y13709D01*
X1064019Y13681D01*
X1063762Y13658D01*
X1063505Y13643D01*
X1063248Y13633D01*
X1062990Y13630D01*
X1062732Y13633D01*
X1062475Y13643D01*
X1062218Y13658D01*
X1061961Y13681D01*
X1061705Y13709D01*
X1061449Y13744D01*
X1061195Y13785D01*
X1060942Y13832D01*
X1060689Y13885D01*
X1060439Y13945D01*
X1060190Y14010D01*
X1059942Y14082D01*
X1059696Y14160D01*
X1059453Y14244D01*
X1059211Y14334D01*
X1058972Y14429D01*
X1058735Y14531D01*
X1058501Y14638D01*
X1058269Y14751D01*
X1058040Y14870D01*
X1057815Y14994D01*
X1057592Y15124D01*
X1057373Y15259D01*
X1057157Y15400D01*
X1056944Y15545D01*
X1056735Y15696D01*
X1056530Y15852D01*
X1056329Y16013D01*
X1056132Y16179D01*
X1055939Y16350D01*
X1055750Y16525D01*
X1055565Y16705D01*
X1055385Y16890D01*
X1055210Y17079D01*
X1055039Y17272D01*
X1054873Y17469D01*
X1054712Y17670D01*
X1054556Y17875D01*
X1054405Y18084D01*
X1054260Y18297D01*
X1054119Y18513D01*
X1053984Y18732D01*
X1053854Y18955D01*
X1053730Y19180D01*
X1053611Y19409D01*
X1053498Y19641D01*
X1053391Y19875D01*
X1053289Y20112D01*
X1053194Y20351D01*
X1053104Y20593D01*
X1053020Y20836D01*
X1052942Y21082D01*
X1052870Y21330D01*
X1052805Y21579D01*
X1052745Y21829D01*
X1052692Y22082D01*
X1052645Y22335D01*
X1052604Y22589D01*
X1052569Y22845D01*
X1052541Y23101D01*
X1052518Y23358D01*
X1052503Y23615D01*
X1052493Y23872D01*
X1052490Y24130D01*
X436540Y546100D02*
X436543Y546358D01*
X436553Y546615D01*
X436568Y546872D01*
X436591Y547129D01*
X436619Y547385D01*
X436654Y547641D01*
X436695Y547895D01*
X436742Y548148D01*
X436795Y548401D01*
X436855Y548651D01*
X436920Y548900D01*
X436992Y549148D01*
X437070Y549394D01*
X437154Y549637D01*
X437244Y549879D01*
X437339Y550118D01*
X437441Y550355D01*
X437548Y550589D01*
X437661Y550821D01*
X437780Y551050D01*
X437904Y551275D01*
X438034Y551498D01*
X438169Y551717D01*
X438310Y551933D01*
X438455Y552146D01*
X438606Y552355D01*
X438762Y552560D01*
X438923Y552761D01*
X439089Y552958D01*
X439260Y553151D01*
X439435Y553340D01*
X439615Y553525D01*
X439800Y553705D01*
X439989Y553880D01*
X440182Y554051D01*
X440379Y554217D01*
X440580Y554378D01*
X440785Y554534D01*
X440994Y554685D01*
X441207Y554830D01*
X441423Y554971D01*
X441642Y555106D01*
X441865Y555236D01*
X442090Y555360D01*
X442319Y555479D01*
X442551Y555592D01*
X442785Y555699D01*
X443022Y555801D01*
X443261Y555896D01*
X443503Y555986D01*
X443746Y556070D01*
X443992Y556148D01*
X444240Y556220D01*
X444489Y556285D01*
X444739Y556345D01*
X444992Y556398D01*
X445245Y556445D01*
X445499Y556486D01*
X445755Y556521D01*
X446011Y556549D01*
X446268Y556572D01*
X446525Y556587D01*
X446782Y556597D01*
X447040Y556600D01*
X447298Y556597D01*
X447555Y556587D01*
X447812Y556572D01*
X448069Y556549D01*
X448325Y556521D01*
X448581Y556486D01*
X448835Y556445D01*
X449088Y556398D01*
X449341Y556345D01*
X449591Y556285D01*
X449840Y556220D01*
X450088Y556148D01*
X450334Y556070D01*
X450577Y555986D01*
X450819Y555896D01*
X451058Y555801D01*
X451295Y555699D01*
X451529Y555592D01*
X451761Y555479D01*
X451990Y555360D01*
X452215Y555236D01*
X452438Y555106D01*
X452657Y554971D01*
X452873Y554830D01*
X453086Y554685D01*
X453295Y554534D01*
X453500Y554378D01*
X453701Y554217D01*
X453898Y554051D01*
X454091Y553880D01*
X454280Y553705D01*
X454465Y553525D01*
X454645Y553340D01*
X454820Y553151D01*
X454991Y552958D01*
X455157Y552761D01*
X455318Y552560D01*
X455474Y552355D01*
X455625Y552146D01*
X455770Y551933D01*
X455911Y551717D01*
X456046Y551498D01*
X456176Y551275D01*
X456300Y551050D01*
X456419Y550821D01*
X456532Y550589D01*
X456639Y550355D01*
X456741Y550118D01*
X456836Y549879D01*
X456926Y549637D01*
X457010Y549394D01*
X457088Y549148D01*
X457160Y548900D01*
X457225Y548651D01*
X457285Y548401D01*
X457338Y548148D01*
X457385Y547895D01*
X457426Y547641D01*
X457461Y547385D01*
X457489Y547129D01*
X457512Y546872D01*
X457527Y546615D01*
X457537Y546358D01*
X457540Y546100D01*
X457537Y545842D01*
X457527Y545585D01*
X457512Y545328D01*
X457489Y545071D01*
X457461Y544815D01*
X457426Y544559D01*
X457385Y544305D01*
X457338Y544052D01*
X457285Y543799D01*
X457225Y543549D01*
X457160Y543300D01*
X457088Y543052D01*
X457010Y542806D01*
X456926Y542563D01*
X456836Y542321D01*
X456741Y542082D01*
X456639Y541845D01*
X456532Y541611D01*
X456419Y541379D01*
X456300Y541150D01*
X456176Y540925D01*
X456046Y540702D01*
X455911Y540483D01*
X455770Y540267D01*
X455625Y540054D01*
X455474Y539845D01*
X455318Y539640D01*
X455157Y539439D01*
X454991Y539242D01*
X454820Y539049D01*
X454645Y538860D01*
X454465Y538675D01*
X454280Y538495D01*
X454091Y538320D01*
X453898Y538149D01*
X453701Y537983D01*
X453500Y537822D01*
X453295Y537666D01*
X453086Y537515D01*
X452873Y537370D01*
X452657Y537229D01*
X452438Y537094D01*
X452215Y536964D01*
X451990Y536840D01*
X451761Y536721D01*
X451529Y536608D01*
X451295Y536501D01*
X451058Y536399D01*
X450819Y536304D01*
X450577Y536214D01*
X450334Y536130D01*
X450088Y536052D01*
X449840Y535980D01*
X449591Y535915D01*
X449341Y535855D01*
X449088Y535802D01*
X448835Y535755D01*
X448581Y535714D01*
X448325Y535679D01*
X448069Y535651D01*
X447812Y535628D01*
X447555Y535613D01*
X447298Y535603D01*
X447040Y535600D01*
X446782Y535603D01*
X446525Y535613D01*
X446268Y535628D01*
X446011Y535651D01*
X445755Y535679D01*
X445499Y535714D01*
X445245Y535755D01*
X444992Y535802D01*
X444739Y535855D01*
X444489Y535915D01*
X444240Y535980D01*
X443992Y536052D01*
X443746Y536130D01*
X443503Y536214D01*
X443261Y536304D01*
X443022Y536399D01*
X442785Y536501D01*
X442551Y536608D01*
X442319Y536721D01*
X442090Y536840D01*
X441865Y536964D01*
X441642Y537094D01*
X441423Y537229D01*
X441207Y537370D01*
X440994Y537515D01*
X440785Y537666D01*
X440580Y537822D01*
X440379Y537983D01*
X440182Y538149D01*
X439989Y538320D01*
X439800Y538495D01*
X439615Y538675D01*
X439435Y538860D01*
X439260Y539049D01*
X439089Y539242D01*
X438923Y539439D01*
X438762Y539640D01*
X438606Y539845D01*
X438455Y540054D01*
X438310Y540267D01*
X438169Y540483D01*
X438034Y540702D01*
X437904Y540925D01*
X437780Y541150D01*
X437661Y541379D01*
X437548Y541611D01*
X437441Y541845D01*
X437339Y542082D01*
X437244Y542321D01*
X437154Y542563D01*
X437070Y542806D01*
X436992Y543052D01*
X436920Y543300D01*
X436855Y543549D01*
X436795Y543799D01*
X436742Y544052D01*
X436695Y544305D01*
X436654Y544559D01*
X436619Y544815D01*
X436591Y545071D01*
X436568Y545328D01*
X436553Y545585D01*
X436543Y545842D01*
X436540Y546100D01*
X590210Y523240D02*
X590213Y523498D01*
X590223Y523755D01*
X590238Y524012D01*
X590261Y524269D01*
X590289Y524525D01*
X590324Y524781D01*
X590365Y525035D01*
X590412Y525288D01*
X590465Y525541D01*
X590525Y525791D01*
X590590Y526040D01*
X590662Y526288D01*
X590740Y526534D01*
X590824Y526777D01*
X590914Y527019D01*
X591009Y527258D01*
X591111Y527495D01*
X591218Y527729D01*
X591331Y527961D01*
X591450Y528190D01*
X591574Y528415D01*
X591704Y528638D01*
X591839Y528857D01*
X591980Y529073D01*
X592125Y529286D01*
X592276Y529495D01*
X592432Y529700D01*
X592593Y529901D01*
X592759Y530098D01*
X592930Y530291D01*
X593105Y530480D01*
X593285Y530665D01*
X593470Y530845D01*
X593659Y531020D01*
X593852Y531191D01*
X594049Y531357D01*
X594250Y531518D01*
X594455Y531674D01*
X594664Y531825D01*
X594877Y531970D01*
X595093Y532111D01*
X595312Y532246D01*
X595535Y532376D01*
X595760Y532500D01*
X595989Y532619D01*
X596221Y532732D01*
X596455Y532839D01*
X596692Y532941D01*
X596931Y533036D01*
X597173Y533126D01*
X597416Y533210D01*
X597662Y533288D01*
X597910Y533360D01*
X598159Y533425D01*
X598409Y533485D01*
X598662Y533538D01*
X598915Y533585D01*
X599169Y533626D01*
X599425Y533661D01*
X599681Y533689D01*
X599938Y533712D01*
X600195Y533727D01*
X600452Y533737D01*
X600710Y533740D01*
X600968Y533737D01*
X601225Y533727D01*
X601482Y533712D01*
X601739Y533689D01*
X601995Y533661D01*
X602251Y533626D01*
X602505Y533585D01*
X602758Y533538D01*
X603011Y533485D01*
X603261Y533425D01*
X603510Y533360D01*
X603758Y533288D01*
X604004Y533210D01*
X604247Y533126D01*
X604489Y533036D01*
X604728Y532941D01*
X604965Y532839D01*
X605199Y532732D01*
X605431Y532619D01*
X605660Y532500D01*
X605885Y532376D01*
X606108Y532246D01*
X606327Y532111D01*
X606543Y531970D01*
X606756Y531825D01*
X606965Y531674D01*
X607170Y531518D01*
X607371Y531357D01*
X607568Y531191D01*
X607761Y531020D01*
X607950Y530845D01*
X608135Y530665D01*
X608315Y530480D01*
X608490Y530291D01*
X608661Y530098D01*
X608827Y529901D01*
X608988Y529700D01*
X609144Y529495D01*
X609295Y529286D01*
X609440Y529073D01*
X609581Y528857D01*
X609716Y528638D01*
X609846Y528415D01*
X609970Y528190D01*
X610089Y527961D01*
X610202Y527729D01*
X610309Y527495D01*
X610411Y527258D01*
X610506Y527019D01*
X610596Y526777D01*
X610680Y526534D01*
X610758Y526288D01*
X610830Y526040D01*
X610895Y525791D01*
X610955Y525541D01*
X611008Y525288D01*
X611055Y525035D01*
X611096Y524781D01*
X611131Y524525D01*
X611159Y524269D01*
X611182Y524012D01*
X611197Y523755D01*
X611207Y523498D01*
X611210Y523240D01*
X611207Y522982D01*
X611197Y522725D01*
X611182Y522468D01*
X611159Y522211D01*
X611131Y521955D01*
X611096Y521699D01*
X611055Y521445D01*
X611008Y521192D01*
X610955Y520939D01*
X610895Y520689D01*
X610830Y520440D01*
X610758Y520192D01*
X610680Y519946D01*
X610596Y519703D01*
X610506Y519461D01*
X610411Y519222D01*
X610309Y518985D01*
X610202Y518751D01*
X610089Y518519D01*
X609970Y518290D01*
X609846Y518065D01*
X609716Y517842D01*
X609581Y517623D01*
X609440Y517407D01*
X609295Y517194D01*
X609144Y516985D01*
X608988Y516780D01*
X608827Y516579D01*
X608661Y516382D01*
X608490Y516189D01*
X608315Y516000D01*
X608135Y515815D01*
X607950Y515635D01*
X607761Y515460D01*
X607568Y515289D01*
X607371Y515123D01*
X607170Y514962D01*
X606965Y514806D01*
X606756Y514655D01*
X606543Y514510D01*
X606327Y514369D01*
X606108Y514234D01*
X605885Y514104D01*
X605660Y513980D01*
X605431Y513861D01*
X605199Y513748D01*
X604965Y513641D01*
X604728Y513539D01*
X604489Y513444D01*
X604247Y513354D01*
X604004Y513270D01*
X603758Y513192D01*
X603510Y513120D01*
X603261Y513055D01*
X603011Y512995D01*
X602758Y512942D01*
X602505Y512895D01*
X602251Y512854D01*
X601995Y512819D01*
X601739Y512791D01*
X601482Y512768D01*
X601225Y512753D01*
X600968Y512743D01*
X600710Y512740D01*
X600452Y512743D01*
X600195Y512753D01*
X599938Y512768D01*
X599681Y512791D01*
X599425Y512819D01*
X599169Y512854D01*
X598915Y512895D01*
X598662Y512942D01*
X598409Y512995D01*
X598159Y513055D01*
X597910Y513120D01*
X597662Y513192D01*
X597416Y513270D01*
X597173Y513354D01*
X596931Y513444D01*
X596692Y513539D01*
X596455Y513641D01*
X596221Y513748D01*
X595989Y513861D01*
X595760Y513980D01*
X595535Y514104D01*
X595312Y514234D01*
X595093Y514369D01*
X594877Y514510D01*
X594664Y514655D01*
X594455Y514806D01*
X594250Y514962D01*
X594049Y515123D01*
X593852Y515289D01*
X593659Y515460D01*
X593470Y515635D01*
X593285Y515815D01*
X593105Y516000D01*
X592930Y516189D01*
X592759Y516382D01*
X592593Y516579D01*
X592432Y516780D01*
X592276Y516985D01*
X592125Y517194D01*
X591980Y517407D01*
X591839Y517623D01*
X591704Y517842D01*
X591574Y518065D01*
X591450Y518290D01*
X591331Y518519D01*
X591218Y518751D01*
X591111Y518985D01*
X591009Y519222D01*
X590914Y519461D01*
X590824Y519703D01*
X590740Y519946D01*
X590662Y520192D01*
X590590Y520440D01*
X590525Y520689D01*
X590465Y520939D01*
X590412Y521192D01*
X590365Y521445D01*
X590324Y521699D01*
X590289Y521955D01*
X590261Y522211D01*
X590238Y522468D01*
X590223Y522725D01*
X590213Y522982D01*
X590210Y523240D01*
X285410Y513080D02*
X285413Y513338D01*
X285423Y513595D01*
X285438Y513852D01*
X285461Y514109D01*
X285489Y514365D01*
X285524Y514621D01*
X285565Y514875D01*
X285612Y515128D01*
X285665Y515381D01*
X285725Y515631D01*
X285790Y515880D01*
X285862Y516128D01*
X285940Y516374D01*
X286024Y516617D01*
X286114Y516859D01*
X286209Y517098D01*
X286311Y517335D01*
X286418Y517569D01*
X286531Y517801D01*
X286650Y518030D01*
X286774Y518255D01*
X286904Y518478D01*
X287039Y518697D01*
X287180Y518913D01*
X287325Y519126D01*
X287476Y519335D01*
X287632Y519540D01*
X287793Y519741D01*
X287959Y519938D01*
X288130Y520131D01*
X288305Y520320D01*
X288485Y520505D01*
X288670Y520685D01*
X288859Y520860D01*
X289052Y521031D01*
X289249Y521197D01*
X289450Y521358D01*
X289655Y521514D01*
X289864Y521665D01*
X290077Y521810D01*
X290293Y521951D01*
X290512Y522086D01*
X290735Y522216D01*
X290960Y522340D01*
X291189Y522459D01*
X291421Y522572D01*
X291655Y522679D01*
X291892Y522781D01*
X292131Y522876D01*
X292373Y522966D01*
X292616Y523050D01*
X292862Y523128D01*
X293110Y523200D01*
X293359Y523265D01*
X293609Y523325D01*
X293862Y523378D01*
X294115Y523425D01*
X294369Y523466D01*
X294625Y523501D01*
X294881Y523529D01*
X295138Y523552D01*
X295395Y523567D01*
X295652Y523577D01*
X295910Y523580D01*
X296168Y523577D01*
X296425Y523567D01*
X296682Y523552D01*
X296939Y523529D01*
X297195Y523501D01*
X297451Y523466D01*
X297705Y523425D01*
X297958Y523378D01*
X298211Y523325D01*
X298461Y523265D01*
X298710Y523200D01*
X298958Y523128D01*
X299204Y523050D01*
X299447Y522966D01*
X299689Y522876D01*
X299928Y522781D01*
X300165Y522679D01*
X300399Y522572D01*
X300631Y522459D01*
X300860Y522340D01*
X301085Y522216D01*
X301308Y522086D01*
X301527Y521951D01*
X301743Y521810D01*
X301956Y521665D01*
X302165Y521514D01*
X302370Y521358D01*
X302571Y521197D01*
X302768Y521031D01*
X302961Y520860D01*
X303150Y520685D01*
X303335Y520505D01*
X303515Y520320D01*
X303690Y520131D01*
X303861Y519938D01*
X304027Y519741D01*
X304188Y519540D01*
X304344Y519335D01*
X304495Y519126D01*
X304640Y518913D01*
X304781Y518697D01*
X304916Y518478D01*
X305046Y518255D01*
X305170Y518030D01*
X305289Y517801D01*
X305402Y517569D01*
X305509Y517335D01*
X305611Y517098D01*
X305706Y516859D01*
X305796Y516617D01*
X305880Y516374D01*
X305958Y516128D01*
X306030Y515880D01*
X306095Y515631D01*
X306155Y515381D01*
X306208Y515128D01*
X306255Y514875D01*
X306296Y514621D01*
X306331Y514365D01*
X306359Y514109D01*
X306382Y513852D01*
X306397Y513595D01*
X306407Y513338D01*
X306410Y513080D01*
X306407Y512822D01*
X306397Y512565D01*
X306382Y512308D01*
X306359Y512051D01*
X306331Y511795D01*
X306296Y511539D01*
X306255Y511285D01*
X306208Y511032D01*
X306155Y510779D01*
X306095Y510529D01*
X306030Y510280D01*
X305958Y510032D01*
X305880Y509786D01*
X305796Y509543D01*
X305706Y509301D01*
X305611Y509062D01*
X305509Y508825D01*
X305402Y508591D01*
X305289Y508359D01*
X305170Y508130D01*
X305046Y507905D01*
X304916Y507682D01*
X304781Y507463D01*
X304640Y507247D01*
X304495Y507034D01*
X304344Y506825D01*
X304188Y506620D01*
X304027Y506419D01*
X303861Y506222D01*
X303690Y506029D01*
X303515Y505840D01*
X303335Y505655D01*
X303150Y505475D01*
X302961Y505300D01*
X302768Y505129D01*
X302571Y504963D01*
X302370Y504802D01*
X302165Y504646D01*
X301956Y504495D01*
X301743Y504350D01*
X301527Y504209D01*
X301308Y504074D01*
X301085Y503944D01*
X300860Y503820D01*
X300631Y503701D01*
X300399Y503588D01*
X300165Y503481D01*
X299928Y503379D01*
X299689Y503284D01*
X299447Y503194D01*
X299204Y503110D01*
X298958Y503032D01*
X298710Y502960D01*
X298461Y502895D01*
X298211Y502835D01*
X297958Y502782D01*
X297705Y502735D01*
X297451Y502694D01*
X297195Y502659D01*
X296939Y502631D01*
X296682Y502608D01*
X296425Y502593D01*
X296168Y502583D01*
X295910Y502580D01*
X295652Y502583D01*
X295395Y502593D01*
X295138Y502608D01*
X294881Y502631D01*
X294625Y502659D01*
X294369Y502694D01*
X294115Y502735D01*
X293862Y502782D01*
X293609Y502835D01*
X293359Y502895D01*
X293110Y502960D01*
X292862Y503032D01*
X292616Y503110D01*
X292373Y503194D01*
X292131Y503284D01*
X291892Y503379D01*
X291655Y503481D01*
X291421Y503588D01*
X291189Y503701D01*
X290960Y503820D01*
X290735Y503944D01*
X290512Y504074D01*
X290293Y504209D01*
X290077Y504350D01*
X289864Y504495D01*
X289655Y504646D01*
X289450Y504802D01*
X289249Y504963D01*
X289052Y505129D01*
X288859Y505300D01*
X288670Y505475D01*
X288485Y505655D01*
X288305Y505840D01*
X288130Y506029D01*
X287959Y506222D01*
X287793Y506419D01*
X287632Y506620D01*
X287476Y506825D01*
X287325Y507034D01*
X287180Y507247D01*
X287039Y507463D01*
X286904Y507682D01*
X286774Y507905D01*
X286650Y508130D01*
X286531Y508359D01*
X286418Y508591D01*
X286311Y508825D01*
X286209Y509062D01*
X286114Y509301D01*
X286024Y509543D01*
X285940Y509786D01*
X285862Y510032D01*
X285790Y510280D01*
X285725Y510529D01*
X285665Y510779D01*
X285612Y511032D01*
X285565Y511285D01*
X285524Y511539D01*
X285489Y511795D01*
X285461Y512051D01*
X285438Y512308D01*
X285423Y512565D01*
X285413Y512822D01*
X285410Y513080D01*
D11*
X1378602Y449418D02*
X1379897Y446385D01*
X1378602Y449418D02*
X1377374Y452488D01*
X1376058Y455515D01*
X1374497Y458419D01*
X1373346Y460061D01*
X1372055Y461565D01*
X1370668Y462987D01*
X1369233Y464384D01*
X1366046Y467551D01*
X1362940Y470555D01*
X1359630Y473332D01*
X1355830Y475817D01*
X1349314Y479331D01*
X1342759Y482569D01*
X1336080Y485542D01*
X1329191Y488260D01*
X1325822Y489527D01*
X1322445Y490798D01*
X1319047Y492007D01*
X1315617Y493093D01*
X1312243Y493968D01*
X1308835Y494700D01*
X1305413Y495376D01*
X1302000Y496080D01*
X1268108Y502372D01*
X1233859Y506165D01*
X1199453Y506963D01*
X1165088Y504268D01*
X1128836Y497614D01*
X1093392Y487747D01*
X1058844Y475039D01*
X1025281Y459861D01*
X1008998Y451534D01*
X992970Y442758D01*
X977181Y433559D01*
X961614Y423961D01*
X953981Y419086D01*
X946385Y414152D01*
X938826Y409161D01*
X931304Y404115D01*
X923824Y398921D01*
X916398Y393633D01*
X908935Y388402D01*
X901345Y383378D01*
X893489Y378904D01*
X885182Y375455D01*
X876477Y373518D01*
X867428Y373581D01*
X858832Y375647D01*
X850772Y379233D01*
X843271Y383961D01*
X836353Y389456D01*
X829703Y395607D01*
X823328Y402053D01*
X817069Y408619D01*
X810770Y415132D01*
X804185Y421673D01*
X797502Y428114D01*
X790719Y434451D01*
X783838Y440680D01*
X755653Y464080D01*
X725892Y485443D01*
X694685Y504630D01*
X662160Y521503D01*
X627569Y536239D01*
X591754Y548249D01*
X555082Y557266D01*
X517919Y563020D01*
X499625Y564725D01*
X481259Y565835D01*
X462869Y566268D01*
X444503Y565941D01*
X428879Y565182D01*
X413236Y564016D01*
X397660Y562236D01*
X382237Y559633D01*
X348459Y551799D01*
X315109Y541898D01*
X282480Y529869D01*
X250864Y515652D01*
X234472Y507279D01*
X218369Y498339D01*
X202714Y488657D01*
X187665Y478058D01*
X181665Y473427D01*
X175746Y468681D01*
X169912Y463829D01*
X164169Y458883D01*
X161184Y456211D01*
X158256Y453487D01*
X155372Y450716D01*
X152520Y447904D01*
X149632Y445125D01*
X146552Y442541D01*
X143205Y440363D01*
X139516Y438799D01*
X134034Y437459D01*
X128377Y436542D01*
X122682Y435800D01*
X117083Y434985D01*
X110320Y433792D01*
X103572Y432520D01*
X96836Y431184D01*
X90109Y429801D01*
X73606Y426317D01*
X57075Y422589D01*
X40662Y418403D01*
X24512Y413548D01*
X21778Y412595D01*
X19070Y411574D01*
X16375Y410518D01*
X13679Y409461D01*
X10770Y408363D01*
X7827Y407176D01*
X5001Y405764D01*
X2447Y403992D01*
X294Y399556D01*
X1287Y394100D01*
X3812Y388606D01*
X6257Y384061D01*
X14297Y369066D01*
X23497Y354534D01*
X33993Y340952D01*
X45916Y328812D01*
X49332Y325991D01*
X52834Y322908D01*
X55630Y319357D01*
X56926Y315130D01*
X56817Y313112D01*
X56327Y311180D01*
X55593Y309310D01*
X54751Y307474D01*
X53341Y304437D01*
X51936Y301396D01*
X50534Y298355D01*
X49131Y295314D01*
X43319Y282724D01*
X40413Y276430D01*
X37507Y270135D01*
X36370Y267694D01*
X35215Y265269D01*
X34031Y262858D01*
X32809Y260461D01*
X32079Y259040D01*
X31627Y257746D01*
X31710Y256508D01*
X32581Y255255D01*
X33994Y254056D01*
X35514Y252942D01*
X37052Y251844D01*
X38519Y250690D01*
X41097Y248453D01*
X43653Y246192D01*
X46189Y243909D01*
X48707Y241605D01*
X55170Y235524D01*
X61491Y229295D01*
X67635Y222893D01*
X73566Y216291D01*
X82966Y204781D01*
X91354Y192417D01*
X97883Y179106D01*
X101708Y164755D01*
X102744Y151737D01*
X102294Y138608D01*
X100714Y125537D01*
X98358Y112690D01*
X96977Y106639D01*
X95413Y100665D01*
X93738Y94723D01*
X92025Y88768D01*
X91363Y85736D01*
X91279Y82707D01*
X92092Y79897D01*
X94118Y77522D01*
X96860Y76084D01*
X99920Y75447D01*
X103095Y75382D01*
X106182Y75659D01*
X117518Y79275D01*
X127080Y86040D01*
X135565Y94518D01*
X143666Y103269D01*
X154417Y113965D01*
X165562Y124257D01*
X177086Y134123D01*
X188970Y143542D01*
X201823Y152934D01*
X215038Y161811D01*
X228584Y170179D01*
X242427Y178040D01*
X245078Y179375D01*
X247829Y180364D01*
X250676Y180725D01*
X253613Y180177D01*
X256187Y178746D01*
X258211Y176638D01*
X259549Y174043D01*
X260067Y171150D01*
X259556Y167587D01*
X258187Y164071D01*
X256431Y160669D01*
X254759Y157449D01*
X252919Y153529D01*
X251130Y149584D01*
X249416Y145606D01*
X247803Y141587D01*
X245022Y133435D01*
X242996Y125127D01*
X241893Y116666D01*
X241878Y108053D01*
X242567Y101356D01*
X243734Y94725D01*
X245387Y88200D01*
X247533Y81819D01*
X252746Y70896D01*
X261116Y59124D01*
X271612Y52057D01*
X283203Y55252D01*
X287377Y60122D01*
X290393Y66074D01*
X292355Y72517D01*
X293368Y78862D01*
X293443Y85539D01*
X292539Y92090D01*
X290867Y98512D01*
X288641Y104804D01*
X286136Y110543D01*
X283458Y116563D01*
X281350Y122723D01*
X280555Y128882D01*
X281019Y131964D01*
X282137Y134889D01*
X283667Y137660D01*
X285368Y140280D01*
X287466Y143342D01*
X289624Y146366D01*
X291828Y149357D01*
X294066Y152317D01*
X304766Y165494D01*
X316179Y178088D01*
X328166Y190146D01*
X340592Y201711D01*
X346754Y207124D01*
X353058Y212371D01*
X359521Y217420D01*
X366159Y222237D01*
X371014Y225638D01*
X376354Y228957D01*
X382036Y231407D01*
X387915Y232202D01*
X393159Y230453D01*
X396585Y226499D01*
X397644Y221397D01*
X395785Y216201D01*
X393987Y214005D01*
X391967Y211948D01*
X389869Y209960D01*
X387837Y207968D01*
X385197Y205211D01*
X382587Y202426D01*
X380006Y199615D01*
X377451Y196779D01*
X367946Y185848D01*
X358711Y174659D01*
X349765Y163237D01*
X341127Y151608D01*
X337200Y146070D01*
X333383Y140456D01*
X329687Y134761D01*
X326124Y128982D01*
X323241Y122917D01*
X321620Y116680D01*
X321017Y110225D01*
X321184Y103503D01*
X322556Y89482D01*
X324857Y75405D01*
X328224Y61563D01*
X332795Y48246D01*
X336424Y40388D01*
X340972Y32986D01*
X346559Y26394D01*
X353307Y20967D01*
X359193Y17845D01*
X365653Y15827D01*
X372306Y15400D01*
X378771Y17053D01*
X386667Y25239D01*
X387569Y36778D01*
X384323Y49079D01*
X379773Y59550D01*
X373482Y70858D01*
X367154Y81956D01*
X362488Y93599D01*
X361178Y106543D01*
X362687Y115125D01*
X365772Y123198D01*
X370063Y130756D01*
X375192Y137794D01*
X381016Y144692D01*
X387144Y151357D01*
X393458Y157853D01*
X399840Y164241D01*
X412713Y176661D01*
X425988Y188656D01*
X439647Y200210D01*
X453674Y211311D01*
X460654Y216552D01*
X467729Y221663D01*
X474898Y226640D01*
X482163Y231478D01*
X487498Y235073D01*
X492956Y238522D01*
X498720Y241254D01*
X504972Y242697D01*
X521080Y243776D01*
X537250Y244027D01*
X553412Y243449D01*
X569495Y242038D01*
X587407Y239430D01*
X605208Y235488D01*
X622537Y229934D01*
X639031Y222489D01*
X644979Y219151D01*
X650757Y215417D01*
X656162Y211189D01*
X660988Y206371D01*
X664711Y200943D01*
X667237Y195083D01*
X669078Y188916D01*
X670747Y182562D01*
X674847Y169821D01*
X680321Y157702D01*
X687532Y146617D01*
X696846Y136977D01*
X720522Y122948D01*
X746815Y116073D01*
X774366Y114124D01*
X801819Y114871D01*
X808956Y114680D01*
X815349Y113088D01*
X820853Y109690D01*
X825322Y104081D01*
X828304Y98605D01*
X831163Y93062D01*
X834026Y87521D01*
X837021Y82052D01*
X844328Y70693D01*
X852637Y60397D01*
X862036Y51093D01*
X872616Y42707D01*
X878188Y38953D01*
X883921Y35487D01*
X889813Y32298D01*
X895864Y29376D01*
X902129Y26577D01*
X908523Y23932D01*
X915033Y21615D01*
X921645Y19801D01*
X928770Y18819D01*
X935949Y19485D01*
X941433Y22803D01*
X943476Y29776D01*
X942218Y37353D01*
X939320Y44768D01*
X935450Y51813D01*
X931276Y58281D01*
X927390Y63707D01*
X923105Y68766D01*
X918299Y73296D01*
X912848Y77135D01*
X907326Y80376D01*
X901818Y83626D01*
X896364Y86964D01*
X891005Y90470D01*
X885115Y94520D01*
X879174Y98898D01*
X873590Y103671D01*
X868769Y108905D01*
X866930Y111798D01*
X865778Y115029D01*
X865626Y118372D01*
X866791Y121601D01*
X868670Y123744D01*
X871059Y125322D01*
X873725Y126488D01*
X876430Y127396D01*
X882415Y129315D01*
X888391Y131270D01*
X894376Y133198D01*
X900384Y135037D01*
X908010Y136968D01*
X915596Y137938D01*
X923152Y137466D01*
X930690Y135072D01*
X943401Y126003D01*
X952847Y113611D01*
X960182Y99494D01*
X966558Y85250D01*
X973298Y71836D01*
X981178Y59046D01*
X990333Y47172D01*
X1000899Y36505D01*
X1007849Y30787D01*
X1015139Y25510D01*
X1022704Y20630D01*
X1030483Y16104D01*
X1037350Y12395D01*
X1044345Y8898D01*
X1051487Y5723D01*
X1058794Y2982D01*
X1066011Y903D01*
X1074181Y-133D01*
X1081492Y1477D01*
X1086135Y7338D01*
X1087002Y13853D01*
X1086027Y20529D01*
X1083873Y27033D01*
X1081203Y33033D01*
X1078219Y38974D01*
X1074977Y44788D01*
X1071420Y50409D01*
X1067494Y55773D01*
X1063148Y60677D01*
X1058397Y65034D01*
X1053278Y68969D01*
X1047830Y72604D01*
X1036786Y79884D01*
X1026181Y87732D01*
X1016187Y96324D01*
X1006978Y105836D01*
X1002591Y111193D01*
X998591Y116844D01*
X995070Y122798D01*
X992118Y129061D01*
X989838Y135442D01*
X988087Y141983D01*
X986757Y148629D01*
X985739Y155328D01*
X984940Y161582D01*
X983998Y167836D01*
X982599Y173978D01*
X980429Y179900D01*
X977242Y185548D01*
X973287Y190686D01*
X968784Y195383D01*
X963953Y199707D01*
X951027Y209741D01*
X937795Y219397D01*
X925112Y229664D01*
X913832Y241531D01*
X910215Y246357D01*
X906864Y251372D01*
X903795Y256563D01*
X901024Y261920D01*
X899651Y264795D01*
X898447Y267841D01*
X897791Y270983D01*
X898059Y274152D01*
X899209Y276708D01*
X901044Y278765D01*
X903394Y280214D01*
X906090Y280943D01*
X909401Y280919D01*
X912786Y280294D01*
X916141Y279391D01*
X919364Y278532D01*
X922766Y277741D01*
X926168Y276949D01*
X929567Y276147D01*
X932962Y275324D01*
X939056Y273852D01*
X945153Y272486D01*
X951284Y271282D01*
X957475Y270296D01*
X965145Y269220D01*
X972815Y268137D01*
X980489Y267089D01*
X988174Y266121D01*
X994893Y265479D01*
X1001623Y265081D01*
X1008361Y264825D01*
X1015107Y264611D01*
X1033413Y264337D01*
X1051644Y264741D01*
X1069850Y265823D01*
X1088079Y267581D01*
X1124887Y273142D01*
X1161211Y281240D01*
X1196922Y291740D01*
X1231892Y304509D01*
X1246772Y310645D01*
X1261503Y317119D01*
X1276042Y324003D01*
X1290350Y331372D01*
X1302225Y337905D01*
X1313727Y344797D01*
X1324742Y352406D01*
X1335154Y361093D01*
X1344402Y369963D01*
X1353244Y379283D01*
X1361414Y389173D01*
X1368646Y399752D01*
X1371700Y404987D01*
X1374534Y410426D01*
X1377001Y416032D01*
X1378955Y421767D01*
X1379747Y424778D01*
X1380398Y427859D01*
X1380853Y430971D01*
X1381056Y434078D01*
X1380957Y437167D01*
X1380635Y440243D01*
X1380234Y443313D01*
X1379897Y446385D01*
X1352689Y441019D02*
X1351311Y443919D01*
X1349827Y446630D01*
X1348076Y449172D01*
X1345899Y451566D01*
X1343468Y453643D01*
X1340868Y455490D01*
X1338157Y457175D01*
X1335397Y458770D01*
X1330307Y461395D01*
X1324993Y463669D01*
X1319549Y465623D01*
X1314066Y467291D01*
X1301756Y470421D01*
X1289354Y472985D01*
X1276860Y475073D01*
X1264272Y476780D01*
X1254176Y478113D01*
X1246433Y479126D01*
X1238668Y479770D01*
X1228507Y479996D01*
X1222296Y478163D01*
X1218887Y473657D01*
X1218615Y467969D01*
X1221816Y462589D01*
X1225057Y459711D01*
X1227137Y458117D01*
X1229224Y456533D01*
X1232487Y453680D01*
X1236733Y449600D01*
X1240805Y445330D01*
X1244665Y440870D01*
X1248276Y436218D01*
X1249159Y434998D01*
X1250027Y433761D01*
X1250868Y432507D01*
X1251670Y431232D01*
X1252317Y429911D01*
X1252733Y428560D01*
X1253020Y427159D01*
X1253279Y425689D01*
X1253803Y422842D01*
X1254851Y417146D01*
X1255375Y414299D01*
X1255918Y411349D01*
X1256461Y408399D01*
X1257004Y405449D01*
X1257547Y402499D01*
X1257797Y401196D01*
X1258055Y399890D01*
X1258299Y398582D01*
X1258509Y397272D01*
X1258583Y395801D01*
X1258431Y394378D01*
X1258132Y392961D01*
X1257765Y391509D01*
X1256156Y385883D01*
X1254230Y380355D01*
X1252042Y374923D01*
X1249645Y369586D01*
X1247378Y365035D01*
X1245474Y361602D01*
X1243563Y358172D01*
X1241274Y353633D01*
X1241215Y348723D01*
X1244483Y343973D01*
X1250082Y341399D01*
X1257016Y343013D01*
X1265470Y347946D01*
X1271367Y351154D01*
X1277258Y354373D01*
X1285692Y359342D01*
X1296012Y365762D01*
X1306195Y372543D01*
X1316032Y379800D01*
X1325310Y387648D01*
X1334361Y396256D01*
X1342874Y405860D01*
X1349568Y416578D01*
X1353160Y428527D01*
X1353411Y431725D01*
X1353365Y434764D01*
X1353098Y437808D01*
X1352689Y441019D01*
D10*
X907710Y41910D02*
X907713Y42168D01*
X907723Y42425D01*
X907738Y42682D01*
X907761Y42939D01*
X907789Y43195D01*
X907824Y43451D01*
X907865Y43705D01*
X907912Y43958D01*
X907965Y44211D01*
X908025Y44461D01*
X908090Y44710D01*
X908162Y44958D01*
X908240Y45204D01*
X908324Y45447D01*
X908414Y45689D01*
X908509Y45928D01*
X908611Y46165D01*
X908718Y46399D01*
X908831Y46631D01*
X908950Y46860D01*
X909074Y47085D01*
X909204Y47308D01*
X909339Y47527D01*
X909480Y47743D01*
X909625Y47956D01*
X909776Y48165D01*
X909932Y48370D01*
X910093Y48571D01*
X910259Y48768D01*
X910430Y48961D01*
X910605Y49150D01*
X910785Y49335D01*
X910970Y49515D01*
X911159Y49690D01*
X911352Y49861D01*
X911549Y50027D01*
X911750Y50188D01*
X911955Y50344D01*
X912164Y50495D01*
X912377Y50640D01*
X912593Y50781D01*
X912812Y50916D01*
X913035Y51046D01*
X913260Y51170D01*
X913489Y51289D01*
X913721Y51402D01*
X913955Y51509D01*
X914192Y51611D01*
X914431Y51706D01*
X914673Y51796D01*
X914916Y51880D01*
X915162Y51958D01*
X915410Y52030D01*
X915659Y52095D01*
X915909Y52155D01*
X916162Y52208D01*
X916415Y52255D01*
X916669Y52296D01*
X916925Y52331D01*
X917181Y52359D01*
X917438Y52382D01*
X917695Y52397D01*
X917952Y52407D01*
X918210Y52410D01*
X918468Y52407D01*
X918725Y52397D01*
X918982Y52382D01*
X919239Y52359D01*
X919495Y52331D01*
X919751Y52296D01*
X920005Y52255D01*
X920258Y52208D01*
X920511Y52155D01*
X920761Y52095D01*
X921010Y52030D01*
X921258Y51958D01*
X921504Y51880D01*
X921747Y51796D01*
X921989Y51706D01*
X922228Y51611D01*
X922465Y51509D01*
X922699Y51402D01*
X922931Y51289D01*
X923160Y51170D01*
X923385Y51046D01*
X923608Y50916D01*
X923827Y50781D01*
X924043Y50640D01*
X924256Y50495D01*
X924465Y50344D01*
X924670Y50188D01*
X924871Y50027D01*
X925068Y49861D01*
X925261Y49690D01*
X925450Y49515D01*
X925635Y49335D01*
X925815Y49150D01*
X925990Y48961D01*
X926161Y48768D01*
X926327Y48571D01*
X926488Y48370D01*
X926644Y48165D01*
X926795Y47956D01*
X926940Y47743D01*
X927081Y47527D01*
X927216Y47308D01*
X927346Y47085D01*
X927470Y46860D01*
X927589Y46631D01*
X927702Y46399D01*
X927809Y46165D01*
X927911Y45928D01*
X928006Y45689D01*
X928096Y45447D01*
X928180Y45204D01*
X928258Y44958D01*
X928330Y44710D01*
X928395Y44461D01*
X928455Y44211D01*
X928508Y43958D01*
X928555Y43705D01*
X928596Y43451D01*
X928631Y43195D01*
X928659Y42939D01*
X928682Y42682D01*
X928697Y42425D01*
X928707Y42168D01*
X928710Y41910D01*
X928707Y41652D01*
X928697Y41395D01*
X928682Y41138D01*
X928659Y40881D01*
X928631Y40625D01*
X928596Y40369D01*
X928555Y40115D01*
X928508Y39862D01*
X928455Y39609D01*
X928395Y39359D01*
X928330Y39110D01*
X928258Y38862D01*
X928180Y38616D01*
X928096Y38373D01*
X928006Y38131D01*
X927911Y37892D01*
X927809Y37655D01*
X927702Y37421D01*
X927589Y37189D01*
X927470Y36960D01*
X927346Y36735D01*
X927216Y36512D01*
X927081Y36293D01*
X926940Y36077D01*
X926795Y35864D01*
X926644Y35655D01*
X926488Y35450D01*
X926327Y35249D01*
X926161Y35052D01*
X925990Y34859D01*
X925815Y34670D01*
X925635Y34485D01*
X925450Y34305D01*
X925261Y34130D01*
X925068Y33959D01*
X924871Y33793D01*
X924670Y33632D01*
X924465Y33476D01*
X924256Y33325D01*
X924043Y33180D01*
X923827Y33039D01*
X923608Y32904D01*
X923385Y32774D01*
X923160Y32650D01*
X922931Y32531D01*
X922699Y32418D01*
X922465Y32311D01*
X922228Y32209D01*
X921989Y32114D01*
X921747Y32024D01*
X921504Y31940D01*
X921258Y31862D01*
X921010Y31790D01*
X920761Y31725D01*
X920511Y31665D01*
X920258Y31612D01*
X920005Y31565D01*
X919751Y31524D01*
X919495Y31489D01*
X919239Y31461D01*
X918982Y31438D01*
X918725Y31423D01*
X918468Y31413D01*
X918210Y31410D01*
X917952Y31413D01*
X917695Y31423D01*
X917438Y31438D01*
X917181Y31461D01*
X916925Y31489D01*
X916669Y31524D01*
X916415Y31565D01*
X916162Y31612D01*
X915909Y31665D01*
X915659Y31725D01*
X915410Y31790D01*
X915162Y31862D01*
X914916Y31940D01*
X914673Y32024D01*
X914431Y32114D01*
X914192Y32209D01*
X913955Y32311D01*
X913721Y32418D01*
X913489Y32531D01*
X913260Y32650D01*
X913035Y32774D01*
X912812Y32904D01*
X912593Y33039D01*
X912377Y33180D01*
X912164Y33325D01*
X911955Y33476D01*
X911750Y33632D01*
X911549Y33793D01*
X911352Y33959D01*
X911159Y34130D01*
X910970Y34305D01*
X910785Y34485D01*
X910605Y34670D01*
X910430Y34859D01*
X910259Y35052D01*
X910093Y35249D01*
X909932Y35450D01*
X909776Y35655D01*
X909625Y35864D01*
X909480Y36077D01*
X909339Y36293D01*
X909204Y36512D01*
X909074Y36735D01*
X908950Y36960D01*
X908831Y37189D01*
X908718Y37421D01*
X908611Y37655D01*
X908509Y37892D01*
X908414Y38131D01*
X908324Y38373D01*
X908240Y38616D01*
X908162Y38862D01*
X908090Y39110D01*
X908025Y39359D01*
X907965Y39609D01*
X907912Y39862D01*
X907865Y40115D01*
X907824Y40369D01*
X907789Y40625D01*
X907761Y40881D01*
X907738Y41138D01*
X907723Y41395D01*
X907713Y41652D01*
X907710Y41910D01*
D12*
X169840Y196920D02*
X169446Y197013D01*
X169050Y197097D01*
X168652Y197170D01*
X168252Y197235D01*
X167851Y197289D01*
X167449Y197333D01*
X167046Y197368D01*
X166642Y197393D01*
X166237Y197407D01*
X165832Y197412D01*
X165428Y197407D01*
X165023Y197392D01*
X164619Y197367D01*
X164216Y197332D01*
X163814Y197287D01*
X163413Y197232D01*
X163013Y197168D01*
X162615Y197094D01*
X162219Y197010D01*
X161825Y196916D01*
X161434Y196813D01*
X161045Y196700D01*
X160660Y196577D01*
X160277Y196445D01*
X159898Y196304D01*
X159522Y196154D01*
X159150Y195994D01*
X158782Y195825D01*
X158418Y195648D01*
X158059Y195461D01*
X157705Y195266D01*
X157355Y195062D01*
X157010Y194849D01*
X156671Y194628D01*
X156338Y194399D01*
X156010Y194162D01*
X155688Y193917D01*
X155372Y193664D01*
X155062Y193403D01*
X154759Y193135D01*
X154463Y192859D01*
X154173Y192576D01*
X153891Y192286D01*
X153615Y191990D01*
X153347Y191686D01*
X153087Y191377D01*
X152834Y191060D01*
X152589Y190738D01*
X152352Y190410D01*
X152123Y190076D01*
X151903Y189737D01*
X151690Y189392D01*
X151487Y189042D01*
X151292Y188688D01*
X151106Y188328D01*
X150928Y187964D01*
X150760Y187596D01*
X150600Y187224D01*
X150450Y186848D01*
X150310Y186469D01*
X150178Y186086D01*
X150056Y185700D01*
X149943Y185311D01*
X149840Y184920D01*
D13*
X718918Y191294D02*
X718918Y230294D01*
X805418Y230294D01*
X805418Y191294D01*
X718918Y191294D01*
X722168Y219794D02*
X722170Y219883D01*
X722176Y219972D01*
X722186Y220061D01*
X722200Y220149D01*
X722217Y220236D01*
X722239Y220322D01*
X722265Y220408D01*
X722294Y220492D01*
X722327Y220575D01*
X722363Y220656D01*
X722404Y220736D01*
X722447Y220813D01*
X722494Y220889D01*
X722545Y220962D01*
X722598Y221033D01*
X722655Y221102D01*
X722715Y221168D01*
X722778Y221232D01*
X722843Y221292D01*
X722911Y221350D01*
X722982Y221404D01*
X723055Y221455D01*
X723130Y221503D01*
X723207Y221548D01*
X723286Y221589D01*
X723367Y221626D01*
X723449Y221660D01*
X723533Y221691D01*
X723618Y221717D01*
X723704Y221740D01*
X723791Y221758D01*
X723879Y221773D01*
X723968Y221784D01*
X724057Y221791D01*
X724146Y221794D01*
X724235Y221793D01*
X724324Y221788D01*
X724412Y221779D01*
X724501Y221766D01*
X724588Y221749D01*
X724675Y221729D01*
X724761Y221704D01*
X724845Y221676D01*
X724928Y221644D01*
X725010Y221608D01*
X725090Y221569D01*
X725168Y221526D01*
X725244Y221480D01*
X725318Y221430D01*
X725390Y221377D01*
X725459Y221321D01*
X725526Y221262D01*
X725590Y221200D01*
X725651Y221136D01*
X725710Y221068D01*
X725765Y220998D01*
X725817Y220926D01*
X725866Y220851D01*
X725911Y220775D01*
X725953Y220696D01*
X725991Y220616D01*
X726026Y220534D01*
X726057Y220450D01*
X726085Y220365D01*
X726108Y220279D01*
X726128Y220192D01*
X726144Y220105D01*
X726156Y220016D01*
X726164Y219928D01*
X726168Y219839D01*
X726168Y219749D01*
X726164Y219660D01*
X726156Y219572D01*
X726144Y219483D01*
X726128Y219396D01*
X726108Y219309D01*
X726085Y219223D01*
X726057Y219138D01*
X726026Y219054D01*
X725991Y218972D01*
X725953Y218892D01*
X725911Y218813D01*
X725866Y218737D01*
X725817Y218662D01*
X725765Y218590D01*
X725710Y218520D01*
X725651Y218452D01*
X725590Y218388D01*
X725526Y218326D01*
X725459Y218267D01*
X725390Y218211D01*
X725318Y218158D01*
X725244Y218108D01*
X725168Y218062D01*
X725090Y218019D01*
X725010Y217980D01*
X724928Y217944D01*
X724845Y217912D01*
X724761Y217884D01*
X724675Y217859D01*
X724588Y217839D01*
X724501Y217822D01*
X724412Y217809D01*
X724324Y217800D01*
X724235Y217795D01*
X724146Y217794D01*
X724057Y217797D01*
X723968Y217804D01*
X723879Y217815D01*
X723791Y217830D01*
X723704Y217848D01*
X723618Y217871D01*
X723533Y217897D01*
X723449Y217928D01*
X723367Y217962D01*
X723286Y217999D01*
X723207Y218040D01*
X723130Y218085D01*
X723055Y218133D01*
X722982Y218184D01*
X722911Y218238D01*
X722843Y218296D01*
X722778Y218356D01*
X722715Y218420D01*
X722655Y218486D01*
X722598Y218555D01*
X722545Y218626D01*
X722494Y218699D01*
X722447Y218775D01*
X722404Y218852D01*
X722363Y218932D01*
X722327Y219013D01*
X722294Y219096D01*
X722265Y219180D01*
X722239Y219266D01*
X722217Y219352D01*
X722200Y219439D01*
X722186Y219527D01*
X722176Y219616D01*
X722170Y219705D01*
X722168Y219794D01*
D14*
X707998Y200959D02*
X707864Y200896D01*
X707729Y200836D01*
X707592Y200780D01*
X707453Y200728D01*
X707314Y200680D01*
X707172Y200635D01*
X707030Y200594D01*
X706887Y200557D01*
X706743Y200524D01*
X706598Y200494D01*
X706452Y200469D01*
X706306Y200447D01*
X706159Y200430D01*
X706011Y200416D01*
X705864Y200406D01*
X705716Y200400D01*
X705568Y200398D01*
X707999Y200959D02*
X708066Y200984D01*
X708131Y201012D01*
X708195Y201044D01*
X708258Y201079D01*
X708318Y201117D01*
X708376Y201158D01*
X708433Y201202D01*
X708486Y201249D01*
X708538Y201299D01*
X708586Y201351D01*
X708632Y201406D01*
X708675Y201463D01*
X708715Y201522D01*
X708752Y201584D01*
X708786Y201647D01*
X708816Y201711D01*
X708843Y201777D01*
X708867Y201845D01*
X708887Y201914D01*
X708904Y201983D01*
X708916Y202053D01*
X708926Y202124D01*
X708931Y202196D01*
X708933Y202267D01*
X708931Y202338D01*
X708926Y202410D01*
X708916Y202481D01*
X708904Y202551D01*
X708887Y202620D01*
X708867Y202689D01*
X708843Y202757D01*
X708816Y202823D01*
X708786Y202887D01*
X708752Y202950D01*
X708715Y203012D01*
X708675Y203071D01*
X708632Y203128D01*
X708586Y203183D01*
X708538Y203235D01*
X708486Y203285D01*
X708433Y203332D01*
X708376Y203376D01*
X708318Y203417D01*
X708257Y203455D01*
X708195Y203490D01*
X708131Y203522D01*
X708065Y203550D01*
X707998Y203575D01*
X707998Y203576D02*
X707864Y203639D01*
X707729Y203699D01*
X707592Y203755D01*
X707453Y203807D01*
X707314Y203855D01*
X707173Y203900D01*
X707030Y203941D01*
X706887Y203978D01*
X706743Y204011D01*
X706598Y204041D01*
X706452Y204066D01*
X706306Y204088D01*
X706159Y204105D01*
X706011Y204119D01*
X705864Y204129D01*
X705716Y204135D01*
X705568Y204137D01*
X705568Y200398D02*
X705420Y200400D01*
X705272Y200406D01*
X705125Y200416D01*
X704977Y200430D01*
X704830Y200447D01*
X704684Y200469D01*
X704538Y200494D01*
X704393Y200524D01*
X704249Y200557D01*
X704106Y200594D01*
X703964Y200635D01*
X703823Y200680D01*
X703683Y200728D01*
X703544Y200780D01*
X703407Y200836D01*
X703272Y200896D01*
X703138Y200959D01*
X703071Y200984D01*
X703006Y201012D01*
X702942Y201044D01*
X702879Y201079D01*
X702819Y201117D01*
X702761Y201158D01*
X702704Y201202D01*
X702651Y201249D01*
X702599Y201299D01*
X702551Y201351D01*
X702505Y201406D01*
X702462Y201463D01*
X702422Y201522D01*
X702385Y201584D01*
X702351Y201647D01*
X702321Y201711D01*
X702294Y201777D01*
X702270Y201845D01*
X702250Y201914D01*
X702233Y201983D01*
X702221Y202053D01*
X702211Y202124D01*
X702206Y202196D01*
X702204Y202267D01*
X703138Y203576D02*
X703272Y203639D01*
X703407Y203699D01*
X703544Y203755D01*
X703683Y203807D01*
X703822Y203855D01*
X703963Y203900D01*
X704106Y203941D01*
X704249Y203978D01*
X704393Y204011D01*
X704538Y204041D01*
X704684Y204066D01*
X704830Y204088D01*
X704977Y204105D01*
X705125Y204119D01*
X705272Y204129D01*
X705420Y204135D01*
X705568Y204137D01*
X703138Y203575D02*
X703071Y203550D01*
X703006Y203522D01*
X702942Y203490D01*
X702879Y203455D01*
X702819Y203417D01*
X702761Y203376D01*
X702704Y203332D01*
X702651Y203285D01*
X702599Y203235D01*
X702551Y203183D01*
X702505Y203128D01*
X702462Y203071D01*
X702422Y203012D01*
X702385Y202950D01*
X702351Y202887D01*
X702321Y202823D01*
X702294Y202757D01*
X702270Y202689D01*
X702250Y202620D01*
X702233Y202551D01*
X702221Y202481D01*
X702211Y202410D01*
X702206Y202338D01*
X702204Y202267D01*
X703699Y200772D02*
X707438Y203763D01*
X702577Y207120D02*
X702203Y207120D01*
X702577Y207120D02*
X702577Y207494D01*
X702203Y207494D01*
X702203Y207120D01*
X707438Y210478D02*
X708933Y212347D01*
X702203Y212347D01*
X702203Y210478D02*
X702203Y214217D01*
X703325Y217812D02*
X706690Y217812D01*
X703325Y217811D02*
X703260Y217813D01*
X703195Y217819D01*
X703130Y217828D01*
X703066Y217841D01*
X703003Y217858D01*
X702941Y217879D01*
X702881Y217903D01*
X702821Y217930D01*
X702764Y217961D01*
X702708Y217996D01*
X702655Y218033D01*
X702604Y218073D01*
X702555Y218117D01*
X702509Y218163D01*
X702465Y218212D01*
X702425Y218263D01*
X702388Y218316D01*
X702353Y218372D01*
X702322Y218429D01*
X702295Y218489D01*
X702271Y218549D01*
X702250Y218611D01*
X702233Y218674D01*
X702220Y218738D01*
X702211Y218803D01*
X702205Y218868D01*
X702203Y218933D01*
X702203Y220803D01*
X706690Y220803D01*
X708933Y224659D02*
X702203Y224659D01*
X708933Y224659D02*
X708933Y227650D01*
X705942Y227650D02*
X705942Y224659D01*
D13*
X976341Y326637D02*
X968577Y355615D01*
X926076Y344227D02*
X933841Y315249D01*
X938607Y371268D02*
X938609Y371377D01*
X938615Y371486D01*
X938625Y371594D01*
X938639Y371702D01*
X938656Y371810D01*
X938678Y371917D01*
X938703Y372023D01*
X938733Y372127D01*
X938766Y372231D01*
X938803Y372334D01*
X938843Y372435D01*
X938887Y372534D01*
X938935Y372632D01*
X938987Y372729D01*
X939041Y372823D01*
X939099Y372915D01*
X939161Y373005D01*
X939226Y373092D01*
X939293Y373178D01*
X939364Y373261D01*
X939438Y373341D01*
X939515Y373418D01*
X939594Y373493D01*
X939676Y373564D01*
X939761Y373633D01*
X939848Y373698D01*
X939937Y373761D01*
X940029Y373819D01*
X940123Y373875D01*
X940218Y373927D01*
X940316Y373976D01*
X940415Y374021D01*
X940516Y374063D01*
X940618Y374100D01*
X940721Y374134D01*
X940826Y374165D01*
X940932Y374191D01*
X941038Y374214D01*
X941146Y374232D01*
X941254Y374247D01*
X941362Y374258D01*
X941471Y374265D01*
X941580Y374268D01*
X941689Y374267D01*
X941798Y374262D01*
X941906Y374253D01*
X942014Y374240D01*
X942122Y374223D01*
X942229Y374203D01*
X942335Y374178D01*
X942440Y374150D01*
X942544Y374118D01*
X942647Y374082D01*
X942749Y374042D01*
X942849Y373999D01*
X942947Y373952D01*
X943044Y373902D01*
X943138Y373848D01*
X943231Y373790D01*
X943322Y373730D01*
X943410Y373666D01*
X943496Y373599D01*
X943579Y373529D01*
X943660Y373456D01*
X943738Y373380D01*
X943813Y373301D01*
X943886Y373219D01*
X943955Y373135D01*
X944021Y373049D01*
X944084Y372960D01*
X944144Y372869D01*
X944201Y372776D01*
X944254Y372681D01*
X944303Y372584D01*
X944349Y372485D01*
X944391Y372385D01*
X944430Y372283D01*
X944465Y372179D01*
X944496Y372075D01*
X944524Y371970D01*
X944547Y371863D01*
X944567Y371756D01*
X944583Y371648D01*
X944595Y371540D01*
X944603Y371431D01*
X944607Y371322D01*
X944607Y371214D01*
X944603Y371105D01*
X944595Y370996D01*
X944583Y370888D01*
X944567Y370780D01*
X944547Y370673D01*
X944524Y370566D01*
X944496Y370461D01*
X944465Y370357D01*
X944430Y370253D01*
X944391Y370151D01*
X944349Y370051D01*
X944303Y369952D01*
X944254Y369855D01*
X944201Y369760D01*
X944144Y369667D01*
X944084Y369576D01*
X944021Y369487D01*
X943955Y369401D01*
X943886Y369317D01*
X943813Y369235D01*
X943738Y369156D01*
X943660Y369080D01*
X943579Y369007D01*
X943496Y368937D01*
X943410Y368870D01*
X943322Y368806D01*
X943231Y368746D01*
X943138Y368688D01*
X943044Y368634D01*
X942947Y368584D01*
X942849Y368537D01*
X942749Y368494D01*
X942647Y368454D01*
X942544Y368418D01*
X942440Y368386D01*
X942335Y368358D01*
X942229Y368333D01*
X942122Y368313D01*
X942014Y368296D01*
X941906Y368283D01*
X941798Y368274D01*
X941689Y368269D01*
X941580Y368268D01*
X941471Y368271D01*
X941362Y368278D01*
X941254Y368289D01*
X941146Y368304D01*
X941038Y368322D01*
X940932Y368345D01*
X940826Y368371D01*
X940721Y368402D01*
X940618Y368436D01*
X940516Y368473D01*
X940415Y368515D01*
X940316Y368560D01*
X940218Y368609D01*
X940123Y368661D01*
X940029Y368717D01*
X939937Y368775D01*
X939848Y368838D01*
X939761Y368903D01*
X939676Y368972D01*
X939594Y369043D01*
X939515Y369118D01*
X939438Y369195D01*
X939364Y369275D01*
X939293Y369358D01*
X939226Y369444D01*
X939161Y369531D01*
X939099Y369621D01*
X939041Y369713D01*
X938987Y369807D01*
X938935Y369904D01*
X938887Y370002D01*
X938843Y370101D01*
X938803Y370202D01*
X938766Y370305D01*
X938733Y370409D01*
X938703Y370513D01*
X938678Y370619D01*
X938656Y370726D01*
X938639Y370834D01*
X938625Y370942D01*
X938615Y371050D01*
X938609Y371159D01*
X938607Y371268D01*
X153881Y149093D02*
X146810Y156165D01*
X76099Y226875D02*
X69028Y233946D01*
X153881Y318799D02*
X160952Y311728D01*
X231662Y241017D02*
X238733Y233946D01*
X231662Y226875D01*
X146810Y311728D02*
X153881Y318799D01*
X76099Y241017D02*
X69028Y233946D01*
X153881Y149093D02*
X160952Y156165D01*
X280937Y250856D02*
X282952Y250652D01*
X280937Y250856D02*
X279060Y251438D01*
X277361Y252360D01*
X275881Y253581D01*
X274660Y255061D01*
X273738Y256760D01*
X273156Y258637D01*
X272952Y260652D01*
X272952Y475652D02*
X273156Y477668D01*
X273738Y479545D01*
X274660Y481244D01*
X275881Y482724D01*
X277361Y483945D01*
X279060Y484867D01*
X280937Y485449D01*
X282952Y485652D01*
X677382Y485602D02*
X680235Y485506D01*
X683085Y485341D01*
X685931Y485107D01*
X688769Y484805D01*
X691600Y484434D01*
X694421Y483995D01*
X697230Y483488D01*
X700027Y482913D01*
X702808Y482271D01*
X705574Y481562D01*
X708321Y480786D01*
X711049Y479944D01*
X713756Y479036D01*
X716440Y478063D01*
X719099Y477026D01*
X721733Y475924D01*
X724339Y474760D01*
X726917Y473532D01*
X729464Y472243D01*
X731979Y470893D01*
X734461Y469482D01*
X736908Y468011D01*
X739319Y466482D01*
X741692Y464895D01*
X744026Y463251D01*
X746320Y461552D01*
X748572Y459797D01*
X750781Y457989D01*
X752945Y456127D01*
X755064Y454214D01*
X757137Y452250D01*
X759161Y450237D01*
X761135Y448175D01*
X763060Y446067D01*
X764933Y443912D01*
X766753Y441713D01*
X768520Y439470D01*
X770232Y437186D01*
X771888Y434860D01*
X773487Y432496D01*
X775029Y430093D01*
X776513Y427654D01*
X777937Y425179D01*
X779300Y422671D01*
X780603Y420131D01*
X781844Y417560D01*
X783023Y414960D01*
X784138Y412332D01*
X785190Y409678D01*
X786177Y406999D01*
X787099Y404298D01*
X787956Y401574D01*
X788746Y398831D01*
X789470Y396070D01*
X790127Y393291D01*
X790717Y390498D01*
X791239Y387691D01*
X791693Y384873D01*
X792079Y382044D01*
X792397Y379207D01*
X792645Y376363D01*
X792825Y373514D01*
X792936Y370661D01*
X792979Y367807D01*
X792952Y364952D01*
X146522Y396702D02*
X138902Y404322D01*
X146522Y404322D02*
X138902Y396702D01*
X1057774Y342139D02*
X1082308Y348713D01*
X1075734Y373248D02*
X1051200Y366674D01*
X1075734Y373248D02*
X1078549Y362743D01*
X1081137Y353084D02*
X1083952Y342580D01*
X1096642Y345980D01*
X1106301Y348568D02*
X1118991Y351968D01*
X1128650Y354556D02*
X1141340Y357957D01*
X1150999Y360545D02*
X1163689Y363945D01*
X1160053Y377516D01*
X1157465Y387176D02*
X1153828Y400747D01*
X1141138Y397347D01*
X1131479Y394758D02*
X1118789Y391358D01*
X1109130Y388770D02*
X1096440Y385370D01*
X1086781Y382782D02*
X1074091Y379381D01*
X1075734Y373248D01*
X1230232Y379685D02*
X1232138Y372570D01*
X1234898Y376991D02*
X1227292Y374953D01*
X85104Y389327D02*
X75204Y385084D01*
X85104Y389327D02*
X79447Y394984D01*
X75204Y385084D01*
D15*
G36*
X80153Y380135D02*
X78739Y378721D01*
X68841Y388619D01*
X70255Y390033D01*
X80153Y380135D01*
G37*
M02*
