G04 EAGLE Gerber RS-274X export*
G75*
%MOMM*%
%FSLAX34Y34*%
%LPD*%
%INBottom layer*%
%IPPOS*%
%AMOC8*
5,1,8,0,0,1.08239X$1,22.5*%
G01*
%ADD10C,0.000000*%
%ADD11C,0.001000*%
%ADD12R,0.600000X2.000000*%
%ADD13C,0.220000*%
%ADD14C,0.120000*%
%ADD15C,0.320000*%
%ADD16R,1.600000X1.800000*%
%ADD17C,0.600000*%
%ADD18R,4.000000X2.000000*%
%ADD19C,2.000000*%
%ADD20C,1.778000*%
%ADD21C,1.676400*%
%ADD22R,1.500000X1.220000*%
%ADD23C,0.500000*%
%ADD24C,0.654800*%

G36*
X1068185Y389183D02*
X1068185Y389183D01*
X1068186Y389183D01*
X1070485Y389309D01*
X1072837Y389544D01*
X1075237Y389891D01*
X1077679Y390349D01*
X1080160Y390920D01*
X1082675Y391603D01*
X1085219Y392401D01*
X1088119Y393593D01*
X1090929Y394915D01*
X1093642Y396358D01*
X1093643Y396358D01*
X1096253Y397914D01*
X1098755Y399575D01*
X1101141Y401331D01*
X1103405Y403174D01*
X1105540Y405096D01*
X1111248Y410605D01*
X1115902Y416255D01*
X1115903Y416255D01*
X1120338Y422001D01*
X1125390Y427800D01*
X1131895Y433606D01*
X1140687Y439375D01*
X1152604Y445064D01*
X1168480Y450627D01*
X1168481Y450629D01*
X1168482Y450630D01*
X1168482Y450631D01*
X1168482Y450632D01*
X1168480Y450633D01*
X1168478Y450635D01*
X1167956Y450656D01*
X1166458Y450686D01*
X1166457Y450686D01*
X1164082Y450674D01*
X1160931Y450570D01*
X1157104Y450322D01*
X1152701Y449881D01*
X1147824Y449196D01*
X1142594Y448220D01*
X1146563Y450756D01*
X1150707Y453389D01*
X1155251Y455970D01*
X1160441Y458365D01*
X1166522Y460436D01*
X1173738Y462048D01*
X1182335Y463064D01*
X1192557Y463348D01*
X1192558Y463349D01*
X1192560Y463350D01*
X1192560Y463351D01*
X1192561Y463352D01*
X1192559Y463353D01*
X1192558Y463356D01*
X1191143Y463881D01*
X1191143Y463882D01*
X1187109Y465189D01*
X1187108Y465189D01*
X1180771Y466875D01*
X1180770Y466875D01*
X1172445Y468535D01*
X1162449Y469765D01*
X1162449Y469764D01*
X1162448Y469765D01*
X1151097Y470160D01*
X1138706Y469318D01*
X1125612Y466837D01*
X1127381Y468065D01*
X1129054Y469127D01*
X1130700Y470074D01*
X1132400Y470967D01*
X1134240Y471868D01*
X1136304Y472838D01*
X1138675Y473940D01*
X1141436Y475234D01*
X1141437Y475236D01*
X1141439Y475238D01*
X1141438Y475238D01*
X1141438Y475239D01*
X1141436Y475240D01*
X1141434Y475242D01*
X1139457Y475039D01*
X1139457Y475038D01*
X1139457Y475039D01*
X1133984Y474315D01*
X1133983Y474315D01*
X1125695Y472901D01*
X1115275Y470627D01*
X1103407Y467321D01*
X1103406Y467321D01*
X1090773Y462815D01*
X1090772Y462815D01*
X1078056Y456938D01*
X1078056Y456937D01*
X1065940Y449519D01*
X1065940Y449516D01*
X1065938Y449515D01*
X1065938Y438651D01*
X1065939Y438651D01*
X1065939Y438650D01*
X1065940Y438649D01*
X1065942Y438647D01*
X1065943Y438648D01*
X1065945Y438648D01*
X1072315Y442718D01*
X1078758Y445998D01*
X1084991Y448565D01*
X1090728Y450493D01*
X1095686Y451861D01*
X1099579Y452743D01*
X1102124Y453216D01*
X1103006Y453353D01*
X1092090Y448157D01*
X1092090Y448156D01*
X1084878Y442521D01*
X1084877Y442521D01*
X1080575Y436615D01*
X1080575Y436614D01*
X1080574Y436613D01*
X1078362Y430593D01*
X1078362Y430592D01*
X1078361Y430588D01*
X1078360Y430579D01*
X1078359Y430575D01*
X1078358Y430571D01*
X1078358Y430567D01*
X1078357Y430562D01*
X1078356Y430558D01*
X1078356Y430554D01*
X1078355Y430550D01*
X1078354Y430541D01*
X1078353Y430537D01*
X1078352Y430533D01*
X1078352Y430528D01*
X1078351Y430524D01*
X1078350Y430520D01*
X1078350Y430516D01*
X1078349Y430511D01*
X1078348Y430503D01*
X1078346Y430494D01*
X1078346Y430490D01*
X1078345Y430486D01*
X1078344Y430482D01*
X1078344Y430477D01*
X1078343Y430473D01*
X1078342Y430469D01*
X1078342Y430465D01*
X1078340Y430456D01*
X1078340Y430452D01*
X1078339Y430448D01*
X1078338Y430443D01*
X1078338Y430439D01*
X1078337Y430435D01*
X1078336Y430431D01*
X1078336Y430426D01*
X1078334Y430418D01*
X1078334Y430414D01*
X1078333Y430409D01*
X1078332Y430405D01*
X1078332Y430401D01*
X1078331Y430397D01*
X1078330Y430392D01*
X1078330Y430388D01*
X1078328Y430380D01*
X1078328Y430375D01*
X1078327Y430371D01*
X1078326Y430367D01*
X1078326Y430363D01*
X1078325Y430358D01*
X1078324Y430354D01*
X1078324Y430350D01*
X1078322Y430341D01*
X1078321Y430333D01*
X1078320Y430329D01*
X1078320Y430324D01*
X1078319Y430320D01*
X1078318Y430316D01*
X1078318Y430312D01*
X1078317Y430307D01*
X1078316Y430303D01*
X1078315Y430295D01*
X1078314Y430290D01*
X1078314Y430286D01*
X1078313Y430282D01*
X1078312Y430278D01*
X1078312Y430273D01*
X1078311Y430269D01*
X1078310Y430265D01*
X1078309Y430256D01*
X1078308Y430252D01*
X1078308Y430248D01*
X1078307Y430244D01*
X1078306Y430239D01*
X1078306Y430235D01*
X1078305Y430231D01*
X1078304Y430227D01*
X1078303Y430218D01*
X1078302Y430214D01*
X1078302Y430210D01*
X1078301Y430210D01*
X1078302Y430210D01*
X1078301Y430205D01*
X1078300Y430201D01*
X1078300Y430197D01*
X1078299Y430197D01*
X1078300Y430197D01*
X1078299Y430193D01*
X1078298Y430188D01*
X1078297Y430180D01*
X1078295Y430171D01*
X1078295Y430167D01*
X1078294Y430163D01*
X1078293Y430159D01*
X1078293Y430154D01*
X1078292Y430150D01*
X1078291Y430146D01*
X1078291Y430142D01*
X1078289Y430133D01*
X1078289Y430129D01*
X1078288Y430125D01*
X1078287Y430120D01*
X1078287Y430116D01*
X1078286Y430112D01*
X1078285Y430108D01*
X1078285Y430103D01*
X1078283Y430095D01*
X1078283Y430091D01*
X1078282Y430086D01*
X1078281Y430082D01*
X1078281Y430078D01*
X1078280Y430074D01*
X1078279Y430069D01*
X1078279Y430065D01*
X1078277Y430057D01*
X1078277Y430052D01*
X1078276Y430048D01*
X1078275Y430044D01*
X1078275Y430040D01*
X1078274Y430035D01*
X1078273Y430031D01*
X1078273Y430027D01*
X1078271Y430018D01*
X1078271Y430014D01*
X1078270Y430010D01*
X1078269Y430006D01*
X1078269Y430001D01*
X1078268Y429997D01*
X1078267Y429993D01*
X1078267Y429989D01*
X1078265Y429980D01*
X1078264Y429972D01*
X1078263Y429967D01*
X1078263Y429963D01*
X1078262Y429959D01*
X1078261Y429955D01*
X1078261Y429950D01*
X1078260Y429946D01*
X1078259Y429942D01*
X1078258Y429933D01*
X1078257Y429929D01*
X1078257Y429925D01*
X1078256Y429921D01*
X1078255Y429916D01*
X1078255Y429912D01*
X1078254Y429908D01*
X1078253Y429904D01*
X1078252Y429895D01*
X1078251Y429891D01*
X1078251Y429887D01*
X1078250Y429882D01*
X1078249Y429878D01*
X1078249Y429874D01*
X1078248Y429870D01*
X1078247Y429865D01*
X1078246Y429857D01*
X1078245Y429853D01*
X1078245Y429848D01*
X1078244Y429844D01*
X1078243Y429840D01*
X1078243Y429836D01*
X1078242Y429831D01*
X1078241Y429827D01*
X1078240Y429819D01*
X1078239Y429810D01*
X1078238Y429810D01*
X1078239Y429810D01*
X1078238Y429806D01*
X1078237Y429802D01*
X1078237Y429797D01*
X1078236Y429797D01*
X1078237Y429797D01*
X1078236Y429793D01*
X1078235Y429789D01*
X1078235Y429785D01*
X1078234Y429785D01*
X1078234Y429780D01*
X1078232Y429772D01*
X1078232Y429768D01*
X1078231Y429763D01*
X1078230Y429759D01*
X1078230Y429755D01*
X1078229Y429751D01*
X1078228Y429746D01*
X1078228Y429742D01*
X1078226Y429734D01*
X1078226Y429729D01*
X1078225Y429725D01*
X1078224Y429721D01*
X1078224Y429717D01*
X1078223Y429712D01*
X1078222Y429708D01*
X1078222Y429704D01*
X1078220Y429695D01*
X1078220Y429691D01*
X1078219Y429687D01*
X1078218Y429683D01*
X1078218Y429678D01*
X1078217Y429674D01*
X1078216Y429670D01*
X1078216Y429666D01*
X1078214Y429657D01*
X1078213Y429649D01*
X1078212Y429644D01*
X1078212Y429640D01*
X1078211Y429636D01*
X1078210Y429632D01*
X1078210Y429627D01*
X1078209Y429623D01*
X1078208Y429619D01*
X1078207Y429610D01*
X1078206Y429606D01*
X1078206Y429602D01*
X1078205Y429598D01*
X1078204Y429593D01*
X1078204Y429589D01*
X1078203Y429585D01*
X1078202Y429581D01*
X1078201Y429572D01*
X1078200Y429568D01*
X1078200Y429564D01*
X1078199Y429559D01*
X1078198Y429555D01*
X1078198Y429551D01*
X1078197Y429547D01*
X1078196Y429542D01*
X1078195Y429534D01*
X1078194Y429530D01*
X1078194Y429525D01*
X1078193Y429521D01*
X1078192Y429517D01*
X1078192Y429513D01*
X1078191Y429508D01*
X1078190Y429504D01*
X1078189Y429496D01*
X1078188Y429491D01*
X1078188Y429487D01*
X1078187Y429483D01*
X1078186Y429479D01*
X1078186Y429474D01*
X1078185Y429470D01*
X1078184Y429466D01*
X1078183Y429457D01*
X1078182Y429449D01*
X1078181Y429445D01*
X1078180Y429440D01*
X1078180Y429436D01*
X1078179Y429432D01*
X1078178Y429428D01*
X1078178Y429423D01*
X1078177Y429423D01*
X1078178Y429423D01*
X1078177Y429419D01*
X1078176Y429411D01*
X1078175Y429411D01*
X1078176Y429411D01*
X1078175Y429406D01*
X1078174Y429402D01*
X1078174Y429398D01*
X1078173Y429398D01*
X1078174Y429398D01*
X1078173Y429394D01*
X1078172Y429389D01*
X1078172Y429385D01*
X1078171Y429385D01*
X1078171Y429381D01*
X1078169Y429372D01*
X1078169Y429368D01*
X1078168Y429364D01*
X1078167Y429360D01*
X1078167Y429355D01*
X1078166Y429351D01*
X1078165Y429347D01*
X1078165Y429343D01*
X1078163Y429334D01*
X1078163Y429330D01*
X1078162Y429326D01*
X1078161Y429321D01*
X1078161Y429317D01*
X1078160Y429313D01*
X1078159Y429309D01*
X1078159Y429304D01*
X1078157Y429296D01*
X1078156Y429287D01*
X1078155Y429283D01*
X1078155Y429279D01*
X1078154Y429275D01*
X1078153Y429270D01*
X1078153Y429266D01*
X1078152Y429262D01*
X1078151Y429258D01*
X1078150Y429249D01*
X1078149Y429245D01*
X1078149Y429241D01*
X1078148Y429236D01*
X1078147Y429232D01*
X1078147Y429228D01*
X1078146Y429224D01*
X1078145Y429219D01*
X1078144Y429211D01*
X1078143Y429207D01*
X1078143Y429202D01*
X1078142Y429198D01*
X1078141Y429194D01*
X1078141Y429190D01*
X1078140Y429185D01*
X1078139Y429181D01*
X1078138Y429173D01*
X1078137Y429168D01*
X1078137Y429164D01*
X1078136Y429160D01*
X1078135Y429156D01*
X1078135Y429151D01*
X1078134Y429147D01*
X1078133Y429143D01*
X1078132Y429134D01*
X1078131Y429126D01*
X1078130Y429122D01*
X1078129Y429117D01*
X1078129Y429113D01*
X1078128Y429109D01*
X1078127Y429105D01*
X1078127Y429100D01*
X1078126Y429096D01*
X1078125Y429088D01*
X1078124Y429083D01*
X1078123Y429079D01*
X1078123Y429075D01*
X1078122Y429071D01*
X1078121Y429066D01*
X1078121Y429062D01*
X1078120Y429058D01*
X1078119Y429049D01*
X1078118Y429045D01*
X1078117Y429041D01*
X1078117Y429037D01*
X1078116Y429032D01*
X1078115Y429028D01*
X1078115Y429024D01*
X1078114Y429024D01*
X1078115Y429024D01*
X1078114Y429020D01*
X1078113Y429011D01*
X1078112Y429011D01*
X1078113Y429011D01*
X1078112Y429007D01*
X1078111Y429003D01*
X1078111Y428998D01*
X1078110Y428998D01*
X1078111Y428998D01*
X1078110Y428994D01*
X1078109Y428990D01*
X1078108Y428986D01*
X1078108Y428981D01*
X1078106Y428973D01*
X1078106Y428969D01*
X1078105Y428964D01*
X1078104Y428960D01*
X1078104Y428956D01*
X1078103Y428952D01*
X1078102Y428947D01*
X1078102Y428943D01*
X1078100Y428935D01*
X1078099Y428926D01*
X1078098Y428922D01*
X1078098Y428918D01*
X1078097Y428913D01*
X1078096Y428909D01*
X1078096Y428905D01*
X1078095Y428901D01*
X1078094Y428896D01*
X1078093Y428888D01*
X1078092Y428884D01*
X1078092Y428879D01*
X1078091Y428875D01*
X1078090Y428871D01*
X1078090Y428867D01*
X1078089Y428862D01*
X1078088Y428858D01*
X1078087Y428850D01*
X1078086Y428845D01*
X1078086Y428841D01*
X1078085Y428837D01*
X1078084Y428833D01*
X1078084Y428828D01*
X1078083Y428824D01*
X1078082Y428820D01*
X1078081Y428811D01*
X1078080Y428807D01*
X1078080Y428803D01*
X1078079Y428799D01*
X1078078Y428794D01*
X1078078Y428790D01*
X1078077Y428786D01*
X1078076Y428782D01*
X1078075Y428773D01*
X1078074Y428765D01*
X1078073Y428760D01*
X1078072Y428756D01*
X1078072Y428752D01*
X1078071Y428748D01*
X1078070Y428743D01*
X1078070Y428739D01*
X1078069Y428735D01*
X1078068Y428726D01*
X1078067Y428722D01*
X1078066Y428718D01*
X1078066Y428714D01*
X1078065Y428709D01*
X1078064Y428705D01*
X1078064Y428701D01*
X1078063Y428697D01*
X1078062Y428688D01*
X1078061Y428684D01*
X1078060Y428680D01*
X1078060Y428675D01*
X1078059Y428671D01*
X1078058Y428667D01*
X1078058Y428663D01*
X1078057Y428658D01*
X1078056Y428650D01*
X1078055Y428646D01*
X1078054Y428641D01*
X1078054Y428637D01*
X1078053Y428633D01*
X1078052Y428629D01*
X1078052Y428624D01*
X1078051Y428624D01*
X1078052Y428624D01*
X1078051Y428620D01*
X1078050Y428612D01*
X1078049Y428612D01*
X1078050Y428612D01*
X1078048Y428603D01*
X1078048Y428599D01*
X1078047Y428599D01*
X1078048Y428599D01*
X1078047Y428595D01*
X1078046Y428590D01*
X1078045Y428586D01*
X1078045Y428582D01*
X1078044Y428578D01*
X1078043Y428573D01*
X1078042Y428565D01*
X1078041Y428561D01*
X1078041Y428556D01*
X1078040Y428552D01*
X1078039Y428548D01*
X1078039Y428544D01*
X1078038Y428539D01*
X1078037Y428535D01*
X1078036Y428527D01*
X1078035Y428522D01*
X1078035Y428518D01*
X1078034Y428514D01*
X1078033Y428510D01*
X1078033Y428505D01*
X1078032Y428501D01*
X1078031Y428497D01*
X1078030Y428488D01*
X1078029Y428484D01*
X1078029Y428480D01*
X1078028Y428476D01*
X1078027Y428471D01*
X1078027Y428467D01*
X1078026Y428463D01*
X1078025Y428459D01*
X1078024Y428450D01*
X1078023Y428442D01*
X1078022Y428437D01*
X1078021Y428433D01*
X1078021Y428429D01*
X1078020Y428425D01*
X1078019Y428420D01*
X1078018Y428412D01*
X1078017Y428403D01*
X1078016Y428399D01*
X1078015Y428395D01*
X1078015Y428391D01*
X1078014Y428386D01*
X1078013Y428382D01*
X1078013Y428378D01*
X1078012Y428374D01*
X1078011Y428365D01*
X1078010Y428361D01*
X1078009Y428357D01*
X1078009Y428352D01*
X1078008Y428348D01*
X1078007Y428344D01*
X1078007Y428340D01*
X1078006Y428335D01*
X1078005Y428327D01*
X1078004Y428323D01*
X1078003Y428318D01*
X1078003Y428314D01*
X1078002Y428310D01*
X1078001Y428306D01*
X1078001Y428301D01*
X1078000Y428297D01*
X1077999Y428289D01*
X1077998Y428284D01*
X1077997Y428280D01*
X1077997Y428276D01*
X1077996Y428272D01*
X1077995Y428267D01*
X1077995Y428263D01*
X1077994Y428259D01*
X1077993Y428250D01*
X1077991Y428242D01*
X1077991Y428238D01*
X1077990Y428233D01*
X1077989Y428229D01*
X1077989Y428225D01*
X1077988Y428225D01*
X1077989Y428225D01*
X1077988Y428221D01*
X1077987Y428216D01*
X1077987Y428212D01*
X1077986Y428212D01*
X1077987Y428212D01*
X1077985Y428204D01*
X1077985Y428199D01*
X1077984Y428199D01*
X1077984Y428195D01*
X1077983Y428191D01*
X1077982Y428187D01*
X1077982Y428182D01*
X1077981Y428178D01*
X1077980Y428174D01*
X1077979Y428165D01*
X1077978Y428161D01*
X1077978Y428157D01*
X1077977Y428153D01*
X1077976Y428148D01*
X1077976Y428144D01*
X1077975Y428140D01*
X1077974Y428136D01*
X1077973Y428127D01*
X1077972Y428123D01*
X1077972Y428119D01*
X1077971Y428114D01*
X1077970Y428110D01*
X1077970Y428106D01*
X1077969Y428102D01*
X1077968Y428097D01*
X1077967Y428089D01*
X1077966Y428080D01*
X1077965Y428076D01*
X1077964Y428072D01*
X1077964Y428068D01*
X1077963Y428063D01*
X1077962Y428059D01*
X1077962Y428055D01*
X1077961Y428051D01*
X1077960Y428042D01*
X1077959Y428038D01*
X1077958Y428034D01*
X1077958Y428029D01*
X1077957Y428025D01*
X1077956Y428021D01*
X1077956Y428017D01*
X1077955Y428012D01*
X1077954Y428004D01*
X1077953Y428000D01*
X1077952Y427995D01*
X1077952Y427991D01*
X1077951Y427987D01*
X1077950Y427983D01*
X1077950Y427978D01*
X1077949Y427974D01*
X1077948Y427966D01*
X1077947Y427961D01*
X1077946Y427957D01*
X1077946Y427953D01*
X1077945Y427949D01*
X1077944Y427944D01*
X1077944Y427940D01*
X1077943Y427936D01*
X1077942Y427927D01*
X1077940Y427919D01*
X1077940Y427915D01*
X1077939Y427910D01*
X1077938Y427906D01*
X1077938Y427902D01*
X1077937Y427898D01*
X1077936Y427893D01*
X1077936Y427889D01*
X1077934Y427881D01*
X1077934Y427876D01*
X1077933Y427872D01*
X1077932Y427868D01*
X1077932Y427864D01*
X1077931Y427859D01*
X1077930Y427855D01*
X1077930Y427851D01*
X1077928Y427842D01*
X1077928Y427838D01*
X1077927Y427834D01*
X1077926Y427830D01*
X1077926Y427825D01*
X1077925Y427825D01*
X1077926Y427825D01*
X1077925Y427821D01*
X1077924Y427817D01*
X1077924Y427813D01*
X1077923Y427813D01*
X1077924Y427813D01*
X1077922Y427804D01*
X1077922Y427800D01*
X1077921Y427800D01*
X1077921Y427796D01*
X1077920Y427791D01*
X1077919Y427787D01*
X1077919Y427783D01*
X1077918Y427779D01*
X1077917Y427774D01*
X1077916Y427766D01*
X1077915Y427762D01*
X1077915Y427757D01*
X1077914Y427753D01*
X1077913Y427749D01*
X1077913Y427745D01*
X1077912Y427740D01*
X1077911Y427736D01*
X1077910Y427728D01*
X1077909Y427719D01*
X1077908Y427715D01*
X1077907Y427711D01*
X1077907Y427706D01*
X1077906Y427702D01*
X1077905Y427698D01*
X1077905Y427694D01*
X1077904Y427689D01*
X1077903Y427681D01*
X1077902Y427677D01*
X1077901Y427672D01*
X1077901Y427668D01*
X1077900Y427664D01*
X1077899Y427660D01*
X1077899Y427655D01*
X1077898Y427651D01*
X1077897Y427643D01*
X1077896Y427638D01*
X1077895Y427634D01*
X1077895Y427630D01*
X1077894Y427626D01*
X1077893Y427621D01*
X1077893Y427617D01*
X1077892Y427613D01*
X1077891Y427604D01*
X1077890Y427600D01*
X1077889Y427596D01*
X1077889Y427592D01*
X1077888Y427587D01*
X1077887Y427583D01*
X1077887Y427579D01*
X1077886Y427575D01*
X1077885Y427566D01*
X1077883Y427558D01*
X1077883Y427553D01*
X1077882Y427549D01*
X1077881Y427545D01*
X1077881Y427541D01*
X1077880Y427536D01*
X1077879Y427532D01*
X1077879Y427528D01*
X1077877Y427519D01*
X1077877Y427515D01*
X1077876Y427511D01*
X1077875Y427507D01*
X1077875Y427502D01*
X1077874Y427498D01*
X1077873Y427494D01*
X1077873Y427490D01*
X1077871Y427481D01*
X1077871Y427477D01*
X1077870Y427473D01*
X1077869Y427468D01*
X1077869Y427464D01*
X1077868Y427460D01*
X1077867Y427456D01*
X1077867Y427451D01*
X1077865Y427443D01*
X1077865Y427439D01*
X1077864Y427434D01*
X1077863Y427430D01*
X1077863Y427426D01*
X1077862Y427426D01*
X1077863Y427426D01*
X1077862Y427422D01*
X1077861Y427417D01*
X1077861Y427413D01*
X1077860Y427413D01*
X1077861Y427413D01*
X1077859Y427405D01*
X1077858Y427396D01*
X1077857Y427392D01*
X1077856Y427388D01*
X1077856Y427383D01*
X1077855Y427379D01*
X1077854Y427375D01*
X1077854Y427371D01*
X1077853Y427366D01*
X1077852Y427358D01*
X1077851Y427354D01*
X1077850Y427349D01*
X1077850Y427345D01*
X1077849Y427341D01*
X1077848Y427337D01*
X1077848Y427332D01*
X1077847Y427328D01*
X1077846Y427320D01*
X1077845Y427315D01*
X1077844Y427311D01*
X1077844Y427307D01*
X1077843Y427303D01*
X1077842Y427298D01*
X1077842Y427294D01*
X1077841Y427290D01*
X1077840Y427281D01*
X1077839Y427277D01*
X1077838Y427273D01*
X1077838Y427269D01*
X1077837Y427264D01*
X1077836Y427260D01*
X1077836Y427256D01*
X1077835Y427252D01*
X1077834Y427243D01*
X1077833Y427239D01*
X1077832Y427235D01*
X1077832Y427230D01*
X1077831Y427226D01*
X1077830Y427222D01*
X1077830Y427218D01*
X1077829Y427213D01*
X1077828Y427205D01*
X1077826Y427196D01*
X1077826Y427192D01*
X1077825Y427188D01*
X1077824Y427184D01*
X1077824Y427179D01*
X1077823Y427175D01*
X1077822Y427171D01*
X1077822Y427167D01*
X1077820Y427158D01*
X1077820Y427154D01*
X1077819Y427150D01*
X1077818Y427145D01*
X1077818Y427141D01*
X1077817Y427137D01*
X1077816Y427133D01*
X1077816Y427128D01*
X1077814Y427120D01*
X1077814Y427116D01*
X1077813Y427111D01*
X1077812Y427107D01*
X1077812Y427103D01*
X1077811Y427099D01*
X1077810Y427094D01*
X1077810Y427090D01*
X1077808Y427082D01*
X1077808Y427077D01*
X1077807Y427073D01*
X1077806Y427069D01*
X1077806Y427065D01*
X1077805Y427060D01*
X1077804Y427056D01*
X1077804Y427052D01*
X1077802Y427043D01*
X1077801Y427035D01*
X1077800Y427031D01*
X1077800Y427026D01*
X1077799Y427026D01*
X1077800Y427026D01*
X1077799Y427022D01*
X1077798Y427018D01*
X1077798Y427014D01*
X1077797Y427014D01*
X1077798Y427014D01*
X1077797Y427009D01*
X1077796Y427005D01*
X1077795Y426997D01*
X1077794Y426992D01*
X1077793Y426988D01*
X1077793Y426984D01*
X1077792Y426980D01*
X1077791Y426975D01*
X1077791Y426971D01*
X1077790Y426967D01*
X1077789Y426958D01*
X1077788Y426954D01*
X1077787Y426950D01*
X1077787Y426946D01*
X1077786Y426941D01*
X1077785Y426937D01*
X1077785Y426933D01*
X1077784Y426929D01*
X1077783Y426920D01*
X1077782Y426916D01*
X1077781Y426912D01*
X1077781Y426907D01*
X1077780Y426903D01*
X1077779Y426899D01*
X1077779Y426895D01*
X1077778Y426890D01*
X1077777Y426882D01*
X1077775Y426873D01*
X1077775Y426869D01*
X1077774Y426865D01*
X1077773Y426861D01*
X1077773Y426856D01*
X1077772Y426852D01*
X1077771Y426848D01*
X1077771Y426844D01*
X1077769Y426835D01*
X1077769Y426831D01*
X1077768Y426827D01*
X1077767Y426822D01*
X1077767Y426818D01*
X1077766Y426814D01*
X1077765Y426810D01*
X1077765Y426805D01*
X1077763Y426797D01*
X1077763Y426793D01*
X1077762Y426788D01*
X1077761Y426784D01*
X1077761Y426780D01*
X1077760Y426776D01*
X1077759Y426771D01*
X1077759Y426767D01*
X1077757Y426759D01*
X1077757Y426754D01*
X1077756Y426750D01*
X1077755Y426746D01*
X1077755Y426742D01*
X1077754Y426737D01*
X1077753Y426733D01*
X1077753Y426729D01*
X1077751Y426720D01*
X1077751Y426716D01*
X1077750Y426712D01*
X1077749Y426708D01*
X1077749Y426703D01*
X1077748Y426699D01*
X1077747Y426695D01*
X1077747Y426691D01*
X1077745Y426682D01*
X1077744Y426674D01*
X1077743Y426669D01*
X1077743Y426665D01*
X1077742Y426661D01*
X1077741Y426657D01*
X1077741Y426652D01*
X1077740Y426648D01*
X1077739Y426644D01*
X1077738Y426635D01*
X1077737Y426631D01*
X1077737Y426627D01*
X1077736Y426627D01*
X1077737Y426627D01*
X1077736Y426623D01*
X1077735Y426618D01*
X1077735Y426614D01*
X1077734Y426614D01*
X1077735Y426614D01*
X1077734Y426610D01*
X1077733Y426606D01*
X1077732Y426597D01*
X1077731Y426593D01*
X1077730Y426589D01*
X1077730Y426584D01*
X1077729Y426580D01*
X1077728Y426576D01*
X1077728Y426572D01*
X1077727Y426567D01*
X1077726Y426559D01*
X1077725Y426555D01*
X1077724Y426550D01*
X1077724Y426546D01*
X1077723Y426542D01*
X1077722Y426538D01*
X1077722Y426533D01*
X1077721Y426529D01*
X1077720Y426521D01*
X1077718Y426512D01*
X1077718Y426508D01*
X1077717Y426504D01*
X1077716Y426499D01*
X1077716Y426495D01*
X1077715Y426491D01*
X1077714Y426487D01*
X1077714Y426482D01*
X1077712Y426474D01*
X1077712Y426470D01*
X1077711Y426465D01*
X1077710Y426461D01*
X1077710Y426457D01*
X1077709Y426453D01*
X1077708Y426448D01*
X1077708Y426444D01*
X1077706Y426436D01*
X1077706Y426431D01*
X1077705Y426427D01*
X1077704Y426423D01*
X1077704Y426419D01*
X1077703Y426414D01*
X1077702Y426410D01*
X1077702Y426406D01*
X1077700Y426397D01*
X1077700Y426393D01*
X1077699Y426389D01*
X1077698Y426385D01*
X1077698Y426380D01*
X1077697Y426376D01*
X1077696Y426372D01*
X1077696Y426368D01*
X1077694Y426359D01*
X1077693Y426351D01*
X1077692Y426346D01*
X1077692Y426342D01*
X1077691Y426338D01*
X1077690Y426334D01*
X1077690Y426329D01*
X1077689Y426325D01*
X1077688Y426321D01*
X1077687Y426312D01*
X1077686Y426308D01*
X1077686Y426304D01*
X1077685Y426300D01*
X1077684Y426295D01*
X1077684Y426291D01*
X1077683Y426287D01*
X1077682Y426283D01*
X1077681Y426274D01*
X1077680Y426270D01*
X1077680Y426266D01*
X1077679Y426261D01*
X1077678Y426257D01*
X1077678Y426253D01*
X1077677Y426249D01*
X1077676Y426244D01*
X1077675Y426236D01*
X1077674Y426232D01*
X1077674Y426227D01*
X1077673Y426227D01*
X1077674Y426227D01*
X1077673Y426223D01*
X1077672Y426219D01*
X1077672Y426215D01*
X1077671Y426215D01*
X1077672Y426215D01*
X1077671Y426210D01*
X1077670Y426206D01*
X1077669Y426198D01*
X1077668Y426193D01*
X1077667Y426189D01*
X1077667Y426185D01*
X1077666Y426181D01*
X1077665Y426176D01*
X1077665Y426172D01*
X1077664Y426168D01*
X1077663Y426159D01*
X1077661Y426151D01*
X1077661Y426147D01*
X1077660Y426142D01*
X1077659Y426138D01*
X1077659Y426134D01*
X1077658Y426130D01*
X1077657Y426125D01*
X1077657Y426121D01*
X1077655Y426113D01*
X1077655Y426108D01*
X1077654Y426104D01*
X1077653Y426100D01*
X1077653Y426096D01*
X1077652Y426091D01*
X1077651Y426087D01*
X1077651Y426083D01*
X1077649Y426074D01*
X1077649Y426070D01*
X1077648Y426066D01*
X1077647Y426062D01*
X1077647Y426057D01*
X1077646Y426053D01*
X1077645Y426049D01*
X1077645Y426045D01*
X1077643Y426036D01*
X1077643Y426032D01*
X1077642Y426028D01*
X1077641Y426023D01*
X1077641Y426019D01*
X1077640Y426015D01*
X1077639Y426011D01*
X1077639Y426006D01*
X1077637Y425998D01*
X1077636Y425989D01*
X1077635Y425985D01*
X1077635Y425981D01*
X1077634Y425977D01*
X1077633Y425972D01*
X1077633Y425968D01*
X1077632Y425964D01*
X1077631Y425960D01*
X1077630Y425951D01*
X1077629Y425947D01*
X1077629Y425943D01*
X1077628Y425938D01*
X1077627Y425934D01*
X1077627Y425930D01*
X1077626Y425926D01*
X1077625Y425921D01*
X1077624Y425913D01*
X1077623Y425909D01*
X1077623Y425904D01*
X1077622Y425900D01*
X1077621Y425896D01*
X1077621Y425892D01*
X1077620Y425887D01*
X1077619Y425883D01*
X1077618Y425875D01*
X1077617Y425870D01*
X1077617Y425866D01*
X1077616Y425862D01*
X1077615Y425858D01*
X1077615Y425853D01*
X1077614Y425849D01*
X1077613Y425845D01*
X1077612Y425836D01*
X1077611Y425828D01*
X1077610Y425828D01*
X1077611Y425828D01*
X1077610Y425824D01*
X1077609Y425819D01*
X1077609Y425815D01*
X1077608Y425815D01*
X1077609Y425815D01*
X1077608Y425811D01*
X1077607Y425807D01*
X1077607Y425802D01*
X1077606Y425802D01*
X1077606Y425798D01*
X1077604Y425790D01*
X1077604Y425785D01*
X1077603Y425781D01*
X1077602Y425777D01*
X1077602Y425773D01*
X1077601Y425768D01*
X1077600Y425764D01*
X1077600Y425760D01*
X1077598Y425751D01*
X1077598Y425747D01*
X1077597Y425743D01*
X1077596Y425739D01*
X1077596Y425734D01*
X1077595Y425730D01*
X1077594Y425726D01*
X1077594Y425722D01*
X1077592Y425713D01*
X1077592Y425709D01*
X1077591Y425705D01*
X1077590Y425700D01*
X1077590Y425696D01*
X1077589Y425692D01*
X1077588Y425688D01*
X1077588Y425683D01*
X1077586Y425675D01*
X1077586Y425671D01*
X1077585Y425666D01*
X1077584Y425662D01*
X1077584Y425658D01*
X1077583Y425654D01*
X1077582Y425649D01*
X1077582Y425645D01*
X1077580Y425637D01*
X1077579Y425628D01*
X1077578Y425624D01*
X1077578Y425620D01*
X1077577Y425615D01*
X1077576Y425611D01*
X1077576Y425607D01*
X1077575Y425603D01*
X1077574Y425598D01*
X1077573Y425590D01*
X1077572Y425586D01*
X1077572Y425581D01*
X1077571Y425577D01*
X1077570Y425573D01*
X1077570Y425569D01*
X1077569Y425564D01*
X1077568Y425560D01*
X1077567Y425552D01*
X1077566Y425547D01*
X1077566Y425543D01*
X1077565Y425539D01*
X1077564Y425535D01*
X1077564Y425530D01*
X1077563Y425526D01*
X1077562Y425522D01*
X1077561Y425513D01*
X1077560Y425509D01*
X1077560Y425505D01*
X1077559Y425501D01*
X1077558Y425496D01*
X1077558Y425492D01*
X1077557Y425488D01*
X1077556Y425484D01*
X1077555Y425475D01*
X1077554Y425467D01*
X1077553Y425462D01*
X1077552Y425458D01*
X1077552Y425454D01*
X1077551Y425450D01*
X1077550Y425445D01*
X1077550Y425441D01*
X1077549Y425441D01*
X1077550Y425441D01*
X1077549Y425437D01*
X1077548Y425428D01*
X1077547Y425428D01*
X1077548Y425428D01*
X1077547Y425424D01*
X1077546Y425420D01*
X1077546Y425416D01*
X1077545Y425416D01*
X1077546Y425416D01*
X1077545Y425411D01*
X1077544Y425407D01*
X1077544Y425403D01*
X1077543Y425403D01*
X1077543Y425399D01*
X1077541Y425390D01*
X1077541Y425386D01*
X1077540Y425382D01*
X1077539Y425377D01*
X1077539Y425373D01*
X1077538Y425369D01*
X1077537Y425365D01*
X1077537Y425360D01*
X1077535Y425352D01*
X1077535Y425348D01*
X1077534Y425343D01*
X1077533Y425339D01*
X1077533Y425335D01*
X1077532Y425331D01*
X1077531Y425326D01*
X1077531Y425322D01*
X1077529Y425314D01*
X1077528Y425305D01*
X1077527Y425301D01*
X1077527Y425297D01*
X1077526Y425292D01*
X1077525Y425288D01*
X1077525Y425284D01*
X1077524Y425280D01*
X1077523Y425275D01*
X1077522Y425267D01*
X1077521Y425263D01*
X1077521Y425258D01*
X1077520Y425254D01*
X1077519Y425250D01*
X1077519Y425246D01*
X1077518Y425241D01*
X1077517Y425237D01*
X1077516Y425229D01*
X1077515Y425224D01*
X1077515Y425220D01*
X1077514Y425216D01*
X1077513Y425212D01*
X1077513Y425207D01*
X1077512Y425203D01*
X1077511Y425199D01*
X1077510Y425190D01*
X1077509Y425186D01*
X1077509Y425182D01*
X1077508Y425178D01*
X1077507Y425173D01*
X1077507Y425169D01*
X1077506Y425165D01*
X1077505Y425161D01*
X1077504Y425152D01*
X1077503Y425148D01*
X1077503Y425144D01*
X1077502Y425139D01*
X1077501Y425135D01*
X1077501Y425131D01*
X1077500Y425127D01*
X1077499Y425122D01*
X1077498Y425114D01*
X1077497Y425105D01*
X1077496Y425101D01*
X1077495Y425097D01*
X1077495Y425093D01*
X1077494Y425088D01*
X1077493Y425084D01*
X1077493Y425080D01*
X1077492Y425076D01*
X1077491Y425067D01*
X1077490Y425063D01*
X1077489Y425059D01*
X1077489Y425054D01*
X1077488Y425050D01*
X1077487Y425046D01*
X1077487Y425042D01*
X1077486Y425042D01*
X1077487Y425042D01*
X1077486Y425037D01*
X1077485Y425029D01*
X1077484Y425029D01*
X1077485Y425029D01*
X1077484Y425025D01*
X1077483Y425020D01*
X1077483Y425016D01*
X1077482Y425016D01*
X1077483Y425016D01*
X1077482Y425012D01*
X1077481Y425008D01*
X1077481Y425003D01*
X1077480Y425003D01*
X1077480Y424999D01*
X1077478Y424991D01*
X1077478Y424986D01*
X1077477Y424982D01*
X1077476Y424978D01*
X1077476Y424974D01*
X1077475Y424969D01*
X1077474Y424965D01*
X1077474Y424961D01*
X1077472Y424952D01*
X1077471Y424944D01*
X1077470Y424940D01*
X1077470Y424935D01*
X1077469Y424931D01*
X1077468Y424927D01*
X1077468Y424923D01*
X1077467Y424918D01*
X1077466Y424914D01*
X1077465Y424906D01*
X1077464Y424901D01*
X1077464Y424897D01*
X1077463Y424893D01*
X1077462Y424889D01*
X1077462Y424884D01*
X1077461Y424880D01*
X1077460Y424876D01*
X1077459Y424867D01*
X1077458Y424863D01*
X1077458Y424859D01*
X1077457Y424855D01*
X1077456Y424850D01*
X1077456Y424846D01*
X1077455Y424842D01*
X1077454Y424838D01*
X1077453Y424829D01*
X1077452Y424825D01*
X1077452Y424821D01*
X1077451Y424816D01*
X1077450Y424812D01*
X1077450Y424808D01*
X1077449Y424804D01*
X1077448Y424799D01*
X1077447Y424791D01*
X1077446Y424782D01*
X1077445Y424778D01*
X1077444Y424774D01*
X1077444Y424770D01*
X1077443Y424765D01*
X1077442Y424761D01*
X1077442Y424757D01*
X1077441Y424753D01*
X1077440Y424744D01*
X1077439Y424740D01*
X1077438Y424736D01*
X1077438Y424731D01*
X1077437Y424727D01*
X1077436Y424723D01*
X1077436Y424719D01*
X1077435Y424714D01*
X1077434Y424706D01*
X1077433Y424702D01*
X1077432Y424697D01*
X1077432Y424693D01*
X1077431Y424689D01*
X1077430Y424685D01*
X1077430Y424680D01*
X1077429Y424676D01*
X1077428Y424668D01*
X1077427Y424663D01*
X1077426Y424659D01*
X1077426Y424655D01*
X1077425Y424651D01*
X1077424Y424646D01*
X1077424Y424642D01*
X1077423Y424642D01*
X1077424Y424642D01*
X1077423Y424638D01*
X1077422Y424629D01*
X1077421Y424629D01*
X1077422Y424629D01*
X1077421Y424625D01*
X1077420Y424621D01*
X1077420Y424617D01*
X1077419Y424617D01*
X1077420Y424617D01*
X1077419Y424613D01*
X1076925Y418831D01*
X1076924Y418824D01*
X1076923Y418820D01*
X1076922Y418811D01*
X1076921Y418807D01*
X1076920Y418798D01*
X1076919Y418794D01*
X1076918Y418786D01*
X1076917Y418781D01*
X1076916Y418773D01*
X1076915Y418769D01*
X1076914Y418760D01*
X1076913Y418756D01*
X1076912Y418747D01*
X1076911Y418743D01*
X1076910Y418735D01*
X1076909Y418730D01*
X1076908Y418722D01*
X1076907Y418718D01*
X1076906Y418709D01*
X1076905Y418705D01*
X1076904Y418696D01*
X1076903Y418692D01*
X1076902Y418684D01*
X1076901Y418679D01*
X1076900Y418671D01*
X1076899Y418667D01*
X1076898Y418662D01*
X1076898Y418658D01*
X1076897Y418658D01*
X1076898Y418658D01*
X1076897Y418654D01*
X1076896Y418650D01*
X1076895Y418645D01*
X1076895Y418641D01*
X1076894Y418637D01*
X1076893Y418633D01*
X1076893Y418628D01*
X1076892Y418624D01*
X1076891Y418620D01*
X1076891Y418616D01*
X1076890Y418611D01*
X1076889Y418607D01*
X1076889Y418603D01*
X1076888Y418599D01*
X1076887Y418594D01*
X1076887Y418590D01*
X1076886Y418586D01*
X1076885Y418582D01*
X1076885Y418577D01*
X1076884Y418573D01*
X1076883Y418569D01*
X1076883Y418565D01*
X1076882Y418560D01*
X1076881Y418556D01*
X1076881Y418552D01*
X1076880Y418548D01*
X1076879Y418543D01*
X1076879Y418539D01*
X1076878Y418535D01*
X1076877Y418531D01*
X1076877Y418526D01*
X1076876Y418526D01*
X1076877Y418526D01*
X1076876Y418522D01*
X1076875Y418518D01*
X1076874Y418514D01*
X1076874Y418509D01*
X1076873Y418505D01*
X1076872Y418501D01*
X1076872Y418497D01*
X1076871Y418492D01*
X1076870Y418488D01*
X1076870Y418484D01*
X1076869Y418480D01*
X1076868Y418475D01*
X1076868Y418471D01*
X1076867Y418467D01*
X1076866Y418463D01*
X1076866Y418458D01*
X1076865Y418454D01*
X1076864Y418450D01*
X1076864Y418446D01*
X1076863Y418441D01*
X1076862Y418437D01*
X1076862Y418433D01*
X1076861Y418429D01*
X1076860Y418424D01*
X1076860Y418420D01*
X1076859Y418416D01*
X1076858Y418412D01*
X1076858Y418407D01*
X1076857Y418403D01*
X1076856Y418399D01*
X1076856Y418395D01*
X1076855Y418395D01*
X1076856Y418395D01*
X1076855Y418390D01*
X1076854Y418386D01*
X1076853Y418382D01*
X1076852Y418373D01*
X1076851Y418369D01*
X1076850Y418361D01*
X1076849Y418356D01*
X1076848Y418348D01*
X1076847Y418344D01*
X1076846Y418335D01*
X1076845Y418331D01*
X1076844Y418322D01*
X1076843Y418318D01*
X1076842Y418310D01*
X1076841Y418305D01*
X1076840Y418297D01*
X1076839Y418293D01*
X1076838Y418284D01*
X1076837Y418280D01*
X1076836Y418271D01*
X1076835Y418267D01*
X1076834Y418259D01*
X1076833Y418254D01*
X1076832Y418246D01*
X1076831Y418242D01*
X1076830Y418233D01*
X1076829Y418229D01*
X1076828Y418220D01*
X1076827Y418216D01*
X1076826Y418208D01*
X1076825Y418203D01*
X1076824Y418195D01*
X1076823Y418191D01*
X1076822Y418186D01*
X1076822Y418182D01*
X1076821Y418178D01*
X1076820Y418174D01*
X1076820Y418169D01*
X1076819Y418165D01*
X1076818Y418161D01*
X1076818Y418157D01*
X1076817Y418152D01*
X1076816Y418148D01*
X1076816Y418144D01*
X1076815Y418140D01*
X1076814Y418135D01*
X1076814Y418131D01*
X1076813Y418127D01*
X1076812Y418123D01*
X1076812Y418118D01*
X1076811Y418118D01*
X1076812Y418118D01*
X1076811Y418114D01*
X1076810Y418110D01*
X1076809Y418106D01*
X1076809Y418101D01*
X1076808Y418097D01*
X1076807Y418093D01*
X1076807Y418089D01*
X1076806Y418084D01*
X1076805Y418080D01*
X1076805Y418076D01*
X1076804Y418072D01*
X1076803Y418067D01*
X1076803Y418063D01*
X1076802Y418059D01*
X1076801Y418055D01*
X1076801Y418050D01*
X1076800Y418046D01*
X1076799Y418042D01*
X1076799Y418038D01*
X1076798Y418033D01*
X1076797Y418029D01*
X1076797Y418025D01*
X1076796Y418021D01*
X1076795Y418016D01*
X1076795Y418012D01*
X1076794Y418008D01*
X1076793Y418004D01*
X1076793Y417999D01*
X1076792Y417995D01*
X1076791Y417991D01*
X1076791Y417987D01*
X1076790Y417987D01*
X1076791Y417987D01*
X1076790Y417982D01*
X1076789Y417978D01*
X1076788Y417974D01*
X1076788Y417970D01*
X1076787Y417965D01*
X1076786Y417961D01*
X1076786Y417957D01*
X1076785Y417953D01*
X1076784Y417948D01*
X1076784Y417944D01*
X1076783Y417940D01*
X1076782Y417936D01*
X1076782Y417931D01*
X1076781Y417927D01*
X1076780Y417923D01*
X1076780Y417919D01*
X1076779Y417914D01*
X1076778Y417910D01*
X1076778Y417906D01*
X1076776Y417897D01*
X1076776Y417893D01*
X1076774Y417885D01*
X1076774Y417880D01*
X1076772Y417872D01*
X1076772Y417868D01*
X1076770Y417859D01*
X1076770Y417855D01*
X1076769Y417855D01*
X1076770Y417855D01*
X1076768Y417846D01*
X1076767Y417842D01*
X1076766Y417834D01*
X1076765Y417829D01*
X1076764Y417821D01*
X1076763Y417817D01*
X1076762Y417808D01*
X1076761Y417804D01*
X1076760Y417795D01*
X1076759Y417791D01*
X1076758Y417783D01*
X1076757Y417778D01*
X1076756Y417770D01*
X1076755Y417766D01*
X1076754Y417757D01*
X1076753Y417753D01*
X1076752Y417744D01*
X1076751Y417740D01*
X1076750Y417732D01*
X1076749Y417727D01*
X1076748Y417719D01*
X1076747Y417715D01*
X1076746Y417706D01*
X1076745Y417702D01*
X1076744Y417698D01*
X1076744Y417693D01*
X1076743Y417689D01*
X1076742Y417685D01*
X1076742Y417681D01*
X1076741Y417676D01*
X1076740Y417672D01*
X1076740Y417668D01*
X1076739Y417664D01*
X1076738Y417659D01*
X1076738Y417655D01*
X1076737Y417651D01*
X1076736Y417647D01*
X1076736Y417642D01*
X1076735Y417638D01*
X1076734Y417634D01*
X1076734Y417630D01*
X1076733Y417625D01*
X1076732Y417621D01*
X1076732Y417617D01*
X1076731Y417613D01*
X1076730Y417608D01*
X1076730Y417604D01*
X1076729Y417600D01*
X1076728Y417596D01*
X1076728Y417591D01*
X1076727Y417587D01*
X1076726Y417583D01*
X1076726Y417579D01*
X1076725Y417579D01*
X1076726Y417579D01*
X1076725Y417574D01*
X1076724Y417570D01*
X1076723Y417566D01*
X1076723Y417562D01*
X1076722Y417557D01*
X1076721Y417553D01*
X1076721Y417549D01*
X1076720Y417545D01*
X1076719Y417540D01*
X1076719Y417536D01*
X1076718Y417532D01*
X1076717Y417528D01*
X1076717Y417523D01*
X1076716Y417519D01*
X1076715Y417515D01*
X1076715Y417511D01*
X1076714Y417506D01*
X1076713Y417502D01*
X1076713Y417498D01*
X1076712Y417494D01*
X1076711Y417489D01*
X1076711Y417485D01*
X1076710Y417481D01*
X1076709Y417477D01*
X1076709Y417472D01*
X1076708Y417468D01*
X1076707Y417464D01*
X1076707Y417460D01*
X1076706Y417455D01*
X1076705Y417451D01*
X1076705Y417447D01*
X1076704Y417447D01*
X1076705Y417447D01*
X1076704Y417443D01*
X1076703Y417438D01*
X1076702Y417434D01*
X1076702Y417430D01*
X1076701Y417426D01*
X1076700Y417421D01*
X1076700Y417417D01*
X1076698Y417409D01*
X1076698Y417404D01*
X1076696Y417396D01*
X1076696Y417392D01*
X1076694Y417383D01*
X1076694Y417379D01*
X1076692Y417370D01*
X1076692Y417366D01*
X1076690Y417358D01*
X1076690Y417353D01*
X1076688Y417345D01*
X1076688Y417341D01*
X1076686Y417332D01*
X1076686Y417328D01*
X1076684Y417319D01*
X1076684Y417315D01*
X1076683Y417315D01*
X1076684Y417315D01*
X1076682Y417307D01*
X1076681Y417302D01*
X1076680Y417294D01*
X1076679Y417290D01*
X1076678Y417281D01*
X1076677Y417277D01*
X1076676Y417268D01*
X1076675Y417264D01*
X1076674Y417256D01*
X1076673Y417251D01*
X1076672Y417243D01*
X1076671Y417239D01*
X1076670Y417230D01*
X1076669Y417226D01*
X1076669Y417222D01*
X1076668Y417217D01*
X1076667Y417213D01*
X1076667Y417209D01*
X1076666Y417205D01*
X1076665Y417200D01*
X1076665Y417196D01*
X1076664Y417192D01*
X1076663Y417188D01*
X1076663Y417183D01*
X1076662Y417183D01*
X1076663Y417183D01*
X1076662Y417179D01*
X1076661Y417175D01*
X1076661Y417171D01*
X1076660Y417171D01*
X1076660Y417166D01*
X1076659Y417162D01*
X1076658Y417158D01*
X1076658Y417154D01*
X1076657Y417149D01*
X1076656Y417145D01*
X1076656Y417141D01*
X1076655Y417137D01*
X1076654Y417132D01*
X1076654Y417128D01*
X1076653Y417124D01*
X1076652Y417120D01*
X1076652Y417115D01*
X1076651Y417111D01*
X1076650Y417107D01*
X1076650Y417103D01*
X1076649Y417098D01*
X1076648Y417094D01*
X1076648Y417090D01*
X1076647Y417086D01*
X1076646Y417081D01*
X1076646Y417077D01*
X1076645Y417073D01*
X1076644Y417069D01*
X1076644Y417064D01*
X1076643Y417060D01*
X1076642Y417056D01*
X1076642Y417052D01*
X1076641Y417047D01*
X1076640Y417043D01*
X1076640Y417039D01*
X1076639Y417039D01*
X1076639Y417035D01*
X1076638Y417030D01*
X1076637Y417026D01*
X1076637Y417022D01*
X1076636Y417018D01*
X1076635Y417013D01*
X1076635Y417009D01*
X1076634Y417005D01*
X1076633Y417001D01*
X1076633Y416996D01*
X1076632Y416992D01*
X1076631Y416988D01*
X1076631Y416984D01*
X1076630Y416979D01*
X1076629Y416975D01*
X1076629Y416971D01*
X1076628Y416967D01*
X1076627Y416962D01*
X1076627Y416958D01*
X1076626Y416954D01*
X1076625Y416950D01*
X1076625Y416945D01*
X1076624Y416941D01*
X1076623Y416933D01*
X1076622Y416928D01*
X1076621Y416920D01*
X1076620Y416916D01*
X1076619Y416907D01*
X1076618Y416907D01*
X1076619Y416907D01*
X1076618Y416903D01*
X1076616Y416894D01*
X1076616Y416890D01*
X1076614Y416882D01*
X1076614Y416877D01*
X1076612Y416869D01*
X1076612Y416865D01*
X1076610Y416856D01*
X1076610Y416852D01*
X1076608Y416843D01*
X1076608Y416839D01*
X1076606Y416831D01*
X1076606Y416826D01*
X1076604Y416818D01*
X1076604Y416814D01*
X1076602Y416805D01*
X1076602Y416801D01*
X1076600Y416792D01*
X1076600Y416788D01*
X1076598Y416780D01*
X1076598Y416775D01*
X1076597Y416775D01*
X1076598Y416775D01*
X1076596Y416767D01*
X1076595Y416763D01*
X1076594Y416754D01*
X1076593Y416750D01*
X1076592Y416741D01*
X1076591Y416737D01*
X1076591Y416733D01*
X1076590Y416729D01*
X1076589Y416724D01*
X1076589Y416720D01*
X1076588Y416716D01*
X1076587Y416712D01*
X1076587Y416707D01*
X1076586Y416703D01*
X1076585Y416699D01*
X1076585Y416695D01*
X1076584Y416690D01*
X1076583Y416686D01*
X1076583Y416682D01*
X1076582Y416678D01*
X1076581Y416673D01*
X1076581Y416669D01*
X1076580Y416665D01*
X1076579Y416661D01*
X1076579Y416656D01*
X1076578Y416652D01*
X1076577Y416648D01*
X1076577Y416644D01*
X1076576Y416644D01*
X1076577Y416644D01*
X1076576Y416639D01*
X1076575Y416635D01*
X1076574Y416631D01*
X1076574Y416627D01*
X1076573Y416622D01*
X1076572Y416618D01*
X1076572Y416614D01*
X1076571Y416610D01*
X1076570Y416605D01*
X1076570Y416601D01*
X1076569Y416597D01*
X1076568Y416593D01*
X1076568Y416588D01*
X1076567Y416584D01*
X1076566Y416580D01*
X1076566Y416576D01*
X1076565Y416571D01*
X1076564Y416567D01*
X1076564Y416563D01*
X1076563Y416559D01*
X1076562Y416554D01*
X1076562Y416550D01*
X1076561Y416546D01*
X1076560Y416542D01*
X1076560Y416537D01*
X1076559Y416533D01*
X1076558Y416529D01*
X1076558Y416525D01*
X1076557Y416520D01*
X1076556Y416516D01*
X1076556Y416512D01*
X1076555Y416508D01*
X1076554Y416503D01*
X1076554Y416499D01*
X1076553Y416499D01*
X1076553Y416495D01*
X1076552Y416491D01*
X1076551Y416486D01*
X1076551Y416482D01*
X1076550Y416478D01*
X1076549Y416474D01*
X1076549Y416469D01*
X1076548Y416465D01*
X1076547Y416461D01*
X1076547Y416457D01*
X1076546Y416452D01*
X1076545Y416444D01*
X1076544Y416440D01*
X1076543Y416431D01*
X1076542Y416427D01*
X1076541Y416418D01*
X1076540Y416414D01*
X1076539Y416406D01*
X1076538Y416401D01*
X1076537Y416393D01*
X1076536Y416389D01*
X1076535Y416380D01*
X1076534Y416376D01*
X1076533Y416367D01*
X1076532Y416367D01*
X1076533Y416367D01*
X1076532Y416363D01*
X1076530Y416355D01*
X1076530Y416350D01*
X1076528Y416342D01*
X1076528Y416338D01*
X1076526Y416329D01*
X1076526Y416325D01*
X1076524Y416316D01*
X1076524Y416312D01*
X1076522Y416304D01*
X1076522Y416299D01*
X1076520Y416291D01*
X1076520Y416287D01*
X1076518Y416278D01*
X1076518Y416274D01*
X1076516Y416265D01*
X1076516Y416261D01*
X1076515Y416257D01*
X1076514Y416253D01*
X1076514Y416248D01*
X1076513Y416244D01*
X1076512Y416240D01*
X1076512Y416236D01*
X1076511Y416236D01*
X1076512Y416236D01*
X1076511Y416231D01*
X1076510Y416227D01*
X1076509Y416223D01*
X1076509Y416219D01*
X1076508Y416214D01*
X1076507Y416210D01*
X1076507Y416206D01*
X1076506Y416202D01*
X1076505Y416197D01*
X1076505Y416193D01*
X1076504Y416189D01*
X1076503Y416185D01*
X1076503Y416180D01*
X1076502Y416176D01*
X1076501Y416172D01*
X1076501Y416168D01*
X1076500Y416163D01*
X1076499Y416159D01*
X1076499Y416155D01*
X1076498Y416151D01*
X1076497Y416146D01*
X1076497Y416142D01*
X1076496Y416138D01*
X1076495Y416134D01*
X1076495Y416129D01*
X1076494Y416125D01*
X1076493Y416121D01*
X1076493Y416117D01*
X1076492Y416112D01*
X1076491Y416108D01*
X1076491Y416104D01*
X1076490Y416104D01*
X1076491Y416104D01*
X1076490Y416100D01*
X1076489Y416095D01*
X1076488Y416091D01*
X1076488Y416087D01*
X1076487Y416083D01*
X1076486Y416078D01*
X1076486Y416074D01*
X1076485Y416070D01*
X1076484Y416066D01*
X1076484Y416061D01*
X1076483Y416057D01*
X1076482Y416053D01*
X1076482Y416049D01*
X1076481Y416044D01*
X1076480Y416040D01*
X1076480Y416036D01*
X1076479Y416032D01*
X1076478Y416027D01*
X1076478Y416023D01*
X1076477Y416019D01*
X1076476Y416015D01*
X1076476Y416010D01*
X1076475Y416006D01*
X1076474Y416002D01*
X1076474Y415998D01*
X1076473Y415993D01*
X1076472Y415989D01*
X1076472Y415985D01*
X1076471Y415981D01*
X1076470Y415976D01*
X1076469Y415968D01*
X1076468Y415964D01*
X1076467Y415955D01*
X1076466Y415951D01*
X1076465Y415942D01*
X1076464Y415938D01*
X1076463Y415930D01*
X1076462Y415925D01*
X1076461Y415917D01*
X1076460Y415913D01*
X1076459Y415904D01*
X1076458Y415900D01*
X1076457Y415891D01*
X1076456Y415887D01*
X1076455Y415879D01*
X1076454Y415874D01*
X1076453Y415866D01*
X1076452Y415862D01*
X1076451Y415853D01*
X1076450Y415849D01*
X1076449Y415840D01*
X1076448Y415836D01*
X1076447Y415828D01*
X1076446Y415828D01*
X1076447Y415828D01*
X1076446Y415823D01*
X1076444Y415815D01*
X1076444Y415811D01*
X1076442Y415802D01*
X1076442Y415798D01*
X1076440Y415789D01*
X1076440Y415785D01*
X1076438Y415777D01*
X1076438Y415772D01*
X1076437Y415768D01*
X1076436Y415764D01*
X1076436Y415760D01*
X1076435Y415755D01*
X1076434Y415751D01*
X1076434Y415747D01*
X1076433Y415743D01*
X1076432Y415738D01*
X1076432Y415734D01*
X1076431Y415730D01*
X1076430Y415726D01*
X1076430Y415721D01*
X1076429Y415717D01*
X1076428Y415713D01*
X1076428Y415709D01*
X1076427Y415704D01*
X1076426Y415700D01*
X1076426Y415696D01*
X1076425Y415696D01*
X1076426Y415696D01*
X1076425Y415692D01*
X1076424Y415687D01*
X1076423Y415683D01*
X1076423Y415679D01*
X1076422Y415675D01*
X1076421Y415670D01*
X1076421Y415666D01*
X1076420Y415662D01*
X1076419Y415658D01*
X1076419Y415653D01*
X1076418Y415649D01*
X1076417Y415645D01*
X1076417Y415641D01*
X1076416Y415636D01*
X1076415Y415632D01*
X1076415Y415628D01*
X1076414Y415624D01*
X1076413Y415619D01*
X1076413Y415615D01*
X1076412Y415611D01*
X1076411Y415607D01*
X1076411Y415602D01*
X1076410Y415598D01*
X1076409Y415594D01*
X1076409Y415590D01*
X1076408Y415585D01*
X1076407Y415581D01*
X1076407Y415577D01*
X1076406Y415573D01*
X1076405Y415568D01*
X1076405Y415564D01*
X1076404Y415564D01*
X1076405Y415564D01*
X1076404Y415560D01*
X1076403Y415556D01*
X1076402Y415551D01*
X1076402Y415547D01*
X1076401Y415543D01*
X1076400Y415539D01*
X1076400Y415534D01*
X1076399Y415530D01*
X1076398Y415526D01*
X1076398Y415522D01*
X1076397Y415517D01*
X1076396Y415513D01*
X1076396Y415509D01*
X1076395Y415505D01*
X1076394Y415500D01*
X1076394Y415496D01*
X1076393Y415492D01*
X1076392Y415488D01*
X1076391Y415479D01*
X1076390Y415475D01*
X1076389Y415466D01*
X1076388Y415462D01*
X1076387Y415454D01*
X1076386Y415449D01*
X1076385Y415441D01*
X1076384Y415437D01*
X1076383Y415428D01*
X1076382Y415424D01*
X1076381Y415415D01*
X1076380Y415411D01*
X1076379Y415403D01*
X1076378Y415398D01*
X1076377Y415390D01*
X1076376Y415386D01*
X1076375Y415377D01*
X1076374Y415373D01*
X1076373Y415364D01*
X1076372Y415360D01*
X1076371Y415352D01*
X1076370Y415347D01*
X1076369Y415339D01*
X1076368Y415335D01*
X1076367Y415326D01*
X1076366Y415322D01*
X1076365Y415313D01*
X1076364Y415309D01*
X1076363Y415301D01*
X1076362Y415296D01*
X1076361Y415292D01*
X1076361Y415288D01*
X1076360Y415288D01*
X1076361Y415288D01*
X1076360Y415284D01*
X1076359Y415279D01*
X1076358Y415275D01*
X1076358Y415271D01*
X1076357Y415267D01*
X1076356Y415262D01*
X1076356Y415258D01*
X1076355Y415254D01*
X1076354Y415250D01*
X1076354Y415245D01*
X1076353Y415241D01*
X1076352Y415237D01*
X1076352Y415233D01*
X1076351Y415228D01*
X1076350Y415224D01*
X1076350Y415220D01*
X1076349Y415216D01*
X1076348Y415211D01*
X1076348Y415207D01*
X1076347Y415203D01*
X1076346Y415199D01*
X1076346Y415194D01*
X1076345Y415190D01*
X1076344Y415186D01*
X1076344Y415182D01*
X1076343Y415177D01*
X1076342Y415173D01*
X1076342Y415169D01*
X1076341Y415165D01*
X1076340Y415160D01*
X1076340Y415156D01*
X1076339Y415156D01*
X1076340Y415156D01*
X1076339Y415152D01*
X1076338Y415148D01*
X1076337Y415143D01*
X1076337Y415139D01*
X1076336Y415135D01*
X1076335Y415131D01*
X1076335Y415126D01*
X1076334Y415122D01*
X1076333Y415118D01*
X1076333Y415114D01*
X1076332Y415109D01*
X1076331Y415105D01*
X1076331Y415101D01*
X1076330Y415097D01*
X1076329Y415092D01*
X1076329Y415088D01*
X1076328Y415084D01*
X1076327Y415080D01*
X1076327Y415075D01*
X1076326Y415071D01*
X1076325Y415067D01*
X1076325Y415063D01*
X1076324Y415058D01*
X1076323Y415054D01*
X1076323Y415050D01*
X1076322Y415046D01*
X1076321Y415041D01*
X1076321Y415037D01*
X1076320Y415033D01*
X1076319Y415029D01*
X1076319Y415024D01*
X1076318Y415024D01*
X1076319Y415024D01*
X1076318Y415020D01*
X1076317Y415016D01*
X1076316Y415012D01*
X1076315Y415003D01*
X1076314Y414999D01*
X1076313Y414990D01*
X1076312Y414986D01*
X1076311Y414978D01*
X1076310Y414973D01*
X1076309Y414965D01*
X1076308Y414961D01*
X1076307Y414952D01*
X1076306Y414948D01*
X1076305Y414939D01*
X1076304Y414935D01*
X1076303Y414927D01*
X1076302Y414922D01*
X1076301Y414914D01*
X1076300Y414910D01*
X1076299Y414901D01*
X1076298Y414897D01*
X1076297Y414888D01*
X1076296Y414884D01*
X1076295Y414876D01*
X1076294Y414871D01*
X1076293Y414863D01*
X1076292Y414859D01*
X1076291Y414850D01*
X1076290Y414846D01*
X1076289Y414837D01*
X1076288Y414833D01*
X1076287Y414825D01*
X1076286Y414820D01*
X1076285Y414812D01*
X1076284Y414808D01*
X1076283Y414803D01*
X1076283Y414799D01*
X1076282Y414795D01*
X1076281Y414791D01*
X1076281Y414786D01*
X1076280Y414782D01*
X1076279Y414778D01*
X1076279Y414774D01*
X1076278Y414769D01*
X1076277Y414765D01*
X1076277Y414761D01*
X1076276Y414757D01*
X1076275Y414752D01*
X1076275Y414748D01*
X1076274Y414748D01*
X1076275Y414748D01*
X1076274Y414744D01*
X1076273Y414740D01*
X1076272Y414735D01*
X1076272Y414731D01*
X1076271Y414727D01*
X1076270Y414723D01*
X1076270Y414718D01*
X1076269Y414714D01*
X1076268Y414710D01*
X1076268Y414706D01*
X1076267Y414701D01*
X1076266Y414697D01*
X1076266Y414693D01*
X1076265Y414689D01*
X1076264Y414684D01*
X1076264Y414680D01*
X1076263Y414676D01*
X1076262Y414672D01*
X1076262Y414667D01*
X1076261Y414663D01*
X1076260Y414659D01*
X1076260Y414655D01*
X1076259Y414650D01*
X1076258Y414646D01*
X1076258Y414642D01*
X1076257Y414638D01*
X1076256Y414633D01*
X1076256Y414629D01*
X1076255Y414625D01*
X1076254Y414621D01*
X1076254Y414616D01*
X1076253Y414616D01*
X1076254Y414616D01*
X1076253Y414612D01*
X1076252Y414608D01*
X1076251Y414604D01*
X1076251Y414599D01*
X1076250Y414595D01*
X1076249Y414591D01*
X1076249Y414587D01*
X1076248Y414582D01*
X1076247Y414578D01*
X1076247Y414574D01*
X1076246Y414570D01*
X1076245Y414565D01*
X1076245Y414561D01*
X1076244Y414557D01*
X1076243Y414553D01*
X1076243Y414548D01*
X1076242Y414544D01*
X1076241Y414540D01*
X1076241Y414536D01*
X1076240Y414531D01*
X1076239Y414527D01*
X1076239Y414523D01*
X1076237Y414514D01*
X1076237Y414510D01*
X1076235Y414502D01*
X1076235Y414497D01*
X1076233Y414489D01*
X1076233Y414485D01*
X1076232Y414485D01*
X1076233Y414485D01*
X1076231Y414476D01*
X1076230Y414472D01*
X1076229Y414463D01*
X1076228Y414459D01*
X1076227Y414451D01*
X1076226Y414446D01*
X1076225Y414438D01*
X1076224Y414434D01*
X1076223Y414425D01*
X1076222Y414421D01*
X1076221Y414412D01*
X1076220Y414408D01*
X1076219Y414400D01*
X1076218Y414395D01*
X1076217Y414387D01*
X1076216Y414383D01*
X1076215Y414374D01*
X1076214Y414370D01*
X1076213Y414361D01*
X1076212Y414357D01*
X1076211Y414349D01*
X1076210Y414344D01*
X1076209Y414336D01*
X1076208Y414332D01*
X1076207Y414327D01*
X1076207Y414323D01*
X1076206Y414319D01*
X1076205Y414315D01*
X1076205Y414310D01*
X1076204Y414306D01*
X1076203Y414302D01*
X1076203Y414298D01*
X1076202Y414293D01*
X1076201Y414289D01*
X1076201Y414285D01*
X1076200Y414281D01*
X1076199Y414276D01*
X1076199Y414272D01*
X1076198Y414268D01*
X1076197Y414264D01*
X1076197Y414259D01*
X1076196Y414255D01*
X1076195Y414251D01*
X1076195Y414247D01*
X1076194Y414242D01*
X1076193Y414238D01*
X1076193Y414234D01*
X1076192Y414230D01*
X1076191Y414225D01*
X1076191Y414221D01*
X1076190Y414217D01*
X1076189Y414213D01*
X1076189Y414208D01*
X1076188Y414208D01*
X1076189Y414208D01*
X1076188Y414204D01*
X1076187Y414200D01*
X1076186Y414196D01*
X1076186Y414191D01*
X1076185Y414187D01*
X1076184Y414183D01*
X1076184Y414179D01*
X1076183Y414174D01*
X1076182Y414170D01*
X1076182Y414166D01*
X1076181Y414162D01*
X1076180Y414157D01*
X1076180Y414153D01*
X1076179Y414149D01*
X1076178Y414145D01*
X1076178Y414140D01*
X1076177Y414136D01*
X1076176Y414132D01*
X1076176Y414128D01*
X1076175Y414123D01*
X1076174Y414119D01*
X1076174Y414115D01*
X1076173Y414111D01*
X1076172Y414106D01*
X1076172Y414102D01*
X1076171Y414098D01*
X1076170Y414094D01*
X1076170Y414089D01*
X1076169Y414085D01*
X1076168Y414081D01*
X1076168Y414077D01*
X1076167Y414077D01*
X1076168Y414077D01*
X1076167Y414072D01*
X1076166Y414068D01*
X1076165Y414064D01*
X1076165Y414060D01*
X1076164Y414055D01*
X1076163Y414051D01*
X1076163Y414047D01*
X1076161Y414038D01*
X1076161Y414034D01*
X1076159Y414026D01*
X1076159Y414021D01*
X1076157Y414013D01*
X1076157Y414009D01*
X1076155Y414000D01*
X1076155Y413996D01*
X1076153Y413987D01*
X1076153Y413983D01*
X1076151Y413975D01*
X1076151Y413970D01*
X1076149Y413962D01*
X1076149Y413958D01*
X1076147Y413949D01*
X1076147Y413945D01*
X1076146Y413945D01*
X1076147Y413945D01*
X1076145Y413936D01*
X1076144Y413932D01*
X1076143Y413924D01*
X1076142Y413919D01*
X1076141Y413911D01*
X1076140Y413907D01*
X1076139Y413898D01*
X1076138Y413894D01*
X1076137Y413885D01*
X1076136Y413881D01*
X1076135Y413873D01*
X1076134Y413868D01*
X1076133Y413860D01*
X1076132Y413856D01*
X1076131Y413847D01*
X1076130Y413843D01*
X1076130Y413839D01*
X1076129Y413834D01*
X1076128Y413830D01*
X1076128Y413826D01*
X1076127Y413822D01*
X1076126Y413817D01*
X1076126Y413813D01*
X1076125Y413813D01*
X1076126Y413813D01*
X1076125Y413809D01*
X1076124Y413805D01*
X1076124Y413800D01*
X1076123Y413800D01*
X1076123Y413796D01*
X1076122Y413792D01*
X1076121Y413788D01*
X1076121Y413783D01*
X1076120Y413779D01*
X1076119Y413775D01*
X1076119Y413771D01*
X1076118Y413766D01*
X1076117Y413762D01*
X1076117Y413758D01*
X1076116Y413754D01*
X1076115Y413749D01*
X1076115Y413745D01*
X1076114Y413741D01*
X1076113Y413737D01*
X1076113Y413732D01*
X1076112Y413728D01*
X1076111Y413724D01*
X1076111Y413720D01*
X1076110Y413715D01*
X1076109Y413711D01*
X1076109Y413707D01*
X1076108Y413703D01*
X1076107Y413698D01*
X1076107Y413694D01*
X1076106Y413690D01*
X1076105Y413686D01*
X1076105Y413681D01*
X1076104Y413677D01*
X1076103Y413673D01*
X1076103Y413669D01*
X1076102Y413669D01*
X1076102Y413664D01*
X1076101Y413660D01*
X1076100Y413656D01*
X1076100Y413652D01*
X1076099Y413647D01*
X1076098Y413643D01*
X1076098Y413639D01*
X1076097Y413635D01*
X1076096Y413630D01*
X1076096Y413626D01*
X1076095Y413622D01*
X1076094Y413618D01*
X1076094Y413613D01*
X1076093Y413609D01*
X1076092Y413605D01*
X1076092Y413601D01*
X1076091Y413596D01*
X1076090Y413592D01*
X1076090Y413588D01*
X1076089Y413584D01*
X1076088Y413579D01*
X1076088Y413575D01*
X1076087Y413571D01*
X1076086Y413562D01*
X1076085Y413558D01*
X1076084Y413550D01*
X1076083Y413545D01*
X1076082Y413537D01*
X1076081Y413537D01*
X1076082Y413537D01*
X1076081Y413533D01*
X1076079Y413524D01*
X1076079Y413520D01*
X1076077Y413511D01*
X1076077Y413507D01*
X1076075Y413499D01*
X1076075Y413494D01*
X1076073Y413486D01*
X1076073Y413482D01*
X1076071Y413473D01*
X1076071Y413469D01*
X1076069Y413460D01*
X1076069Y413456D01*
X1076067Y413448D01*
X1076067Y413443D01*
X1076065Y413435D01*
X1076065Y413431D01*
X1076063Y413422D01*
X1076063Y413418D01*
X1076061Y413409D01*
X1076061Y413405D01*
X1076060Y413405D01*
X1076061Y413405D01*
X1076060Y413404D01*
X1074005Y408488D01*
X1073043Y407076D01*
X1072058Y405826D01*
X1071055Y404727D01*
X1070039Y403771D01*
X1069015Y402950D01*
X1067987Y402255D01*
X1066961Y401676D01*
X1065941Y401206D01*
X1065940Y401203D01*
X1065938Y401202D01*
X1065938Y389171D01*
X1065942Y389167D01*
X1065943Y389167D01*
X1068185Y389183D01*
G37*
G36*
X1065747Y389181D02*
X1065747Y389181D01*
X1065746Y389182D01*
X1065747Y389182D01*
X1065747Y401117D01*
X1065747Y401118D01*
X1065746Y401119D01*
X1065743Y401121D01*
X1065742Y401121D01*
X1065741Y401121D01*
X1063529Y400460D01*
X1061434Y400192D01*
X1059511Y400223D01*
X1057814Y400459D01*
X1056399Y400807D01*
X1055321Y401172D01*
X1054633Y401459D01*
X1054393Y401576D01*
X1050896Y405051D01*
X1049077Y408859D01*
X1048563Y412754D01*
X1048564Y412765D01*
X1048564Y412769D01*
X1048565Y412773D01*
X1048565Y412777D01*
X1048565Y412778D01*
X1048566Y412782D01*
X1048567Y412790D01*
X1048567Y412794D01*
X1048567Y412795D01*
X1048568Y412799D01*
X1048568Y412803D01*
X1048569Y412807D01*
X1048570Y412820D01*
X1048571Y412824D01*
X1048571Y412828D01*
X1048571Y412829D01*
X1048571Y412833D01*
X1048572Y412837D01*
X1048573Y412850D01*
X1048574Y412854D01*
X1048574Y412858D01*
X1048575Y412862D01*
X1048575Y412863D01*
X1048576Y412875D01*
X1048577Y412879D01*
X1048577Y412880D01*
X1048577Y412884D01*
X1048578Y412888D01*
X1048578Y412892D01*
X1048580Y412905D01*
X1048580Y412909D01*
X1048580Y412913D01*
X1048580Y412914D01*
X1048581Y412918D01*
X1048581Y412922D01*
X1048582Y412930D01*
X1048582Y412931D01*
X1048583Y412935D01*
X1048583Y412939D01*
X1048584Y412943D01*
X1048584Y412947D01*
X1048584Y412948D01*
X1048586Y412960D01*
X1048586Y412964D01*
X1048586Y412965D01*
X1048587Y412969D01*
X1048587Y412973D01*
X1048588Y412977D01*
X1048589Y412990D01*
X1048589Y412994D01*
X1048590Y412998D01*
X1048590Y412999D01*
X1048590Y413003D01*
X1048592Y413015D01*
X1048592Y413016D01*
X1048592Y413020D01*
X1048593Y413024D01*
X1048593Y413028D01*
X1048594Y413032D01*
X1048594Y413033D01*
X1048595Y413045D01*
X1048596Y413049D01*
X1048596Y413050D01*
X1048596Y413054D01*
X1048597Y413058D01*
X1048597Y413062D01*
X1048598Y413071D01*
X1048598Y413075D01*
X1048599Y413079D01*
X1048599Y413083D01*
X1048599Y413084D01*
X1048600Y413088D01*
X1048601Y413100D01*
X1048601Y413101D01*
X1048602Y413105D01*
X1048602Y413109D01*
X1048603Y413113D01*
X1048603Y413117D01*
X1048603Y413118D01*
X1048605Y413130D01*
X1048605Y413134D01*
X1048605Y413135D01*
X1048606Y413139D01*
X1048606Y413143D01*
X1048607Y413156D01*
X1048608Y413160D01*
X1048608Y413164D01*
X1048609Y413168D01*
X1048609Y413169D01*
X1048609Y413173D01*
X1048611Y413185D01*
X1048611Y413186D01*
X1048611Y413190D01*
X1048612Y413194D01*
X1048612Y413198D01*
X1048613Y413202D01*
X1048613Y413203D01*
X1048614Y413211D01*
X1048614Y413215D01*
X1048615Y413219D01*
X1048615Y413220D01*
X1048615Y413224D01*
X1048615Y413228D01*
X1048616Y413228D01*
X1048615Y413228D01*
X1048617Y413241D01*
X1048617Y413245D01*
X1048618Y413249D01*
X1048618Y413253D01*
X1048618Y413254D01*
X1048619Y413258D01*
X1048620Y413270D01*
X1048620Y413271D01*
X1048621Y413275D01*
X1048621Y413279D01*
X1048622Y413283D01*
X1048623Y413296D01*
X1048624Y413300D01*
X1048624Y413304D01*
X1048624Y413305D01*
X1048624Y413309D01*
X1048625Y413309D01*
X1048624Y413309D01*
X1048625Y413313D01*
X1048626Y413326D01*
X1048627Y413330D01*
X1048627Y413334D01*
X1048628Y413338D01*
X1048628Y413339D01*
X1048628Y413343D01*
X1048629Y413351D01*
X1048630Y413355D01*
X1048630Y413356D01*
X1048630Y413360D01*
X1048631Y413364D01*
X1048631Y413368D01*
X1048633Y413381D01*
X1048633Y413385D01*
X1048633Y413389D01*
X1048634Y413389D01*
X1048633Y413390D01*
X1048634Y413394D01*
X1048634Y413398D01*
X1048636Y413411D01*
X1048636Y413415D01*
X1048637Y413419D01*
X1048637Y413423D01*
X1048637Y413424D01*
X1048639Y413436D01*
X1048639Y413440D01*
X1048639Y413441D01*
X1048640Y413445D01*
X1048640Y413449D01*
X1048641Y413453D01*
X1048642Y413466D01*
X1048642Y413470D01*
X1048643Y413470D01*
X1048642Y413470D01*
X1048643Y413474D01*
X1048643Y413475D01*
X1048643Y413479D01*
X1048644Y413483D01*
X1048645Y413496D01*
X1048646Y413500D01*
X1048646Y413504D01*
X1048647Y413508D01*
X1048647Y413509D01*
X1048648Y413521D01*
X1048649Y413525D01*
X1048649Y413526D01*
X1048649Y413530D01*
X1048650Y413534D01*
X1048650Y413538D01*
X1048651Y413551D01*
X1048652Y413551D01*
X1048651Y413551D01*
X1048652Y413555D01*
X1048652Y413559D01*
X1048652Y413560D01*
X1048653Y413564D01*
X1048654Y413576D01*
X1048654Y413577D01*
X1048655Y413581D01*
X1048655Y413585D01*
X1048656Y413589D01*
X1048656Y413593D01*
X1048656Y413594D01*
X1048658Y413606D01*
X1048658Y413610D01*
X1048658Y413611D01*
X1048659Y413615D01*
X1048659Y413619D01*
X1048660Y413623D01*
X1048661Y413636D01*
X1048661Y413640D01*
X1048662Y413644D01*
X1048662Y413645D01*
X1048662Y413649D01*
X1048664Y413661D01*
X1048664Y413662D01*
X1048664Y413666D01*
X1048665Y413670D01*
X1048665Y413674D01*
X1048666Y413678D01*
X1048666Y413679D01*
X1048667Y413691D01*
X1048668Y413695D01*
X1048668Y413696D01*
X1048668Y413700D01*
X1048669Y413704D01*
X1048669Y413708D01*
X1048670Y413717D01*
X1048670Y413721D01*
X1048671Y413725D01*
X1048671Y413729D01*
X1048671Y413730D01*
X1048672Y413734D01*
X1048673Y413746D01*
X1048673Y413747D01*
X1048674Y413751D01*
X1048674Y413755D01*
X1048675Y413759D01*
X1048675Y413763D01*
X1048675Y413764D01*
X1048677Y413776D01*
X1048677Y413780D01*
X1048677Y413781D01*
X1048678Y413785D01*
X1048678Y413789D01*
X1048679Y413802D01*
X1048680Y413806D01*
X1048680Y413810D01*
X1048681Y413814D01*
X1048681Y413815D01*
X1048681Y413819D01*
X1048683Y413831D01*
X1048683Y413832D01*
X1048683Y413836D01*
X1048684Y413840D01*
X1048684Y413844D01*
X1048685Y413848D01*
X1048685Y413849D01*
X1048686Y413857D01*
X1048686Y413861D01*
X1048687Y413865D01*
X1048687Y413866D01*
X1048687Y413870D01*
X1048687Y413874D01*
X1048689Y413887D01*
X1048689Y413891D01*
X1048690Y413895D01*
X1048690Y413899D01*
X1048690Y413900D01*
X1048691Y413904D01*
X1048692Y413916D01*
X1048692Y413917D01*
X1048693Y413921D01*
X1048693Y413925D01*
X1048694Y413929D01*
X1048695Y413942D01*
X1048696Y413946D01*
X1048696Y413950D01*
X1048696Y413951D01*
X1048696Y413955D01*
X1048697Y413959D01*
X1048698Y413972D01*
X1048699Y413976D01*
X1048699Y413980D01*
X1048700Y413984D01*
X1048700Y413985D01*
X1048700Y413989D01*
X1048701Y413997D01*
X1048702Y414001D01*
X1048702Y414002D01*
X1048702Y414006D01*
X1048703Y414010D01*
X1048703Y414014D01*
X1048705Y414027D01*
X1048705Y414031D01*
X1048705Y414035D01*
X1048705Y414036D01*
X1048706Y414040D01*
X1048706Y414044D01*
X1048708Y414057D01*
X1048708Y414061D01*
X1048709Y414065D01*
X1048709Y414069D01*
X1048709Y414070D01*
X1048711Y414082D01*
X1048711Y414086D01*
X1048711Y414087D01*
X1048712Y414091D01*
X1048712Y414095D01*
X1048713Y414099D01*
X1048714Y414112D01*
X1048714Y414116D01*
X1048715Y414120D01*
X1048715Y414121D01*
X1048715Y414125D01*
X1048716Y414129D01*
X1048717Y414137D01*
X1048717Y414138D01*
X1048717Y414142D01*
X1048718Y414146D01*
X1048718Y414150D01*
X1048719Y414154D01*
X1048719Y414155D01*
X1048720Y414167D01*
X1048721Y414171D01*
X1048721Y414172D01*
X1048721Y414176D01*
X1048722Y414180D01*
X1048722Y414184D01*
X1048723Y414197D01*
X1048724Y414201D01*
X1048724Y414205D01*
X1048724Y414206D01*
X1048725Y414210D01*
X1048726Y414222D01*
X1048726Y414223D01*
X1048727Y414227D01*
X1048727Y414231D01*
X1048728Y414235D01*
X1048728Y414239D01*
X1048728Y414240D01*
X1048730Y414252D01*
X1048730Y414256D01*
X1048730Y414257D01*
X1048731Y414261D01*
X1048731Y414265D01*
X1048731Y414269D01*
X1048732Y414269D01*
X1048732Y414278D01*
X1048733Y414282D01*
X1048733Y414286D01*
X1048734Y414290D01*
X1048734Y414291D01*
X1048734Y414295D01*
X1048736Y414307D01*
X1048736Y414308D01*
X1048736Y414312D01*
X1048737Y414316D01*
X1048737Y414320D01*
X1048738Y414324D01*
X1048738Y414325D01*
X1048739Y414337D01*
X1048740Y414341D01*
X1048740Y414342D01*
X1048740Y414346D01*
X1048740Y414350D01*
X1048741Y414350D01*
X1048740Y414350D01*
X1048742Y414363D01*
X1048742Y414367D01*
X1048743Y414371D01*
X1048743Y414375D01*
X1048743Y414376D01*
X1048744Y414380D01*
X1048745Y414392D01*
X1048745Y414393D01*
X1048746Y414397D01*
X1048746Y414401D01*
X1048747Y414405D01*
X1048747Y414409D01*
X1048747Y414410D01*
X1048748Y414418D01*
X1048749Y414422D01*
X1048749Y414426D01*
X1048749Y414427D01*
X1048749Y414431D01*
X1048750Y414431D01*
X1048749Y414431D01*
X1048750Y414435D01*
X1048751Y414448D01*
X1048752Y414452D01*
X1048752Y414456D01*
X1048753Y414460D01*
X1048753Y414461D01*
X1048753Y414465D01*
X1048755Y414477D01*
X1048755Y414478D01*
X1048755Y414482D01*
X1048756Y414486D01*
X1048756Y414490D01*
X1048758Y414503D01*
X1048758Y414507D01*
X1048758Y414511D01*
X1048759Y414511D01*
X1048758Y414512D01*
X1048759Y414516D01*
X1048759Y414520D01*
X1048761Y414533D01*
X1048761Y414537D01*
X1048762Y414541D01*
X1048762Y414545D01*
X1048762Y414546D01*
X1048763Y414550D01*
X1048764Y414558D01*
X1048764Y414562D01*
X1048764Y414563D01*
X1048765Y414567D01*
X1048765Y414571D01*
X1048766Y414575D01*
X1048767Y414588D01*
X1048767Y414592D01*
X1048768Y414592D01*
X1048767Y414592D01*
X1048768Y414596D01*
X1048768Y414597D01*
X1048768Y414601D01*
X1048769Y414605D01*
X1048770Y414618D01*
X1048771Y414622D01*
X1048771Y414626D01*
X1048772Y414630D01*
X1048772Y414631D01*
X1048773Y414643D01*
X1048774Y414647D01*
X1048774Y414648D01*
X1048774Y414652D01*
X1048775Y414656D01*
X1048775Y414660D01*
X1048776Y414673D01*
X1048777Y414673D01*
X1048776Y414673D01*
X1048777Y414677D01*
X1048777Y414681D01*
X1048777Y414682D01*
X1048778Y414686D01*
X1048778Y414690D01*
X1048780Y414703D01*
X1048780Y414707D01*
X1048781Y414711D01*
X1048781Y414715D01*
X1048781Y414716D01*
X1048783Y414728D01*
X1048783Y414732D01*
X1048783Y414733D01*
X1048784Y414737D01*
X1048784Y414741D01*
X1048785Y414745D01*
X1048786Y414758D01*
X1048786Y414762D01*
X1048787Y414766D01*
X1048787Y414767D01*
X1048787Y414771D01*
X1048789Y414783D01*
X1048789Y414784D01*
X1048789Y414788D01*
X1048790Y414792D01*
X1048790Y414796D01*
X1048791Y414800D01*
X1048791Y414801D01*
X1048792Y414813D01*
X1048793Y414817D01*
X1048793Y414818D01*
X1048793Y414822D01*
X1048794Y414826D01*
X1048794Y414830D01*
X1048795Y414843D01*
X1048796Y414847D01*
X1048796Y414851D01*
X1048796Y414852D01*
X1048797Y414856D01*
X1048798Y414868D01*
X1048798Y414869D01*
X1048799Y414873D01*
X1048799Y414877D01*
X1048800Y414881D01*
X1048800Y414885D01*
X1048800Y414886D01*
X1048802Y414898D01*
X1048802Y414902D01*
X1048802Y414903D01*
X1048803Y414907D01*
X1048803Y414911D01*
X1048803Y414915D01*
X1048804Y414924D01*
X1048805Y414928D01*
X1048805Y414932D01*
X1048806Y414936D01*
X1048806Y414937D01*
X1048806Y414941D01*
X1048808Y414953D01*
X1048808Y414954D01*
X1048808Y414958D01*
X1048809Y414962D01*
X1048809Y414966D01*
X1048810Y414970D01*
X1048810Y414971D01*
X1048811Y414983D01*
X1048812Y414987D01*
X1048812Y414988D01*
X1048812Y414992D01*
X1048812Y414996D01*
X1048814Y415009D01*
X1048814Y415013D01*
X1048815Y415017D01*
X1048815Y415021D01*
X1048815Y415022D01*
X1048816Y415026D01*
X1048817Y415038D01*
X1048817Y415039D01*
X1048818Y415043D01*
X1048818Y415047D01*
X1048819Y415051D01*
X1048819Y415055D01*
X1048819Y415056D01*
X1048820Y415064D01*
X1048821Y415068D01*
X1048821Y415072D01*
X1048821Y415073D01*
X1048821Y415077D01*
X1048822Y415081D01*
X1048823Y415094D01*
X1048824Y415098D01*
X1048824Y415102D01*
X1048825Y415106D01*
X1048825Y415107D01*
X1048825Y415111D01*
X1048827Y415123D01*
X1048827Y415124D01*
X1048827Y415128D01*
X1048828Y415132D01*
X1048828Y415136D01*
X1048830Y415149D01*
X1048830Y415153D01*
X1048830Y415157D01*
X1048830Y415158D01*
X1048831Y415162D01*
X1048831Y415166D01*
X1048833Y415179D01*
X1048833Y415183D01*
X1048834Y415187D01*
X1048834Y415191D01*
X1048834Y415192D01*
X1048835Y415196D01*
X1048836Y415204D01*
X1048836Y415208D01*
X1048836Y415209D01*
X1048837Y415213D01*
X1048837Y415217D01*
X1048838Y415221D01*
X1048839Y415234D01*
X1048839Y415238D01*
X1048840Y415242D01*
X1048840Y415243D01*
X1048840Y415247D01*
X1048841Y415251D01*
X1048842Y415264D01*
X1048843Y415268D01*
X1048843Y415272D01*
X1048844Y415276D01*
X1048844Y415277D01*
X1048845Y415289D01*
X1048846Y415293D01*
X1048846Y415294D01*
X1048846Y415298D01*
X1048847Y415302D01*
X1048847Y415306D01*
X1048848Y415319D01*
X1048849Y415323D01*
X1048849Y415327D01*
X1048849Y415328D01*
X1048850Y415332D01*
X1048850Y415336D01*
X1048851Y415344D01*
X1048851Y415345D01*
X1048852Y415349D01*
X1048852Y415353D01*
X1048853Y415357D01*
X1048853Y415361D01*
X1048853Y415362D01*
X1048855Y415374D01*
X1048855Y415378D01*
X1048855Y415379D01*
X1048856Y415383D01*
X1048856Y415387D01*
X1048856Y415391D01*
X1048857Y415391D01*
X1048858Y415404D01*
X1048858Y415408D01*
X1048859Y415412D01*
X1048859Y415413D01*
X1048859Y415417D01*
X1048861Y415429D01*
X1048861Y415430D01*
X1048861Y415434D01*
X1048862Y415438D01*
X1048862Y415442D01*
X1048863Y415446D01*
X1048863Y415447D01*
X1048864Y415459D01*
X1048865Y415463D01*
X1048865Y415464D01*
X1048865Y415468D01*
X1048865Y415472D01*
X1048866Y415472D01*
X1048865Y415472D01*
X1048866Y415476D01*
X1048867Y415485D01*
X1048867Y415489D01*
X1048868Y415493D01*
X1048868Y415497D01*
X1048868Y415498D01*
X1048869Y415502D01*
X1048870Y415514D01*
X1048870Y415515D01*
X1048871Y415519D01*
X1048871Y415523D01*
X1048872Y415527D01*
X1048872Y415531D01*
X1048872Y415532D01*
X1048874Y415544D01*
X1048874Y415548D01*
X1048874Y415549D01*
X1048874Y415553D01*
X1048875Y415553D01*
X1048874Y415553D01*
X1048875Y415557D01*
X1048876Y415570D01*
X1048877Y415574D01*
X1048877Y415578D01*
X1048878Y415582D01*
X1048878Y415583D01*
X1048878Y415587D01*
X1048880Y415599D01*
X1048880Y415600D01*
X1048880Y415604D01*
X1048881Y415608D01*
X1048881Y415612D01*
X1048882Y415616D01*
X1048882Y415617D01*
X1048883Y415625D01*
X1048883Y415629D01*
X1048883Y415633D01*
X1048884Y415633D01*
X1048883Y415634D01*
X1048884Y415638D01*
X1048884Y415642D01*
X1048886Y415655D01*
X1048886Y415659D01*
X1048887Y415663D01*
X1048887Y415667D01*
X1048887Y415668D01*
X1048888Y415672D01*
X1048889Y415684D01*
X1048889Y415685D01*
X1048890Y415689D01*
X1048890Y415693D01*
X1048891Y415697D01*
X1048892Y415710D01*
X1048892Y415714D01*
X1048893Y415714D01*
X1048892Y415714D01*
X1048893Y415718D01*
X1048893Y415719D01*
X1048893Y415723D01*
X1048894Y415727D01*
X1048895Y415740D01*
X1048896Y415744D01*
X1048896Y415748D01*
X1048897Y415752D01*
X1048897Y415753D01*
X1048897Y415757D01*
X1048898Y415765D01*
X1048899Y415769D01*
X1048899Y415770D01*
X1048899Y415774D01*
X1048900Y415778D01*
X1048900Y415782D01*
X1048901Y415795D01*
X1048902Y415795D01*
X1048901Y415795D01*
X1048902Y415799D01*
X1048902Y415803D01*
X1048902Y415804D01*
X1048903Y415808D01*
X1048903Y415812D01*
X1048905Y415825D01*
X1048905Y415829D01*
X1048906Y415833D01*
X1048906Y415837D01*
X1048906Y415838D01*
X1048908Y415850D01*
X1048908Y415854D01*
X1048908Y415855D01*
X1048909Y415859D01*
X1048909Y415863D01*
X1048910Y415867D01*
X1048911Y415880D01*
X1048911Y415884D01*
X1048912Y415888D01*
X1048912Y415889D01*
X1048912Y415893D01*
X1048913Y415897D01*
X1048914Y415905D01*
X1048914Y415906D01*
X1048914Y415910D01*
X1048915Y415914D01*
X1048915Y415918D01*
X1048916Y415922D01*
X1048916Y415923D01*
X1048917Y415935D01*
X1048918Y415939D01*
X1048918Y415940D01*
X1048918Y415944D01*
X1048919Y415948D01*
X1048919Y415952D01*
X1048920Y415965D01*
X1048921Y415969D01*
X1048921Y415973D01*
X1048921Y415974D01*
X1048922Y415978D01*
X1048923Y415990D01*
X1048923Y415991D01*
X1048924Y415995D01*
X1048924Y415999D01*
X1048925Y416003D01*
X1048925Y416007D01*
X1048925Y416008D01*
X1048927Y416020D01*
X1048927Y416024D01*
X1048927Y416025D01*
X1048928Y416029D01*
X1048928Y416033D01*
X1048928Y416037D01*
X1048930Y416050D01*
X1048930Y416054D01*
X1048931Y416058D01*
X1048931Y416059D01*
X1048931Y416063D01*
X1048933Y416075D01*
X1048933Y416076D01*
X1048933Y416080D01*
X1048934Y416084D01*
X1048934Y416088D01*
X1048935Y416092D01*
X1048935Y416093D01*
X1048936Y416105D01*
X1048937Y416109D01*
X1048937Y416110D01*
X1048937Y416114D01*
X1048937Y416118D01*
X1048939Y416131D01*
X1048939Y416135D01*
X1048940Y416139D01*
X1048940Y416143D01*
X1048940Y416144D01*
X1048941Y416148D01*
X1048942Y416160D01*
X1048942Y416161D01*
X1048943Y416165D01*
X1048943Y416169D01*
X1048944Y416173D01*
X1048944Y416177D01*
X1048944Y416178D01*
X1048946Y416190D01*
X1048946Y416194D01*
X1048946Y416195D01*
X1048946Y416199D01*
X1048947Y416203D01*
X1048948Y416216D01*
X1048949Y416220D01*
X1048949Y416224D01*
X1048950Y416228D01*
X1048950Y416229D01*
X1048950Y416233D01*
X1048952Y416245D01*
X1048952Y416246D01*
X1048952Y416250D01*
X1048953Y416254D01*
X1048953Y416258D01*
X1048954Y416262D01*
X1048954Y416263D01*
X1048955Y416271D01*
X1048955Y416275D01*
X1048955Y416279D01*
X1048955Y416280D01*
X1048956Y416284D01*
X1048956Y416288D01*
X1048958Y416301D01*
X1048958Y416305D01*
X1048959Y416309D01*
X1048959Y416313D01*
X1048959Y416314D01*
X1048960Y416318D01*
X1048961Y416330D01*
X1048961Y416331D01*
X1048962Y416335D01*
X1048962Y416339D01*
X1048963Y416343D01*
X1048964Y416356D01*
X1048964Y416360D01*
X1048965Y416364D01*
X1048965Y416365D01*
X1048965Y416369D01*
X1048966Y416373D01*
X1048967Y416386D01*
X1048968Y416390D01*
X1048968Y416394D01*
X1048969Y416398D01*
X1048969Y416399D01*
X1048969Y416403D01*
X1048970Y416411D01*
X1048971Y416415D01*
X1048971Y416416D01*
X1048971Y416420D01*
X1048972Y416424D01*
X1048972Y416428D01*
X1048973Y416441D01*
X1048974Y416445D01*
X1048974Y416449D01*
X1048974Y416450D01*
X1048975Y416454D01*
X1048975Y416458D01*
X1048977Y416471D01*
X1048977Y416475D01*
X1048978Y416479D01*
X1048978Y416483D01*
X1048978Y416484D01*
X1048979Y416491D01*
X1049953Y419824D01*
X1051111Y422509D01*
X1052080Y424300D01*
X1052485Y424951D01*
X1053891Y426958D01*
X1055384Y428870D01*
X1056957Y430692D01*
X1058602Y432424D01*
X1060311Y434068D01*
X1062077Y435629D01*
X1063890Y437106D01*
X1065745Y438504D01*
X1065746Y438506D01*
X1065746Y438507D01*
X1065747Y438508D01*
X1065747Y449375D01*
X1065746Y449376D01*
X1065746Y449377D01*
X1065745Y449378D01*
X1065743Y449379D01*
X1065742Y449379D01*
X1065741Y449378D01*
X1065740Y449379D01*
X1062952Y447304D01*
X1060251Y445126D01*
X1057647Y442841D01*
X1055150Y440446D01*
X1052770Y437939D01*
X1050518Y435316D01*
X1048405Y432575D01*
X1048404Y432575D01*
X1046439Y429713D01*
X1046085Y429160D01*
X1045174Y427604D01*
X1043936Y425199D01*
X1042597Y422099D01*
X1042597Y422098D01*
X1041387Y418456D01*
X1041386Y418452D01*
X1041381Y418427D01*
X1041380Y418427D01*
X1041381Y418427D01*
X1041375Y418401D01*
X1041370Y418376D01*
X1041364Y418350D01*
X1041354Y418304D01*
X1041349Y418278D01*
X1041344Y418253D01*
X1041338Y418227D01*
X1041333Y418202D01*
X1041327Y418176D01*
X1041322Y418151D01*
X1041317Y418125D01*
X1041311Y418100D01*
X1041306Y418074D01*
X1041300Y418049D01*
X1041295Y418023D01*
X1041290Y417998D01*
X1041289Y417998D01*
X1041290Y417998D01*
X1041284Y417972D01*
X1041279Y417947D01*
X1041273Y417921D01*
X1041268Y417896D01*
X1041263Y417874D01*
X1041258Y417849D01*
X1041253Y417823D01*
X1041247Y417798D01*
X1041242Y417772D01*
X1041236Y417747D01*
X1041231Y417721D01*
X1041226Y417696D01*
X1041220Y417670D01*
X1041215Y417645D01*
X1041209Y417619D01*
X1041204Y417594D01*
X1041199Y417568D01*
X1041198Y417568D01*
X1041193Y417543D01*
X1041188Y417517D01*
X1041182Y417492D01*
X1041177Y417466D01*
X1041171Y417441D01*
X1041167Y417420D01*
X1041162Y417394D01*
X1041156Y417369D01*
X1041151Y417343D01*
X1041145Y417318D01*
X1041140Y417292D01*
X1041135Y417267D01*
X1041129Y417241D01*
X1041124Y417216D01*
X1041118Y417190D01*
X1041113Y417165D01*
X1041108Y417139D01*
X1041107Y417139D01*
X1041102Y417114D01*
X1041097Y417088D01*
X1041091Y417063D01*
X1041086Y417037D01*
X1041080Y417012D01*
X1041076Y416990D01*
X1041071Y416965D01*
X1041065Y416939D01*
X1041060Y416914D01*
X1041054Y416888D01*
X1041049Y416863D01*
X1041044Y416837D01*
X1041038Y416812D01*
X1041033Y416786D01*
X1041027Y416761D01*
X1041022Y416735D01*
X1041017Y416710D01*
X1041016Y416710D01*
X1041011Y416684D01*
X1041006Y416659D01*
X1041000Y416633D01*
X1040995Y416608D01*
X1040989Y416582D01*
X1040984Y416557D01*
X1040980Y416536D01*
X1040974Y416510D01*
X1040969Y416485D01*
X1040963Y416459D01*
X1040958Y416434D01*
X1040953Y416408D01*
X1040947Y416383D01*
X1040942Y416357D01*
X1040936Y416332D01*
X1040931Y416306D01*
X1040926Y416281D01*
X1040925Y416281D01*
X1040920Y416255D01*
X1040915Y416230D01*
X1040909Y416204D01*
X1040904Y416179D01*
X1040898Y416153D01*
X1040893Y416128D01*
X1040889Y416106D01*
X1040883Y416081D01*
X1040878Y416055D01*
X1040872Y416030D01*
X1040867Y416004D01*
X1040862Y415979D01*
X1040856Y415953D01*
X1040851Y415928D01*
X1040845Y415902D01*
X1040840Y415877D01*
X1040835Y415851D01*
X1040834Y415851D01*
X1040829Y415826D01*
X1040824Y415800D01*
X1040818Y415775D01*
X1040813Y415749D01*
X1040807Y415724D01*
X1040802Y415698D01*
X1040797Y415673D01*
X1040792Y415652D01*
X1040787Y415626D01*
X1040781Y415601D01*
X1040776Y415575D01*
X1040771Y415550D01*
X1040765Y415524D01*
X1040760Y415499D01*
X1040754Y415473D01*
X1040749Y415448D01*
X1040744Y415422D01*
X1040743Y415422D01*
X1040738Y415397D01*
X1040733Y415371D01*
X1040727Y415346D01*
X1040722Y415320D01*
X1040716Y415295D01*
X1040711Y415269D01*
X1040706Y415244D01*
X1040700Y415218D01*
X1040696Y415197D01*
X1040690Y415171D01*
X1040685Y415146D01*
X1040680Y415120D01*
X1040674Y415095D01*
X1040669Y415069D01*
X1040663Y415044D01*
X1040658Y415018D01*
X1040653Y414993D01*
X1040652Y414993D01*
X1040647Y414967D01*
X1040642Y414942D01*
X1040636Y414916D01*
X1040631Y414891D01*
X1040625Y414865D01*
X1040620Y414840D01*
X1040615Y414814D01*
X1040609Y414789D01*
X1040605Y414768D01*
X1040599Y414742D01*
X1040594Y414717D01*
X1040589Y414691D01*
X1040583Y414666D01*
X1040578Y414640D01*
X1040572Y414615D01*
X1040567Y414589D01*
X1040562Y414564D01*
X1040561Y414564D01*
X1040556Y414538D01*
X1040551Y414513D01*
X1040545Y414487D01*
X1040540Y414462D01*
X1040534Y414436D01*
X1040532Y414426D01*
X1040533Y414426D01*
X1040532Y414425D01*
X1040492Y413794D01*
X1040458Y413255D01*
X1040424Y412715D01*
X1040390Y412175D01*
X1040355Y411635D01*
X1040321Y411096D01*
X1040287Y410556D01*
X1040262Y410162D01*
X1040262Y410161D01*
X1040804Y405817D01*
X1040804Y405816D01*
X1042077Y402060D01*
X1042077Y402059D01*
X1043971Y398770D01*
X1043972Y398770D01*
X1043972Y398769D01*
X1046440Y395952D01*
X1046441Y395952D01*
X1049436Y393614D01*
X1049437Y393614D01*
X1052911Y391761D01*
X1052912Y391761D01*
X1056819Y390400D01*
X1056820Y390400D01*
X1061112Y389537D01*
X1061112Y389536D01*
X1065742Y389178D01*
X1065747Y389181D01*
G37*
D10*
X261280Y78740D02*
X261283Y78998D01*
X261293Y79255D01*
X261308Y79512D01*
X261331Y79769D01*
X261359Y80025D01*
X261394Y80281D01*
X261435Y80535D01*
X261482Y80788D01*
X261535Y81041D01*
X261595Y81291D01*
X261660Y81540D01*
X261732Y81788D01*
X261810Y82034D01*
X261894Y82277D01*
X261984Y82519D01*
X262079Y82758D01*
X262181Y82995D01*
X262288Y83229D01*
X262401Y83461D01*
X262520Y83690D01*
X262644Y83915D01*
X262774Y84138D01*
X262909Y84357D01*
X263050Y84573D01*
X263195Y84786D01*
X263346Y84995D01*
X263502Y85200D01*
X263663Y85401D01*
X263829Y85598D01*
X264000Y85791D01*
X264175Y85980D01*
X264355Y86165D01*
X264540Y86345D01*
X264729Y86520D01*
X264922Y86691D01*
X265119Y86857D01*
X265320Y87018D01*
X265525Y87174D01*
X265734Y87325D01*
X265947Y87470D01*
X266163Y87611D01*
X266382Y87746D01*
X266605Y87876D01*
X266830Y88000D01*
X267059Y88119D01*
X267291Y88232D01*
X267525Y88339D01*
X267762Y88441D01*
X268001Y88536D01*
X268243Y88626D01*
X268486Y88710D01*
X268732Y88788D01*
X268980Y88860D01*
X269229Y88925D01*
X269479Y88985D01*
X269732Y89038D01*
X269985Y89085D01*
X270239Y89126D01*
X270495Y89161D01*
X270751Y89189D01*
X271008Y89212D01*
X271265Y89227D01*
X271522Y89237D01*
X271780Y89240D01*
X272038Y89237D01*
X272295Y89227D01*
X272552Y89212D01*
X272809Y89189D01*
X273065Y89161D01*
X273321Y89126D01*
X273575Y89085D01*
X273828Y89038D01*
X274081Y88985D01*
X274331Y88925D01*
X274580Y88860D01*
X274828Y88788D01*
X275074Y88710D01*
X275317Y88626D01*
X275559Y88536D01*
X275798Y88441D01*
X276035Y88339D01*
X276269Y88232D01*
X276501Y88119D01*
X276730Y88000D01*
X276955Y87876D01*
X277178Y87746D01*
X277397Y87611D01*
X277613Y87470D01*
X277826Y87325D01*
X278035Y87174D01*
X278240Y87018D01*
X278441Y86857D01*
X278638Y86691D01*
X278831Y86520D01*
X279020Y86345D01*
X279205Y86165D01*
X279385Y85980D01*
X279560Y85791D01*
X279731Y85598D01*
X279897Y85401D01*
X280058Y85200D01*
X280214Y84995D01*
X280365Y84786D01*
X280510Y84573D01*
X280651Y84357D01*
X280786Y84138D01*
X280916Y83915D01*
X281040Y83690D01*
X281159Y83461D01*
X281272Y83229D01*
X281379Y82995D01*
X281481Y82758D01*
X281576Y82519D01*
X281666Y82277D01*
X281750Y82034D01*
X281828Y81788D01*
X281900Y81540D01*
X281965Y81291D01*
X282025Y81041D01*
X282078Y80788D01*
X282125Y80535D01*
X282166Y80281D01*
X282201Y80025D01*
X282229Y79769D01*
X282252Y79512D01*
X282267Y79255D01*
X282277Y78998D01*
X282280Y78740D01*
X282277Y78482D01*
X282267Y78225D01*
X282252Y77968D01*
X282229Y77711D01*
X282201Y77455D01*
X282166Y77199D01*
X282125Y76945D01*
X282078Y76692D01*
X282025Y76439D01*
X281965Y76189D01*
X281900Y75940D01*
X281828Y75692D01*
X281750Y75446D01*
X281666Y75203D01*
X281576Y74961D01*
X281481Y74722D01*
X281379Y74485D01*
X281272Y74251D01*
X281159Y74019D01*
X281040Y73790D01*
X280916Y73565D01*
X280786Y73342D01*
X280651Y73123D01*
X280510Y72907D01*
X280365Y72694D01*
X280214Y72485D01*
X280058Y72280D01*
X279897Y72079D01*
X279731Y71882D01*
X279560Y71689D01*
X279385Y71500D01*
X279205Y71315D01*
X279020Y71135D01*
X278831Y70960D01*
X278638Y70789D01*
X278441Y70623D01*
X278240Y70462D01*
X278035Y70306D01*
X277826Y70155D01*
X277613Y70010D01*
X277397Y69869D01*
X277178Y69734D01*
X276955Y69604D01*
X276730Y69480D01*
X276501Y69361D01*
X276269Y69248D01*
X276035Y69141D01*
X275798Y69039D01*
X275559Y68944D01*
X275317Y68854D01*
X275074Y68770D01*
X274828Y68692D01*
X274580Y68620D01*
X274331Y68555D01*
X274081Y68495D01*
X273828Y68442D01*
X273575Y68395D01*
X273321Y68354D01*
X273065Y68319D01*
X272809Y68291D01*
X272552Y68268D01*
X272295Y68253D01*
X272038Y68243D01*
X271780Y68240D01*
X271522Y68243D01*
X271265Y68253D01*
X271008Y68268D01*
X270751Y68291D01*
X270495Y68319D01*
X270239Y68354D01*
X269985Y68395D01*
X269732Y68442D01*
X269479Y68495D01*
X269229Y68555D01*
X268980Y68620D01*
X268732Y68692D01*
X268486Y68770D01*
X268243Y68854D01*
X268001Y68944D01*
X267762Y69039D01*
X267525Y69141D01*
X267291Y69248D01*
X267059Y69361D01*
X266830Y69480D01*
X266605Y69604D01*
X266382Y69734D01*
X266163Y69869D01*
X265947Y70010D01*
X265734Y70155D01*
X265525Y70306D01*
X265320Y70462D01*
X265119Y70623D01*
X264922Y70789D01*
X264729Y70960D01*
X264540Y71135D01*
X264355Y71315D01*
X264175Y71500D01*
X264000Y71689D01*
X263829Y71882D01*
X263663Y72079D01*
X263502Y72280D01*
X263346Y72485D01*
X263195Y72694D01*
X263050Y72907D01*
X262909Y73123D01*
X262774Y73342D01*
X262644Y73565D01*
X262520Y73790D01*
X262401Y74019D01*
X262288Y74251D01*
X262181Y74485D01*
X262079Y74722D01*
X261984Y74961D01*
X261894Y75203D01*
X261810Y75446D01*
X261732Y75692D01*
X261660Y75940D01*
X261595Y76189D01*
X261535Y76439D01*
X261482Y76692D01*
X261435Y76945D01*
X261394Y77199D01*
X261359Y77455D01*
X261331Y77711D01*
X261308Y77968D01*
X261293Y78225D01*
X261283Y78482D01*
X261280Y78740D01*
X353990Y39370D02*
X353993Y39628D01*
X354003Y39885D01*
X354018Y40142D01*
X354041Y40399D01*
X354069Y40655D01*
X354104Y40911D01*
X354145Y41165D01*
X354192Y41418D01*
X354245Y41671D01*
X354305Y41921D01*
X354370Y42170D01*
X354442Y42418D01*
X354520Y42664D01*
X354604Y42907D01*
X354694Y43149D01*
X354789Y43388D01*
X354891Y43625D01*
X354998Y43859D01*
X355111Y44091D01*
X355230Y44320D01*
X355354Y44545D01*
X355484Y44768D01*
X355619Y44987D01*
X355760Y45203D01*
X355905Y45416D01*
X356056Y45625D01*
X356212Y45830D01*
X356373Y46031D01*
X356539Y46228D01*
X356710Y46421D01*
X356885Y46610D01*
X357065Y46795D01*
X357250Y46975D01*
X357439Y47150D01*
X357632Y47321D01*
X357829Y47487D01*
X358030Y47648D01*
X358235Y47804D01*
X358444Y47955D01*
X358657Y48100D01*
X358873Y48241D01*
X359092Y48376D01*
X359315Y48506D01*
X359540Y48630D01*
X359769Y48749D01*
X360001Y48862D01*
X360235Y48969D01*
X360472Y49071D01*
X360711Y49166D01*
X360953Y49256D01*
X361196Y49340D01*
X361442Y49418D01*
X361690Y49490D01*
X361939Y49555D01*
X362189Y49615D01*
X362442Y49668D01*
X362695Y49715D01*
X362949Y49756D01*
X363205Y49791D01*
X363461Y49819D01*
X363718Y49842D01*
X363975Y49857D01*
X364232Y49867D01*
X364490Y49870D01*
X364748Y49867D01*
X365005Y49857D01*
X365262Y49842D01*
X365519Y49819D01*
X365775Y49791D01*
X366031Y49756D01*
X366285Y49715D01*
X366538Y49668D01*
X366791Y49615D01*
X367041Y49555D01*
X367290Y49490D01*
X367538Y49418D01*
X367784Y49340D01*
X368027Y49256D01*
X368269Y49166D01*
X368508Y49071D01*
X368745Y48969D01*
X368979Y48862D01*
X369211Y48749D01*
X369440Y48630D01*
X369665Y48506D01*
X369888Y48376D01*
X370107Y48241D01*
X370323Y48100D01*
X370536Y47955D01*
X370745Y47804D01*
X370950Y47648D01*
X371151Y47487D01*
X371348Y47321D01*
X371541Y47150D01*
X371730Y46975D01*
X371915Y46795D01*
X372095Y46610D01*
X372270Y46421D01*
X372441Y46228D01*
X372607Y46031D01*
X372768Y45830D01*
X372924Y45625D01*
X373075Y45416D01*
X373220Y45203D01*
X373361Y44987D01*
X373496Y44768D01*
X373626Y44545D01*
X373750Y44320D01*
X373869Y44091D01*
X373982Y43859D01*
X374089Y43625D01*
X374191Y43388D01*
X374286Y43149D01*
X374376Y42907D01*
X374460Y42664D01*
X374538Y42418D01*
X374610Y42170D01*
X374675Y41921D01*
X374735Y41671D01*
X374788Y41418D01*
X374835Y41165D01*
X374876Y40911D01*
X374911Y40655D01*
X374939Y40399D01*
X374962Y40142D01*
X374977Y39885D01*
X374987Y39628D01*
X374990Y39370D01*
X374987Y39112D01*
X374977Y38855D01*
X374962Y38598D01*
X374939Y38341D01*
X374911Y38085D01*
X374876Y37829D01*
X374835Y37575D01*
X374788Y37322D01*
X374735Y37069D01*
X374675Y36819D01*
X374610Y36570D01*
X374538Y36322D01*
X374460Y36076D01*
X374376Y35833D01*
X374286Y35591D01*
X374191Y35352D01*
X374089Y35115D01*
X373982Y34881D01*
X373869Y34649D01*
X373750Y34420D01*
X373626Y34195D01*
X373496Y33972D01*
X373361Y33753D01*
X373220Y33537D01*
X373075Y33324D01*
X372924Y33115D01*
X372768Y32910D01*
X372607Y32709D01*
X372441Y32512D01*
X372270Y32319D01*
X372095Y32130D01*
X371915Y31945D01*
X371730Y31765D01*
X371541Y31590D01*
X371348Y31419D01*
X371151Y31253D01*
X370950Y31092D01*
X370745Y30936D01*
X370536Y30785D01*
X370323Y30640D01*
X370107Y30499D01*
X369888Y30364D01*
X369665Y30234D01*
X369440Y30110D01*
X369211Y29991D01*
X368979Y29878D01*
X368745Y29771D01*
X368508Y29669D01*
X368269Y29574D01*
X368027Y29484D01*
X367784Y29400D01*
X367538Y29322D01*
X367290Y29250D01*
X367041Y29185D01*
X366791Y29125D01*
X366538Y29072D01*
X366285Y29025D01*
X366031Y28984D01*
X365775Y28949D01*
X365519Y28921D01*
X365262Y28898D01*
X365005Y28883D01*
X364748Y28873D01*
X364490Y28870D01*
X364232Y28873D01*
X363975Y28883D01*
X363718Y28898D01*
X363461Y28921D01*
X363205Y28949D01*
X362949Y28984D01*
X362695Y29025D01*
X362442Y29072D01*
X362189Y29125D01*
X361939Y29185D01*
X361690Y29250D01*
X361442Y29322D01*
X361196Y29400D01*
X360953Y29484D01*
X360711Y29574D01*
X360472Y29669D01*
X360235Y29771D01*
X360001Y29878D01*
X359769Y29991D01*
X359540Y30110D01*
X359315Y30234D01*
X359092Y30364D01*
X358873Y30499D01*
X358657Y30640D01*
X358444Y30785D01*
X358235Y30936D01*
X358030Y31092D01*
X357829Y31253D01*
X357632Y31419D01*
X357439Y31590D01*
X357250Y31765D01*
X357065Y31945D01*
X356885Y32130D01*
X356710Y32319D01*
X356539Y32512D01*
X356373Y32709D01*
X356212Y32910D01*
X356056Y33115D01*
X355905Y33324D01*
X355760Y33537D01*
X355619Y33753D01*
X355484Y33972D01*
X355354Y34195D01*
X355230Y34420D01*
X355111Y34649D01*
X354998Y34881D01*
X354891Y35115D01*
X354789Y35352D01*
X354694Y35591D01*
X354604Y35833D01*
X354520Y36076D01*
X354442Y36322D01*
X354370Y36570D01*
X354305Y36819D01*
X354245Y37069D01*
X354192Y37322D01*
X354145Y37575D01*
X354104Y37829D01*
X354069Y38085D01*
X354041Y38341D01*
X354018Y38598D01*
X354003Y38855D01*
X353993Y39112D01*
X353990Y39370D01*
X1052490Y24130D02*
X1052493Y24388D01*
X1052503Y24645D01*
X1052518Y24902D01*
X1052541Y25159D01*
X1052569Y25415D01*
X1052604Y25671D01*
X1052645Y25925D01*
X1052692Y26178D01*
X1052745Y26431D01*
X1052805Y26681D01*
X1052870Y26930D01*
X1052942Y27178D01*
X1053020Y27424D01*
X1053104Y27667D01*
X1053194Y27909D01*
X1053289Y28148D01*
X1053391Y28385D01*
X1053498Y28619D01*
X1053611Y28851D01*
X1053730Y29080D01*
X1053854Y29305D01*
X1053984Y29528D01*
X1054119Y29747D01*
X1054260Y29963D01*
X1054405Y30176D01*
X1054556Y30385D01*
X1054712Y30590D01*
X1054873Y30791D01*
X1055039Y30988D01*
X1055210Y31181D01*
X1055385Y31370D01*
X1055565Y31555D01*
X1055750Y31735D01*
X1055939Y31910D01*
X1056132Y32081D01*
X1056329Y32247D01*
X1056530Y32408D01*
X1056735Y32564D01*
X1056944Y32715D01*
X1057157Y32860D01*
X1057373Y33001D01*
X1057592Y33136D01*
X1057815Y33266D01*
X1058040Y33390D01*
X1058269Y33509D01*
X1058501Y33622D01*
X1058735Y33729D01*
X1058972Y33831D01*
X1059211Y33926D01*
X1059453Y34016D01*
X1059696Y34100D01*
X1059942Y34178D01*
X1060190Y34250D01*
X1060439Y34315D01*
X1060689Y34375D01*
X1060942Y34428D01*
X1061195Y34475D01*
X1061449Y34516D01*
X1061705Y34551D01*
X1061961Y34579D01*
X1062218Y34602D01*
X1062475Y34617D01*
X1062732Y34627D01*
X1062990Y34630D01*
X1063248Y34627D01*
X1063505Y34617D01*
X1063762Y34602D01*
X1064019Y34579D01*
X1064275Y34551D01*
X1064531Y34516D01*
X1064785Y34475D01*
X1065038Y34428D01*
X1065291Y34375D01*
X1065541Y34315D01*
X1065790Y34250D01*
X1066038Y34178D01*
X1066284Y34100D01*
X1066527Y34016D01*
X1066769Y33926D01*
X1067008Y33831D01*
X1067245Y33729D01*
X1067479Y33622D01*
X1067711Y33509D01*
X1067940Y33390D01*
X1068165Y33266D01*
X1068388Y33136D01*
X1068607Y33001D01*
X1068823Y32860D01*
X1069036Y32715D01*
X1069245Y32564D01*
X1069450Y32408D01*
X1069651Y32247D01*
X1069848Y32081D01*
X1070041Y31910D01*
X1070230Y31735D01*
X1070415Y31555D01*
X1070595Y31370D01*
X1070770Y31181D01*
X1070941Y30988D01*
X1071107Y30791D01*
X1071268Y30590D01*
X1071424Y30385D01*
X1071575Y30176D01*
X1071720Y29963D01*
X1071861Y29747D01*
X1071996Y29528D01*
X1072126Y29305D01*
X1072250Y29080D01*
X1072369Y28851D01*
X1072482Y28619D01*
X1072589Y28385D01*
X1072691Y28148D01*
X1072786Y27909D01*
X1072876Y27667D01*
X1072960Y27424D01*
X1073038Y27178D01*
X1073110Y26930D01*
X1073175Y26681D01*
X1073235Y26431D01*
X1073288Y26178D01*
X1073335Y25925D01*
X1073376Y25671D01*
X1073411Y25415D01*
X1073439Y25159D01*
X1073462Y24902D01*
X1073477Y24645D01*
X1073487Y24388D01*
X1073490Y24130D01*
X1073487Y23872D01*
X1073477Y23615D01*
X1073462Y23358D01*
X1073439Y23101D01*
X1073411Y22845D01*
X1073376Y22589D01*
X1073335Y22335D01*
X1073288Y22082D01*
X1073235Y21829D01*
X1073175Y21579D01*
X1073110Y21330D01*
X1073038Y21082D01*
X1072960Y20836D01*
X1072876Y20593D01*
X1072786Y20351D01*
X1072691Y20112D01*
X1072589Y19875D01*
X1072482Y19641D01*
X1072369Y19409D01*
X1072250Y19180D01*
X1072126Y18955D01*
X1071996Y18732D01*
X1071861Y18513D01*
X1071720Y18297D01*
X1071575Y18084D01*
X1071424Y17875D01*
X1071268Y17670D01*
X1071107Y17469D01*
X1070941Y17272D01*
X1070770Y17079D01*
X1070595Y16890D01*
X1070415Y16705D01*
X1070230Y16525D01*
X1070041Y16350D01*
X1069848Y16179D01*
X1069651Y16013D01*
X1069450Y15852D01*
X1069245Y15696D01*
X1069036Y15545D01*
X1068823Y15400D01*
X1068607Y15259D01*
X1068388Y15124D01*
X1068165Y14994D01*
X1067940Y14870D01*
X1067711Y14751D01*
X1067479Y14638D01*
X1067245Y14531D01*
X1067008Y14429D01*
X1066769Y14334D01*
X1066527Y14244D01*
X1066284Y14160D01*
X1066038Y14082D01*
X1065790Y14010D01*
X1065541Y13945D01*
X1065291Y13885D01*
X1065038Y13832D01*
X1064785Y13785D01*
X1064531Y13744D01*
X1064275Y13709D01*
X1064019Y13681D01*
X1063762Y13658D01*
X1063505Y13643D01*
X1063248Y13633D01*
X1062990Y13630D01*
X1062732Y13633D01*
X1062475Y13643D01*
X1062218Y13658D01*
X1061961Y13681D01*
X1061705Y13709D01*
X1061449Y13744D01*
X1061195Y13785D01*
X1060942Y13832D01*
X1060689Y13885D01*
X1060439Y13945D01*
X1060190Y14010D01*
X1059942Y14082D01*
X1059696Y14160D01*
X1059453Y14244D01*
X1059211Y14334D01*
X1058972Y14429D01*
X1058735Y14531D01*
X1058501Y14638D01*
X1058269Y14751D01*
X1058040Y14870D01*
X1057815Y14994D01*
X1057592Y15124D01*
X1057373Y15259D01*
X1057157Y15400D01*
X1056944Y15545D01*
X1056735Y15696D01*
X1056530Y15852D01*
X1056329Y16013D01*
X1056132Y16179D01*
X1055939Y16350D01*
X1055750Y16525D01*
X1055565Y16705D01*
X1055385Y16890D01*
X1055210Y17079D01*
X1055039Y17272D01*
X1054873Y17469D01*
X1054712Y17670D01*
X1054556Y17875D01*
X1054405Y18084D01*
X1054260Y18297D01*
X1054119Y18513D01*
X1053984Y18732D01*
X1053854Y18955D01*
X1053730Y19180D01*
X1053611Y19409D01*
X1053498Y19641D01*
X1053391Y19875D01*
X1053289Y20112D01*
X1053194Y20351D01*
X1053104Y20593D01*
X1053020Y20836D01*
X1052942Y21082D01*
X1052870Y21330D01*
X1052805Y21579D01*
X1052745Y21829D01*
X1052692Y22082D01*
X1052645Y22335D01*
X1052604Y22589D01*
X1052569Y22845D01*
X1052541Y23101D01*
X1052518Y23358D01*
X1052503Y23615D01*
X1052493Y23872D01*
X1052490Y24130D01*
X436540Y546100D02*
X436543Y546358D01*
X436553Y546615D01*
X436568Y546872D01*
X436591Y547129D01*
X436619Y547385D01*
X436654Y547641D01*
X436695Y547895D01*
X436742Y548148D01*
X436795Y548401D01*
X436855Y548651D01*
X436920Y548900D01*
X436992Y549148D01*
X437070Y549394D01*
X437154Y549637D01*
X437244Y549879D01*
X437339Y550118D01*
X437441Y550355D01*
X437548Y550589D01*
X437661Y550821D01*
X437780Y551050D01*
X437904Y551275D01*
X438034Y551498D01*
X438169Y551717D01*
X438310Y551933D01*
X438455Y552146D01*
X438606Y552355D01*
X438762Y552560D01*
X438923Y552761D01*
X439089Y552958D01*
X439260Y553151D01*
X439435Y553340D01*
X439615Y553525D01*
X439800Y553705D01*
X439989Y553880D01*
X440182Y554051D01*
X440379Y554217D01*
X440580Y554378D01*
X440785Y554534D01*
X440994Y554685D01*
X441207Y554830D01*
X441423Y554971D01*
X441642Y555106D01*
X441865Y555236D01*
X442090Y555360D01*
X442319Y555479D01*
X442551Y555592D01*
X442785Y555699D01*
X443022Y555801D01*
X443261Y555896D01*
X443503Y555986D01*
X443746Y556070D01*
X443992Y556148D01*
X444240Y556220D01*
X444489Y556285D01*
X444739Y556345D01*
X444992Y556398D01*
X445245Y556445D01*
X445499Y556486D01*
X445755Y556521D01*
X446011Y556549D01*
X446268Y556572D01*
X446525Y556587D01*
X446782Y556597D01*
X447040Y556600D01*
X447298Y556597D01*
X447555Y556587D01*
X447812Y556572D01*
X448069Y556549D01*
X448325Y556521D01*
X448581Y556486D01*
X448835Y556445D01*
X449088Y556398D01*
X449341Y556345D01*
X449591Y556285D01*
X449840Y556220D01*
X450088Y556148D01*
X450334Y556070D01*
X450577Y555986D01*
X450819Y555896D01*
X451058Y555801D01*
X451295Y555699D01*
X451529Y555592D01*
X451761Y555479D01*
X451990Y555360D01*
X452215Y555236D01*
X452438Y555106D01*
X452657Y554971D01*
X452873Y554830D01*
X453086Y554685D01*
X453295Y554534D01*
X453500Y554378D01*
X453701Y554217D01*
X453898Y554051D01*
X454091Y553880D01*
X454280Y553705D01*
X454465Y553525D01*
X454645Y553340D01*
X454820Y553151D01*
X454991Y552958D01*
X455157Y552761D01*
X455318Y552560D01*
X455474Y552355D01*
X455625Y552146D01*
X455770Y551933D01*
X455911Y551717D01*
X456046Y551498D01*
X456176Y551275D01*
X456300Y551050D01*
X456419Y550821D01*
X456532Y550589D01*
X456639Y550355D01*
X456741Y550118D01*
X456836Y549879D01*
X456926Y549637D01*
X457010Y549394D01*
X457088Y549148D01*
X457160Y548900D01*
X457225Y548651D01*
X457285Y548401D01*
X457338Y548148D01*
X457385Y547895D01*
X457426Y547641D01*
X457461Y547385D01*
X457489Y547129D01*
X457512Y546872D01*
X457527Y546615D01*
X457537Y546358D01*
X457540Y546100D01*
X457537Y545842D01*
X457527Y545585D01*
X457512Y545328D01*
X457489Y545071D01*
X457461Y544815D01*
X457426Y544559D01*
X457385Y544305D01*
X457338Y544052D01*
X457285Y543799D01*
X457225Y543549D01*
X457160Y543300D01*
X457088Y543052D01*
X457010Y542806D01*
X456926Y542563D01*
X456836Y542321D01*
X456741Y542082D01*
X456639Y541845D01*
X456532Y541611D01*
X456419Y541379D01*
X456300Y541150D01*
X456176Y540925D01*
X456046Y540702D01*
X455911Y540483D01*
X455770Y540267D01*
X455625Y540054D01*
X455474Y539845D01*
X455318Y539640D01*
X455157Y539439D01*
X454991Y539242D01*
X454820Y539049D01*
X454645Y538860D01*
X454465Y538675D01*
X454280Y538495D01*
X454091Y538320D01*
X453898Y538149D01*
X453701Y537983D01*
X453500Y537822D01*
X453295Y537666D01*
X453086Y537515D01*
X452873Y537370D01*
X452657Y537229D01*
X452438Y537094D01*
X452215Y536964D01*
X451990Y536840D01*
X451761Y536721D01*
X451529Y536608D01*
X451295Y536501D01*
X451058Y536399D01*
X450819Y536304D01*
X450577Y536214D01*
X450334Y536130D01*
X450088Y536052D01*
X449840Y535980D01*
X449591Y535915D01*
X449341Y535855D01*
X449088Y535802D01*
X448835Y535755D01*
X448581Y535714D01*
X448325Y535679D01*
X448069Y535651D01*
X447812Y535628D01*
X447555Y535613D01*
X447298Y535603D01*
X447040Y535600D01*
X446782Y535603D01*
X446525Y535613D01*
X446268Y535628D01*
X446011Y535651D01*
X445755Y535679D01*
X445499Y535714D01*
X445245Y535755D01*
X444992Y535802D01*
X444739Y535855D01*
X444489Y535915D01*
X444240Y535980D01*
X443992Y536052D01*
X443746Y536130D01*
X443503Y536214D01*
X443261Y536304D01*
X443022Y536399D01*
X442785Y536501D01*
X442551Y536608D01*
X442319Y536721D01*
X442090Y536840D01*
X441865Y536964D01*
X441642Y537094D01*
X441423Y537229D01*
X441207Y537370D01*
X440994Y537515D01*
X440785Y537666D01*
X440580Y537822D01*
X440379Y537983D01*
X440182Y538149D01*
X439989Y538320D01*
X439800Y538495D01*
X439615Y538675D01*
X439435Y538860D01*
X439260Y539049D01*
X439089Y539242D01*
X438923Y539439D01*
X438762Y539640D01*
X438606Y539845D01*
X438455Y540054D01*
X438310Y540267D01*
X438169Y540483D01*
X438034Y540702D01*
X437904Y540925D01*
X437780Y541150D01*
X437661Y541379D01*
X437548Y541611D01*
X437441Y541845D01*
X437339Y542082D01*
X437244Y542321D01*
X437154Y542563D01*
X437070Y542806D01*
X436992Y543052D01*
X436920Y543300D01*
X436855Y543549D01*
X436795Y543799D01*
X436742Y544052D01*
X436695Y544305D01*
X436654Y544559D01*
X436619Y544815D01*
X436591Y545071D01*
X436568Y545328D01*
X436553Y545585D01*
X436543Y545842D01*
X436540Y546100D01*
X590210Y523240D02*
X590213Y523498D01*
X590223Y523755D01*
X590238Y524012D01*
X590261Y524269D01*
X590289Y524525D01*
X590324Y524781D01*
X590365Y525035D01*
X590412Y525288D01*
X590465Y525541D01*
X590525Y525791D01*
X590590Y526040D01*
X590662Y526288D01*
X590740Y526534D01*
X590824Y526777D01*
X590914Y527019D01*
X591009Y527258D01*
X591111Y527495D01*
X591218Y527729D01*
X591331Y527961D01*
X591450Y528190D01*
X591574Y528415D01*
X591704Y528638D01*
X591839Y528857D01*
X591980Y529073D01*
X592125Y529286D01*
X592276Y529495D01*
X592432Y529700D01*
X592593Y529901D01*
X592759Y530098D01*
X592930Y530291D01*
X593105Y530480D01*
X593285Y530665D01*
X593470Y530845D01*
X593659Y531020D01*
X593852Y531191D01*
X594049Y531357D01*
X594250Y531518D01*
X594455Y531674D01*
X594664Y531825D01*
X594877Y531970D01*
X595093Y532111D01*
X595312Y532246D01*
X595535Y532376D01*
X595760Y532500D01*
X595989Y532619D01*
X596221Y532732D01*
X596455Y532839D01*
X596692Y532941D01*
X596931Y533036D01*
X597173Y533126D01*
X597416Y533210D01*
X597662Y533288D01*
X597910Y533360D01*
X598159Y533425D01*
X598409Y533485D01*
X598662Y533538D01*
X598915Y533585D01*
X599169Y533626D01*
X599425Y533661D01*
X599681Y533689D01*
X599938Y533712D01*
X600195Y533727D01*
X600452Y533737D01*
X600710Y533740D01*
X600968Y533737D01*
X601225Y533727D01*
X601482Y533712D01*
X601739Y533689D01*
X601995Y533661D01*
X602251Y533626D01*
X602505Y533585D01*
X602758Y533538D01*
X603011Y533485D01*
X603261Y533425D01*
X603510Y533360D01*
X603758Y533288D01*
X604004Y533210D01*
X604247Y533126D01*
X604489Y533036D01*
X604728Y532941D01*
X604965Y532839D01*
X605199Y532732D01*
X605431Y532619D01*
X605660Y532500D01*
X605885Y532376D01*
X606108Y532246D01*
X606327Y532111D01*
X606543Y531970D01*
X606756Y531825D01*
X606965Y531674D01*
X607170Y531518D01*
X607371Y531357D01*
X607568Y531191D01*
X607761Y531020D01*
X607950Y530845D01*
X608135Y530665D01*
X608315Y530480D01*
X608490Y530291D01*
X608661Y530098D01*
X608827Y529901D01*
X608988Y529700D01*
X609144Y529495D01*
X609295Y529286D01*
X609440Y529073D01*
X609581Y528857D01*
X609716Y528638D01*
X609846Y528415D01*
X609970Y528190D01*
X610089Y527961D01*
X610202Y527729D01*
X610309Y527495D01*
X610411Y527258D01*
X610506Y527019D01*
X610596Y526777D01*
X610680Y526534D01*
X610758Y526288D01*
X610830Y526040D01*
X610895Y525791D01*
X610955Y525541D01*
X611008Y525288D01*
X611055Y525035D01*
X611096Y524781D01*
X611131Y524525D01*
X611159Y524269D01*
X611182Y524012D01*
X611197Y523755D01*
X611207Y523498D01*
X611210Y523240D01*
X611207Y522982D01*
X611197Y522725D01*
X611182Y522468D01*
X611159Y522211D01*
X611131Y521955D01*
X611096Y521699D01*
X611055Y521445D01*
X611008Y521192D01*
X610955Y520939D01*
X610895Y520689D01*
X610830Y520440D01*
X610758Y520192D01*
X610680Y519946D01*
X610596Y519703D01*
X610506Y519461D01*
X610411Y519222D01*
X610309Y518985D01*
X610202Y518751D01*
X610089Y518519D01*
X609970Y518290D01*
X609846Y518065D01*
X609716Y517842D01*
X609581Y517623D01*
X609440Y517407D01*
X609295Y517194D01*
X609144Y516985D01*
X608988Y516780D01*
X608827Y516579D01*
X608661Y516382D01*
X608490Y516189D01*
X608315Y516000D01*
X608135Y515815D01*
X607950Y515635D01*
X607761Y515460D01*
X607568Y515289D01*
X607371Y515123D01*
X607170Y514962D01*
X606965Y514806D01*
X606756Y514655D01*
X606543Y514510D01*
X606327Y514369D01*
X606108Y514234D01*
X605885Y514104D01*
X605660Y513980D01*
X605431Y513861D01*
X605199Y513748D01*
X604965Y513641D01*
X604728Y513539D01*
X604489Y513444D01*
X604247Y513354D01*
X604004Y513270D01*
X603758Y513192D01*
X603510Y513120D01*
X603261Y513055D01*
X603011Y512995D01*
X602758Y512942D01*
X602505Y512895D01*
X602251Y512854D01*
X601995Y512819D01*
X601739Y512791D01*
X601482Y512768D01*
X601225Y512753D01*
X600968Y512743D01*
X600710Y512740D01*
X600452Y512743D01*
X600195Y512753D01*
X599938Y512768D01*
X599681Y512791D01*
X599425Y512819D01*
X599169Y512854D01*
X598915Y512895D01*
X598662Y512942D01*
X598409Y512995D01*
X598159Y513055D01*
X597910Y513120D01*
X597662Y513192D01*
X597416Y513270D01*
X597173Y513354D01*
X596931Y513444D01*
X596692Y513539D01*
X596455Y513641D01*
X596221Y513748D01*
X595989Y513861D01*
X595760Y513980D01*
X595535Y514104D01*
X595312Y514234D01*
X595093Y514369D01*
X594877Y514510D01*
X594664Y514655D01*
X594455Y514806D01*
X594250Y514962D01*
X594049Y515123D01*
X593852Y515289D01*
X593659Y515460D01*
X593470Y515635D01*
X593285Y515815D01*
X593105Y516000D01*
X592930Y516189D01*
X592759Y516382D01*
X592593Y516579D01*
X592432Y516780D01*
X592276Y516985D01*
X592125Y517194D01*
X591980Y517407D01*
X591839Y517623D01*
X591704Y517842D01*
X591574Y518065D01*
X591450Y518290D01*
X591331Y518519D01*
X591218Y518751D01*
X591111Y518985D01*
X591009Y519222D01*
X590914Y519461D01*
X590824Y519703D01*
X590740Y519946D01*
X590662Y520192D01*
X590590Y520440D01*
X590525Y520689D01*
X590465Y520939D01*
X590412Y521192D01*
X590365Y521445D01*
X590324Y521699D01*
X590289Y521955D01*
X590261Y522211D01*
X590238Y522468D01*
X590223Y522725D01*
X590213Y522982D01*
X590210Y523240D01*
X285410Y513080D02*
X285413Y513338D01*
X285423Y513595D01*
X285438Y513852D01*
X285461Y514109D01*
X285489Y514365D01*
X285524Y514621D01*
X285565Y514875D01*
X285612Y515128D01*
X285665Y515381D01*
X285725Y515631D01*
X285790Y515880D01*
X285862Y516128D01*
X285940Y516374D01*
X286024Y516617D01*
X286114Y516859D01*
X286209Y517098D01*
X286311Y517335D01*
X286418Y517569D01*
X286531Y517801D01*
X286650Y518030D01*
X286774Y518255D01*
X286904Y518478D01*
X287039Y518697D01*
X287180Y518913D01*
X287325Y519126D01*
X287476Y519335D01*
X287632Y519540D01*
X287793Y519741D01*
X287959Y519938D01*
X288130Y520131D01*
X288305Y520320D01*
X288485Y520505D01*
X288670Y520685D01*
X288859Y520860D01*
X289052Y521031D01*
X289249Y521197D01*
X289450Y521358D01*
X289655Y521514D01*
X289864Y521665D01*
X290077Y521810D01*
X290293Y521951D01*
X290512Y522086D01*
X290735Y522216D01*
X290960Y522340D01*
X291189Y522459D01*
X291421Y522572D01*
X291655Y522679D01*
X291892Y522781D01*
X292131Y522876D01*
X292373Y522966D01*
X292616Y523050D01*
X292862Y523128D01*
X293110Y523200D01*
X293359Y523265D01*
X293609Y523325D01*
X293862Y523378D01*
X294115Y523425D01*
X294369Y523466D01*
X294625Y523501D01*
X294881Y523529D01*
X295138Y523552D01*
X295395Y523567D01*
X295652Y523577D01*
X295910Y523580D01*
X296168Y523577D01*
X296425Y523567D01*
X296682Y523552D01*
X296939Y523529D01*
X297195Y523501D01*
X297451Y523466D01*
X297705Y523425D01*
X297958Y523378D01*
X298211Y523325D01*
X298461Y523265D01*
X298710Y523200D01*
X298958Y523128D01*
X299204Y523050D01*
X299447Y522966D01*
X299689Y522876D01*
X299928Y522781D01*
X300165Y522679D01*
X300399Y522572D01*
X300631Y522459D01*
X300860Y522340D01*
X301085Y522216D01*
X301308Y522086D01*
X301527Y521951D01*
X301743Y521810D01*
X301956Y521665D01*
X302165Y521514D01*
X302370Y521358D01*
X302571Y521197D01*
X302768Y521031D01*
X302961Y520860D01*
X303150Y520685D01*
X303335Y520505D01*
X303515Y520320D01*
X303690Y520131D01*
X303861Y519938D01*
X304027Y519741D01*
X304188Y519540D01*
X304344Y519335D01*
X304495Y519126D01*
X304640Y518913D01*
X304781Y518697D01*
X304916Y518478D01*
X305046Y518255D01*
X305170Y518030D01*
X305289Y517801D01*
X305402Y517569D01*
X305509Y517335D01*
X305611Y517098D01*
X305706Y516859D01*
X305796Y516617D01*
X305880Y516374D01*
X305958Y516128D01*
X306030Y515880D01*
X306095Y515631D01*
X306155Y515381D01*
X306208Y515128D01*
X306255Y514875D01*
X306296Y514621D01*
X306331Y514365D01*
X306359Y514109D01*
X306382Y513852D01*
X306397Y513595D01*
X306407Y513338D01*
X306410Y513080D01*
X306407Y512822D01*
X306397Y512565D01*
X306382Y512308D01*
X306359Y512051D01*
X306331Y511795D01*
X306296Y511539D01*
X306255Y511285D01*
X306208Y511032D01*
X306155Y510779D01*
X306095Y510529D01*
X306030Y510280D01*
X305958Y510032D01*
X305880Y509786D01*
X305796Y509543D01*
X305706Y509301D01*
X305611Y509062D01*
X305509Y508825D01*
X305402Y508591D01*
X305289Y508359D01*
X305170Y508130D01*
X305046Y507905D01*
X304916Y507682D01*
X304781Y507463D01*
X304640Y507247D01*
X304495Y507034D01*
X304344Y506825D01*
X304188Y506620D01*
X304027Y506419D01*
X303861Y506222D01*
X303690Y506029D01*
X303515Y505840D01*
X303335Y505655D01*
X303150Y505475D01*
X302961Y505300D01*
X302768Y505129D01*
X302571Y504963D01*
X302370Y504802D01*
X302165Y504646D01*
X301956Y504495D01*
X301743Y504350D01*
X301527Y504209D01*
X301308Y504074D01*
X301085Y503944D01*
X300860Y503820D01*
X300631Y503701D01*
X300399Y503588D01*
X300165Y503481D01*
X299928Y503379D01*
X299689Y503284D01*
X299447Y503194D01*
X299204Y503110D01*
X298958Y503032D01*
X298710Y502960D01*
X298461Y502895D01*
X298211Y502835D01*
X297958Y502782D01*
X297705Y502735D01*
X297451Y502694D01*
X297195Y502659D01*
X296939Y502631D01*
X296682Y502608D01*
X296425Y502593D01*
X296168Y502583D01*
X295910Y502580D01*
X295652Y502583D01*
X295395Y502593D01*
X295138Y502608D01*
X294881Y502631D01*
X294625Y502659D01*
X294369Y502694D01*
X294115Y502735D01*
X293862Y502782D01*
X293609Y502835D01*
X293359Y502895D01*
X293110Y502960D01*
X292862Y503032D01*
X292616Y503110D01*
X292373Y503194D01*
X292131Y503284D01*
X291892Y503379D01*
X291655Y503481D01*
X291421Y503588D01*
X291189Y503701D01*
X290960Y503820D01*
X290735Y503944D01*
X290512Y504074D01*
X290293Y504209D01*
X290077Y504350D01*
X289864Y504495D01*
X289655Y504646D01*
X289450Y504802D01*
X289249Y504963D01*
X289052Y505129D01*
X288859Y505300D01*
X288670Y505475D01*
X288485Y505655D01*
X288305Y505840D01*
X288130Y506029D01*
X287959Y506222D01*
X287793Y506419D01*
X287632Y506620D01*
X287476Y506825D01*
X287325Y507034D01*
X287180Y507247D01*
X287039Y507463D01*
X286904Y507682D01*
X286774Y507905D01*
X286650Y508130D01*
X286531Y508359D01*
X286418Y508591D01*
X286311Y508825D01*
X286209Y509062D01*
X286114Y509301D01*
X286024Y509543D01*
X285940Y509786D01*
X285862Y510032D01*
X285790Y510280D01*
X285725Y510529D01*
X285665Y510779D01*
X285612Y511032D01*
X285565Y511285D01*
X285524Y511539D01*
X285489Y511795D01*
X285461Y512051D01*
X285438Y512308D01*
X285423Y512565D01*
X285413Y512822D01*
X285410Y513080D01*
D11*
X1378602Y449418D02*
X1379897Y446385D01*
X1378602Y449418D02*
X1377374Y452488D01*
X1376058Y455515D01*
X1374497Y458419D01*
X1373346Y460061D01*
X1372055Y461565D01*
X1370668Y462987D01*
X1369233Y464384D01*
X1366046Y467551D01*
X1362940Y470555D01*
X1359630Y473332D01*
X1355830Y475817D01*
X1349314Y479331D01*
X1342759Y482569D01*
X1336080Y485542D01*
X1329191Y488260D01*
X1325822Y489527D01*
X1322445Y490798D01*
X1319047Y492007D01*
X1315617Y493093D01*
X1312243Y493968D01*
X1308835Y494700D01*
X1305413Y495376D01*
X1302000Y496080D01*
X1268108Y502372D01*
X1233859Y506165D01*
X1199453Y506963D01*
X1165088Y504268D01*
X1128836Y497614D01*
X1093392Y487747D01*
X1058844Y475039D01*
X1025281Y459861D01*
X1008998Y451534D01*
X992970Y442758D01*
X977181Y433559D01*
X961614Y423961D01*
X953981Y419086D01*
X946385Y414152D01*
X938826Y409161D01*
X931304Y404115D01*
X923824Y398921D01*
X916398Y393633D01*
X908935Y388402D01*
X901345Y383378D01*
X893489Y378904D01*
X885182Y375455D01*
X876477Y373518D01*
X867428Y373581D01*
X858832Y375647D01*
X850772Y379233D01*
X843271Y383961D01*
X836353Y389456D01*
X829703Y395607D01*
X823328Y402053D01*
X817069Y408619D01*
X810770Y415132D01*
X804185Y421673D01*
X797502Y428114D01*
X790719Y434451D01*
X783838Y440680D01*
X755653Y464080D01*
X725892Y485443D01*
X694685Y504630D01*
X662160Y521503D01*
X627569Y536239D01*
X591754Y548249D01*
X555082Y557266D01*
X517919Y563020D01*
X499625Y564725D01*
X481259Y565835D01*
X462869Y566268D01*
X444503Y565941D01*
X428879Y565182D01*
X413236Y564016D01*
X397660Y562236D01*
X382237Y559633D01*
X348459Y551799D01*
X315109Y541898D01*
X282480Y529869D01*
X250864Y515652D01*
X234472Y507279D01*
X218369Y498339D01*
X202714Y488657D01*
X187665Y478058D01*
X181665Y473427D01*
X175746Y468681D01*
X169912Y463829D01*
X164169Y458883D01*
X161184Y456211D01*
X158256Y453487D01*
X155372Y450716D01*
X152520Y447904D01*
X149632Y445125D01*
X146552Y442541D01*
X143205Y440363D01*
X139516Y438799D01*
X134034Y437459D01*
X128377Y436542D01*
X122682Y435800D01*
X117083Y434985D01*
X110320Y433792D01*
X103572Y432520D01*
X96836Y431184D01*
X90109Y429801D01*
X73606Y426317D01*
X57075Y422589D01*
X40662Y418403D01*
X24512Y413548D01*
X21778Y412595D01*
X19070Y411574D01*
X16375Y410518D01*
X13679Y409461D01*
X10770Y408363D01*
X7827Y407176D01*
X5001Y405764D01*
X2447Y403992D01*
X294Y399556D01*
X1287Y394100D01*
X3812Y388606D01*
X6257Y384061D01*
X14297Y369066D01*
X23497Y354534D01*
X33993Y340952D01*
X45916Y328812D01*
X49332Y325991D01*
X52834Y322908D01*
X55630Y319357D01*
X56926Y315130D01*
X56817Y313112D01*
X56327Y311180D01*
X55593Y309310D01*
X54751Y307474D01*
X53341Y304437D01*
X51936Y301396D01*
X50534Y298355D01*
X49131Y295314D01*
X43319Y282724D01*
X40413Y276430D01*
X37507Y270135D01*
X36370Y267694D01*
X35215Y265269D01*
X34031Y262858D01*
X32809Y260461D01*
X32079Y259040D01*
X31627Y257746D01*
X31710Y256508D01*
X32581Y255255D01*
X33994Y254056D01*
X35514Y252942D01*
X37052Y251844D01*
X38519Y250690D01*
X41097Y248453D01*
X43653Y246192D01*
X46189Y243909D01*
X48707Y241605D01*
X55170Y235524D01*
X61491Y229295D01*
X67635Y222893D01*
X73566Y216291D01*
X82966Y204781D01*
X91354Y192417D01*
X97883Y179106D01*
X101708Y164755D01*
X102744Y151737D01*
X102294Y138608D01*
X100714Y125537D01*
X98358Y112690D01*
X96977Y106639D01*
X95413Y100665D01*
X93738Y94723D01*
X92025Y88768D01*
X91363Y85736D01*
X91279Y82707D01*
X92092Y79897D01*
X94118Y77522D01*
X96860Y76084D01*
X99920Y75447D01*
X103095Y75382D01*
X106182Y75659D01*
X117518Y79275D01*
X127080Y86040D01*
X135565Y94518D01*
X143666Y103269D01*
X154417Y113965D01*
X165562Y124257D01*
X177086Y134123D01*
X188970Y143542D01*
X201823Y152934D01*
X215038Y161811D01*
X228584Y170179D01*
X242427Y178040D01*
X245078Y179375D01*
X247829Y180364D01*
X250676Y180725D01*
X253613Y180177D01*
X256187Y178746D01*
X258211Y176638D01*
X259549Y174043D01*
X260067Y171150D01*
X259556Y167587D01*
X258187Y164071D01*
X256431Y160669D01*
X254759Y157449D01*
X252919Y153529D01*
X251130Y149584D01*
X249416Y145606D01*
X247803Y141587D01*
X245022Y133435D01*
X242996Y125127D01*
X241893Y116666D01*
X241878Y108053D01*
X242567Y101356D01*
X243734Y94725D01*
X245387Y88200D01*
X247533Y81819D01*
X252746Y70896D01*
X261116Y59124D01*
X271612Y52057D01*
X283203Y55252D01*
X287377Y60122D01*
X290393Y66074D01*
X292355Y72517D01*
X293368Y78862D01*
X293443Y85539D01*
X292539Y92090D01*
X290867Y98512D01*
X288641Y104804D01*
X286136Y110543D01*
X283458Y116563D01*
X281350Y122723D01*
X280555Y128882D01*
X281019Y131964D01*
X282137Y134889D01*
X283667Y137660D01*
X285368Y140280D01*
X287466Y143342D01*
X289624Y146366D01*
X291828Y149357D01*
X294066Y152317D01*
X304766Y165494D01*
X316179Y178088D01*
X328166Y190146D01*
X340592Y201711D01*
X346754Y207124D01*
X353058Y212371D01*
X359521Y217420D01*
X366159Y222237D01*
X371014Y225638D01*
X376354Y228957D01*
X382036Y231407D01*
X387915Y232202D01*
X393159Y230453D01*
X396585Y226499D01*
X397644Y221397D01*
X395785Y216201D01*
X393987Y214005D01*
X391967Y211948D01*
X389869Y209960D01*
X387837Y207968D01*
X385197Y205211D01*
X382587Y202426D01*
X380006Y199615D01*
X377451Y196779D01*
X367946Y185848D01*
X358711Y174659D01*
X349765Y163237D01*
X341127Y151608D01*
X337200Y146070D01*
X333383Y140456D01*
X329687Y134761D01*
X326124Y128982D01*
X323241Y122917D01*
X321620Y116680D01*
X321017Y110225D01*
X321184Y103503D01*
X322556Y89482D01*
X324857Y75405D01*
X328224Y61563D01*
X332795Y48246D01*
X336424Y40388D01*
X340972Y32986D01*
X346559Y26394D01*
X353307Y20967D01*
X359193Y17845D01*
X365653Y15827D01*
X372306Y15400D01*
X378771Y17053D01*
X386667Y25239D01*
X387569Y36778D01*
X384323Y49079D01*
X379773Y59550D01*
X373482Y70858D01*
X367154Y81956D01*
X362488Y93599D01*
X361178Y106543D01*
X362687Y115125D01*
X365772Y123198D01*
X370063Y130756D01*
X375192Y137794D01*
X381016Y144692D01*
X387144Y151357D01*
X393458Y157853D01*
X399840Y164241D01*
X412713Y176661D01*
X425988Y188656D01*
X439647Y200210D01*
X453674Y211311D01*
X460654Y216552D01*
X467729Y221663D01*
X474898Y226640D01*
X482163Y231478D01*
X487498Y235073D01*
X492956Y238522D01*
X498720Y241254D01*
X504972Y242697D01*
X521080Y243776D01*
X537250Y244027D01*
X553412Y243449D01*
X569495Y242038D01*
X587407Y239430D01*
X605208Y235488D01*
X622537Y229934D01*
X639031Y222489D01*
X644979Y219151D01*
X650757Y215417D01*
X656162Y211189D01*
X660988Y206371D01*
X664711Y200943D01*
X667237Y195083D01*
X669078Y188916D01*
X670747Y182562D01*
X674847Y169821D01*
X680321Y157702D01*
X687532Y146617D01*
X696846Y136977D01*
X720522Y122948D01*
X746815Y116073D01*
X774366Y114124D01*
X801819Y114871D01*
X808956Y114680D01*
X815349Y113088D01*
X820853Y109690D01*
X825322Y104081D01*
X828304Y98605D01*
X831163Y93062D01*
X834026Y87521D01*
X837021Y82052D01*
X844328Y70693D01*
X852637Y60397D01*
X862036Y51093D01*
X872616Y42707D01*
X878188Y38953D01*
X883921Y35487D01*
X889813Y32298D01*
X895864Y29376D01*
X902129Y26577D01*
X908523Y23932D01*
X915033Y21615D01*
X921645Y19801D01*
X928770Y18819D01*
X935949Y19485D01*
X941433Y22803D01*
X943476Y29776D01*
X942218Y37353D01*
X939320Y44768D01*
X935450Y51813D01*
X931276Y58281D01*
X927390Y63707D01*
X923105Y68766D01*
X918299Y73296D01*
X912848Y77135D01*
X907326Y80376D01*
X901818Y83626D01*
X896364Y86964D01*
X891005Y90470D01*
X885115Y94520D01*
X879174Y98898D01*
X873590Y103671D01*
X868769Y108905D01*
X866930Y111798D01*
X865778Y115029D01*
X865626Y118372D01*
X866791Y121601D01*
X868670Y123744D01*
X871059Y125322D01*
X873725Y126488D01*
X876430Y127396D01*
X882415Y129315D01*
X888391Y131270D01*
X894376Y133198D01*
X900384Y135037D01*
X908010Y136968D01*
X915596Y137938D01*
X923152Y137466D01*
X930690Y135072D01*
X943401Y126003D01*
X952847Y113611D01*
X960182Y99494D01*
X966558Y85250D01*
X973298Y71836D01*
X981178Y59046D01*
X990333Y47172D01*
X1000899Y36505D01*
X1007849Y30787D01*
X1015139Y25510D01*
X1022704Y20630D01*
X1030483Y16104D01*
X1037350Y12395D01*
X1044345Y8898D01*
X1051487Y5723D01*
X1058794Y2982D01*
X1066011Y903D01*
X1074181Y-133D01*
X1081492Y1477D01*
X1086135Y7338D01*
X1087002Y13853D01*
X1086027Y20529D01*
X1083873Y27033D01*
X1081203Y33033D01*
X1078219Y38974D01*
X1074977Y44788D01*
X1071420Y50409D01*
X1067494Y55773D01*
X1063148Y60677D01*
X1058397Y65034D01*
X1053278Y68969D01*
X1047830Y72604D01*
X1036786Y79884D01*
X1026181Y87732D01*
X1016187Y96324D01*
X1006978Y105836D01*
X1002591Y111193D01*
X998591Y116844D01*
X995070Y122798D01*
X992118Y129061D01*
X989838Y135442D01*
X988087Y141983D01*
X986757Y148629D01*
X985739Y155328D01*
X984940Y161582D01*
X983998Y167836D01*
X982599Y173978D01*
X980429Y179900D01*
X977242Y185548D01*
X973287Y190686D01*
X968784Y195383D01*
X963953Y199707D01*
X951027Y209741D01*
X937795Y219397D01*
X925112Y229664D01*
X913832Y241531D01*
X910215Y246357D01*
X906864Y251372D01*
X903795Y256563D01*
X901024Y261920D01*
X899651Y264795D01*
X898447Y267841D01*
X897791Y270983D01*
X898059Y274152D01*
X899209Y276708D01*
X901044Y278765D01*
X903394Y280214D01*
X906090Y280943D01*
X909401Y280919D01*
X912786Y280294D01*
X916141Y279391D01*
X919364Y278532D01*
X922766Y277741D01*
X926168Y276949D01*
X929567Y276147D01*
X932962Y275324D01*
X939056Y273852D01*
X945153Y272486D01*
X951284Y271282D01*
X957475Y270296D01*
X965145Y269220D01*
X972815Y268137D01*
X980489Y267089D01*
X988174Y266121D01*
X994893Y265479D01*
X1001623Y265081D01*
X1008361Y264825D01*
X1015107Y264611D01*
X1033413Y264337D01*
X1051644Y264741D01*
X1069850Y265823D01*
X1088079Y267581D01*
X1124887Y273142D01*
X1161211Y281240D01*
X1196922Y291740D01*
X1231892Y304509D01*
X1246772Y310645D01*
X1261503Y317119D01*
X1276042Y324003D01*
X1290350Y331372D01*
X1302225Y337905D01*
X1313727Y344797D01*
X1324742Y352406D01*
X1335154Y361093D01*
X1344402Y369963D01*
X1353244Y379283D01*
X1361414Y389173D01*
X1368646Y399752D01*
X1371700Y404987D01*
X1374534Y410426D01*
X1377001Y416032D01*
X1378955Y421767D01*
X1379747Y424778D01*
X1380398Y427859D01*
X1380853Y430971D01*
X1381056Y434078D01*
X1380957Y437167D01*
X1380635Y440243D01*
X1380234Y443313D01*
X1379897Y446385D01*
X1352689Y441019D02*
X1351311Y443919D01*
X1349827Y446630D01*
X1348076Y449172D01*
X1345899Y451566D01*
X1343468Y453643D01*
X1340868Y455490D01*
X1338157Y457175D01*
X1335397Y458770D01*
X1330307Y461395D01*
X1324993Y463669D01*
X1319549Y465623D01*
X1314066Y467291D01*
X1301756Y470421D01*
X1289354Y472985D01*
X1276860Y475073D01*
X1264272Y476780D01*
X1254176Y478113D01*
X1246433Y479126D01*
X1238668Y479770D01*
X1228507Y479996D01*
X1222296Y478163D01*
X1218887Y473657D01*
X1218615Y467969D01*
X1221816Y462589D01*
X1225057Y459711D01*
X1227137Y458117D01*
X1229224Y456533D01*
X1232487Y453680D01*
X1236733Y449600D01*
X1240805Y445330D01*
X1244665Y440870D01*
X1248276Y436218D01*
X1249159Y434998D01*
X1250027Y433761D01*
X1250868Y432507D01*
X1251670Y431232D01*
X1252317Y429911D01*
X1252733Y428560D01*
X1253020Y427159D01*
X1253279Y425689D01*
X1253803Y422842D01*
X1254851Y417146D01*
X1255375Y414299D01*
X1255918Y411349D01*
X1256461Y408399D01*
X1257004Y405449D01*
X1257547Y402499D01*
X1257797Y401196D01*
X1258055Y399890D01*
X1258299Y398582D01*
X1258509Y397272D01*
X1258583Y395801D01*
X1258431Y394378D01*
X1258132Y392961D01*
X1257765Y391509D01*
X1256156Y385883D01*
X1254230Y380355D01*
X1252042Y374923D01*
X1249645Y369586D01*
X1247378Y365035D01*
X1245474Y361602D01*
X1243563Y358172D01*
X1241274Y353633D01*
X1241215Y348723D01*
X1244483Y343973D01*
X1250082Y341399D01*
X1257016Y343013D01*
X1265470Y347946D01*
X1271367Y351154D01*
X1277258Y354373D01*
X1285692Y359342D01*
X1296012Y365762D01*
X1306195Y372543D01*
X1316032Y379800D01*
X1325310Y387648D01*
X1334361Y396256D01*
X1342874Y405860D01*
X1349568Y416578D01*
X1353160Y428527D01*
X1353411Y431725D01*
X1353365Y434764D01*
X1353098Y437808D01*
X1352689Y441019D01*
D10*
X907710Y41910D02*
X907713Y42168D01*
X907723Y42425D01*
X907738Y42682D01*
X907761Y42939D01*
X907789Y43195D01*
X907824Y43451D01*
X907865Y43705D01*
X907912Y43958D01*
X907965Y44211D01*
X908025Y44461D01*
X908090Y44710D01*
X908162Y44958D01*
X908240Y45204D01*
X908324Y45447D01*
X908414Y45689D01*
X908509Y45928D01*
X908611Y46165D01*
X908718Y46399D01*
X908831Y46631D01*
X908950Y46860D01*
X909074Y47085D01*
X909204Y47308D01*
X909339Y47527D01*
X909480Y47743D01*
X909625Y47956D01*
X909776Y48165D01*
X909932Y48370D01*
X910093Y48571D01*
X910259Y48768D01*
X910430Y48961D01*
X910605Y49150D01*
X910785Y49335D01*
X910970Y49515D01*
X911159Y49690D01*
X911352Y49861D01*
X911549Y50027D01*
X911750Y50188D01*
X911955Y50344D01*
X912164Y50495D01*
X912377Y50640D01*
X912593Y50781D01*
X912812Y50916D01*
X913035Y51046D01*
X913260Y51170D01*
X913489Y51289D01*
X913721Y51402D01*
X913955Y51509D01*
X914192Y51611D01*
X914431Y51706D01*
X914673Y51796D01*
X914916Y51880D01*
X915162Y51958D01*
X915410Y52030D01*
X915659Y52095D01*
X915909Y52155D01*
X916162Y52208D01*
X916415Y52255D01*
X916669Y52296D01*
X916925Y52331D01*
X917181Y52359D01*
X917438Y52382D01*
X917695Y52397D01*
X917952Y52407D01*
X918210Y52410D01*
X918468Y52407D01*
X918725Y52397D01*
X918982Y52382D01*
X919239Y52359D01*
X919495Y52331D01*
X919751Y52296D01*
X920005Y52255D01*
X920258Y52208D01*
X920511Y52155D01*
X920761Y52095D01*
X921010Y52030D01*
X921258Y51958D01*
X921504Y51880D01*
X921747Y51796D01*
X921989Y51706D01*
X922228Y51611D01*
X922465Y51509D01*
X922699Y51402D01*
X922931Y51289D01*
X923160Y51170D01*
X923385Y51046D01*
X923608Y50916D01*
X923827Y50781D01*
X924043Y50640D01*
X924256Y50495D01*
X924465Y50344D01*
X924670Y50188D01*
X924871Y50027D01*
X925068Y49861D01*
X925261Y49690D01*
X925450Y49515D01*
X925635Y49335D01*
X925815Y49150D01*
X925990Y48961D01*
X926161Y48768D01*
X926327Y48571D01*
X926488Y48370D01*
X926644Y48165D01*
X926795Y47956D01*
X926940Y47743D01*
X927081Y47527D01*
X927216Y47308D01*
X927346Y47085D01*
X927470Y46860D01*
X927589Y46631D01*
X927702Y46399D01*
X927809Y46165D01*
X927911Y45928D01*
X928006Y45689D01*
X928096Y45447D01*
X928180Y45204D01*
X928258Y44958D01*
X928330Y44710D01*
X928395Y44461D01*
X928455Y44211D01*
X928508Y43958D01*
X928555Y43705D01*
X928596Y43451D01*
X928631Y43195D01*
X928659Y42939D01*
X928682Y42682D01*
X928697Y42425D01*
X928707Y42168D01*
X928710Y41910D01*
X928707Y41652D01*
X928697Y41395D01*
X928682Y41138D01*
X928659Y40881D01*
X928631Y40625D01*
X928596Y40369D01*
X928555Y40115D01*
X928508Y39862D01*
X928455Y39609D01*
X928395Y39359D01*
X928330Y39110D01*
X928258Y38862D01*
X928180Y38616D01*
X928096Y38373D01*
X928006Y38131D01*
X927911Y37892D01*
X927809Y37655D01*
X927702Y37421D01*
X927589Y37189D01*
X927470Y36960D01*
X927346Y36735D01*
X927216Y36512D01*
X927081Y36293D01*
X926940Y36077D01*
X926795Y35864D01*
X926644Y35655D01*
X926488Y35450D01*
X926327Y35249D01*
X926161Y35052D01*
X925990Y34859D01*
X925815Y34670D01*
X925635Y34485D01*
X925450Y34305D01*
X925261Y34130D01*
X925068Y33959D01*
X924871Y33793D01*
X924670Y33632D01*
X924465Y33476D01*
X924256Y33325D01*
X924043Y33180D01*
X923827Y33039D01*
X923608Y32904D01*
X923385Y32774D01*
X923160Y32650D01*
X922931Y32531D01*
X922699Y32418D01*
X922465Y32311D01*
X922228Y32209D01*
X921989Y32114D01*
X921747Y32024D01*
X921504Y31940D01*
X921258Y31862D01*
X921010Y31790D01*
X920761Y31725D01*
X920511Y31665D01*
X920258Y31612D01*
X920005Y31565D01*
X919751Y31524D01*
X919495Y31489D01*
X919239Y31461D01*
X918982Y31438D01*
X918725Y31423D01*
X918468Y31413D01*
X918210Y31410D01*
X917952Y31413D01*
X917695Y31423D01*
X917438Y31438D01*
X917181Y31461D01*
X916925Y31489D01*
X916669Y31524D01*
X916415Y31565D01*
X916162Y31612D01*
X915909Y31665D01*
X915659Y31725D01*
X915410Y31790D01*
X915162Y31862D01*
X914916Y31940D01*
X914673Y32024D01*
X914431Y32114D01*
X914192Y32209D01*
X913955Y32311D01*
X913721Y32418D01*
X913489Y32531D01*
X913260Y32650D01*
X913035Y32774D01*
X912812Y32904D01*
X912593Y33039D01*
X912377Y33180D01*
X912164Y33325D01*
X911955Y33476D01*
X911750Y33632D01*
X911549Y33793D01*
X911352Y33959D01*
X911159Y34130D01*
X910970Y34305D01*
X910785Y34485D01*
X910605Y34670D01*
X910430Y34859D01*
X910259Y35052D01*
X910093Y35249D01*
X909932Y35450D01*
X909776Y35655D01*
X909625Y35864D01*
X909480Y36077D01*
X909339Y36293D01*
X909204Y36512D01*
X909074Y36735D01*
X908950Y36960D01*
X908831Y37189D01*
X908718Y37421D01*
X908611Y37655D01*
X908509Y37892D01*
X908414Y38131D01*
X908324Y38373D01*
X908240Y38616D01*
X908162Y38862D01*
X908090Y39110D01*
X908025Y39359D01*
X907965Y39609D01*
X907912Y39862D01*
X907865Y40115D01*
X907824Y40369D01*
X907789Y40625D01*
X907761Y40881D01*
X907738Y41138D01*
X907723Y41395D01*
X907713Y41652D01*
X907710Y41910D01*
D12*
X762168Y240044D03*
X762168Y181544D03*
X724068Y240044D03*
X736768Y240044D03*
X749468Y240044D03*
X774868Y240044D03*
X787568Y240044D03*
X800268Y240044D03*
X800268Y181544D03*
X787568Y181544D03*
X774868Y181544D03*
X749468Y181544D03*
X736768Y181544D03*
X724068Y181544D03*
D13*
X688668Y218124D02*
X688668Y226924D01*
X698468Y226924D01*
X698468Y218124D01*
X688668Y218124D01*
X688668Y220214D02*
X698468Y220214D01*
X698468Y222304D02*
X688668Y222304D01*
X688668Y224394D02*
X698468Y224394D01*
X698468Y226484D02*
X688668Y226484D01*
X688668Y209924D02*
X688668Y201124D01*
X688668Y209924D02*
X698468Y209924D01*
X698468Y201124D01*
X688668Y201124D01*
X688668Y203214D02*
X698468Y203214D01*
X698468Y205304D02*
X688668Y205304D01*
X688668Y207394D02*
X698468Y207394D01*
X698468Y209484D02*
X688668Y209484D01*
D14*
X976660Y307674D02*
X972312Y323900D01*
X976660Y307674D02*
X972024Y306432D01*
X967676Y322658D01*
X972312Y323900D01*
X971719Y307572D02*
X976279Y307572D01*
X976382Y308712D02*
X971413Y308712D01*
X971108Y309852D02*
X976076Y309852D01*
X975771Y310992D02*
X970802Y310992D01*
X970497Y312132D02*
X975465Y312132D01*
X975160Y313272D02*
X970191Y313272D01*
X969886Y314412D02*
X974854Y314412D01*
X974549Y315552D02*
X969580Y315552D01*
X969275Y316692D02*
X974243Y316692D01*
X973938Y317832D02*
X968969Y317832D01*
X968664Y318972D02*
X973633Y318972D01*
X973327Y320112D02*
X968358Y320112D01*
X968053Y321252D02*
X973022Y321252D01*
X972716Y322392D02*
X967747Y322392D01*
X970938Y323532D02*
X972411Y323532D01*
X943334Y316136D02*
X947682Y299910D01*
X943046Y298668D01*
X938698Y314894D01*
X943334Y316136D01*
X942741Y299808D02*
X947301Y299808D01*
X947404Y300948D02*
X942435Y300948D01*
X942130Y302088D02*
X947098Y302088D01*
X946793Y303228D02*
X941824Y303228D01*
X941519Y304368D02*
X946487Y304368D01*
X946182Y305508D02*
X941213Y305508D01*
X940908Y306648D02*
X945876Y306648D01*
X945571Y307788D02*
X940602Y307788D01*
X940297Y308928D02*
X945265Y308928D01*
X944960Y310068D02*
X939991Y310068D01*
X939686Y311208D02*
X944655Y311208D01*
X944349Y312348D02*
X939380Y312348D01*
X939075Y313488D02*
X944044Y313488D01*
X943738Y314628D02*
X938769Y314628D01*
X941960Y315768D02*
X943433Y315768D01*
X935259Y346274D02*
X930911Y362500D01*
X935259Y346274D02*
X930623Y345032D01*
X926275Y361258D01*
X930911Y362500D01*
X930318Y346172D02*
X934878Y346172D01*
X934981Y347312D02*
X930012Y347312D01*
X929707Y348452D02*
X934675Y348452D01*
X934370Y349592D02*
X929401Y349592D01*
X929096Y350732D02*
X934064Y350732D01*
X933759Y351872D02*
X928790Y351872D01*
X928485Y353012D02*
X933453Y353012D01*
X933148Y354152D02*
X928179Y354152D01*
X927874Y355292D02*
X932842Y355292D01*
X932537Y356432D02*
X927568Y356432D01*
X927263Y357572D02*
X932232Y357572D01*
X931926Y358712D02*
X926957Y358712D01*
X926652Y359852D02*
X931621Y359852D01*
X931315Y360992D02*
X926346Y360992D01*
X929537Y362132D02*
X931010Y362132D01*
D15*
X950300Y363554D02*
X965000Y308691D01*
X952636Y305378D01*
X937936Y360241D01*
X950300Y363554D01*
X951821Y308418D02*
X963981Y308418D01*
X964259Y311458D02*
X951007Y311458D01*
X950192Y314498D02*
X963444Y314498D01*
X962630Y317538D02*
X949378Y317538D01*
X948563Y320578D02*
X961815Y320578D01*
X961000Y323618D02*
X947749Y323618D01*
X946934Y326658D02*
X960186Y326658D01*
X959371Y329698D02*
X946120Y329698D01*
X945305Y332738D02*
X958557Y332738D01*
X957742Y335778D02*
X944491Y335778D01*
X943676Y338818D02*
X956928Y338818D01*
X956113Y341858D02*
X942862Y341858D01*
X942047Y344898D02*
X955299Y344898D01*
X954484Y347938D02*
X941232Y347938D01*
X940418Y350978D02*
X953670Y350978D01*
X952855Y354018D02*
X939603Y354018D01*
X938789Y357058D02*
X952041Y357058D01*
X951226Y360098D02*
X937974Y360098D01*
X948748Y363138D02*
X950411Y363138D01*
D14*
X959889Y370265D02*
X964237Y354039D01*
X959601Y352797D01*
X955253Y369023D01*
X959889Y370265D01*
X959296Y353937D02*
X963856Y353937D01*
X963959Y355077D02*
X958990Y355077D01*
X958685Y356217D02*
X963653Y356217D01*
X963348Y357357D02*
X958379Y357357D01*
X958074Y358497D02*
X963042Y358497D01*
X962737Y359637D02*
X957768Y359637D01*
X957463Y360777D02*
X962431Y360777D01*
X962126Y361917D02*
X957157Y361917D01*
X956852Y363057D02*
X961820Y363057D01*
X961515Y364197D02*
X956546Y364197D01*
X956241Y365337D02*
X961210Y365337D01*
X960904Y366477D02*
X955935Y366477D01*
X955630Y367617D02*
X960599Y367617D01*
X960293Y368757D02*
X955324Y368757D01*
X958515Y369897D02*
X959988Y369897D01*
D16*
G36*
X991176Y387923D02*
X987035Y403377D01*
X1004420Y408035D01*
X1008561Y392581D01*
X991176Y387923D01*
G37*
G36*
X998423Y360877D02*
X994282Y376331D01*
X1011667Y380989D01*
X1015808Y365535D01*
X998423Y360877D01*
G37*
D13*
X838138Y365637D02*
X835861Y357138D01*
X838138Y365637D02*
X847603Y363100D01*
X845326Y354601D01*
X835861Y357138D01*
X837529Y356691D02*
X845886Y356691D01*
X846446Y358781D02*
X836301Y358781D01*
X836861Y360871D02*
X847006Y360871D01*
X847566Y362961D02*
X837421Y362961D01*
X837981Y365051D02*
X840324Y365051D01*
X833738Y349216D02*
X831461Y340717D01*
X833738Y349216D02*
X843203Y346679D01*
X840926Y338180D01*
X831461Y340717D01*
X833129Y340270D02*
X841486Y340270D01*
X842046Y342360D02*
X831901Y342360D01*
X832461Y344450D02*
X842606Y344450D01*
X843166Y346540D02*
X833021Y346540D01*
X833581Y348630D02*
X835924Y348630D01*
X879374Y312611D02*
X887873Y314888D01*
X879374Y312611D02*
X876837Y322076D01*
X885336Y324353D01*
X887873Y314888D01*
X887175Y314701D02*
X878814Y314701D01*
X878254Y316791D02*
X887363Y316791D01*
X886803Y318881D02*
X877693Y318881D01*
X877133Y320971D02*
X886243Y320971D01*
X885682Y323061D02*
X880514Y323061D01*
X895795Y317011D02*
X904294Y319288D01*
X895795Y317011D02*
X893258Y326476D01*
X901757Y328753D01*
X904294Y319288D01*
X903596Y319101D02*
X895235Y319101D01*
X894675Y321191D02*
X903784Y321191D01*
X903224Y323281D02*
X894114Y323281D01*
X893554Y325371D02*
X902664Y325371D01*
X902103Y327461D02*
X896935Y327461D01*
D17*
X216813Y195055D02*
X199842Y212026D01*
X216813Y195055D02*
X192772Y171014D01*
X175801Y187985D01*
X199842Y212026D01*
X198472Y176714D02*
X187072Y176714D01*
X181372Y182414D02*
X204172Y182414D01*
X209872Y188114D02*
X175930Y188114D01*
X181630Y193814D02*
X215572Y193814D01*
X212354Y199514D02*
X187330Y199514D01*
X193030Y205214D02*
X206654Y205214D01*
X200954Y210914D02*
X198730Y210914D01*
X131960Y279908D02*
X114989Y296879D01*
X131960Y279908D02*
X107919Y255867D01*
X90948Y272838D01*
X114989Y296879D01*
X113619Y261567D02*
X102219Y261567D01*
X96519Y267267D02*
X119319Y267267D01*
X125019Y272967D02*
X91077Y272967D01*
X96777Y278667D02*
X130719Y278667D01*
X127501Y284367D02*
X102477Y284367D01*
X108177Y290067D02*
X121801Y290067D01*
X116101Y295767D02*
X113877Y295767D01*
D18*
G36*
X98639Y370581D02*
X126923Y398865D01*
X141065Y384723D01*
X112781Y356439D01*
X98639Y370581D01*
G37*
G36*
X124039Y345181D02*
X152323Y373465D01*
X166465Y359323D01*
X138181Y331039D01*
X124039Y345181D01*
G37*
D19*
X1045507Y338852D03*
X1038933Y363387D03*
D20*
X711200Y149860D03*
X735330Y138430D03*
X760730Y134620D03*
X788670Y134620D03*
X817880Y138430D03*
D21*
X1227567Y391593D02*
X1243760Y395932D01*
X1229089Y418297D02*
X1212897Y413958D01*
D13*
X1027191Y312871D02*
X1018692Y310594D01*
X1027191Y312871D02*
X1029728Y303406D01*
X1021229Y301129D01*
X1018692Y310594D01*
X1020669Y303219D02*
X1029030Y303219D01*
X1029218Y305309D02*
X1020109Y305309D01*
X1019548Y307399D02*
X1028658Y307399D01*
X1028098Y309489D02*
X1018988Y309489D01*
X1022369Y311579D02*
X1027537Y311579D01*
X1010771Y308471D02*
X1002272Y306194D01*
X1010771Y308471D02*
X1013308Y299006D01*
X1004809Y296729D01*
X1002272Y306194D01*
X1004249Y298819D02*
X1012610Y298819D01*
X1012798Y300909D02*
X1003689Y300909D01*
X1003128Y302999D02*
X1012238Y302999D01*
X1011678Y305089D02*
X1002568Y305089D01*
X1005949Y307179D02*
X1011117Y307179D01*
D22*
G36*
X76777Y378030D02*
X66172Y367425D01*
X57545Y376052D01*
X68150Y386657D01*
X76777Y378030D01*
G37*
G36*
X99935Y401188D02*
X89330Y390583D01*
X80703Y399210D01*
X91308Y409815D01*
X99935Y401188D01*
G37*
D23*
X695000Y225000D02*
X707500Y225000D01*
X708750Y226250D02*
X722500Y240000D01*
X708750Y226250D02*
X707500Y225000D01*
X695000Y225000D02*
X693568Y222524D01*
X722500Y240000D02*
X724068Y240044D01*
X708750Y226250D02*
X735000Y200000D01*
X930767Y353766D02*
X930000Y355000D01*
X927500Y355000D02*
X912500Y355000D01*
X927500Y355000D02*
X930767Y353766D01*
D24*
X735000Y200000D03*
X912500Y355000D03*
D23*
X930000Y355000D02*
X929905Y355832D01*
X929831Y356665D01*
X929778Y357500D01*
X929744Y358337D01*
X929731Y359173D01*
X929738Y360010D01*
X929766Y360847D01*
X929814Y361682D01*
X929882Y362516D01*
X929971Y363349D01*
X930079Y364178D01*
X930208Y365005D01*
X930357Y365829D01*
X930526Y366649D01*
X930715Y367464D01*
X930923Y368274D01*
X931152Y369080D01*
X931399Y369879D01*
X931666Y370672D01*
X931952Y371459D01*
X932258Y372238D01*
X932582Y373010D01*
X932925Y373773D01*
X933286Y374528D01*
X933665Y375274D01*
X934063Y376010D01*
X934478Y376737D01*
X934911Y377453D01*
X935361Y378159D01*
X935828Y378853D01*
X936312Y379536D01*
X936813Y380207D01*
X937329Y380865D01*
X937861Y381511D01*
X938409Y382144D01*
X938972Y382763D01*
X939550Y383368D01*
X940143Y383959D01*
X940750Y384535D01*
X941370Y385097D01*
X942004Y385643D01*
X942651Y386174D01*
X943311Y386689D01*
X943984Y387187D01*
X944668Y387669D01*
X945363Y388135D01*
X946070Y388583D01*
X946787Y389014D01*
X947515Y389427D01*
X948252Y389823D01*
X948999Y390201D01*
X949755Y390560D01*
X950520Y390901D01*
X951292Y391223D01*
X952072Y391526D01*
X952859Y391810D01*
X953653Y392075D01*
X954453Y392321D01*
X955259Y392547D01*
X956070Y392753D01*
X956886Y392940D01*
X957706Y393107D01*
X958530Y393253D01*
X959357Y393380D01*
X960187Y393487D01*
X961020Y393573D01*
X961854Y393639D01*
X962690Y393685D01*
X963526Y393710D01*
X964363Y393715D01*
X965200Y393700D01*
X965200Y393699D02*
X967559Y393655D01*
X969917Y393664D01*
X972275Y393728D01*
X974630Y393846D01*
X976983Y394018D01*
X979330Y394245D01*
X981672Y394525D01*
X984007Y394858D01*
X986333Y395246D01*
X988650Y395686D01*
X990957Y396180D01*
X993251Y396727D01*
X995532Y397326D01*
X997799Y397978D01*
X1002500Y375000D02*
X1005045Y370933D01*
X695000Y205000D02*
X693568Y205524D01*
X930000Y320000D02*
X930000Y335000D01*
D24*
X930000Y320000D03*
D23*
X647700Y304800D02*
X647383Y306232D01*
X647032Y307656D01*
X646648Y309071D01*
X646229Y310477D01*
X645778Y311872D01*
X645293Y313255D01*
X644775Y314627D01*
X644224Y315986D01*
X643641Y317332D01*
X643026Y318663D01*
X642380Y319979D01*
X641702Y321280D01*
X640993Y322564D01*
X640254Y323830D01*
X639485Y325079D01*
X638686Y326308D01*
X637859Y327519D01*
X637002Y328709D01*
X636117Y329878D01*
X635205Y331026D01*
X634265Y332152D01*
X633299Y333255D01*
X632306Y334334D01*
X631288Y335390D01*
X630246Y336421D01*
X629179Y337427D01*
X628088Y338407D01*
X626974Y339360D01*
X625837Y340287D01*
X624679Y341186D01*
X623500Y342057D01*
X622300Y342900D01*
X647701Y304800D02*
X660401Y241300D01*
X660400Y241300D02*
X660625Y240195D01*
X660877Y239096D01*
X661156Y238004D01*
X661462Y236918D01*
X661793Y235841D01*
X662151Y234772D01*
X662535Y233712D01*
X662945Y232661D01*
X663380Y231621D01*
X663840Y230592D01*
X664325Y229574D01*
X664835Y228568D01*
X665369Y227575D01*
X665928Y226596D01*
X666509Y225630D01*
X667115Y224678D01*
X667743Y223742D01*
X668394Y222821D01*
X669067Y221917D01*
X669761Y221029D01*
X670478Y220158D01*
X671215Y219305D01*
X671973Y218470D01*
X672751Y217654D01*
X673548Y216857D01*
X674365Y216080D01*
X675201Y215323D01*
X676054Y214586D01*
X676925Y213870D01*
X677814Y213176D01*
X678719Y212504D01*
X679640Y211854D01*
X680577Y211226D01*
X681529Y210622D01*
X682495Y210041D01*
X683475Y209483D01*
X684468Y208950D01*
X685474Y208441D01*
X686493Y207956D01*
X687522Y207497D01*
X688563Y207063D01*
X689614Y206654D01*
X690674Y206271D01*
X691743Y205914D01*
X692821Y205583D01*
X693907Y205278D01*
X695000Y205000D01*
X622299Y342899D02*
X613471Y348790D01*
X604502Y354464D01*
X595398Y359920D01*
X586164Y365153D01*
X576807Y370161D01*
X567331Y374941D01*
X557741Y379490D01*
X548045Y383805D01*
X538246Y387884D01*
X528352Y391724D01*
X518368Y395323D01*
X508299Y398679D01*
X498152Y401790D01*
X487932Y404655D01*
X477646Y407271D01*
X467300Y409637D01*
X456899Y411751D01*
X446451Y413613D01*
X435960Y415221D01*
X425433Y416575D01*
X414877Y417673D01*
X404297Y418514D01*
X393700Y419099D01*
X393700Y419100D02*
X377110Y419616D01*
X360512Y419734D01*
X343916Y419454D01*
X327332Y418776D01*
X310769Y417702D01*
X294236Y416230D01*
X277743Y414364D01*
X261300Y412102D01*
X244916Y409447D01*
X228600Y406400D01*
X837332Y343698D02*
X905510Y341630D01*
X906789Y341576D01*
X908066Y341492D01*
X909341Y341379D01*
X910613Y341235D01*
X911882Y341062D01*
X913146Y340859D01*
X914405Y340627D01*
X915658Y340365D01*
X916905Y340075D01*
X918144Y339754D01*
X919376Y339405D01*
X920599Y339028D01*
X921813Y338622D01*
X923017Y338187D01*
X924211Y337724D01*
X925394Y337234D01*
X926564Y336716D01*
X927723Y336171D01*
X928868Y335599D01*
X929999Y335000D01*
X951468Y334466D02*
X975360Y335280D01*
X976085Y335314D01*
X976810Y335365D01*
X977533Y335434D01*
X978255Y335520D01*
X978974Y335624D01*
X979690Y335746D01*
X980403Y335885D01*
X981113Y336041D01*
X981819Y336214D01*
X982520Y336405D01*
X983216Y336612D01*
X983907Y336837D01*
X984592Y337078D01*
X985272Y337336D01*
X985944Y337610D01*
X986610Y337900D01*
X987269Y338207D01*
X987920Y338530D01*
X988563Y338868D01*
X989197Y339222D01*
X989823Y339591D01*
X990440Y339976D01*
X991047Y340375D01*
X991644Y340789D01*
X992231Y341217D01*
X992807Y341660D01*
X993372Y342116D01*
X993926Y342586D01*
X994469Y343070D01*
X994999Y343566D01*
X995517Y344075D01*
X996023Y344597D01*
X996516Y345131D01*
X996996Y345676D01*
X997462Y346234D01*
X997915Y346802D01*
X998353Y347381D01*
X998778Y347971D01*
X999187Y348571D01*
X999583Y349181D01*
X999963Y349800D01*
X1000328Y350428D01*
X1000677Y351065D01*
X1001011Y351710D01*
X1001330Y352363D01*
X1001632Y353024D01*
X1001918Y353692D01*
X1002188Y354366D01*
X1002441Y355047D01*
X1002677Y355734D01*
X1002897Y356427D01*
X1003100Y357125D01*
X1003286Y357827D01*
X1003454Y358534D01*
X1003606Y359244D01*
X1003740Y359958D01*
X1003856Y360676D01*
X1003955Y361395D01*
X1004037Y362117D01*
X1004101Y362841D01*
X1004147Y363566D01*
X1004176Y364292D01*
X1004187Y365019D01*
X1004180Y365745D01*
X1004156Y366471D01*
X1004114Y367197D01*
X1004054Y367921D01*
X1003977Y368643D01*
X1003882Y369363D01*
X1003769Y370081D01*
X1003640Y370796D01*
X1003492Y371508D01*
X1003328Y372215D01*
X1003146Y372919D01*
X1002947Y373618D01*
X1002732Y374311D01*
X1002499Y375000D01*
X1005045Y370933D02*
X1038933Y363387D01*
X693568Y205524D02*
X693420Y191770D01*
X693420Y191517D01*
X693426Y191264D01*
X693439Y191011D01*
X693458Y190759D01*
X693482Y190508D01*
X693513Y190257D01*
X693550Y190007D01*
X693593Y189757D01*
X693642Y189509D01*
X693697Y189263D01*
X693758Y189017D01*
X693825Y188773D01*
X693898Y188531D01*
X693977Y188291D01*
X694061Y188053D01*
X694152Y187817D01*
X694247Y187583D01*
X694349Y187351D01*
X694456Y187122D01*
X694569Y186896D01*
X694687Y186672D01*
X694810Y186451D01*
X694939Y186234D01*
X695073Y186019D01*
X695212Y185808D01*
X695357Y185601D01*
X695506Y185397D01*
X695660Y185196D01*
X695819Y185000D01*
X695983Y184807D01*
X696151Y184618D01*
X696324Y184434D01*
X696501Y184253D01*
X696682Y184077D01*
X696868Y183906D01*
X697058Y183739D01*
X697252Y183576D01*
X697450Y183419D01*
X697651Y183266D01*
X697856Y183118D01*
X698065Y182976D01*
X698277Y182838D01*
X698492Y182705D01*
X698711Y182578D01*
X698932Y182456D01*
X699157Y182340D01*
X699384Y182229D01*
X699614Y182123D01*
X699846Y182023D01*
X700081Y181929D01*
X700317Y181840D01*
X700556Y181758D01*
X700797Y181681D01*
X701040Y181609D01*
X701040Y181610D02*
X702019Y181348D01*
X703004Y181109D01*
X703995Y180894D01*
X704990Y180702D01*
X705989Y180533D01*
X706992Y180388D01*
X707998Y180266D01*
X709007Y180168D01*
X710018Y180094D01*
X711030Y180043D01*
X712043Y180017D01*
X713057Y180014D01*
X714070Y180035D01*
X715082Y180079D01*
X716094Y180148D01*
X717103Y180240D01*
X718110Y180356D01*
X719114Y180495D01*
X720114Y180659D01*
X721110Y180845D01*
X722102Y181055D01*
X723088Y181288D01*
X724069Y181544D01*
X724068Y181544D02*
X723900Y162560D01*
X723901Y162375D01*
X723906Y162191D01*
X723916Y162007D01*
X723930Y161823D01*
X723948Y161639D01*
X723972Y161456D01*
X723999Y161273D01*
X724031Y161091D01*
X724068Y160911D01*
X724109Y160731D01*
X724154Y160552D01*
X724203Y160374D01*
X724257Y160197D01*
X724316Y160022D01*
X724378Y159848D01*
X724445Y159676D01*
X724516Y159506D01*
X724591Y159337D01*
X724670Y159171D01*
X724753Y159006D01*
X724840Y158843D01*
X724932Y158683D01*
X725027Y158524D01*
X725126Y158369D01*
X725228Y158215D01*
X725335Y158064D01*
X725445Y157916D01*
X725558Y157771D01*
X725675Y157628D01*
X725796Y157488D01*
X725920Y157352D01*
X726047Y157218D01*
X726178Y157087D01*
X726312Y156960D01*
X726448Y156836D01*
X726588Y156715D01*
X726731Y156598D01*
X726876Y156485D01*
X727024Y156375D01*
X727175Y156268D01*
X727329Y156166D01*
X727484Y156067D01*
X727643Y155972D01*
X727803Y155880D01*
X727966Y155793D01*
X728131Y155710D01*
X728297Y155631D01*
X728466Y155556D01*
X728636Y155485D01*
X728808Y155418D01*
X728982Y155356D01*
X729157Y155297D01*
X729334Y155243D01*
X729512Y155194D01*
X729691Y155149D01*
X729871Y155108D01*
X730051Y155071D01*
X730233Y155039D01*
X730416Y155012D01*
X730599Y154988D01*
X730783Y154970D01*
X730967Y154956D01*
X731151Y154946D01*
X731335Y154941D01*
X731520Y154940D01*
X732049Y154938D01*
X732578Y154924D01*
X733107Y154897D01*
X733634Y154856D01*
X734161Y154803D01*
X734686Y154738D01*
X735209Y154659D01*
X735731Y154568D01*
X736250Y154465D01*
X736766Y154349D01*
X737279Y154220D01*
X737789Y154079D01*
X738296Y153926D01*
X738798Y153760D01*
X739297Y153582D01*
X739791Y153393D01*
X740280Y153191D01*
X740764Y152978D01*
X741243Y152752D01*
X741716Y152516D01*
X742184Y152268D01*
X742645Y152008D01*
X743100Y151738D01*
X743548Y151457D01*
X743989Y151165D01*
X744423Y150862D01*
X744850Y150549D01*
X745269Y150225D01*
X745679Y149892D01*
X746082Y149549D01*
X746476Y149196D01*
X746862Y148833D01*
X747239Y148461D01*
X747606Y148081D01*
X747964Y147691D01*
X748313Y147293D01*
X748652Y146887D01*
X748981Y146473D01*
X749300Y146050D01*
X749299Y146049D02*
X750051Y145053D01*
X750825Y144074D01*
X751622Y143114D01*
X752441Y142172D01*
X753282Y141249D01*
X754144Y140346D01*
X755026Y139464D01*
X755929Y138602D01*
X756852Y137761D01*
X757794Y136942D01*
X758754Y136145D01*
X759733Y135371D01*
X760729Y134619D01*
X930000Y335000D02*
X950000Y335000D01*
X228600Y406400D02*
X225387Y405719D01*
X222192Y404959D01*
X219016Y404122D01*
X215862Y403207D01*
X212731Y402215D01*
X209625Y401147D01*
X206546Y400003D01*
X203496Y398784D01*
X200477Y397491D01*
X197491Y396124D01*
X194538Y394684D01*
X191622Y393173D01*
X188744Y391591D01*
X185906Y389938D01*
X183109Y388217D01*
X180354Y386428D01*
X177645Y384571D01*
X174982Y382649D01*
X172366Y380663D01*
X169800Y378613D01*
X167285Y376501D01*
X164822Y374327D01*
X162414Y372094D01*
X160060Y369803D01*
X157764Y367455D01*
X155526Y365051D01*
X153347Y362594D01*
X151229Y360083D01*
X149173Y357522D01*
X147181Y354911D01*
X145253Y352252D01*
X950000Y335000D02*
X951468Y334466D01*
X885000Y332500D02*
X830000Y332500D01*
X897500Y325000D02*
X898776Y322882D01*
X960000Y360000D02*
X970000Y360000D01*
X960000Y360000D02*
X959745Y361531D01*
D24*
X970000Y360000D03*
X910000Y327500D03*
X752500Y255000D03*
X535000Y350000D03*
X657500Y350000D03*
D23*
X535000Y350000D02*
X519710Y352070D01*
X504373Y353764D01*
X489000Y355084D01*
X473599Y356026D01*
X458180Y356592D01*
X442751Y356781D01*
X427322Y356592D01*
X411903Y356026D01*
X396502Y355084D01*
X381129Y353764D01*
X365792Y352070D01*
X350502Y350000D01*
X752500Y277906D02*
X752500Y255000D01*
X752500Y277907D02*
X752487Y279691D01*
X752429Y281474D01*
X752328Y283255D01*
X752184Y285034D01*
X751996Y286808D01*
X751765Y288577D01*
X751490Y290340D01*
X751172Y292095D01*
X750812Y293843D01*
X750409Y295580D01*
X749963Y297308D01*
X749475Y299024D01*
X748946Y300728D01*
X748375Y302418D01*
X747762Y304094D01*
X747109Y305754D01*
X746416Y307398D01*
X745682Y309024D01*
X744909Y310632D01*
X744096Y312220D01*
X743245Y313788D01*
X742356Y315335D01*
X741429Y316860D01*
X740466Y318361D01*
X739465Y319838D01*
X738429Y321291D01*
X737358Y322717D01*
X736252Y324117D01*
X735112Y325490D01*
X733939Y326834D01*
X732733Y328149D01*
X731496Y329434D01*
X730227Y330689D01*
X728928Y331912D01*
X727600Y333102D01*
X726243Y334260D01*
X724858Y335385D01*
X723445Y336475D01*
X722007Y337530D01*
X720543Y338550D01*
X719054Y339534D01*
X717542Y340481D01*
X716008Y341390D01*
X714451Y342262D01*
X712874Y343095D01*
X711276Y343890D01*
X709660Y344645D01*
X708025Y345361D01*
X706374Y346036D01*
X704707Y346670D01*
X703024Y347264D01*
X703024Y347263D02*
X701029Y347913D01*
X699019Y348514D01*
X696995Y349066D01*
X694959Y349569D01*
X692910Y350022D01*
X690852Y350425D01*
X688784Y350778D01*
X686708Y351081D01*
X684626Y351334D01*
X682538Y351536D01*
X680445Y351687D01*
X678350Y351788D01*
X676253Y351837D01*
X674155Y351836D01*
X672058Y351784D01*
X669963Y351681D01*
X667871Y351527D01*
X665783Y351322D01*
X663701Y351067D01*
X661625Y350762D01*
X659558Y350406D01*
X657500Y350000D01*
X819150Y355600D02*
X819421Y355883D01*
X819700Y356159D01*
X819985Y356429D01*
X820277Y356691D01*
X820575Y356946D01*
X820879Y357194D01*
X821189Y357435D01*
X821504Y357668D01*
X821826Y357893D01*
X822152Y358110D01*
X822484Y358319D01*
X822821Y358521D01*
X823163Y358714D01*
X823509Y358898D01*
X823859Y359074D01*
X824214Y359242D01*
X824573Y359401D01*
X824935Y359551D01*
X825301Y359692D01*
X825671Y359824D01*
X826043Y359948D01*
X826418Y360062D01*
X826796Y360167D01*
X827177Y360263D01*
X827559Y360350D01*
X827944Y360427D01*
X828330Y360495D01*
X828718Y360553D01*
X829108Y360602D01*
X829498Y360642D01*
X829889Y360672D01*
X830281Y360693D01*
X830673Y360704D01*
X831065Y360705D01*
X831458Y360698D01*
X831850Y360680D01*
X819151Y355600D02*
X818925Y355353D01*
X818706Y355101D01*
X818492Y354844D01*
X818285Y354582D01*
X818085Y354314D01*
X817891Y354042D01*
X817704Y353766D01*
X817523Y353484D01*
X817350Y353199D01*
X817183Y352909D01*
X817024Y352616D01*
X816871Y352318D01*
X816726Y352017D01*
X816589Y351713D01*
X816458Y351405D01*
X816336Y351094D01*
X816221Y350781D01*
X816113Y350464D01*
X816014Y350145D01*
X815922Y349824D01*
X815838Y349501D01*
X815761Y349176D01*
X815693Y348848D01*
X815633Y348520D01*
X815581Y348190D01*
X815537Y347859D01*
X815500Y347526D01*
X815472Y347193D01*
X815452Y346860D01*
X815441Y346526D01*
X815437Y346192D01*
X815441Y345858D01*
X815454Y345524D01*
X815475Y345191D01*
X815504Y344858D01*
X815540Y344526D01*
X815585Y344194D01*
X815638Y343865D01*
X815699Y343536D01*
X815768Y343209D01*
X815845Y342884D01*
X815930Y342561D01*
X816023Y342240D01*
X816123Y341921D01*
X816231Y341605D01*
X816347Y341292D01*
X816471Y340981D01*
X816602Y340674D01*
X816740Y340370D01*
X816886Y340069D01*
X817039Y339772D01*
X817199Y339479D01*
X817366Y339189D01*
X817540Y338904D01*
X817721Y338624D01*
X817909Y338347D01*
X818104Y338076D01*
X818305Y337809D01*
X818512Y337547D01*
X818726Y337290D01*
X818946Y337039D01*
X819172Y336793D01*
X819404Y336552D01*
X819642Y336318D01*
X819886Y336089D01*
X820135Y335866D01*
X820389Y335649D01*
X820648Y335439D01*
X820913Y335235D01*
X821182Y335037D01*
X821456Y334846D01*
X821735Y334662D01*
X822018Y334484D01*
X822306Y334314D01*
X822597Y334150D01*
X822892Y333994D01*
X823191Y333845D01*
X823494Y333703D01*
X823800Y333569D01*
X824109Y333442D01*
X824421Y333322D01*
X824736Y333211D01*
X825053Y333107D01*
X825373Y333010D01*
X825695Y332922D01*
X826020Y332841D01*
X826346Y332769D01*
X826674Y332704D01*
X827003Y332647D01*
X827333Y332598D01*
X827665Y332558D01*
X827998Y332525D01*
X828331Y332501D01*
X828664Y332484D01*
X828998Y332476D01*
X829333Y332476D01*
X829667Y332484D01*
X830000Y332500D01*
X885000Y332500D02*
X885340Y332496D01*
X885680Y332484D01*
X886020Y332463D01*
X886359Y332435D01*
X886697Y332398D01*
X887035Y332353D01*
X887371Y332300D01*
X887705Y332239D01*
X888039Y332170D01*
X888370Y332093D01*
X888700Y332008D01*
X889027Y331916D01*
X889352Y331815D01*
X889675Y331707D01*
X889994Y331590D01*
X890311Y331467D01*
X890625Y331335D01*
X890936Y331196D01*
X891243Y331050D01*
X891547Y330897D01*
X891847Y330736D01*
X892142Y330568D01*
X892434Y330393D01*
X892722Y330211D01*
X893005Y330022D01*
X893283Y329826D01*
X893557Y329624D01*
X893825Y329415D01*
X894089Y329200D01*
X894347Y328979D01*
X894600Y328751D01*
X894848Y328517D01*
X895090Y328278D01*
X895326Y328033D01*
X895556Y327782D01*
X895779Y327526D01*
X895997Y327264D01*
X896208Y326998D01*
X896413Y326726D01*
X896612Y326449D01*
X896803Y326168D01*
X896988Y325882D01*
X897166Y325592D01*
X897337Y325298D01*
X897500Y325000D01*
X910000Y327500D01*
X841732Y360119D02*
X831850Y360680D01*
X68580Y361950D02*
X67161Y377041D01*
X68579Y361950D02*
X68608Y361678D01*
X68644Y361407D01*
X68686Y361137D01*
X68734Y360868D01*
X68790Y360600D01*
X68851Y360334D01*
X68919Y360069D01*
X68994Y359806D01*
X69074Y359545D01*
X69161Y359286D01*
X69255Y359029D01*
X69354Y358774D01*
X69460Y358522D01*
X69572Y358273D01*
X69690Y358026D01*
X69814Y357782D01*
X69943Y357541D01*
X70079Y357304D01*
X70220Y357070D01*
X70367Y356839D01*
X70519Y356612D01*
X70677Y356389D01*
X70840Y356170D01*
X71008Y355955D01*
X71182Y355744D01*
X71361Y355537D01*
X71545Y355334D01*
X71733Y355136D01*
X71926Y354943D01*
X72124Y354755D01*
X72327Y354571D01*
X72534Y354392D01*
X72745Y354218D01*
X72960Y354050D01*
X73179Y353887D01*
X73402Y353729D01*
X73629Y353577D01*
X73860Y353430D01*
X74094Y353289D01*
X74331Y353153D01*
X74572Y353024D01*
X74816Y352900D01*
X75063Y352782D01*
X75312Y352670D01*
X75564Y352564D01*
X75819Y352465D01*
X76076Y352371D01*
X76335Y352284D01*
X76596Y352204D01*
X76859Y352129D01*
X77124Y352061D01*
X77390Y352000D01*
X77658Y351944D01*
X77927Y351896D01*
X78197Y351854D01*
X78468Y351818D01*
X78740Y351789D01*
X80542Y351598D01*
X82339Y351362D01*
X84129Y351083D01*
X85912Y350760D01*
X87687Y350393D01*
X89452Y349983D01*
X91207Y349530D01*
X92950Y349035D01*
X94680Y348497D01*
X96397Y347916D01*
X98099Y347294D01*
X99786Y346631D01*
X101455Y345927D01*
X103107Y345182D01*
X104740Y344397D01*
X106354Y343572D01*
X107947Y342708D01*
X109518Y341805D01*
X111067Y340865D01*
X112593Y339886D01*
X114094Y338871D01*
X115570Y337819D01*
X115570Y337820D02*
X127175Y329157D01*
X138607Y320266D01*
X149860Y311150D01*
X150116Y310944D01*
X150377Y310743D01*
X150643Y310549D01*
X150914Y310362D01*
X151188Y310181D01*
X151467Y310007D01*
X151751Y309839D01*
X152038Y309678D01*
X152329Y309524D01*
X152623Y309378D01*
X152921Y309238D01*
X153223Y309106D01*
X153527Y308981D01*
X153834Y308863D01*
X154144Y308753D01*
X154457Y308650D01*
X154772Y308555D01*
X155089Y308467D01*
X155408Y308387D01*
X155729Y308315D01*
X156052Y308250D01*
X156376Y308193D01*
X156701Y308145D01*
X157028Y308103D01*
X157355Y308070D01*
X157683Y308045D01*
X158012Y308027D01*
X158341Y308018D01*
X158670Y308016D01*
X158999Y308023D01*
X159328Y308037D01*
X159656Y308059D01*
X159984Y308089D01*
X160311Y308127D01*
X160636Y308173D01*
X160961Y308226D01*
X161284Y308288D01*
X161606Y308357D01*
X161926Y308434D01*
X162244Y308518D01*
X162560Y308610D01*
X188973Y316338D01*
X215555Y323467D01*
X242290Y329992D01*
X269167Y335911D01*
X296170Y341220D01*
X323287Y345917D01*
X350502Y350000D01*
X972168Y315166D02*
X972500Y315000D01*
X891540Y303530D02*
X882355Y318482D01*
X891540Y303531D02*
X891851Y303038D01*
X892173Y302553D01*
X892507Y302076D01*
X892853Y301608D01*
X893210Y301148D01*
X893578Y300696D01*
X893957Y300254D01*
X894347Y299821D01*
X894747Y299398D01*
X895157Y298984D01*
X895576Y298580D01*
X896006Y298187D01*
X896445Y297805D01*
X896893Y297433D01*
X897350Y297072D01*
X897816Y296722D01*
X898290Y296383D01*
X898772Y296056D01*
X899261Y295741D01*
X899759Y295438D01*
X900263Y295147D01*
X900774Y294868D01*
X901292Y294602D01*
X901817Y294349D01*
X902347Y294108D01*
X902883Y293880D01*
X903424Y293665D01*
X903970Y293463D01*
X904521Y293275D01*
X905077Y293100D01*
X905636Y292938D01*
X906200Y292791D01*
X906766Y292656D01*
X907336Y292536D01*
X907909Y292429D01*
X908484Y292337D01*
X909061Y292258D01*
X909640Y292193D01*
X910220Y292143D01*
X910801Y292106D01*
X911383Y292083D01*
X911965Y292075D01*
X912548Y292081D01*
X913130Y292101D01*
X913130Y292100D02*
X915103Y292168D01*
X917076Y292190D01*
X919050Y292165D01*
X921023Y292094D01*
X922993Y291977D01*
X924961Y291814D01*
X926923Y291605D01*
X928881Y291349D01*
X930832Y291048D01*
X932775Y290701D01*
X934709Y290309D01*
X936634Y289872D01*
X938548Y289389D01*
X940451Y288862D01*
X942340Y288290D01*
X943043Y288077D01*
X943752Y287882D01*
X944465Y287704D01*
X945182Y287544D01*
X945902Y287402D01*
X946626Y287277D01*
X947353Y287169D01*
X948082Y287080D01*
X948814Y287008D01*
X949546Y286955D01*
X950280Y286919D01*
X951015Y286901D01*
X951749Y286901D01*
X952484Y286920D01*
X953218Y286956D01*
X953950Y287010D01*
X954682Y287082D01*
X955411Y287172D01*
X956138Y287279D01*
X956862Y287405D01*
X957582Y287548D01*
X958299Y287709D01*
X959012Y287887D01*
X959720Y288082D01*
X960423Y288295D01*
X961121Y288525D01*
X961813Y288772D01*
X962499Y289036D01*
X963178Y289317D01*
X963850Y289614D01*
X964514Y289927D01*
X965171Y290257D01*
X965819Y290602D01*
X966459Y290964D01*
X967090Y291340D01*
X967711Y291733D01*
X968323Y292140D01*
X968924Y292562D01*
X969515Y292999D01*
X970095Y293450D01*
X970664Y293915D01*
X971221Y294394D01*
X971766Y294886D01*
X972299Y295391D01*
X972820Y295910D01*
X972992Y296091D01*
X973160Y296275D01*
X973324Y296463D01*
X973483Y296656D01*
X973637Y296852D01*
X973787Y297052D01*
X973931Y297255D01*
X974071Y297462D01*
X974206Y297672D01*
X974335Y297885D01*
X974460Y298101D01*
X974579Y298320D01*
X974693Y298542D01*
X974802Y298767D01*
X974905Y298994D01*
X975002Y299224D01*
X975094Y299456D01*
X975181Y299690D01*
X975261Y299926D01*
X975336Y300164D01*
X975405Y300404D01*
X975469Y300645D01*
X975527Y300888D01*
X975578Y301132D01*
X975624Y301377D01*
X975664Y301624D01*
X975698Y301871D01*
X975726Y302119D01*
X975748Y302368D01*
X975764Y302617D01*
X975774Y302866D01*
X975778Y303115D01*
X975776Y303365D01*
X975768Y303614D01*
X975754Y303863D01*
X975734Y304112D01*
X975708Y304360D01*
X975676Y304608D01*
X975638Y304854D01*
X975594Y305100D01*
X975544Y305345D01*
X975488Y305588D01*
X975427Y305830D01*
X975359Y306070D01*
X974455Y309062D01*
X973502Y312039D01*
X972499Y315000D01*
X775000Y182500D02*
X774868Y181544D01*
D24*
X795000Y225000D03*
D23*
X782320Y214630D01*
X781931Y214303D01*
X781549Y213967D01*
X781176Y213621D01*
X780811Y213267D01*
X780455Y212903D01*
X780108Y212532D01*
X779770Y212151D01*
X779442Y211763D01*
X779123Y211366D01*
X778814Y210962D01*
X778515Y210551D01*
X778227Y210132D01*
X777948Y209706D01*
X777680Y209274D01*
X777423Y208835D01*
X777176Y208390D01*
X776941Y207939D01*
X776717Y207483D01*
X776503Y207021D01*
X776302Y206554D01*
X776111Y206082D01*
X775933Y205606D01*
X775766Y205126D01*
X775610Y204641D01*
X775467Y204153D01*
X775336Y203662D01*
X775217Y203167D01*
X775110Y202670D01*
X775015Y202170D01*
X774932Y201668D01*
X774862Y201165D01*
X774804Y200659D01*
X774758Y200153D01*
X774725Y199645D01*
X774704Y199137D01*
X774696Y198628D01*
X774700Y198120D01*
X774699Y198120D02*
X774999Y182500D01*
X103092Y285000D02*
X97500Y285000D01*
X103092Y285000D02*
X111454Y276373D01*
D24*
X97500Y285000D03*
X736600Y368300D03*
D23*
X762000Y330201D02*
X763996Y327128D01*
X765917Y324009D01*
X767762Y320845D01*
X769532Y317638D01*
X771224Y314389D01*
X772837Y311100D01*
X774372Y307773D01*
X775826Y304411D01*
X777199Y301015D01*
X778490Y297587D01*
X779699Y294129D01*
X780825Y290643D01*
X781866Y287131D01*
X782823Y283595D01*
X783696Y280037D01*
X784482Y276459D01*
X785183Y272864D01*
X785797Y269253D01*
X786324Y265628D01*
X786765Y261991D01*
X787118Y258345D01*
X787384Y254691D01*
X787562Y251032D01*
X787652Y247370D01*
X787654Y243707D01*
X787569Y240045D01*
X762000Y330200D02*
X736600Y368300D01*
X800000Y247500D02*
X800000Y242500D01*
X800268Y240044D01*
X800223Y241304D02*
X800000Y247500D01*
X800223Y241304D02*
X800268Y240044D01*
X749300Y381000D02*
X739343Y389126D01*
X729192Y397009D01*
X718854Y404644D01*
X708333Y412026D01*
X697637Y419151D01*
X686772Y426016D01*
X675743Y432615D01*
X664558Y438945D01*
X653223Y445003D01*
X641745Y450784D01*
X630130Y456286D01*
X618385Y461505D01*
X606518Y466438D01*
X594534Y471083D01*
X582442Y475435D01*
X570247Y479494D01*
X557958Y483256D01*
X545582Y486720D01*
X533125Y489883D01*
X520595Y492744D01*
X508000Y495300D01*
X498355Y497017D01*
X488671Y498504D01*
X478955Y499759D01*
X469211Y500782D01*
X459446Y501572D01*
X449665Y502129D01*
X439873Y502453D01*
X430077Y502542D01*
X420281Y502398D01*
X410491Y502021D01*
X400713Y501410D01*
X390953Y500565D01*
X381215Y499489D01*
X371506Y498180D01*
X361831Y496639D01*
X352195Y494869D01*
X342604Y492869D01*
X333064Y490641D01*
X323579Y488185D01*
X314156Y485505D01*
X304800Y482600D01*
X33020Y402591D02*
X32745Y402442D01*
X32473Y402286D01*
X32205Y402123D01*
X31941Y401955D01*
X31682Y401779D01*
X31426Y401598D01*
X31176Y401410D01*
X30930Y401216D01*
X30688Y401016D01*
X30452Y400810D01*
X30221Y400599D01*
X29995Y400382D01*
X29775Y400159D01*
X29560Y399932D01*
X29351Y399699D01*
X29147Y399460D01*
X28949Y399217D01*
X28758Y398970D01*
X28572Y398717D01*
X28393Y398460D01*
X28220Y398199D01*
X28054Y397934D01*
X27894Y397664D01*
X27741Y397391D01*
X27594Y397114D01*
X27455Y396834D01*
X27322Y396550D01*
X27196Y396263D01*
X27077Y395974D01*
X26966Y395681D01*
X26861Y395386D01*
X26764Y395088D01*
X26675Y394788D01*
X26592Y394485D01*
X26517Y394181D01*
X26450Y393875D01*
X26390Y393568D01*
X26338Y393259D01*
X26293Y392949D01*
X26256Y392638D01*
X26226Y392326D01*
X26204Y392014D01*
X26190Y391701D01*
X26183Y391388D01*
X26185Y391075D01*
X26193Y390761D01*
X26210Y390449D01*
X26234Y390136D01*
X26266Y389825D01*
X26305Y389514D01*
X26352Y389204D01*
X26407Y388896D01*
X26469Y388589D01*
X26539Y388284D01*
X26616Y387980D01*
X26700Y387678D01*
X26792Y387379D01*
X26891Y387082D01*
X26998Y386787D01*
X27111Y386495D01*
X27232Y386206D01*
X27360Y385920D01*
X27495Y385638D01*
X27636Y385358D01*
X27785Y385082D01*
X27940Y384810D01*
X31635Y378669D01*
X35463Y372609D01*
X39422Y366634D01*
X43511Y360748D01*
X47728Y354952D01*
X52070Y349250D01*
X223520Y440689D02*
X233241Y446734D01*
X243098Y452553D01*
X253086Y458146D01*
X263199Y463508D01*
X273432Y468637D01*
X283781Y473530D01*
X294238Y478185D01*
X304800Y482599D01*
X749300Y381000D02*
X751962Y378716D01*
X754568Y376369D01*
X757115Y373958D01*
X759602Y371486D01*
X762029Y368953D01*
X764392Y366361D01*
X766691Y363713D01*
X768925Y361009D01*
X771092Y358251D01*
X773190Y355441D01*
X775219Y352580D01*
X777178Y349671D01*
X779064Y346714D01*
X780878Y343712D01*
X782617Y340667D01*
X784281Y337579D01*
X785869Y334452D01*
X787380Y331287D01*
X788814Y328086D01*
X790168Y324851D01*
X791442Y321583D01*
X792637Y318286D01*
X793750Y314960D01*
X793750Y314959D02*
X794686Y311922D01*
X795552Y308863D01*
X796347Y305785D01*
X797070Y302690D01*
X797721Y299578D01*
X798300Y296453D01*
X798806Y293314D01*
X799240Y290165D01*
X799600Y287007D01*
X799886Y283841D01*
X800100Y280669D01*
X800100Y280670D02*
X800454Y272801D01*
X800644Y264927D01*
X800669Y257050D01*
X800528Y249175D01*
X800223Y241304D01*
X57150Y411480D02*
X54870Y410936D01*
X52603Y410338D01*
X50351Y409686D01*
X48115Y408981D01*
X45897Y408223D01*
X43697Y407413D01*
X41517Y406550D01*
X39358Y405636D01*
X37221Y404671D01*
X35108Y403656D01*
X33020Y402590D01*
X57150Y411480D02*
X64541Y413060D01*
X71967Y414463D01*
X79425Y415691D01*
X86909Y416741D01*
X94416Y417614D01*
X101942Y418309D01*
X109482Y418825D01*
X117032Y419162D01*
X124588Y419321D01*
X132145Y419300D01*
X139700Y419100D01*
X143357Y419004D01*
X147014Y418997D01*
X150671Y419078D01*
X154325Y419248D01*
X157973Y419506D01*
X161614Y419852D01*
X165246Y420286D01*
X168866Y420808D01*
X172473Y421418D01*
X176063Y422114D01*
X179636Y422897D01*
X183189Y423767D01*
X186719Y424722D01*
X190226Y425762D01*
X193706Y426887D01*
X197158Y428096D01*
X200580Y429388D01*
X203970Y430762D01*
X207325Y432218D01*
X210644Y433754D01*
X213925Y435371D01*
X217166Y437066D01*
X220365Y438840D01*
X223520Y440690D01*
X52070Y349250D02*
X54147Y346517D01*
X56155Y343733D01*
X58095Y340901D01*
X59965Y338023D01*
X61764Y335100D01*
X63491Y332133D01*
X65146Y329126D01*
X66725Y326078D01*
X68230Y322993D01*
X69659Y319872D01*
X71012Y316717D01*
X72286Y313530D01*
X73482Y310313D01*
X74600Y307067D01*
X75637Y303795D01*
X76594Y300499D01*
X77470Y297180D01*
X77594Y296658D01*
X77706Y296134D01*
X77805Y295606D01*
X77891Y295077D01*
X77964Y294546D01*
X78024Y294013D01*
X78072Y293478D01*
X78106Y292943D01*
X78128Y292407D01*
X78137Y291871D01*
X78133Y291334D01*
X78115Y290798D01*
X78085Y290263D01*
X78042Y289728D01*
X77986Y289195D01*
X77917Y288663D01*
X77835Y288133D01*
X77741Y287605D01*
X77633Y287079D01*
X77513Y286556D01*
X77381Y286037D01*
X77236Y285520D01*
X77078Y285007D01*
X76908Y284499D01*
X76726Y283994D01*
X76532Y283494D01*
X76325Y282999D01*
X76107Y282509D01*
X75877Y282025D01*
X75635Y281546D01*
X75382Y281073D01*
X75118Y280606D01*
X74842Y280146D01*
X74555Y279693D01*
X74257Y279247D01*
X73949Y278808D01*
X73630Y278376D01*
X73301Y277953D01*
X72962Y277537D01*
X72612Y277130D01*
X72253Y276732D01*
X71885Y276342D01*
X71507Y275962D01*
X71120Y275590D01*
X70921Y275399D01*
X70726Y275203D01*
X70537Y275002D01*
X70352Y274797D01*
X70172Y274587D01*
X69998Y274373D01*
X69829Y274154D01*
X69665Y273932D01*
X69506Y273706D01*
X69354Y273476D01*
X69207Y273242D01*
X69065Y273004D01*
X68930Y272764D01*
X68800Y272520D01*
X68677Y272273D01*
X68559Y272023D01*
X68448Y271770D01*
X68343Y271515D01*
X68244Y271257D01*
X68151Y270997D01*
X68065Y270734D01*
X67985Y270470D01*
X67912Y270204D01*
X67845Y269936D01*
X67785Y269666D01*
X67731Y269395D01*
X67684Y269123D01*
X67644Y268850D01*
X67610Y268575D01*
X67583Y268301D01*
X67563Y268025D01*
X67550Y267749D01*
X67543Y267473D01*
X67543Y267197D01*
X67550Y266921D01*
X67563Y266645D01*
X67583Y266369D01*
X67610Y266095D01*
X67644Y265820D01*
X67684Y265547D01*
X67731Y265275D01*
X67785Y265004D01*
X67845Y264734D01*
X67912Y264466D01*
X67985Y264200D01*
X68065Y263936D01*
X68151Y263673D01*
X68244Y263413D01*
X68343Y263155D01*
X68448Y262900D01*
X68559Y262647D01*
X68677Y262397D01*
X68800Y262150D01*
X68930Y261906D01*
X69065Y261666D01*
X69207Y261428D01*
X69354Y261194D01*
X69506Y260964D01*
X69665Y260738D01*
X69829Y260516D01*
X69998Y260297D01*
X70172Y260083D01*
X70352Y259873D01*
X70537Y259668D01*
X70726Y259467D01*
X70921Y259271D01*
X71120Y259080D01*
X75944Y254666D01*
X80869Y250366D01*
X85894Y246184D01*
X91016Y242120D01*
X96232Y238177D01*
X101538Y234358D01*
X106933Y230664D01*
X112413Y227097D01*
X117975Y223660D01*
X123616Y220355D01*
X129333Y217182D01*
X135123Y214145D01*
X140982Y211244D01*
X146908Y208481D01*
X152897Y205858D01*
X158946Y203376D01*
X165051Y201037D01*
X171210Y198841D01*
X177418Y196791D01*
X183673Y194886D01*
X189970Y193129D01*
X196307Y191520D01*
D24*
X740000Y210000D03*
D23*
X750570Y212090D01*
X750570Y212091D02*
X750908Y212162D01*
X751244Y212241D01*
X751579Y212329D01*
X751911Y212424D01*
X752241Y212528D01*
X752568Y212639D01*
X752892Y212759D01*
X753214Y212886D01*
X753532Y213021D01*
X753847Y213164D01*
X754158Y213314D01*
X754465Y213472D01*
X754769Y213637D01*
X755069Y213810D01*
X755364Y213990D01*
X755655Y214177D01*
X755941Y214370D01*
X756222Y214571D01*
X756499Y214779D01*
X756770Y214993D01*
X757036Y215214D01*
X757297Y215441D01*
X757552Y215674D01*
X757801Y215913D01*
X758045Y216159D01*
X758282Y216410D01*
X758513Y216667D01*
X758738Y216930D01*
X758957Y217197D01*
X759169Y217470D01*
X759374Y217749D01*
X759572Y218032D01*
X759764Y218319D01*
X759948Y218612D01*
X760126Y218908D01*
X760296Y219209D01*
X760459Y219514D01*
X760614Y219823D01*
X760762Y220136D01*
X760902Y220452D01*
X761034Y220771D01*
X761159Y221093D01*
X761276Y221419D01*
X761385Y221747D01*
X761486Y222077D01*
X761579Y222410D01*
X761663Y222746D01*
X761740Y223083D01*
X761808Y223421D01*
X761869Y223762D01*
X761920Y224104D01*
X761964Y224447D01*
X761999Y224790D01*
X762171Y226965D01*
X762294Y229143D01*
X762367Y231323D01*
X762391Y233504D01*
X762366Y235686D01*
X762291Y237866D01*
X762168Y240044D01*
X749468Y181544D02*
X749300Y171450D01*
X749299Y171450D02*
X749300Y171352D01*
X749304Y171254D01*
X749312Y171157D01*
X749323Y171060D01*
X749339Y170963D01*
X749358Y170867D01*
X749381Y170772D01*
X749408Y170678D01*
X749438Y170585D01*
X749472Y170494D01*
X749510Y170403D01*
X749551Y170315D01*
X749595Y170228D01*
X749643Y170142D01*
X749694Y170059D01*
X749749Y169978D01*
X749806Y169899D01*
X749867Y169822D01*
X749930Y169748D01*
X749997Y169676D01*
X750066Y169607D01*
X750138Y169540D01*
X750212Y169477D01*
X750289Y169416D01*
X750368Y169359D01*
X750449Y169304D01*
X750532Y169253D01*
X750618Y169205D01*
X750705Y169161D01*
X750793Y169120D01*
X750884Y169082D01*
X750975Y169048D01*
X751068Y169018D01*
X751162Y168991D01*
X751257Y168968D01*
X751353Y168949D01*
X751450Y168933D01*
X751547Y168922D01*
X751644Y168914D01*
X751742Y168910D01*
X751840Y168909D01*
X751840Y168911D02*
X752062Y168912D01*
X752283Y168907D01*
X752504Y168898D01*
X752725Y168883D01*
X752946Y168863D01*
X753165Y168837D01*
X753385Y168806D01*
X753603Y168770D01*
X753821Y168729D01*
X754037Y168683D01*
X754252Y168631D01*
X754466Y168574D01*
X754679Y168512D01*
X754890Y168445D01*
X755099Y168373D01*
X755307Y168296D01*
X755513Y168214D01*
X755716Y168127D01*
X755918Y168035D01*
X756117Y167939D01*
X756314Y167837D01*
X756508Y167731D01*
X756700Y167621D01*
X756889Y167505D01*
X757075Y167385D01*
X757258Y167261D01*
X757438Y167133D01*
X757616Y167000D01*
X757789Y166863D01*
X757960Y166721D01*
X758127Y166576D01*
X758290Y166427D01*
X758450Y166274D01*
X758607Y166117D01*
X758759Y165956D01*
X758907Y165792D01*
X759052Y165624D01*
X759192Y165453D01*
X759328Y165278D01*
X759460Y165101D01*
X759460Y165100D02*
X759745Y164717D01*
X760038Y164341D01*
X760341Y163972D01*
X760652Y163610D01*
X760971Y163255D01*
X761299Y162908D01*
X761635Y162570D01*
X761979Y162239D01*
X762331Y161916D01*
X762690Y161602D01*
X763057Y161296D01*
X763430Y161000D01*
X763811Y160712D01*
X764199Y160433D01*
X764593Y160164D01*
X764993Y159904D01*
X765399Y159654D01*
X765811Y159413D01*
X766229Y159182D01*
X766652Y158961D01*
X767080Y158750D01*
X767682Y158472D01*
X768291Y158207D01*
X768906Y157958D01*
X769526Y157723D01*
X770152Y157503D01*
X770783Y157298D01*
X771419Y157108D01*
X772059Y156933D01*
X772703Y156774D01*
X773351Y156630D01*
X774002Y156502D01*
X774655Y156389D01*
X775312Y156292D01*
X775970Y156210D01*
X775970Y156209D02*
X777879Y155973D01*
X779782Y155691D01*
X781678Y155362D01*
X783565Y154988D01*
X785442Y154568D01*
X787309Y154104D01*
X789164Y153594D01*
X791006Y153039D01*
X792834Y152440D01*
X794647Y151797D01*
X796444Y151111D01*
X798224Y150381D01*
X799985Y149608D01*
X801728Y148793D01*
X803450Y147936D01*
X805151Y147038D01*
X806830Y146099D01*
X808486Y145119D01*
X810117Y144100D01*
X811724Y143042D01*
X813304Y141945D01*
X814858Y140810D01*
X816383Y139638D01*
X817880Y138430D01*
X736600Y167640D02*
X736768Y181544D01*
X736599Y167640D02*
X736600Y167517D01*
X736604Y167395D01*
X736613Y167272D01*
X736625Y167150D01*
X736642Y167029D01*
X736662Y166908D01*
X736686Y166788D01*
X736714Y166669D01*
X736747Y166550D01*
X736782Y166433D01*
X736822Y166317D01*
X736865Y166203D01*
X736913Y166090D01*
X736963Y165978D01*
X737018Y165868D01*
X737076Y165760D01*
X737137Y165654D01*
X737202Y165550D01*
X737270Y165448D01*
X737342Y165349D01*
X737416Y165252D01*
X737494Y165157D01*
X737575Y165065D01*
X737659Y164975D01*
X737745Y164889D01*
X737835Y164805D01*
X737927Y164724D01*
X738022Y164646D01*
X738119Y164572D01*
X738218Y164500D01*
X738320Y164432D01*
X738424Y164367D01*
X738530Y164306D01*
X738638Y164248D01*
X738748Y164193D01*
X738860Y164143D01*
X738973Y164095D01*
X739087Y164052D01*
X739203Y164012D01*
X739320Y163977D01*
X739439Y163944D01*
X739558Y163916D01*
X739678Y163892D01*
X739799Y163872D01*
X739920Y163855D01*
X740042Y163843D01*
X740165Y163834D01*
X740287Y163830D01*
X740410Y163829D01*
X740410Y163831D02*
X740876Y163831D01*
X741342Y163819D01*
X741807Y163797D01*
X742272Y163763D01*
X742736Y163719D01*
X743199Y163663D01*
X743660Y163595D01*
X744119Y163517D01*
X744577Y163428D01*
X745032Y163328D01*
X745485Y163216D01*
X745935Y163094D01*
X746381Y162961D01*
X746825Y162818D01*
X747265Y162664D01*
X747701Y162499D01*
X748132Y162324D01*
X748560Y162138D01*
X748983Y161942D01*
X749401Y161736D01*
X749814Y161520D01*
X750222Y161294D01*
X750624Y161059D01*
X751020Y160813D01*
X751410Y160558D01*
X751795Y160294D01*
X752172Y160021D01*
X752543Y159739D01*
X752907Y159448D01*
X753264Y159148D01*
X753613Y158839D01*
X753955Y158523D01*
X754290Y158198D01*
X754616Y157865D01*
X754934Y157525D01*
X755244Y157177D01*
X755546Y156821D01*
X755838Y156458D01*
X756122Y156089D01*
X756397Y155712D01*
X756663Y155330D01*
X756920Y154940D01*
X757069Y154713D01*
X757224Y154491D01*
X757384Y154272D01*
X757549Y154057D01*
X757720Y153847D01*
X757895Y153640D01*
X758076Y153438D01*
X758261Y153241D01*
X758451Y153048D01*
X758646Y152859D01*
X758846Y152676D01*
X759049Y152497D01*
X759258Y152324D01*
X759470Y152155D01*
X759686Y151992D01*
X759906Y151834D01*
X760130Y151682D01*
X760358Y151535D01*
X760589Y151393D01*
X760824Y151258D01*
X761061Y151128D01*
X761302Y151003D01*
X761546Y150885D01*
X761793Y150773D01*
X762042Y150667D01*
X762294Y150567D01*
X762548Y150473D01*
X762804Y150385D01*
X763063Y150304D01*
X763323Y150229D01*
X763585Y150160D01*
X763849Y150098D01*
X764114Y150042D01*
X764381Y149992D01*
X764648Y149949D01*
X764917Y149913D01*
X765186Y149883D01*
X765456Y149860D01*
X765726Y149843D01*
X765997Y149833D01*
X766268Y149830D01*
X766539Y149833D01*
X766810Y149843D01*
X767080Y149859D01*
X767080Y149860D02*
X767582Y149890D01*
X768083Y149909D01*
X768586Y149915D01*
X769088Y149909D01*
X769590Y149891D01*
X770091Y149861D01*
X770592Y149819D01*
X771091Y149765D01*
X771589Y149698D01*
X772085Y149620D01*
X772579Y149530D01*
X773071Y149428D01*
X773560Y149314D01*
X774046Y149188D01*
X774529Y149051D01*
X775009Y148902D01*
X775485Y148742D01*
X775957Y148570D01*
X776424Y148386D01*
X776888Y148192D01*
X777346Y147986D01*
X777799Y147770D01*
X778247Y147542D01*
X778689Y147304D01*
X779125Y147055D01*
X779555Y146796D01*
X779979Y146527D01*
X780396Y146247D01*
X780807Y145957D01*
X781210Y145658D01*
X781606Y145349D01*
X781994Y145030D01*
X782375Y144702D01*
X782747Y144366D01*
X783111Y144020D01*
X783467Y143665D01*
X783814Y143302D01*
X784153Y142931D01*
X784482Y142552D01*
X784802Y142165D01*
X785113Y141770D01*
X785414Y141368D01*
X785705Y140959D01*
X785986Y140543D01*
X786257Y140120D01*
X786518Y139691D01*
X786768Y139255D01*
X787008Y138814D01*
X787237Y138367D01*
X787456Y137915D01*
X787663Y137457D01*
X787859Y136995D01*
X788044Y136528D01*
X788218Y136057D01*
X788380Y135582D01*
X788531Y135102D01*
X788670Y134620D01*
X1024210Y307000D02*
X1104900Y304800D01*
X1104900Y304801D02*
X1107940Y304755D01*
X1110980Y304782D01*
X1114019Y304884D01*
X1117054Y305059D01*
X1120085Y305308D01*
X1123108Y305630D01*
X1126122Y306026D01*
X1129126Y306494D01*
X1132118Y307036D01*
X1135096Y307649D01*
X1138058Y308335D01*
X1141003Y309093D01*
X1143928Y309921D01*
X1146832Y310821D01*
X1149714Y311791D01*
X1152571Y312830D01*
X1155402Y313938D01*
X1158206Y315115D01*
X1160980Y316359D01*
X1163723Y317670D01*
X1166433Y319048D01*
X1169110Y320491D01*
X1171750Y321998D01*
X1174353Y323569D01*
X1176917Y325203D01*
X1179441Y326898D01*
X1181923Y328654D01*
X1184362Y330470D01*
X1186756Y332344D01*
X1189103Y334276D01*
X1191403Y336265D01*
X1193655Y338308D01*
X1195856Y340406D01*
X1198005Y342556D01*
X1200102Y344758D01*
X1202144Y347010D01*
X1204131Y349311D01*
X1206062Y351660D01*
X1207936Y354054D01*
X1209750Y356494D01*
X1211505Y358977D01*
X1213199Y361501D01*
X1214832Y364066D01*
X1216402Y366670D01*
X1217908Y369311D01*
X1219349Y371988D01*
X1220725Y374699D01*
X1222035Y377443D01*
X1223278Y380218D01*
X1224454Y383022D01*
X1225561Y385853D01*
X1226599Y388711D01*
X1227567Y391593D01*
X119852Y377652D02*
X115536Y377652D01*
X90319Y400199D01*
X985000Y305000D02*
X1005000Y305000D01*
X800000Y205000D02*
X800000Y185000D01*
X1005000Y305000D02*
X1007790Y302600D01*
X800000Y185000D02*
X800268Y181544D01*
D24*
X985000Y305000D03*
X800000Y205000D03*
M02*
