M48
;GenerationSoftware,Autodesk,EAGLE,9.4.2*%
;CreationDate,2019-08-14T12:09:24Z*%
FMAT,2
ICI,OFF
METRIC,TZ,000.000
T5C0.350
T4C0.500
T3C0.813
T2C1.016
T1C2.100
%
G90
M71
T1
X27178Y7874
X36449Y3937
X106299Y2413
X44704Y54610
X60071Y52324
X29591Y51308
X91821Y4191
T2
X71120Y14986
X73533Y13843
X76073Y13462
X78867Y13462
X81788Y13843
T3
X122757Y39159
X122099Y41613
T4
X104551Y33885
X103893Y36339
T5
X73500Y20000
X91250Y35500
X93000Y32000
X97000Y36000
X91000Y32750
X75250Y25500
X53500Y35000
X65750Y35000
X79500Y22500
X9750Y28500
X73660Y36830
X74000Y21000
X98500Y30500
X80000Y20500
M30